<?xml version="1.0" encoding="UTF-8" standalone="no"?>
<svg
   xmlns:dc="http://purl.org/dc/elements/1.1/"
   xmlns:cc="http://creativecommons.org/ns#"
   xmlns:rdf="http://www.w3.org/1999/02/22-rdf-syntax-ns#"
   xmlns:svg="http://www.w3.org/2000/svg"
   xmlns="http://www.w3.org/2000/svg"
   xmlns:sodipodi="http://sodipodi.sourceforge.net/DTD/sodipodi-0.dtd"
   xmlns:inkscape="http://www.inkscape.org/namespaces/inkscape"
   version="1.0"
   width="1280pt"
   height="300pt"
   viewBox="0 0 1280 300"
   preserveAspectRatio="xMidYMid meet"
   id="svg8"
   sodipodi:docname="grass2.svg"
   inkscape:version="0.92.4 (5da689c313, 2019-01-14)">
  <metadata
     id="metadata14">
    <rdf:RDF>
      <cc:Work
         rdf:about="">
        <dc:format>image/svg+xml</dc:format>
        <dc:type
           rdf:resource="http://purl.org/dc/dcmitype/StillImage" />
        <dc:title></dc:title>
      </cc:Work>
    </rdf:RDF>
  </metadata>
  <defs
     id="defs12" />
  <sodipodi:namedview
     pagecolor="#ffffff"
     bordercolor="#666666"
     borderopacity="1"
     objecttolerance="10"
     gridtolerance="10"
     guidetolerance="10"
     inkscape:pageopacity="0"
     inkscape:pageshadow="2"
     inkscape:window-width="1550"
     inkscape:window-height="842"
     id="namedview10"
     showgrid="false"
     inkscape:zoom="0.3328125"
     inkscape:cx="1136.2594"
     inkscape:cy="271.40806"
     inkscape:window-x="0"
     inkscape:window-y="0"
     inkscape:window-maximized="0"
     inkscape:current-layer="g6" />
  <g
     transform="matrix(0.1,0,0,-0.1,0,300)"
     id="g6"
     style="fill:#000000;stroke:none">
    <path
       d="m 6687,2892.3996 c -3,-14.803 -11,-98.9465 -17,-186.9856 -6,-88.0392 -13,-179.9737 -17,-205.6842 -6,-43.63 -7,-45.1882 -20,-27.2688 -13,18.6985 -14,17.9195 -8,-6.2329 4,-13.2448 -2,-56.8748 -11,-97.3883 -17,-68.5614 -18,-70.8987 -25,-41.2927 -3,17.1404 -15,99.7257 -25,183.0901 l -19,151.9259 -5,-132.4482 c -7,-153.484 -23,-201.7886 -106,-308.5263 -45,-57.6539 -64,-69.3405 -64,-39.7345 0,16.3612 -131,431.6253 -135,428.5088 -2,-1.5582 12,-86.4809 31,-189.3229 40,-222.0455 49,-304.6309 36,-331.1205 -8,-16.3612 -11,-11.6866 -16,35.0599 -13,97.3883 -36,222.8245 -71,381.7623 l -35,155.8214 6,-112.9705 c 4,-62.3285 9,-162.0543 13,-222.0455 3,-59.9912 4,-123.878 1,-142.5765 l -5,-34.2807 -18,24.1523 c -17,22.5941 -17,27.2687 -2,90.3764 21,87.2599 15,110.6331 -8,32.7225 -10,-32.7225 -23,-59.9913 -28,-59.9913 -5,0 -9,-8.5702 -9,-18.6985 0,-10.9075 -4,-21.815 -10,-24.1523 -6,-3.1165 -10,10.1283 -10,34.2806 0,34.2807 -36,299.9562 -59,433.1835 -8,42.0718 -9,38.1763 -10,-42.8509 -1,-71.6779 -5,-99.7257 -23,-139.4601 l -23,-50.642 -5,186.9857 -5,186.2065 -18,-132.4481 c -24,-169.0662 -24,-169.0662 -49,-137.1229 -11,13.2449 -36,51.4211 -54,84.9227 -57,100.5048 -36,32.7225 30,-98.1675 20,-39.7344 34,-79.4689 32,-89.5972 -18,-67.7824 -14,-68.5615 -62,17.9194 -24,45.1882 -44,89.5973 -44,99.7256 0,10.1285 -4,16.3613 -9,14.024 -5,-2.3373 -14,11.6866 -21,30.3851 -20,56.0958 -24,34.2807 -5,-26.4896 9,-30.3852 15,-59.2121 12,-64.6658 -3,-5.4538 -6,-1.5582 -6,8.5701 -2,37.3972 -12,9.3493 -21,-58.433 -14,-98.9466 -82,-329.5622 -91,-305.4098 -5,16.3612 -14,114.5287 -25,306.189 -14,227.4992 -30,243.8604 -37,38.9552 -5,-116.0869 -5,-117.6451 -40,-171.4035 -61,-93.4928 -62,-93.4928 -76,-22.594 -20,100.5047 -79,324.1084 -96,361.5056 -8,19.4776 -13,26.4896 -10,15.5821 2,-10.9075 12,-77.9107 21,-149.5885 14,-109.854 15,-137.1229 4,-176.8573 -7,-26.4896 -16,-47.5255 -19,-47.5255 -4,0 -13,44.4091 -20,99.7256 -11,86.4809 -37,243.0814 -44,261.0009 -1,3.1164 -2,-105.1794 -3,-241.5232 v -247.7559 l -38,-52.9794 c -21,-29.606 -39,-52.2001 -41,-50.6418 -2,1.5581 12,52.9792 31,115.3078 19,62.3285 33,116.0869 31,119.2033 -1,3.8955 -13,-18.6985 -26,-50.642 -31,-74.7942 -120,-257.8843 -130,-265.6754 -4,-3.1164 -18,11.6867 -31,32.7225 l -23,38.9553 17,204.9052 c 9,112.9704 19,218.9289 22,236.0694 4,17.1403 3,28.8269 0,26.4896 -3,-2.3373 -17,-50.642 -30,-107.5168 -13,-56.0957 -27,-105.1794 -31,-108.2958 -4,-3.1165 -5,4.6746 -1,17.1403 9,29.6061 -5,544.5958 -14,518.8852 -4,-10.9075 -10,-56.8748 -14,-101.2839 -23,-263.3381 -59,-514.2105 -75,-514.2105 -4,0 -21,22.5941 -39,50.6419 -28,44.4091 -39,81.0271 -77,262.5591 -25,116.0868 -45,214.2543 -45,218.9289 0,4.6747 -2,6.2329 -5,3.8956 -3,-1.5582 -1,-49.0837 5,-104.4004 5,-55.3165 11,-144.1347 14,-197.8931 3,-53.7583 9,-123.0989 12,-153.484 4,-31.1642 4,-56.8748 1,-56.8748 -4,0 -14,13.2448 -23,29.606 -14,27.2688 -19,45.9673 -24,110.6332 l -3,27.2688 -6,-31.1643 -6,-31.1643 -24,52.2001 c -14,28.827 -26,51.4211 -28,49.8629 -2,-1.5582 8,-38.1762 22,-81.8062 24,-75.5734 25,-81.0271 10,-124.6572 -8,-24.9314 -23,-59.212 -32,-75.5733 l -18,-30.3851 -5,54.5374 -5,54.5375 -8,-42.8509 c -4,-23.3732 -11,-63.8867 -15,-89.5972 l -8,-46.7465 -12,50.6419 c -7,28.0479 -35,148.8094 -62,268.7919 -28,119.9825 -52,222.0455 -55,225.9411 -2,4.6746 -1,-21.8151 2,-58.4331 5,-57.6539 2,-73.236 -18,-116.866 l -24,-50.642 -8,50.642 c -4,28.0478 -14,89.5973 -21,136.3437 l -13,85.7018 -2,-180.7528 c -1,-166.7289 -3,-183.8693 -23,-225.9411 l -23,-45.1881 -5,42.8508 -6,42.8509 -7,-62.3285 c -5,-34.2808 -20,-88.8182 -35,-120.7616 l -26,-58.4331 -8,42.851 c -18,100.5048 -42,205.6842 -69,303.0725 -18,62.3286 -27,114.5288 -24,128.5527 4,17.1403 3,21.0359 -3,13.2448 -7,-7.7911 -13,1.5582 -22,35.0598 -25,99.7257 -31,96.6093 -16,-8.5702 10,-70.8987 9,-82.5853 -8,-126.2153 -11,-27.2687 -24,-49.0837 -28,-49.0837 -4,0 -14,15.5821 -20,35.0598 -9,24.9314 -14,31.9434 -18,22.5941 -5,-10.1284 -14,-3.1164 -38,28.8269 -38,50.642 -42,45.1882 -7,-8.5702 l 25,-38.9553 -30,-109.8541 c -39,-142.5765 -49,-172.1826 -59,-166.7288 -5,2.3373 -12,-3.8955 -15,-14.0239 -6,-16.3613 -64,-72.457 -70,-66.2241 -2,0.7791 -8,13.2448 -14,25.7105 -11,21.815 -11,20.2568 -6,-11.6866 5,-28.8269 2,-38.1762 -14,-49.0837 -22,-15.5821 -15,-37.3972 -58,173.7408 -23,114.5287 -23,123.8779 -9,181.5319 21,84.9226 18,106.7376 -5,38.1762 -21,-62.3285 -60,-134.7854 -66,-122.3198 -2,4.6747 -22,44.4091 -44,89.5973 -21,45.1883 -39,77.9108 -39,73.2361 -1,-3.8955 12,-49.8629 29,-101.2839 34,-105.1794 34,-110.6332 16,-129.3318 -12,-12.4656 -16,-10.1283 -40,24.9315 -26,37.3971 -27,44.4091 -26,138.681 3,180.7528 0,377.8669 -5,373.9714 -3,-1.5583 -14,-87.2601 -25,-189.323 -12,-102.8422 -22,-187.7648 -24,-188.5439 -2,-1.5582 -11,12.4657 -22,30.3851 -10,18.6986 -21,35.0598 -24,37.3971 -3,2.3373 -16,22.5942 -29,44.4091 -14,22.5942 -26,39.7345 -28,38.9554 -2,-1.5582 12,-35.0598 29,-74.0152 22,-47.5255 30,-73.236 23,-78.6897 -7,-5.4538 -33,37.3971 -79,127.7735 -38,74.7942 -71,135.5646 -72,134.0064 -1,-0.7792 23,-73.2361 55,-161.2752 l 57,-159.7169 -6,-140.2392 c -3,-77.1316 -7,-121.5407 -8,-98.1675 -3,57.6539 -16,42.8509 -22,-24.9314 l -5,-56.0957 -32,58.433 c -38,68.5614 -44,54.5374 -9,-21.0358 31,-67.0033 10,-45.9674 -50,48.3046 -44,70.8987 -53,77.1316 -34,27.2686 6,-14.8029 13,-39.7344 16,-54.5374 3,-14.803 7,-32.7225 10,-38.9553 7,-16.3613 -5,-4.6747 -60,55.3166 l -46,52.2001 30,107.5168 c 17,59.9913 33,116.0869 35,126.2153 3,9.3493 3,17.1403 0,17.1403 -2,0 -14,-26.4896 -26,-58.433 -12,-31.9433 -24,-56.8748 -27,-55.3166 -2,2.3374 6,62.3286 18,133.2273 12,71.6778 20,131.6691 17,133.2273 -2,1.5582 -12,-27.2687 -23,-64.6659 l -19,-68.5614 -6,54.5375 c -4,30.3852 -8,98.1675 -9,151.9259 -3,99.7256 -15,232.9529 -18,190.102 -8,-107.5168 -33,-378.6459 -38,-400.4609 l -6,-27.2688 -14,28.827 c -14,31.1643 -66,95.051 -161,197.8931 -32,35.0598 -64,70.1196 -71,77.9107 -7,8.5702 11,-20.2567 39,-63.1076 164,-243.0813 168,-253.2097 149,-389.5535 -6,-46.7464 -15,-99.7256 -20,-116.866 -5,-17.1403 -15,-52.2001 -21,-77.9107 l -12,-46.7464 -68,158.1587 c -68,158.1587 -68,158.1587 -63,229.8366 l 4,71.6778 -19,-70.1197 c -11,-38.1762 -28,-85.7017 -37,-105.1794 -24,-49.0837 -74,-126.9944 -80,-122.3198 -2,1.5583 -11,34.2807 -20,71.6779 -8,37.3972 -33,111.4122 -55,165.1706 -21,52.9793 -39,102.8421 -39,111.4123 0,7.791 -3,16.3613 -8,18.6986 -4,1.5582 -6,-10.9076 -4,-28.827 4,-31.9434 3,-31.9434 -12,-15.5821 -9,9.3493 -35,42.8508 -58,74.0151 -22,31.1643 -59,77.9108 -81,103.6213 -22,25.7105 -53,67.0031 -69,91.9345 -16,24.1524 -31,44.4091 -33,44.4091 -6,0 21,-56.8747 45,-92.7136 27,-42.0718 20,-49.8629 -10,-12.4658 -12,15.5822 -25,26.4896 -27,24.1523 -3,-2.3373 16,-30.3851 42,-63.1076 35,-44.4091 45,-63.8868 41,-77.9107 -4,-10.9075 -10,-19.4777 -14,-19.4777 -4,0 -24,16.3613 -44,37.3972 -20,20.2568 -55,55.3166 -77,78.6897 -27,26.4897 -41,49.8629 -42,66.2242 -1,23.3732 -1,23.3732 -9,4.6746 -4,-10.9076 -8,-15.5822 -9,-10.9076 -1,3.8957 -8,14.8031 -16,23.3733 -14,14.0239 -14,13.2448 -4,-8.5702 5,-12.4657 15,-27.2687 20,-31.9433 12,-10.9076 28,-232.9531 29,-382.5415 0,-85.7018 -3,-109.075 -21,-145.6931 -41,-83.3644 -48,-58.433 -50,174.5201 0,100.5047 -4,201.0095 -9,222.0453 l -7,38.9554 -2,-51.4211 c -1,-55.3165 -18,-204.126 -27,-248.5351 -6,-27.2687 -6,-26.4896 -35,31.1643 -24,48.3046 -29,70.1196 -30,132.4482 -1,72.457 -16,144.1348 -18,89.5973 -2,-35.8389 -13,-81.8062 -20,-81.8062 -9,0.7791 -67,112.9705 -102,200.2305 -18,44.4091 -34,78.6897 -36,77.1316 -2,-0.7792 8,-45.9674 21,-98.9467 33,-127.7735 59,-272.6874 54,-296.0606 l -4,-18.6986 -11,19.4778 c -7,10.9074 -49,91.9346 -94,181.5319 -45,88.8182 -85,163.6124 -89,165.1706 -4,2.3373 6,-28.827 22,-68.5614 36,-88.0391 118,-337.3533 118,-358.3892 0,-22.5941 -101,-126.2153 -111,-112.9704 -4,5.4536 -38,79.4689 -75,163.6124 -38,84.9226 -69,152.7049 -72,151.1467 -2,-1.5582 20,-84.1435 49,-183.8692 51,-178.4155 54,-200.2305 22,-208.0215 -6,-1.5583 -15,7.0119 -22,18.6985 -18,35.8389 -105,280.4786 -127,356.8309 l -13,46.7465 5,-54.5375 c 2,-29.6061 12,-86.4809 20,-125.4362 9,-38.9553 14,-82.5854 12,-97.3883 l -3,-26.4897 -36,38.9553 c -49,52.2002 -59,84.1436 -59,195.5559 0,173.7408 -14,429.2879 -21,396.5654 -4,-17.1404 -13,-100.5048 -19,-185.4274 -7,-84.9227 -17,-155.8215 -22,-158.1588 -4,-2.3373 -8,-0.7791 -8,3.1165 0,3.1164 -18,25.7105 -40,48.3046 -30,31.1643 -40,49.8629 -41,73.236 l -2,31.9434 -6,-26.4896 -6,-25.7105 -40,43.63 c -68,75.5734 -66,73.2361 -56,50.6419 5,-10.9075 28,-44.4091 51,-73.236 l 42,-53.7584 -12,-101.2839 c -12,-91.9347 -14,-99.7257 -28,-85.7018 -14,14.8031 -15,14.8031 -7,-0.779 14,-26.4897 16,-68.5615 7,-112.9706 l -9,-42.8509 -20,35.0598 c -18,31.9435 -20,49.0837 -17,214.2545 l 3,179.1945 -24,-132.4481 c -13,-72.457 -24,-134.0064 -25,-136.3438 -1,-2.3373 -8,8.5702 -15,23.3732 -7,14.8031 -14,62.3286 -15,105.1795 l -2,77.9107 -14,-54.5375 c -7,-29.606 -13,-70.1197 -13,-88.8182 -1,-18.6986 -4,-31.9434 -9,-28.827 -4,3.1165 -24,53.7584 -44,112.1915 -20,58.433 -37,100.5048 -37,93.4928 -1,-7.012 13,-81.0272 29,-163.6125 17,-82.5853 29,-164.3915 28,-181.5319 -3,-29.606 -5,-27.2687 -47,54.5375 -24,47.5255 -46,100.5048 -48,119.2034 -3,17.9194 -10,32.7224 -15,32.7224 -5,0 -15,11.6867 -23,25.7106 -19,32.7225 -19,18.6985 0,-28.827 8,-21.0359 15,-52.9792 14,-70.1196 v -31.9433 l -16,31.1642 c -92,183.8692 -137,268.0128 -141,265.6754 -2,-2.3373 5,-25.7105 17,-52.9792 44,-105.9585 49,-131.6691 40,-204.9052 -5,-38.1762 -21,-99.7256 -36,-136.3437 l -26,-66.224 -17,62.3285 c -18,62.3285 -59,155.8214 -66,150.3677 -2,-1.5583 3,-20.2568 12,-41.2927 8,-21.815 17,-65.445 20,-97.3884 l 6,-58.433 -35,37.3972 c -20,21.0358 -43,45.1881 -52,54.5374 l -16,17.1403 12,-17.9194 c 6,-10.1284 8,-20.2567 5,-22.594 -2,-2.3374 4,-21.8151 15,-43.6301 11,-21.8149 27,-64.6659 35,-95.8302 15,-56.0956 15,-56.8747 -10,-94.2718 -17,-25.7106 -25,-32.7225 -26,-21.815 l -1,15.5821 -8,-15.5821 c -7,-13.2449 -9,-11.6866 -15,11.6866 -31,122.3197 -112,380.9832 -114,365.4011 -1,-10.1284 6,-76.3525 17,-147.2512 10,-70.8988 17,-129.3317 16,-130.89 -1,-0.779 -21,17.1403 -44,40.5136 -30,31.9434 -41,50.642 -41,70.8987 0,14.803 -4,27.2687 -9,27.2687 -5,0 -12,12.4658 -15,27.2688 -6,24.1523 -115,321.7711 -144,393.449 l -12,27.2687 6,-34.2807 c 2,-18.6985 -1,-62.3286 -7,-97.3884 -12,-62.3285 -12,-63.1076 -24,-35.8388 -6,14.803 -22,59.9912 -35,100.5048 -14,39.7344 -26,69.3405 -27,65.4449 -2,-3.8956 10,-70.1196 26,-146.4722 l 29,-138.6809 -19,-98.1675 c -11,-53.7584 -23,-108.2958 -27,-121.5407 l -8,-22.5941 -34,45.9673 c -19,25.7105 -58,95.8302 -87,155.8214 -51,107.5168 -68,127.7736 -37,45.9673 8,-23.3732 14,-45.9673 12,-49.8628 -2,-4.6747 -28,26.4896 -58,68.5614 l -55,76.3525 -2,-53.7584 C 100,2449.0878 71,2353.2576 31,2277.6842 L 0,2220.0303 V 1091.8836 -37.042285 h 6326 c 5774,0 6326,0.779107 6320,12.46571 -14,28.8269553 -17,72.456943 -7,88.039077 19,26.489634 35,19.477674 48,-20.256775 23,-74.015157 28,-80.248012 73,-80.248012 h 40 V 1143.3047 2322.8725 l -21,28.0478 c -17,22.5941 -21,36.618 -16,68.5614 5,39.7345 5,39.7345 -7,13.2448 l -13,-27.2686 -46,62.3285 c -26,34.2807 -47,68.5614 -47,75.5734 0,7.791 -4,14.0238 -9,14.0238 -5,0 -12,9.3493 -15,20.2568 -4,11.6866 -9,18.6986 -12,17.1404 -2,-2.3374 5,-24.1524 16,-49.0837 16,-36.6181 20,-63.8869 19,-139.4602 -1,-59.9913 -4,-85.7017 -9,-70.8987 l -8,23.3732 -1,-26.4896 c 0,-14.024 4,-56.0957 10,-93.4929 l 12,-67.0031 -54,-111.4124 c -29,-61.5494 -55,-108.2958 -57,-103.6212 -2,4.6747 1,38.9554 7,76.3526 14,85.7016 14,172.1825 1,258.6634 -6,36.6181 -13,119.9825 -17,183.8692 -6,96.6093 -8,109.075 -14,74.0152 -4,-23.3733 -8,-67.0032 -9,-97.3883 -1,-45.9674 -3,-52.2003 -13,-39.7345 -12,14.803 -65,76.3524 -160,185.4274 -28,32.7225 -53,58.4331 -55,56.8748 -3,-1.5582 18,-36.618 46,-77.1316 l 51,-73.236 -24,-92.7137 c -14,-50.6419 -29,-102.063 -33,-115.3079 l -9,-23.3732 -10,31.1643 c -6,17.1404 -29,88.8182 -51,159.7169 -23,70.8988 -39,112.9705 -36,93.4928 16,-99.7256 15,-239.9649 -2,-324.8875 -9,-48.3046 -18,-88.0392 -21,-88.0392 -2,0 -11,12.4658 -19,27.2689 -9,17.1402 -14,54.5374 -14,104.4003 0,91.1555 -19,146.4721 -81,234.5111 -23,31.9434 -64,91.1555 -90,131.6691 -27,40.5136 -49,71.6779 -49,68.5614 0,-8.5702 51,-148.0303 91,-244.6396 43,-108.2958 55,-169.0661 44,-233.732 l -8,-45.1882 -14,31.1643 c -8,17.1403 -32,84.1435 -53,148.0302 -22,64.6659 -48,138.6811 -59,165.1708 -15,38.1762 -17,55.3165 -10,81.027 13,43.6301 6,46.7464 -11,5.4538 -19,-47.5256 -25,-49.8629 -39,-13.2448 -7,17.1403 -15,30.3852 -17,28.0478 -3,-2.3373 2,-22.5941 10,-45.1881 15,-38.1763 15,-45.1883 0,-81.0272 -23,-55.3166 -34,-59.9912 -35,-14.803 -2,31.9433 -3,28.8269 -9,-20.2568 -4,-31.9434 -5,-60.7704 -3,-63.8867 2,-3.8956 0,-6.2329 -5,-6.2329 -12,0 -22,27.2687 -22,62.3285 0,20.2568 -3,24.1523 -10,15.5821 -10,-13.2448 -9,-14.803 -34,50.642 -22,57.654 -19,17.9194 4,-56.8748 20,-65.4449 24,-136.3437 11,-172.9617 -6,-14.803 -10,-3.8956 -16,41.2927 -4,32.7224 -12,59.9912 -17,59.9912 -6,0 -7,-20.2568 -3,-54.5375 4,-29.6061 4,-54.5375 1,-54.5375 -3,0 -15,14.8031 -27,32.7225 -21,32.7225 -22,44.4091 -4,126.9945 4,17.9194 3,20.2567 -4,7.791 -6,-10.9075 -11,10.9075 -17,74.0152 l -8,89.5973 -17,-155.0423 c -17,-147.2512 -23,-176.0782 -33,-151.9258 -11,28.0478 -76,280.4784 -82,320.2128 -4,26.4897 -12,45.9674 -20,48.3047 -8,2.3373 -14,12.4657 -15,21.815 0,10.1284 -3,14.0239 -5,8.5701 -3,-4.6746 -1,-28.8269 5,-52.2001 8,-33.5016 7,-52.2002 -5,-84.1435 -8,-22.5941 -22,-68.5615 -31,-102.0631 -9,-32.7225 -19,-58.433 -22,-55.3166 -3,2.3374 -11,22.5941 -18,44.4091 -11,36.6181 -11,32.7226 -6,-42.8508 4,-60.7704 2,-87.26 -7,-95.8302 -11,-10.1284 -14,-9.3493 -31,6.2328 -21,19.4777 -24,14.8031 -7,-14.0239 9,-14.803 8,-24.1523 -2,-40.5134 -12,-20.2569 -13,-21.036 -21,-6.233 -4,8.5703 -8,38.1763 -9,66.2241 0,28.0479 -7,92.7137 -15,144.1348 -8,51.4211 -15,102.063 -16,112.9705 -1,10.9075 -5,-56.0957 -9,-148.0303 l -7,-167.508 -32,-48.3046 c -30,-47.5255 -49,-64.6659 -36,-34.2808 10,26.4897 -15,119.9825 -51,187.7649 -29,54.5374 -36,75.5733 -35,120.7615 v 54.5375 l -12,-38.9553 -12,-38.9554 -22,38.9554 c -12,21.815 -25,49.0837 -28,60.7703 -4,11.6866 -10,20.2568 -12,17.9194 -3,-2.3373 7,-40.5135 22,-86.4808 28,-87.26 29,-124.6571 2,-66.2241 -10,19.4777 -15,26.4896 -12,15.5821 17,-64.6659 16,-98.1674 -2,-132.4482 l -20,-34.2806 -42,61.5494 c -23,34.2807 -44,73.236 -46,85.7017 -2,13.2449 -10,124.6572 -16,248.5351 -7,123.878 -16,218.9291 -20,210.3589 -4,-7.7911 -12,-104.4003 -18,-213.4753 -7,-109.0749 -15,-211.1379 -19,-225.941 -8,-26.4896 -8,-25.7105 -42,42.8509 -28,56.0957 -36,84.9226 -40,144.1348 -8,105.9585 -18,61.5494 -26,-111.4123 -3,-81.0271 -10,-144.1348 -14,-140.2393 -7,6.233 -89,208.8006 -110,273.4666 -6,17.9194 -12,32.7225 -13,32.7225 -2,0 -2,-88.8182 0,-196.335 l 2,-197.114 -29,93.4929 c -71,225.1618 -91,294.5023 -105,370.8548 -21,109.8541 -26,112.1914 -19,10.9075 10,-154.2632 20,-366.1802 17,-369.2967 -9,-9.3493 -18,13.2448 -25,56.0957 -15,102.063 -21,130.89 -29,134.7855 -5,2.3373 -9,-19.4777 -9,-49.0837 -1,-50.642 -1,-52.2002 -15,-33.5017 l -15,19.4778 6,-23.3732 c 4,-12.4658 10,-28.827 14,-35.0598 4,-6.2329 5,-37.3972 3,-68.5615 l -6,-56.8748 -18,29.6061 c -24,39.7344 -23,24.9314 2,-36.618 18,-45.9674 19,-57.6539 9,-125.4363 -16,-109.0749 -28,-134.7854 -29,-61.5494 -2,81.8062 -17,145.693 -56,236.8485 l -34,78.6898 5,-58.433 c 6,-58.4331 -9,-185.4274 -24,-218.929 -7,-14.8031 -13,-10.1285 -46,36.6179 -42,60.7704 -39,40.5136 5,-35.8388 39,-65.445 17,-46.7464 -54,48.3046 -49,64.6658 -59,84.1435 -68,136.3437 -13,70.8987 -19,81.0271 -20,32.7225 -1,-18.6985 -3,-28.0478 -6,-20.2568 -8,24.9314 -22,13.2448 -17,-15.5822 2,-16.3612 -9,7.012 -24,52.2002 -16,45.1882 -31,87.26 -35,93.4929 -7,12.4657 -6,6.2328 18,-120.7616 34,-179.9738 37,-221.2664 19,-264.1173 l -17,-38.9553 -32,92.7137 c -45,133.2273 -159,432.4044 -163,429.288 -2,-1.5583 18,-89.5974 43,-195.5559 48,-204.126 55,-264.1173 14,-127.7736 -21,69.3405 -25,77.1317 -29,53.7584 -4,-19.4777 -11,6.2329 -24,85.7018 -27,161.2752 -34,168.2871 -29,31.1642 l 4,-120.7615 -52,77.9107 c -29,42.8508 -63,97.3884 -76,120.7615 -40,72.457 -17,1.5583 37,-112.9705 26,-55.3165 51,-113.7496 55,-128.5526 3,-14.803 9,-33.5016 12,-42.0718 3,-7.791 1,-12.4657 -4,-10.1284 -5,2.3374 -29,44.4091 -53,92.7138 -24,48.3046 -56,109.854 -72,137.1228 -24,39.7344 -28,55.3166 -23,85.7018 6,35.8388 5,35.8388 -8,13.2447 l -13,-22.594 -24,52.2001 c -13,28.827 -25,50.642 -28,49.0837 -2,-2.3373 8,-35.8388 23,-74.7942 14,-39.7344 24,-74.0151 21,-76.3525 -4,-2.3373 -6,-0.7791 -6,3.1165 0,4.6746 -7,14.803 -15,23.3732 -12,10.9074 -11,5.4537 4,-24.1523 17,-36.6181 17,-44.4091 4,-120.7616 -7,-45.1882 -16,-90.3764 -19,-101.2839 -4,-14.803 -28,28.0479 -94,171.4035 -49,105.1794 -89,186.2066 -90,180.7527 0,-5.4536 22,-78.6897 49,-163.6124 52,-161.2751 71,-245.4186 53,-231.3947 -6,4.6746 -53,53.7584 -106,109.0749 -78,82.5854 -98,109.075 -107,144.1348 -13,47.5256 -41,123.878 -35,93.4929 15,-71.6778 27,-228.2784 19,-234.5112 -7,-5.4538 -13,3.1165 -17,25.7105 -4,18.6986 -11,38.9554 -17,45.1882 -9,10.1284 -10,9.3493 -5,-1.5582 3,-7.7911 8,-45.1882 12,-82.5853 7,-72.4569 -1,-105.1794 -49,-188.5439 l -20,-35.0598 -33,101.2839 c -38,116.866 -40,113.7496 -18,-35.0598 17,-113.7496 15,-134.0064 -11,-159.7169 -14,-14.8031 -15,-10.1284 -14,62.3285 3,87.2599 -7,120.7616 -70,242.3023 -21,42.0718 -45,91.9346 -52,110.6332 -7,17.9194 -14,31.9433 -16,30.3851 -5,-4.6746 15,-77.1315 43,-155.0422 14,-36.6181 29,-85.7018 33,-109.075 8,-38.9554 8,-40.5136 -7,-23.3732 -8,10.1283 -42,63.8867 -74,120.7615 -53,93.4929 -58,107.5168 -59,161.2751 -1,54.5376 -2,56.0957 -10,24.1524 -5,-18.6986 -10,-35.0598 -12,-36.618 -2,-2.3374 -17,20.2568 -32,49.0837 -37,69.3405 -50,79.4689 -26,21.815 54,-134.7855 53,-127.7735 36,-219.7082 -24,-132.4481 -23,-129.3318 -50,-88.039 -13,19.4776 -56,135.5646 -96,259.4426 -41,123.0988 -75,220.4872 -77,216.5916 -2,-4.6746 12,-89.5972 32,-189.3229 19,-99.7257 40,-221.2664 47,-270.3501 12,-90.3764 8,-325.6667 -6,-342.807 -4,-6.2328 -20,4.6746 -45,30.3851 l -37,38.9554 -7,111.4123 c -9,141.7974 -23,283.5949 -38,387.2161 l -12,81.8062 -18,-148.0302 c -10,-81.0272 -22,-155.0423 -27,-163.6125 -15,-28.0479 -25,84.9226 -12,137.1228 7,26.4897 10,49.0837 7,51.4211 -2,2.3372 -8,-8.5703 -11,-24.1524 -4,-15.5822 -10,-29.606 -14,-31.1643 -4,-2.3372 -15,38.1763 -25,89.5973 -10,51.4211 -20,91.9347 -23,90.3764 -2,-2.3373 0,-63.8868 6,-137.1228 8,-97.3883 8,-137.9019 0,-151.9258 -11,-17.9195 -16,-14.024 -105,89.5972 -52,59.9913 -94,112.9706 -94,117.6452 0,4.6747 -3,7.012 -6,3.8955 -4,-2.3373 14,-38.1762 40,-78.6897 50,-80.2481 63,-129.3318 16,-59.2122 -38,56.0957 -38,47.5256 1,-24.1523 47,-86.4808 74,-178.4154 48,-165.9498 -6,2.3373 -3,-6.2328 6,-20.2568 16,-24.1523 13,-67.0031 -4,-59.2121 -7,3.8956 -36,114.5288 -45,176.0782 -2,14.8031 -2,-41.2927 1,-125.4362 3,-105.1794 1,-155.0423 -6,-158.9378 -7,-3.1165 -11,5.4538 -11,25.7105 0,41.2927 -23,97.3884 -75,186.2065 -25,40.5136 -45,85.7018 -46,98.9467 0,13.2448 -9,42.0717 -20,63.1076 l -19,38.9553 5,-31.1643 c 5,-24.1522 3,-28.8269 -5,-19.4776 -9,9.3493 -10,6.2329 -5,-11.6866 13,-51.421 17,-101.2839 6,-89.5973 -8,8.5701 -11,0 -11,-34.2807 0,-27.2688 -4,-43.6301 -9,-38.9554 -19,16.3613 -71,149.5885 -126,320.9921 -32,99.7257 -59,179.9736 -61,179.1946 -1,-1.5582 13,-86.4809 32,-189.323 36,-201.0096 58,-370.8549 52,-420.7177 -3,-28.827 -5,-25.7106 -30,42.8509 -25,67.7823 -28,87.2599 -29,210.3588 l -1,136.3437 -12,-87.2599 c -15,-106.7376 -31,-126.9945 -23,-29.6061 4,42.8509 3,62.3285 -2,50.6419 -5,-10.9074 -9,-29.606 -10,-42.0717 -1,-32.7225 -15,-17.9195 -41,45.9672 -12,29.6062 -28,63.1077 -36,74.0152 -16,21.0359 -16,23.3732 10,-58.433 13,-40.5135 13,-62.3286 2,-165.9497 -13,-112.1914 -26,-165.1707 -26,-98.1675 0,16.3612 -7,119.9824 -17,229.0574 -15,169.8453 -19,191.6603 -25,148.0303 -4,-28.0478 -8,-89.5972 -9,-137.1228 0,-48.3046 -5,-105.9586 -10,-128.5527 -7,-34.2806 -7,-28.0478 -4,35.839 3,67.7823 2,74.0151 -8,46.7464 l -11,-31.1643 -13,42.8509 -12,42.8508 4,-70.1196 c 4,-52.9792 1,-78.6898 -12,-106.7376 -9,-21.0358 -20,-37.3971 -24,-37.3971 -8,0 -79,123.0988 -79,138.681 0,6.2329 23,85.7018 50,175.299 28,89.5974 49,164.3916 47,165.9499 -2,1.5581 -32,-61.5496 -68,-141.0185 -35,-79.4688 -66,-144.1347 -69,-144.1347 -3,0 -30,42.0718 -60,92.7137 -30,51.421 -56,91.9347 -58,91.1555 -1,-1.5582 21,-52.9792 49,-114.5287 l 51,-112.1914 -18,-38.9553 c -34,-78.6899 -39,-78.6899 -42,-5.4538 -5,119.9825 -18,134.0064 -24,27.2687 -7,-116.0868 -19,-139.4601 -38,-74.7942 -16,56.0957 -15,72.4569 5,151.1468 9,34.2806 15,63.8867 13,66.224 -3,1.5582 -22,-42.0718 -43,-96.6092 -20,-54.5375 -40,-102.0631 -44,-106.7377 -3,-3.8955 -9,4.6746 -12,19.4777 -5,20.2568 -7,12.4657 -8,-28.827 -1,-35.8388 -5,-56.8747 -12,-56.8747 -6,0 -9,-5.4538 -6,-11.6866 3,-6.2329 -5,-35.0598 -18,-63.8868 -23,-52.2002 -24,-52.2002 -24,-21.8151 -1,17.1405 6,60.7704 14,97.3885 8,36.618 14,73.2359 14,81.8062 l -1,15.5821 -5,-15.5821 c -3,-8.5703 -14,-30.3852 -24,-48.3047 -10,-17.9194 -19,-42.8508 -20,-54.5374 0,-11.6866 -4,-28.827 -8,-37.3972 -6,-10.9075 -10,-3.8955 -15,27.2687 -4,23.3733 -14,60.7704 -23,82.5854 l -15,38.9554 35,70.1196 c 41,79.4688 63,144.1347 71,205.6841 l 5,42.851 -18,-50.642 c -32,-86.4809 -82,-179.1946 -97,-179.1946 -4,0 -4,37.3972 -1,84.1436 7,89.5973 -2,75.5734 -23,-40.5136 -11,-63.1077 -14,-68.5614 -27,-54.5374 -9,9.3492 -12,24.9313 -9,42.0718 3,14.8029 8,48.3045 10,74.015 l 5,46.7464 -18,-54.5374 c -10,-29.6061 -21,-53.7584 -26,-52.9793 -5,0 -24,23.3732 -42,50.642 -38,55.3166 -35,35.8389 6,-40.5136 22,-42.0717 25,-56.0957 18,-81.8062 -15,-54.5375 -21,-56.0957 -27,-7.7911 l -7,46.7464 -2,-50.6419 -3,-50.642 -18,38.9554 c -23,49.0837 -24,43.63 -4,-29.6061 13,-50.6419 13,-62.3285 1,-79.4689 -14,-21.0359 -14,-21.0359 -40,37.3971 -32,70.1196 -32,70.8988 -7,183.8693 20,91.1555 20,123.0988 0,62.3285 -31,-95.051 -47,-127.7735 -55,-112.9705 -7,13.2449 0,45.1882 30,126.9944 3,7.7911 -7,-7.0119 -23,-32.7225 l -28,-46.7464 -27,54.5376 c -15,30.3851 -33,68.5613 -41,85.7017 -24,52.2002 -18,12.4657 14,-81.0271 17,-48.3047 30,-95.8301 30,-104.4004 0,-15.5821 0,-16.3612 -15,-0.779 -13,14.0239 -14,11.6866 -15,-22.5942 0,-26.4896 -13,-61.5494 -47,-123.0988 -25,-46.7464 -48,-83.3645 -51,-81.0271 -3,1.5582 2,23.3732 11,48.3045 16,45.1883 37,158.9379 37,197.1142 -1,31.1642 -16,2.3373 -23,-42.851 -3,-21.0359 -14,-58.433 -23,-81.8062 -26,-65.445 -34,-32.7225 -28,112.9705 5,138.681 -18,576.5391 -29,533.6882 z M 2408,2625.9451 c 21,-27.2688 49,-63.8868 61,-82.5853 l 22,-33.5017 -33,-69.3405 c -17,-38.1762 -33,-68.5614 -35,-67.7822 -1,1.5581 -14,61.5494 -28,134.0063 -14,73.236 -28,140.2393 -30,150.3676 -8,27.2688 0,21.0359 43,-31.1642 z M 505,2500.5088 c 15,-63.1076 25,-120.7615 23,-128.5526 -2,-8.5701 -14,3.8955 -33,33.5017 -28,43.6299 -30,53.7583 -32,144.1347 -3,119.9825 6,108.2959 42,-49.0838 z m 2065,30.3852 c 0,-17.9194 3,-40.5135 6,-51.4211 3,-12.4656 -4,-7.0119 -20,15.5822 -26,35.8389 -31,58.433 -19,82.5853 6,12.4658 7,12.4658 20,-1.5582 7,-7.7911 13,-28.0479 13,-45.1882 z m -1045,-64.6659 c 9,-22.5941 15,-44.4091 13,-49.0837 -7,-16.3612 -78,98.9466 -78,125.4362 v 26.4897 l 24,-31.1643 c 13,-17.1404 32,-49.0838 41,-71.6779 z m 10002,74.0152 c -3,-5.4537 -5,-1.5582 -5,9.3493 0,10.9075 2,14.803 5,10.1284 2,-5.4538 2,-14.8031 0,-19.4777 z m 390,0 c -3,-6.2328 -6,-3.8955 -6,4.6746 -1,8.5702 2,13.2449 5,10.1284 3,-2.3373 4,-9.3492 1,-14.803 z m -1073,-52.9792 16,-42.851 -20,19.4777 c -12,12.4657 -19,31.1643 -19,50.642 1,34.2807 1,33.5015 23,-27.2687 z M 291,2206.7856 c 16,-49.0838 29,-92.7138 29,-96.6093 0,-3.8955 -50,44.4091 -110,106.7376 l -110,114.5287 10,49.0838 c 5,26.4896 10,69.3405 11,95.051 l 1,46.7465 70,-112.9706 c 50,-81.027 78,-137.9019 99,-202.5677 z m 11630,218.1499 c 0,-14.803 15,-97.3884 34,-183.0901 47,-219.7082 46,-204.9052 20,-249.3143 l -22,-38.9552 -32,52.9792 c -28,49.0837 -31,60.7703 -31,132.4482 0,43.6299 -7,100.5048 -15,126.2153 -8,25.7105 -14,59.2121 -15,74.7942 0,26.4896 24,127.7736 37,155.0423 7,14.803 23,-32.7225 24,-70.1196 z m -10397,-92.7137 -7,-42.0718 -28,26.4897 c -27,24.9314 -28,30.3851 -28,100.5047 v 74.0151 l 35,-58.433 c 31,-52.2001 34,-62.3284 28,-100.5047 z m 10014,9.3493 c -3,-55.3166 -9,-53.7584 -26,5.4537 -7,28.0478 -8,18.6986 -4,-42.0718 4,-52.9793 2,-75.5734 -5,-72.4569 -6,3.1164 -14,24.1523 -18,48.3046 -6,38.9553 13,126.2153 43,194.7767 9,19.4777 14,-59.2121 10,-134.0063 z m -5671,-49.0838 c 6,-81.8062 -12,-151.9258 -61,-234.5112 l -24,-42.0718 -1,35.0599 c 0,73.2361 19,386.437 26,409.0311 6,21.8149 8,19.4776 31,-35.0598 16,-37.3972 26,-84.9227 29,-132.4482 z m 6565,122.3199 c 21,-35.0599 40,-83.3646 44,-106.7378 8,-53.7584 -8,-154.2632 -49,-315.5383 l -31,-124.6571 -9,44.4091 c -8,37.3972 -4,61.5495 22,155.8215 40,146.472 55,208.8006 50,212.6961 -3,1.5582 -24,-47.5256 -48,-109.854 -26,-67.7824 -47,-109.075 -52,-103.6213 -17,21.815 -19,100.5048 -5,182.311 8,47.5256 18,118.4243 22,158.1588 4,39.7344 10,71.6777 13,71.6777 3,0 23,-29.606 43,-64.6657 z m -9905,-20.2569 c 5,-51.4211 -10,-202.5678 -26,-246.9769 -7,-20.2567 -7,-19.4777 -20,11.6867 -18,49.0837 -23,35.0598 -5,-17.9195 14,-41.2927 14,-52.2002 -5,-142.5766 -32,-155.0422 -33,-151.9258 -32,105.9585 1,155.8215 4,191.6603 22,245.4187 41,129.3317 40,126.2153 51,111.4123 5,-7.7911 12,-37.3971 15,-67.0032 z m 3512,-10.1284 c -1,-48.3046 -3,-81.0271 -5,-72.4569 -3,8.5702 -10,30.3852 -15,48.3046 -9,24.1523 -8,42.0718 2,71.6778 7,21.815 14,39.7345 16,39.7345 2,0 2,-39.7345 2,-87.26 z m 4838,-45.1882 c -4,-23.3732 -11,-62.3285 -18,-85.7017 -17,-62.3286 -25,-34.2807 -31,104.4003 l -5,116.866 30,-45.9673 c 26,-40.5136 29,-51.421 24,-89.5973 z m -9817,-66.2241 c -7,-19.4776 -15,-35.0598 -19,-35.0598 -4,0 -14,11.6866 -23,25.7105 -14,19.4777 -15,31.9434 -8,59.9913 5,19.4776 10,59.9912 11,89.5973 l 1,54.5375 25,-79.469 c 23,-71.6777 24,-84.1435 13,-115.3078 z m 3520,-97.3883 c 11,-152.705 8,-218.1499 -10,-241.5232 -13,-15.5821 -16,3.1165 -37,198.6723 -22,209.5798 -22,229.0574 2,288.2696 l 19,46.7464 7,-67.0032 c 4,-37.3971 12,-138.6811 19,-225.1619 z m 8123,229.0574 c 23,-42.8509 25,-50.6419 14,-79.4689 -19,-48.3046 -24,-45.9672 -31,15.5821 -4,31.1643 -10,70.8988 -13,88.0391 -7,39.7345 -1,35.0598 30,-24.1523 z m -8480,-34.2806 6,-42.851 -19,18.6985 c -22,19.4778 -24,31.1644 -13,71.6779 5,21.0359 7,22.5941 13,10.1284 4,-7.7911 10,-34.2807 13,-57.6538 z m 5228,-110.6333 29,-44.4091 -42,-83.3644 c -50,-98.9465 -45,-106.7377 -83,109.8541 -14,81.8062 -29,158.9378 -32,171.4035 -6,25.7105 75,-71.6778 128,-153.4841 z m -5325,92.7137 c -3,-24.9314 -15,-59.9912 -26,-77.9106 -13,-21.815 -19,-25.7106 -16,-13.2449 3,10.9076 8,52.2002 12,92.7138 6,66.224 8,71.6778 21,58.433 11,-10.9075 13,-27.2688 9,-59.9913 z m 5548,45.9674 c 13,-24.1524 12,-39.7345 -4,-137.9019 -11,-60.7704 -22,-112.1914 -26,-115.3079 -4,-2.3373 -4,33.5016 0,80.2481 3,46.7464 6,110.6331 6,142.5765 0,31.1642 2,56.8748 5,56.8748 3,0 11,-11.6866 19,-26.4896 z m -8375,-57.654 c 1,-22.5941 -3,-39.7344 -8,-37.3971 -14,7.012 -21,50.642 -14,85.7018 6,28.8269 7,29.606 14,12.4657 4,-10.9076 7,-38.1762 8,-60.7704 z m 2291,-2.3373 c 0,-8.5701 -4,-14.803 -9,-14.803 -11,0 -21,28.0479 -20,58.433 v 23.3733 l 14,-26.4897 c 8,-14.024 15,-32.7226 15,-40.5136 z m 6920,16.3613 c 0,-10.1284 -1,-10.1284 -10,0 -5,6.2329 -10,17.1403 -10,23.3731 0,10.1284 1,10.1284 10,0 5,-6.2328 10,-17.1402 10,-23.3731 z m -9361,-38.1762 c 11,-31.9435 19,-59.2122 17,-60.7704 -6,-4.6746 -46,91.9346 -46,109.8541 0,24.1523 7,12.4656 29,-49.0837 z m -599,-42.851 c 5,-26.4896 11,-81.027 14,-121.5406 l 5,-74.0152 -13,67.0032 c -13,66.2241 -42,183.0902 -52,213.4753 -3,8.5702 4,3.8955 16,-10.9075 12,-14.803 26,-48.3046 30,-74.0152 z m 2979,4.6747 c 1,-15.5821 -3,-24.1524 -9,-21.0359 -5,2.3373 -10,21.0359 -9,41.2926 0,27.2689 3,32.7225 9,21.0359 5,-8.5701 9,-27.2687 9,-41.2926 z m 671,16.3613 c 29,-49.8629 36,-114.5288 20,-185.4275 -7,-32.7225 -14,-57.6539 -16,-56.0957 -2,1.5582 -12,57.6539 -23,124.6571 -17,105.1794 -18,153.484 -5,153.484 2,0 13,-16.3612 24,-36.6179 z m 6155,-118.4243 c -4,-31.1643 -10,-53.7584 -15,-50.642 -4,3.8956 -4,31.9434 1,61.5495 4,30.3851 9,75.5734 10,101.2839 l 3,46.7464 4,-50.642 c 2,-28.0478 0,-76.3524 -3,-108.2958 z m -6546,79.4689 v -68.5614 l -15,35.0598 c -16,38.1763 -9,101.2839 12,101.2839 2,0 4,-30.3852 3,-67.7823 z m 2721,-14.0239 c -5,-67.0032 -10,-83.3645 -34,-115.3078 -16,-20.2568 -30,-35.839 -32,-34.2807 -5,3.8955 53,212.6961 62,224.3828 10,13.2448 10,7.0119 4,-74.7943 z m 2376,-51.421 c -11,-71.678 -14,-80.2481 -11,-35.0599 3,33.5015 5,86.4809 6,116.8661 0,44.4091 2,51.421 10,35.0598 7,-14.024 5,-51.4211 -5,-116.866 z m 981,108.2957 c -3,-5.4537 -5,-1.5581 -5,9.3493 0,10.9076 2,14.8031 5,10.1284 2,-5.4537 2,-14.803 0,-19.4777 z m 622,-33.5015 c 0,-28.827 -3,-35.0598 -9,-23.3732 -12,22.594 -12,88.8181 0,74.0151 5,-6.2328 9,-28.827 9,-50.6419 z m 1228,-36.618 c 9,-47.5255 -13,-34.2807 -26,15.5821 -6,24.1523 -14,52.9793 -16,63.8867 -3,10.9076 4,3.8956 16,-15.5821 11,-19.4777 23,-48.3046 26,-63.8867 z m -11523,-63.1077 104,-137.902 -13,-45.1881 c -8,-24.1524 -20,-63.1077 -27,-86.4809 l -12,-42.0718 -17,38.1762 c -20,44.4091 -23,32.7226 -8,-31.1642 9,-41.2927 8,-52.2001 -17,-115.3078 -25,-62.3286 -29,-67.7823 -38,-52.2002 -10,17.9195 -10,17.9195 -14,-6.2328 -2,-14.0239 -6,-25.7105 -10,-25.7105 -4,0 -18,-15.5822 -32,-35.0599 -14,-19.4776 -28,-35.0598 -32,-35.0598 -5,0 -9,-7.7911 -9,-17.1403 -4,-49.0837 -17,74.0151 -18,165.1706 -2,130.8899 -17,312.4219 -31,364.6221 -10,35.8389 -9,46.7464 19,113.7495 17,41.2927 31,81.0271 31,88.0391 0,21.0359 12,7.012 124,-140.2392 z m 10908,118.4243 c 1,-37.3972 -11,-67.0033 -23,-52.9794 -12,14.8031 -11,40.5136 1,66.2242 13,25.7105 20,21.0358 22,-13.2448 z m 1637,-47.5256 c 1,-41.2926 -27,-162.0542 -40,-173.7409 -22,-18.6985 -6,191.6603 19,245.4187 7,16.3613 19,-24.9314 21,-71.6778 z M 860,2260.544 c 17,-25.7105 30,-51.4211 28,-56.8749 -2,-6.2328 -17,15.5822 -34,46.7465 -18,31.9433 -30,57.6538 -28,57.6538 2,0 18,-21.0359 34,-47.5254 z m 8898,-211.138 c -12,-29.6061 -25,-52.9793 -28,-52.9793 -28,0 -36,85.7018 -23,237.6276 l 7,77.9107 33,-105.1794 32,-105.1795 z m -8259,192.4394 c 0,-8.5703 -8,-35.0598 -19,-58.433 l -18,-42.8509 -1,81.8062 -1,81.8062 20,-23.3732 c 11,-12.4657 20,-30.3851 19,-38.9553 z m 1476,-109.075 c 19,-109.0749 35,-220.4873 34,-245.4187 0,-10.9075 -25,56.0957 -56,147.2512 l -55,167.508 18,50.642 18,51.421 13,-42.8509 c 6,-23.3732 19,-81.0271 28,-128.5526 z m 3870,-17.9194 c -26,-67.0032 -51,-126.9945 -56,-134.0065 -13,-14.803 -10,-3.1164 24,87.2601 15,37.3971 29,86.4808 32,109.0749 4,22.5941 14,60.7703 23,84.1435 l 17,42.8509 3,-33.5016 c 2,-23.3732 -11,-71.6778 -43,-155.8213 z m -1420,22.594 c -13,-10.9074 -15,-7.791 -15,31.9434 0,24.1523 6,62.3286 13,85.7018 l 12,41.2926 3,-73.236 c 2,-58.433 0,-76.3525 -13,-85.7018 z m 178,101.2839 c -6,-46.7464 -7,-48.3045 -20,-31.1643 -9,10.9076 -12,13.2449 -9,4.6747 16,-40.5135 16,-78.6898 0,-145.693 l -18,-74.0152 -15,83.3645 -14,83.3645 39,66.2241 c 21,35.8388 40,65.4449 41,64.6658 1,-0.7792 -1,-24.1523 -4,-51.4211 z m 1518,17.1404 c -9,-11.6866 -10,-9.3493 -10,13.2448 0,22.5941 1,24.9314 10,14.0239 7,-9.3493 7,-18.6986 0,-27.2687 z m 1298,-56.8748 c 1,-17.9194 -47,47.5255 -54,74.0151 -4,17.1404 2,12.4658 24,-19.4776 17,-23.3732 30,-48.3047 30,-54.5375 z m -7960,-6.2328 c 1,-31.1643 -3,-47.5256 -9,-44.4091 -6,2.3373 -9,35.0598 -9,72.4569 2,77.9106 16,54.5374 18,-28.0478 z m 561,45.1881 c 10,-18.6985 9,-28.8269 -6,-58.433 -15,-31.9434 -19,-34.2807 -32,-24.1523 -13,10.1284 -13,17.9194 -1,58.433 7,26.4896 16,47.5255 20,47.5255 4,0 12,-10.1283 19,-23.3732 z m 6867,-17.1403 c -3,-5.4538 -5,-1.5582 -5,9.3493 0,10.9075 2,14.803 5,10.1283 2,-5.4536 2,-14.8029 0,-19.4776 z m 1092,-173.7409 c -1,-25.7105 -4,-56.8748 -8,-70.1196 l -6,-23.3731 -13,31.9433 c -6,17.1403 -14,84.1435 -17,148.0303 l -5,116.0869 25,-77.9106 c 14,-43.6301 24,-98.1675 24,-124.6572 z m 3277,52.9793 -16,-37.3972 5,42.851 c 3,23.3731 5,65.445 6,93.4928 l 2,50.6419 9,-56.0957 c 8,-44.4091 7,-63.1076 -6,-93.4928 z m -10201,83.3645 6,-35.0598 -21,25.7105 c -13,16.3613 -18,31.9434 -14,42.0718 9,21.8149 21,8.5701 29,-32.7225 z m 5353,-23.3732 c 6,-37.3972 5,-67.0032 -1,-81.0272 l -10,-22.5941 -13,18.6986 c -17,23.3732 -17,42.8509 -2,107.5167 13,58.4331 14,57.6539 26,-22.594 z m -3748,34.2807 c 0,-10.1284 -4,-18.6986 -10,-18.6986 -5,0 -10,10.9074 -10,24.1523 0,13.2448 4,21.815 10,18.6986 6,-2.3373 10,-13.2449 10,-24.1523 z m 3931,-91.9347 c -1,-52.2001 -4,-106.7376 -7,-121.5407 -6,-32.7224 -34,-85.7017 -44,-85.7017 -13,0 -40,51.4211 -40,75.5734 0,11.6866 17,73.236 37,136.3436 45,135.5646 57,134.7856 54,-4.6746 z m -6472,14.0239 c 22,-98.1675 26,-135.5646 10,-88.8182 -5,14.8031 -19,54.5376 -30,87.2601 -13,35.8389 -19,67.7822 -15,81.027 4,10.9076 9,19.4777 11,17.1404 2,-1.5582 13,-45.1882 24,-96.6093 z m 254,-3.8955 c -9,-58.433 -23,-30.3851 -22,43.63 l 1,62.3286 13,-33.5016 c 9,-20.2568 12,-48.3046 8,-72.457 z m 2386,51.4211 c 0,-13.2448 -2,-11.6866 -14,5.4537 -8,11.6867 -12,27.2688 -8,35.0598 6,12.4657 8,11.6867 14,-5.4537 4,-10.9075 7,-26.4897 8,-35.0598 z m 8058,14.0239 c -3,-7.7911 -5,-1.5582 -5,13.2448 0,14.8031 2,21.0359 5,14.0239 2,-7.791 2,-20.2567 0,-27.2687 z m -7007,-93.4928 c 7,-48.3046 9,-96.6093 5,-109.075 l -7,-21.8149 -20,30.3851 c -18,26.4896 -19,38.9553 -13,92.7137 3,34.2807 9,67.7822 12,74.7942 4,10.9076 3,10.9076 -7,0.7792 -10,-9.3493 -11,-8.5702 -6,7.7911 3,10.9075 6,24.9314 6,31.1642 3,31.1643 19,-28.8269 30,-106.7376 z m 5395,4.6746 c 16,-53.7583 17,-61.5495 2,-93.4928 l -15,-34.2807 -1,66.224 c -1,36.6181 -8,87.2601 -16,112.9706 -8,25.7105 -14,50.6419 -14,54.5375 1,14.803 26,-46.7464 44,-105.9586 z m 945,93.4928 c 0,-8.5701 -4,-14.0238 -10,-10.9074 -5,2.3373 -7,9.3493 -3,15.5821 7,16.3612 13,14.803 13,-4.6747 z m -9100,-47.5255 c 17,-25.7105 30,-54.5374 29,-63.8867 0,-10.9076 -5,-5.4538 -14,14.803 -13,30.3851 -14,29.6061 -8,-25.7106 6,-60.7703 -13,-155.8213 -29,-143.3556 -5,3.8955 -26,49.8629 -47,101.2838 l -39,94.272 31,38.9553 c 17,21.0359 34,37.3971 39,35.0598 4,-2.3372 22,-24.9313 38,-51.421 z m 7244,-43.63 c 4,-44.4091 3,-63.1076 -4,-59.9912 -13,6.2329 -13,-0.7791 1,-20.2568 13,-19.4777 1,-162.0542 -12,-145.693 -7,7.7911 -9,6.2329 -10,-5.4537 -1,-8.5702 -12,28.0479 -26,81.8063 l -24,96.6092 28,76.3525 c 31,84.9226 35,82.5853 47,-23.3733 z m 198,40.5136 c -18,-67.7823 -74,-205.6842 -84,-205.6842 -14,0 -9,23.3732 34,145.6929 29,83.3645 44,117.6452 52,111.4124 7,-5.4538 7,-21.0359 -2,-51.4211 z m -6578,-65.445 c 9,-57.6539 19,-120.7616 22,-140.2392 3,-19.4776 4,-33.5016 1,-31.1643 -3,2.3374 -25,49.8628 -49,105.1794 l -44,101.2839 20,40.5136 c 12,21.815 24,38.1762 28,35.0598 3,-3.1164 13,-52.9792 22,-110.6332 z m 1244,-17.1403 -3,-48.3047 -18,21.0359 c -15,18.6986 -16,27.2688 -7,74.0152 18,86.4808 24,97.3883 28,46.7464 2,-24.9314 2,-66.2241 0,-93.4928 z m 791,83.3644 c 0,-12.4657 -4,-28.8269 -9,-35.0598 -7,-7.7911 -10,3.8955 -9,38.9554 0,35.0598 3,45.9672 9,35.0598 5,-8.5703 9,-25.7105 9,-38.9554 z m 6753,27.2688 c 3,-13.2449 1,-25.7106 -4,-28.0479 -4,-2.3373 -8,8.5702 -8,23.3732 0,34.2807 6,36.618 12,4.6747 z m -5519,-93.4929 c -2,-31.9434 -6,-68.5613 -11,-81.8062 l -8,-23.3732 -28,32.7225 c -26,30.3851 -28,36.618 -21,81.8062 4,27.2687 14,61.5494 22,76.3525 l 15,27.2687 17,-27.2687 c 11,-18.6986 15,-45.1883 14,-85.7018 z m 762,46.7465 c 5,-22.5942 4,-32.7225 -3,-27.2688 -5,4.6746 -12,27.2688 -15,50.642 -7,49.0837 6,31.9434 18,-23.3732 z m -2494,-13.2449 c -2,-38.1762 -9,-77.1316 -17,-88.0391 -26,-37.3971 -17,79.4689 11,146.4721 9,19.4777 10,7.7911 6,-58.433 z m 2660,19.4777 c -4,-27.2687 -6,-29.6061 -9,-11.6866 -3,20.2567 3,44.4091 10,44.4091 2,0 1,-14.8031 -1,-32.7225 z m 1103,-8.5702 c 21,-55.3166 30,-122.3197 22,-156.6005 -9,-35.0598 -20,-31.1642 -40,15.5822 -12,27.2687 -14,52.9792 -9,109.0749 3,40.5136 7,73.2361 9,73.2361 1,0 9,-18.6986 18,-41.2927 z M 722,1977.7281 c -2,-45.9673 -7,-66.224 -13,-58.433 -5,6.2329 -9,19.4777 -9,30.3852 0,11.6866 -4,23.3732 -10,28.0478 -8,6.2329 -31,128.5527 -29,158.9379 0,6.2328 15,-10.9076 32,-38.9554 30,-47.5255 32,-55.3166 29,-119.9825 z m 2638,-10.1284 22,-40.5136 -38,-35.0598 c -25,-24.1523 -41,-33.5016 -48,-28.0478 -14,10.9075 -53,10.1284 -58,-1.5581 -2,-4.6747 -12,7.7909 -22,28.0478 -19,39.7344 -16,75.5733 21,194.7767 l 16,54.5375 43,-66.2241 c 23,-35.8389 52,-83.3645 64,-105.9586 z m 1400,130.1109 c -6,-17.9194 -14,-31.1643 -16,-28.8269 -3,2.3373 0,18.6985 7,35.8388 16,42.0718 24,35.839 9,-7.0119 z m -3804,-13.2448 -15,-21.8151 -1,21.036 c 0,10.9075 3,26.4896 6,33.5016 6,12.4657 8,12.4657 16,0.7791 6,-7.7911 4,-19.4777 -6,-33.5016 z m 114,-0.7791 c 0,-21.815 -3,-25.7106 -10,-17.1404 -13,15.5822 -13,56.8748 0,50.642 6,-2.3373 10,-17.9195 10,-33.5016 z m 11095,-4.6747 c 4,-20.2567 1,-52.9792 -7,-79.4689 l -13,-45.9672 -6,50.6419 c -11,92.7137 11,155.0423 26,74.7942 z m -4534,-30.3851 c -8,-6.2329 -11,1.5582 -10,30.3851 l 1,38.1763 10,-29.6061 c 7,-21.815 7,-32.7225 -1,-38.9553 z m 3836,28.0478 c -3,-7.791 -5,-1.5582 -5,13.2448 0,14.803 2,21.0359 5,14.024 2,-7.7911 2,-20.2568 0,-27.2688 z m -9827,-36.618 c -1,-9.3493 -7,-24.9314 -15,-35.8389 -13,-18.6986 -14,-16.3613 -14,31.1643 0,45.9672 1,49.0837 14,35.8389 8,-8.5703 15,-22.5941 15,-31.1643 z m 6805,26.4896 c 3,-3.8956 1,-7.791 -4,-7.791 -6,0 -11,3.8954 -11,7.791 0,4.6747 2,7.7911 4,7.7911 3,0 8,-3.1164 11,-7.7911 z m -5594,-78.6898 c 40,-141.7974 43,-167.5079 14,-113.7496 -25,46.7464 -56,155.8214 -50,175.2991 3,10.1284 8,17.1403 11,15.5821 2,-2.3374 13,-36.618 25,-77.1316 z m 893,-7.012 c 4,-20.2567 3,-23.3731 -3,-11.6865 -9,14.803 -10,14.0239 -11,-3.8956 -3,-29.6061 -19,35.0598 -18,74.0152 v 31.1643 l 13,-31.1643 c 7,-17.1404 15,-43.63 19,-58.4331 z m 982,33.5017 c -11,-8.5702 -17,3.1164 -9,17.9194 7,14.0239 8,14.0239 11,0.7792 2,-7.7912 1,-16.3613 -2,-18.6986 z m 6261,-7.7911 c -14,-24.1523 -19,-18.6986 -11,12.4657 4,16.3613 10,21.815 14,15.5821 5,-5.4537 3,-17.9194 -3,-28.0478 z m -7574,-3.8956 c 9,-16.3612 14,-29.606 11,-29.606 -5,0 -34,49.8628 -34,59.2121 0,9.3493 7,0 23,-29.6061 z m -2374,1.5583 c 11,-18.6986 11,-18.6986 -3,-4.6747 -23,22.5941 -20,5.4538 12,-59.2121 19,-37.3972 26,-63.1077 21,-72.457 -4,-8.5701 -8,-10.9074 -8,-5.4536 -1,7.7909 -14,10.1283 -48,7.7909 -37,-1.5581 -49,-5.4536 -55,-17.9194 -5,-13.2448 -6,-12.4657 -7,4.6747 -1,27.2687 65,178.4155 74,168.287 1,-0.7791 8,-10.1283 14,-21.0358 z m 5447,-19.4777 c -7,-21.815 -24,-54.5375 -37,-74.0152 -20,-30.3851 -24,-32.7224 -27,-17.1403 -3,14.803 67,137.1228 75,130.8899 1,-0.779 -4,-18.6985 -11,-39.7344 z m 3605,-37.3972 c -8,-6.2328 -11,3.1165 -10,34.2808 l 1,42.0718 10,-34.2808 c 7,-23.3732 6,-36.618 -1,-42.0718 z m -6477,-9.3492 c 5,-49.8628 3,-66.2241 -9,-77.9107 -12,-13.2448 -14,-13.2448 -9,-1.5583 3,7.012 1,13.2449 -5,13.2449 -14,0 -14,52.9793 0,98.1675 6,19.4776 13,33.5016 14,32.7224 1,-1.5582 5,-30.3851 9,-64.6658 z m 526,-52.2002 c -10,-22.5941 -19,-35.0598 -19,-27.2688 -1,7.012 -7,12.4658 -13,11.6866 -15,-2.3373 -18,88.8183 -5,114.5288 8,14.0239 12,10.9075 33,-21.0359 l 23,-35.8389 z m 3190,38.1762 c -17,-44.4091 -22,-30.3851 -8,22.5942 9,31.1642 14,39.7344 16,26.4896 2,-10.1284 -1,-32.7225 -8,-49.0838 z m -3400,14.8031 c -5,-11.6867 -14,-18.6986 -20,-16.3612 -15,7.0119 -12,21.0358 7,42.8508 14,14.803 18,16.3613 21,7.012 1,-6.2329 -2,-21.815 -8,-33.5016 z m 2711,-2.3374 c -11,-16.3612 -20,-27.2686 -21,-24.1523 0,9.3493 33,60.7704 38,57.654 2,-1.5583 -6,-16.3612 -17,-33.5017 z m 326,19.4777 c -3,-6.2328 -6,-3.8955 -6,4.6747 -1,8.5702 2,13.2448 5,10.1284 3,-2.3374 4,-9.3493 1,-14.8031 z m -2185,-77.9106 c -2,-7.012 -10,-10.9075 -18,-8.5702 -15,4.6746 -20,72.457 -7,83.3644 10,7.012 31,-56.8748 25,-74.7942 z m 1338,52.9792 c -14,-10.9075 -24,0 -16,16.3612 6,11.6867 8,11.6867 16,2.3374 6,-7.012 5,-14.803 0,-18.6986 z m -2383,-6.2328 c -3,-6.2329 -6,-3.8956 -6,4.6746 -1,8.5702 2,13.2448 5,10.1284 3,-2.3373 4,-9.3493 1,-14.803 z m -3050,-7.7911 c -3,-6.2329 -6,-3.8955 -6,4.6746 -1,8.5702 2,13.2449 5,10.1284 3,-2.3373 4,-9.3492 1,-14.803 z m 1198,-27.2688 c 5,-21.815 4,-24.9313 -9,-21.0358 -11,3.1164 -16,14.803 -16,37.3971 1,35.0598 13,27.2687 25,-16.3613 z m 7282,7.7912 c -3,-7.7912 -5,-1.5583 -5,13.2447 0,14.8031 2,21.0359 5,14.024 2,-7.7911 2,-20.2568 0,-27.2687 z m -1208,-19.4777 c 1,-11.6867 -3,-23.3733 -9,-25.7106 -6,-3.1164 -10,10.9075 -9,36.618 0,30.3852 3,37.3972 9,25.7105 5,-8.5701 9,-24.9314 9,-36.6179 z m 712,-2.3374 c 11,-17.1404 14,-24.9314 6,-17.1404 -17,15.5822 -33,17.1404 -40,3.8957 -3,-5.4538 -6,7.7909 -6,28.8269 -1,42.0717 4,40.5135 40,-15.5822 z m 1136,-13.2447 c -3,-5.4538 -5,-1.5583 -5,9.3492 0,10.9075 2,14.803 5,10.1284 2,-5.4538 2,-14.803 0,-19.4776 z m -2110,-19.4778 c -3,-7.7911 -5,-1.5582 -5,13.2448 0,14.8031 2,21.0359 5,14.0239 2,-7.7909 2,-20.2567 0,-27.2687 z m -816,10.9075 c -10,-7.0119 -11,-6.2328 -5,4.6746 3,7.7911 9,11.6866 12,9.3493 3,-2.3373 0,-8.5701 -7,-14.0239 z m 5880,-57.6539 c -11,-16.3612 -20,-27.2687 -21,-24.1523 0,9.3492 33,60.7703 38,57.6539 2,-1.5582 -6,-16.3612 -17,-33.5016 z M 397,1792.3007 c -3,-6.2329 -6,-3.8956 -6,4.6747 -1,8.5701 2,13.2447 5,10.1283 3,-2.3373 4,-9.3493 1,-14.803 z M 97,1519.6133 c -3,-6.2329 -6,-3.8955 -6,4.6746 -1,8.5702 2,13.2448 5,10.1285 3,-2.3374 4,-9.3493 1,-14.8031 z m 12633,-457.3358 c 0,-7.791 -3,-16.3612 -7,-19.4776 -4,-3.1164 -6,-35.0598 -4,-70.89879 2,-43.62994 -1,-66.22407 -8,-66.22407 -6,0 -11,4.67469 -12,10.12837 0,4.67469 -3,17.91944 -5,28.82697 -12,47.52556 -16,97.38842 -9,130.88992 l 7,36.6181 19,-18.6986 c 10,-10.1284 19,-24.1523 19,-31.1643 z m -166,-193.21842 c -4,-16.36129 -13,-42.07179 -21,-56.87485 -8,-17.14037 -12,-20.25682 -9,-7.79107 3,10.90753 8,32.7225 11,49.08379 6,21.81497 4,28.82689 -6,28.82689 -11,0 -11,1.55823 1,7.79106 26,13.24483 31,8.57015 24,-21.03582 z m 115,-60.77039 v -15.58213 l -9,15.58213 c -5,8.57015 -8,29.60605 -8,46.74641 v 31.16427 l 9,-31.16427 c 4,-17.14036 8,-38.17626 8,-46.74641 z"
       id="path2"
       style="fill:#142816;fill-opacity:1;stroke-width:0.88267028"
       inkscape:connector-curvature="0" />
    <path
       d="m 12791,4087.9133 c 0,-14.8089 3,-18.8477 6,-8.0776 3,9.4238 2,21.5402 -1,25.579 -3,5.3851 -6,-2.6925 -5,-17.5014 z"
       id="path4"
       inkscape:connector-curvature="0"
       style="stroke-width:1.16028655" />
  </g>
</svg>
