<?xml version="1.0" encoding="utf-8"?>
<!-- Generator: Adobe Illustrator 23.0.0, SVG Export Plug-In . SVG Version: 6.00 Build 0)  -->
<svg version="1.1" id="Layer_1" xmlns="http://www.w3.org/2000/svg" xmlns:xlink="http://www.w3.org/1999/xlink" x="0px" y="0px"
	 viewBox="0 0 597.09 623.66" style="enable-background:new 0 0 597.09 623.66;" xml:space="preserve">
<style type="text/css">
	.st0{stroke:#000000;stroke-miterlimit:10;}
</style>
<image style="overflow:visible;" width="306" height="315" xlink:href="palm tree.png"  transform="matrix(1.9841 0 0 1.9841 -366.1277 882.3617)">
</image>
<path class="st0" d="M0,570.57c0,0,197.6-146,221.6-171v-17l-5.11,3.81c0,0,11.91-71.15,21.79-77.96l-12.94,11.23
	c0,0,14.64-26.55,18.72-27.57c0,0-3.06-26.89-6.13-22.47c-3.06,4.43-6.47,29.96-6.47,29.96l-2.04-30.45c0,0-3.06,3.22-4.43,6.62
	c-1.36,3.4-13.28,44.94-13.28,44.94l-4.77-48.34l-4.09,30.64l-3.06-25.53l-4.43,51.4l-3.06-22.13l-2.04,7.49l-10.89-39.15
	l5.11,54.13c0,0-12.6-26.21-13.28-34.38l3.4,32.34l-14.98-42.55l8.85,54.81l-24.17-67.74l10.21,65.02l-21.11-54.13l2.38,58.21
	l-13.78-45.62l-5.29,68.09l-9.87-55.83l-12.6,59.91l-1.7-57.53l-8.17,33.7c0,0-2.04-52.77,12.94-76.6s38.47-55.15,63.66-60.26
	c18.54-3.76,53.32-6.41,82.33,2.63c9.09,2.83,17.61,6.81,24.88,12.26c1.05,0.79,2.08,1.61,3.08,2.46v-3.4l-44.26-21.11l2.04-16
	c0,0-12.94,6.13-14.64,16.34v-16.34c0,0-10.21,6.81-10.21,16.68l-2.38-13.62l-6.13,9.87l-4.09-6.13v10.21
	c0,0-17.36-18.38-7.15-35.74c0,0-17.02,7.49-18.04,38.13c0,0-10.89-19.06,10.21-46.64c0,0-17.7,5.45-23.83,40.17
	c0,0-3.4-29.28,12.94-43.57c0,0-18.04,9.19-23.83,44.6c0,0-5.11-21.45,7.49-44.6c0,0-13.6,7.15-13.78,42.89
	s-28.77,26.89-28.77,26.89s21.45-10.55,23.49-29.62c2.04-19.06,5.29-31.32,5.29-31.32s-4.56,16.82-10.84,29.56
	c-3.95,8.01-8.57,14.41-13.17,14.02c-11.91-1.02-15.66-5.11-15.66-5.11s15.66,3.4,20.77-9.19c5.11-12.6,9.53-27.91,9.53-27.91
	l-10.89,21.11c0,0-16.34,16.34-26.89-4.77c0,0,16,9.19,28.26-19.74s43.23-40.51,43.23-40.51s30.2-7.59,60.38,7.57
	c2.55,1.28,5.09,2.72,7.62,4.34c7.52,4.83,14.88,11.25,21.6,19.75c0.78,0.99,1.56,2.01,2.32,3.05c1.04,1.42,2.06,2.9,3.06,4.43
	l3.74-5.45l-3.74-6.81l-5.79-0.68l-19.4-17.02l6.47-5.45l-15.32,1.02l12.6-8.51H203.9l26.21-10.89h-49.02l44.6-10.55l-59.57-9.87
	l56.85-2.04l-64.68-29.96l50.38,13.96L153.51,35.4l35.4,12.6L135.65,8.51c0,0,128.5,48,146.54,107.57v-9.53l12.6,44.94l-3.06-86.81
	l11.84,68.77l5.86-116.77l3.74,81.7l18.72-37.11l-9.87,47.66l5.79-11.57l-18.04,59.57c0,0,8.17-44.26,48-74.89
	s64.68-46.98,64.68-46.98l-48.68,45.96l22.81-10.55l-31.32,26.89l30.64-8.85l-35.74,20.43l30.64,2.38l-29.62,5.45l18.04,7.49
	l-18.04-0.68l11.91,9.87l-11.57-2.72l5.11,6.47l-8.85-2.04l5.79,8.51l-5.79-0.68l2.72,3.4c0,0-11.23-4.43-10.21-0.68
	c1.02,3.74,1.02,3.74,1.02,3.74l-2.04,7.83c0,0,64-68.09,136.85-69.45s88.51,2.72,88.51,2.72l-44.94,3.4l34.04,3.74
	c0,0-51.4,2.38-52.43,5.79c-1.02,3.4,30.98,2.38,30.98,2.38l-53.45,2.38l43.57,12.26l-60.6-2.38l35.74,24.51l-39.15-15.66
	l16.34,25.87l-26.55-19.4l8.17,28.94l-11.23-17.02l9.53,38.47l-16-30.3l5.79,30.64l-18.38-25.53l5.79,24.17l-9.87-14.98l4.77,19.4
	h-4.77l-11.57-20.09l5.11,20.43h-3.4l-6.13-12.26l2.04,13.62l-7.15,0.34l-8.17-19.06l3.4,21.45l-5.79,0.34l-3.74-12.26L395.9,192
	c0,0,96.34-16.34,145.36,16.34s55.83,35.4,55.83,35.4s-43.23-18.72-46.3-18.72s14.3,17.7,14.3,17.7l-49.36-20.77l34.38,27.91
	l-50.04-28.26l22.13,39.49l-33.36-35.06l7.49,30.3l-17.36-28.94l-0.68,33.02l-7.49-24.17l-2.38,42.21l-6.81-39.15L456.83,272
	l-5.11-31.32L449,269.96l-6.13-22.47l-2.04,35.4l-7.49-34.72l-3.74,23.15l-3.74-27.57l-4.43,38.13l-5.79-42.21l-6.81,22.47
	l-2.72-23.15l-9.53,46.3l-4.77-28.26l-4.09,22.81l-5.45-37.11l-2.04,24.17l-4.43-18.72l-2.38,28.26l-13.96-38.81l2.38,30.98
	l-8.51-21.45l-1.36,19.4l-4.77-2.38l-2.04-21.79l-3.4,1.36l0.68,18.38l48,27.41l-22.47-2.9l39.15,26.55l-26.21-7.83l40.85,28.26
	l-14.3-2.38l21.11,26.89l-14.3-9.87c0,0,13.62,28.94,12.26,34.72c0,0-18.72-36.43-25.19-33.36c0,0,7.15,52.43-15.66,73.19
	l3.06-42.89l-9.87,20.43l-3.4-44.26l-8.85,18.38l-4.43-44.94L353,351.66l-1.7-34.59l-9.19,14.16l-2.38-34.38
	c0,0-13.96,6.81-9.53,12.6s7.15,10.89,7.15,10.89l-13.28-5.45l19.4,30.3l-20.09-19.4c0,0,38.81,55.49,25.87,86.47
	c0,0-13.28-49.36-22.47-48.34c0,0-0.68,59.91-15.32,59.91c0,0,1.36-63.32-14.98-92.94c0,0-9.53-2.04-11.91-4.77
	c0,0-28.94,69.45-40.51,71.49l-12.94,75.23l-1.7-54.47c0,0-102.81,93.96-114.72,103.15S4.1,610.04,0,623.66V570.57z"/>
</svg>
