<?xml version="1.0" encoding="utf-8"?>
<!-- Generator: Adobe Illustrator 23.0.0, SVG Export Plug-In . SVG Version: 6.00 Build 0)  -->
<svg version="1.1" id="Layer_1" xmlns="http://www.w3.org/2000/svg" xmlns:xlink="http://www.w3.org/1999/xlink" x="0px" y="0px"
	 viewBox="0 0 1040.3 618.89" style="enable-background:new 0 0 1040.3 618.89;" xml:space="preserve">
<style type="text/css">
	.st0{stroke:#000000;stroke-miterlimit:10;}
</style>
<image style="overflow:visible;" width="306" height="315" xlink:href="../../../palm tree.png"  transform="matrix(1.9841 0 0 1.9841 -366.1277 972.7447)">
</image>
<path class="st0" d="M0,567.19c0,0,169.65-125.35,190.26-146.82v-14.6l-4.38,3.27c0,0,10.23-61.09,18.71-66.93l-11.11,9.65
	c0,0,12.57-22.8,16.08-23.67c0,0-2.63-23.09-5.26-19.29c-2.63,3.8-5.55,25.72-5.55,25.72l-1.75-26.14c0,0-2.63,2.76-3.8,5.68
	s-11.4,38.58-11.4,38.58l-4.09-41.5l-3.51,26.31l-2.63-21.92l-3.8,44.13l-2.63-19l-1.75,6.43l-9.35-33.61l4.38,46.47
	c0,0-10.81-22.51-11.4-29.52l2.92,27.77l-12.86-36.53l7.6,47.06l-20.75-58.16l8.77,55.83l-18.12-46.47l2.05,49.98l-11.83-39.17
	l-4.54,58.46l-8.48-47.93l-10.81,51.44l-1.46-49.4l-7.01,28.94c0,0-1.75-45.3,11.11-65.76c12.86-20.46,33.03-47.35,54.66-51.73
	c15.92-3.23,45.78-5.5,70.69,2.26c7.8,2.43,15.12,5.85,21.37,10.53c0.9,0.68,1.79,1.38,2.65,2.11v-2.92l-38-18.12l1.75-13.74
	c0,0-11.11,5.26-12.57,14.03v-14.03c0,0-8.77,5.85-8.77,14.32l-2.05-11.69l-5.26,8.48l-3.51-5.26v8.77c0,0-14.91-15.78-6.14-30.69
	c0,0-14.61,6.43-15.49,32.74c0,0-9.35-16.37,8.77-40.04c0,0-15.2,4.68-20.46,34.49c0,0-2.92-25.14,11.11-37.41
	c0,0-15.49,7.89-20.46,38.29c0,0-4.38-18.41,6.43-38.29c0,0-11.68,6.14-11.83,36.83c-0.15,30.69-24.7,23.09-24.7,23.09
	s18.41-9.06,20.17-25.43s4.54-26.89,4.54-26.89s-3.92,14.44-9.31,25.38c-3.39,6.88-7.36,12.37-11.31,12.03
	c-10.23-0.88-13.44-4.38-13.44-4.38s13.44,2.92,17.83-7.89c4.38-10.81,8.18-23.97,8.18-23.97l-9.35,18.12
	c0,0-14.03,14.03-23.09-4.09c0,0,13.74,7.89,24.26-16.95s37.12-34.78,37.12-34.78s25.93-6.52,51.84,6.5
	c2.19,1.1,4.37,2.34,6.54,3.73c6.46,4.14,12.77,9.66,18.54,16.95c0.67,0.85,1.34,1.72,1.99,2.62c0.89,1.22,1.77,2.49,2.63,3.81
	l3.22-4.68l-3.22-5.85l-4.97-0.58l-16.66-14.61l5.55-4.68l-13.15,0.88l10.81-7.31h-25.43l22.51-9.35h-42.09l38.29-9.06l-51.15-8.48
	l48.81-1.75l-55.53-25.72l43.26,11.98l-47.35-26.31l30.4,10.81l-45.73-33.9c0,0,110.33,41.21,125.82,92.36v-8.18l10.81,38.58
	l-2.63-74.53l10.17,59.04l5.03-100.25l3.22,70.15l16.08-31.86l-8.48,40.92l4.97-9.94l-15.49,51.15c0,0,7.01-38,41.21-64.3
	s55.53-40.33,55.53-40.33l-41.8,39.46l19.58-9.06L313.6,160.9l26.31-7.6l-30.69,17.54l26.31,2.05l-25.43,4.68l15.49,6.43
	l-15.49-0.58l10.23,8.48l-9.94-2.34l4.38,5.55l-7.6-1.75l4.97,7.31l-4.97-0.58l2.34,2.92c0,0-9.65-3.8-8.77-0.58
	c0.88,3.22,0.88,3.22,0.88,3.22l-1.75,6.72c0,0,54.95-58.46,117.5-59.62s75.99,2.34,75.99,2.34l-38.58,2.92L484,161.2
	c0,0-44.13,2.05-45.01,4.97c-0.88,2.92,26.6,2.05,26.6,2.05l-45.89,2.05l37.41,10.52l-52.03-2.05l30.69,21.04l-33.61-13.44
	l14.03,22.21l-22.8-16.66l7.01,24.84l-9.65-14.61l8.18,33.03l-13.74-26.01l4.97,26.31l-15.78-21.92l4.97,20.75l-8.48-12.86
	l4.09,16.66h-4.09l-9.94-17.24l4.38,17.54h-2.92l-5.26-10.52l1.75,11.69l-6.14,0.29l-7.01-16.37l2.92,18.41l-4.97,0.29l-3.22-10.52
	l-0.58,10.52c0,0,82.71-14.03,124.8,14.03s47.93,30.4,47.93,30.4s-37.12-16.08-39.75-16.08s12.28,15.2,12.28,15.2l-42.38-17.83
	l29.52,23.97l-42.96-24.26l19,33.9l-28.64-30.1l6.43,26.01l-14.91-24.84l-0.58,28.35l-6.43-20.75l-2.05,36.24l-5.85-33.61
	l-4.09,28.06l-4.38-26.89l-2.34,25.14l-5.26-19.29l-1.75,30.4l-6.43-29.81l-3.22,19.87l-3.22-23.67l-3.8,32.74l-4.97-36.24
	l-5.85,19.29l-2.34-19.87l-8.18,39.75l-4.09-24.26l-3.51,19.58l-4.68-31.86l-1.75,20.75l-3.8-16.08l-2.05,24.26l-11.98-33.32
	l2.05,26.6l-7.31-18.41l-1.17,16.66l-4.09-2.05l-1.75-18.71l-2.92,1.17l0.58,15.78l41.21,23.54l-19.29-2.49l33.61,22.8l-22.51-6.72
	l35.07,24.26l-12.28-2.05l18.12,23.09l-12.28-8.48c0,0,11.69,24.84,10.52,29.81c0,0-16.08-31.27-21.63-28.64
	c0,0,6.14,45.01-13.44,62.84l2.63-36.83l-8.48,17.54l-2.92-38l-7.6,15.78l-3.8-38.58l-7.89,19l-1.46-29.69l-7.89,12.16l-2.05-29.52
	c0,0-11.98,5.85-8.18,10.81c3.8,4.97,6.14,9.35,6.14,9.35l-11.4-4.68l16.66,26.01l-17.24-16.66c0,0,33.32,47.64,22.21,74.24
	c0,0-11.4-42.38-19.29-41.5c0,0-0.58,51.44-13.15,51.44c0,0,1.17-54.36-12.86-79.79c0,0-8.18-1.75-10.23-4.09
	c0,0-24.84,59.62-34.78,61.38l-11.11,64.59l-1.46-46.76c0,0-88.27,80.67-98.5,88.56C88.25,532.97,3.52,601.07,0,612.77V567.19z"/>
<path class="st0" d="M959.94,1068.82c0,0-112.72-94.01-126.41-110.11v-10.95l2.91,2.45c0,0-6.8-45.81-12.43-50.2l7.38,7.23
	c0,0-8.35-17.1-10.68-17.76c0,0,1.75-17.32,3.5-14.47c1.75,2.85,3.69,19.29,3.69,19.29l1.17-19.61c0,0,1.75,2.07,2.52,4.26
	c0.78,2.19,7.57,28.93,7.57,28.93l2.72-31.13l2.33,19.73l1.75-16.44l2.52,33.1l1.75-14.25l1.17,4.82l6.21-25.21l-2.91,34.85
	c0,0,7.19-16.88,7.57-22.14l-1.94,20.82l8.54-27.4l-5.05,35.29l13.79-43.62l-5.83,41.87l12.04-34.85l-1.36,37.48l7.86-29.37
	l3.01,43.84l5.63-35.95l7.19,38.58l0.97-37.04l4.66,21.7c0,0,1.17-33.98-7.38-49.32c-8.54-15.34-21.94-35.51-36.31-38.8
	c-10.58-2.42-30.42-4.13-46.97,1.7c-5.18,1.82-10.04,4.39-14.2,7.9c-0.6,0.51-1.19,1.04-1.76,1.59v-2.19l25.25-13.59l-1.17-10.3
	c0,0,7.38,3.95,8.35,10.52v-10.52c0,0,5.83,4.38,5.83,10.74l1.36-8.77l3.5,6.36l2.33-3.95v6.58c0,0,9.9-11.84,4.08-23.02
	c0,0,9.71,4.82,10.29,24.55c0,0,6.21-12.28-5.83-30.03c0,0,10.1,3.51,13.59,25.87c0,0,1.94-18.85-7.38-28.06
	c0,0,10.29,5.92,13.59,28.72c0,0,2.91-13.81-4.27-28.72c0,0,7.76,4.6,7.86,27.62c0.1,23.02,16.41,17.32,16.41,17.32
	s-12.23-6.8-13.4-19.07c-1.17-12.28-3.01-20.17-3.01-20.17s2.6,10.83,6.18,19.03c2.25,5.16,4.89,9.28,7.51,9.02
	c6.8-0.66,8.93-3.29,8.93-3.29s-8.93,2.19-11.85-5.92s-5.44-17.97-5.44-17.97l6.21,13.59c0,0,9.32,10.52,15.34-3.07
	c0,0-9.13,5.92-16.12-12.71c-6.99-18.63-24.66-26.08-24.66-26.08s-17.23-4.89-34.44,4.87c-1.45,0.82-2.91,1.75-4.35,2.8
	c-4.29,3.11-8.49,7.24-12.32,12.71c-0.45,0.64-0.89,1.29-1.32,1.97c-0.59,0.92-1.18,1.87-1.75,2.85l-2.14-3.51l2.14-4.38l3.3-0.44
	l11.07-10.96l-3.69-3.51l8.74,0.66l-7.19-5.48h16.89l-14.95-7.01h27.96l-25.44-6.8l33.98-6.36l-32.43-1.32l36.9-19.29l-28.74,8.99
	l31.46-19.73l-20.2,8.11l30.39-25.43c0,0-73.3,30.91-83.6,69.27v-6.14l-7.19,28.93l1.75-55.9l-6.76,44.28l-3.34-75.19l-2.14,52.61
	l-10.68-23.89l5.63,30.69l-3.3-7.45l10.29,38.36c0,0-4.66-28.5-27.38-48.22S718.96,724,718.96,724l27.77,29.59l-13.01-6.8
	l17.87,17.32l-17.48-5.7l20.39,13.15l-17.48,1.53l16.89,3.51l-10.29,4.82l10.29-0.44l-6.8,6.36l6.6-1.75l-2.91,4.16l5.05-1.32
	l-3.3,5.48l3.3-0.44l-1.55,2.19c0,0,6.41-2.85,5.83-0.44s-0.58,2.41-0.58,2.41l1.17,5.04c0,0-36.51-43.84-78.07-44.72
	c-41.56-0.88-50.49,1.75-50.49,1.75l25.63,2.19l-19.42,2.41c0,0,29.32,1.53,29.91,3.73c0.58,2.19-17.67,1.53-17.67,1.53l30.49,1.53
	l-24.86,7.89l34.57-1.53l-20.39,15.78l22.33-10.08l-9.32,16.66l15.15-12.49l-4.66,18.63l6.41-10.96l-5.44,24.77l9.13-19.51
	l-3.3,19.73l10.49-16.44l-3.3,15.56l5.63-9.64l-2.72,12.49h2.72l6.6-12.93l-2.91,13.15h1.94l3.5-7.89l-1.17,8.77l4.08,0.22
	l4.66-12.28l-1.94,13.81l3.3,0.22l2.14-7.89l0.39,7.89c0,0-54.96-10.52-82.92,10.52c-27.96,21.04-31.85,22.8-31.85,22.8
	s24.66-12.06,26.41-12.06s-8.16,11.4-8.16,11.4l28.16-13.37l-19.61,17.97l28.55-18.19l-12.62,25.43l19.03-22.58l-4.27,19.51
	l9.9-18.63l0.39,21.26l4.27-15.56l1.36,27.18l3.88-25.21l2.72,21.04l2.91-20.17l1.55,18.85l3.5-14.47l1.17,22.8l4.27-22.36
	l2.14,14.91l2.14-17.76l2.52,24.55l3.3-27.18l3.88,14.47l1.55-14.91l5.44,29.81l2.72-18.19l2.33,14.69l3.11-23.89l1.17,15.56
	l2.52-12.06l1.36,18.19l7.96-24.99l-1.36,19.95l4.85-13.81l0.78,12.49l2.72-1.53l1.17-14.03l1.94,0.88l-0.39,11.84l-27.38,17.65
	l12.82-1.87l-22.33,17.1l14.95-5.04l-23.3,18.19l8.16-1.53l-12.04,17.32l8.16-6.36c0,0-7.77,18.63-6.99,22.36
	c0,0,10.68-23.45,14.37-21.48c0,0-4.08,33.76,8.93,47.13l-1.75-27.62l5.63,13.15l1.94-28.5l5.05,11.84l2.52-28.93l5.24,14.25
	l0.97-22.27l5.24,9.12l1.36-22.14c0,0,7.96,4.38,5.44,8.11c-2.52,3.73-4.08,7.01-4.08,7.01l7.57-3.51l-11.07,19.51l11.46-12.49
	c0,0-22.14,35.73-14.76,55.68c0,0,7.57-31.78,12.82-31.13c0,0,0.39,38.58,8.74,38.58c0,0-0.78-40.77,8.54-59.84
	c0,0,5.44-1.32,6.8-3.07c0,0,16.51,44.72,23.11,46.03l7.38,48.44l0.97-35.07c0,0,58.65,60.5,65.44,66.42
	c6.8,5.92,63.09,56.99,65.43,65.76V1068.82z"/>
</svg>
