<?xml version="1.0" encoding="UTF-8" standalone="no"?>
<!-- Created with Inkscape (http://www.inkscape.org/) -->

<svg
   xmlns:dc="http://purl.org/dc/elements/1.1/"
   xmlns:cc="http://creativecommons.org/ns#"
   xmlns:rdf="http://www.w3.org/1999/02/22-rdf-syntax-ns#"
   xmlns:svg="http://www.w3.org/2000/svg"
   xmlns="http://www.w3.org/2000/svg"
   xmlns:sodipodi="http://sodipodi.sourceforge.net/DTD/sodipodi-0.dtd"
   xmlns:inkscape="http://www.inkscape.org/namespaces/inkscape"
   width="2100mm"
   height="297mm"
   viewBox="0 0 2100 297"
   version="1.1"
   id="svg4545"
   inkscape:version="0.92.4 (5da689c313, 2019-01-14)"
   sodipodi:docname="coast.svg">
  <defs
     id="defs4539" />
  <sodipodi:namedview
     id="base"
     pagecolor="#ffffff"
     bordercolor="#666666"
     borderopacity="1.0"
     inkscape:pageopacity="0.0"
     inkscape:pageshadow="2"
     inkscape:zoom="0.0875"
     inkscape:cx="1551.422"
     inkscape:cy="-114.44247"
     inkscape:document-units="mm"
     inkscape:current-layer="layer1"
     showgrid="false"
     inkscape:window-width="1920"
     inkscape:window-height="1017"
     inkscape:window-x="-8"
     inkscape:window-y="-8"
     inkscape:window-maximized="1" />
  <metadata
     id="metadata4542">
    <rdf:RDF>
      <cc:Work
         rdf:about="">
        <dc:format>image/svg+xml</dc:format>
        <dc:type
           rdf:resource="http://purl.org/dc/dcmitype/StillImage" />
        <dc:title />
      </cc:Work>
    </rdf:RDF>
  </metadata>
  <g
     inkscape:label="Layer 1"
     inkscape:groupmode="layer"
     id="layer1">
    <path
       style="fill:#eed6af;fill-opacity:1;stroke:#000000;stroke-width:0.18787698px;stroke-linecap:butt;stroke-linejoin:miter;stroke-opacity:1"
       d="m -6.047619,78.035478 c 26.655044,-20.413195 53.052981,2.165276 83.154761,0.701467 h 1.511904 c 0.503967,0 1.155546,-0.179683 1.511905,0 0.35636,0.179697 -0.356359,0.582659 0,0.762342 107.498439,10.11679 186.321099,16.771405 294.821419,16.771405 0.55523,0 5.98678,-0.03067 6.04763,0 0.35637,0.179683 -0.35636,0.582645 0,0.762328 0.0486,0.02451 4.16904,0 4.5357,0 129.58531,3.28608 211.81452,-19.820746 334.13097,-19.820746 h 1.5119 c 0.50396,0 1.15555,0.179683 1.51191,0 0.35634,-0.179683 -0.35636,-0.582645 0,-0.762328 0.35634,-0.179683 1.00793,0 1.51189,0 h 13.60715 c 276.30948,12.093523 585.86338,4.313435 860.27378,6.861025 h 31.75 c 91.5625,10.3387 200.3318,-15.308089 281.2143,-16.009063 h 31.75 c 50.8205,14.13001 104.5716,-1.006036 155.7262,0.762329 0.3563,0.179696 -0.3564,0.582659 0,0.762342 0.3563,0.179683 1.0079,0 1.5119,0 h 1.5119 l 1.5119,234.221031 c -709.4391,-3.36058 -1302.55544,-2.69597 -2109.1071191,0 z"
       id="path5090"
       inkscape:connector-curvature="0"
       sodipodi:nodetypes="ccscccccccsccscccccccscccc" />
  </g>
</svg>
