<?xml version="1.0" encoding="UTF-8" standalone="no"?>
<svg
   xmlns:dc="http://purl.org/dc/elements/1.1/"
   xmlns:cc="http://creativecommons.org/ns#"
   xmlns:rdf="http://www.w3.org/1999/02/22-rdf-syntax-ns#"
   xmlns:svg="http://www.w3.org/2000/svg"
   xmlns="http://www.w3.org/2000/svg"
   xmlns:sodipodi="http://sodipodi.sourceforge.net/DTD/sodipodi-0.dtd"
   xmlns:inkscape="http://www.inkscape.org/namespaces/inkscape"
   version="1.0"
   width="2080pt"
   height="300pt"
   viewBox="0 0 2080 300"
   preserveAspectRatio="xMidYMid meet"
   id="svg8"
   sodipodi:docname="grassfront.svg"
   inkscape:version="0.92.4 (5da689c313, 2019-01-14)">
  <metadata
     id="metadata14">
    <rdf:RDF>
      <cc:Work
         rdf:about="">
        <dc:format>image/svg+xml</dc:format>
        <dc:type
           rdf:resource="http://purl.org/dc/dcmitype/StillImage" />
        <dc:title></dc:title>
      </cc:Work>
    </rdf:RDF>
  </metadata>
  <defs
     id="defs12" />
  <sodipodi:namedview
     pagecolor="#ffffff"
     bordercolor="#666666"
     borderopacity="1"
     objecttolerance="10"
     gridtolerance="10"
     guidetolerance="10"
     inkscape:pageopacity="0"
     inkscape:pageshadow="2"
     inkscape:window-width="1550"
     inkscape:window-height="842"
     id="namedview10"
     showgrid="false"
     inkscape:zoom="0.23533398"
     inkscape:cx="1366.1352"
     inkscape:cy="434.85695"
     inkscape:window-x="0"
     inkscape:window-y="0"
     inkscape:window-maximized="0"
     inkscape:current-layer="g6" />
  <g
     transform="matrix(0.1,0,0,-0.1,0,300)"
     id="g6"
     style="fill:#000000;stroke:none">
    <path
       d="m 10970.554,2861.0774 c -5.047,-14.803 -18.507,-98.9465 -28.602,-186.9856 -10.093,-88.0392 -21.869,-179.9737 -28.6,-205.6842 -10.093,-43.63 -11.776,-45.1882 -33.647,-27.2688 -21.869,18.6985 -23.553,17.9195 -13.458,-6.2329 6.729,-13.2448 -3.364,-56.8748 -18.506,-97.3883 -28.6,-68.5614 -30.282,-70.8987 -42.06,-41.2927 -5.045,17.1404 -25.234,99.7257 -42.058,183.0901 l -31.964,151.9259 -8.412,-132.4482 c -11.777,-153.484 -38.695,-201.7886 -178.33,-308.5263 -75.707,-57.6539 -107.671,-69.3405 -107.671,-39.7345 0,16.3612 -220.389,431.6253 -227.118,428.5088 -3.365,-1.5582 20.188,-86.4809 52.153,-189.3229 67.295,-222.0455 82.435,-304.6309 60.565,-331.1205 -13.459,-16.3612 -18.507,-11.6866 -26.918,35.0599 -21.871,97.3883 -60.565,222.8245 -119.447,381.7623 l -58.884,155.8214 10.095,-112.9705 c 6.731,-62.3285 15.142,-162.0543 21.871,-222.0455 5.047,-59.9912 6.729,-123.878 1.682,-142.5765 l -8.411,-34.2807 -30.282,24.1523 c -28.6,22.5941 -28.6,27.2687 -3.366,90.3764 35.33,87.2599 25.237,110.6331 -13.458,32.7225 -16.824,-32.7225 -38.694,-59.9913 -47.107,-59.9913 -8.411,0 -15.14,-8.5702 -15.14,-18.6985 0,-10.9075 -6.729,-21.815 -16.824,-24.1523 -10.094,-3.1165 -16.8234,10.1283 -16.8234,34.2806 0,34.2807 -60.5654,299.9562 -99.26,433.1835 -13.4582,42.0718 -15.1401,38.1763 -16.8236,-42.8509 -1.6819,-71.6779 -8.411,-99.7257 -38.6929,-139.4601 l -38.6945,-50.642 -8.4126,186.9857 -8.4111,186.2065 -30.2835,-132.4481 c -40.3764,-169.0662 -40.3764,-169.0662 -82.4347,-137.1229 -18.5055,13.2449 -60.5654,51.4211 -90.8473,84.9227 -95.8945,100.5048 -60.5654,32.7225 50.4709,-98.1675 33.6473,-39.7344 57.2001,-79.4689 53.8347,-89.5972 -30.2819,-67.7824 -23.5528,-68.5615 -104.3056,17.9194 -40.3764,45.1882 -74.0236,89.5973 -74.0236,99.7256 0,10.1285 -6.7292,16.3613 -15.1418,14.024 -8.411,-2.3373 -23.5528,11.6866 -35.3291,30.3851 -33.6473,56.0958 -40.3764,34.2807 -8.4111,-26.4896 15.1402,-30.3852 25.2347,-59.2121 20.1874,-64.6658 -5.0472,-5.4538 -10.0929,-1.5582 -10.0929,8.5701 -3.3653,37.3972 -20.189,9.3493 -35.3307,-58.433 -23.5528,-98.9466 -137.9529,-329.5622 -153.0946,-305.4098 -8.411,16.3612 -23.5528,114.5287 -42.0583,306.189 -23.5528,227.4992 -50.4709,243.8604 -62.2473,38.9552 -8.4126,-116.0869 -8.4126,-117.6451 -67.2945,-171.4035 -102.6237,-93.4928 -104.3056,-93.4928 -127.8584,-22.594 -33.6472,100.5047 -132.9072,324.1084 -161.5072,361.5056 -13.4583,19.4776 -21.8709,26.4896 -16.8236,15.5821 3.3653,-10.9075 20.189,-77.9107 35.3307,-149.5885 23.5528,-109.854 25.2347,-137.1229 6.7292,-176.8573 -11.7764,-26.4896 -26.9182,-47.5255 -31.9654,-47.5255 -6.7292,0 -21.8709,44.4091 -33.6473,99.7256 -18.5055,86.4809 -62.2473,243.0814 -74.0237,261.0009 -1.6819,3.1164 -3.3637,-105.1794 -5.0472,-241.5232 v -247.7559 l -63.9292,-52.9794 c -35.3291,-29.606 -65.6126,-52.2001 -68.9764,-50.6418 -3.3654,1.5581 20.189,52.9792 52.1528,115.3078 31.9654,62.3285 55.5181,116.0869 52.1528,119.2033 -1.6819,3.8955 -21.8709,-18.6985 -43.7402,-50.642 -52.1544,-74.7942 -201.8836,-257.8843 -218.7073,-265.6754 -6.7291,-3.1164 -30.2819,11.6867 -52.1527,32.7225 l -38.6946,38.9553 28.6,204.9052 c 15.1418,112.9704 31.9654,218.9289 37.0127,236.0694 6.7291,17.1403 5.0472,28.8269 0,26.4896 -5.0473,-2.3373 -28.6,-50.642 -50.4709,-107.5168 -21.8709,-56.0957 -45.4237,-105.1794 -52.1528,-108.2958 -6.7291,-3.1165 -8.4126,4.6746 -1.6835,17.1403 15.1418,29.6061 -8.411,544.5958 -23.5528,518.8852 -6.7291,-10.9075 -16.8236,-56.8748 -23.5527,-101.2839 -38.6945,-263.3381 -99.2584,-514.2105 -126.1765,-514.2105 -6.7291,0 -35.3291,22.5941 -65.6126,50.6419 -47.1056,44.4091 -65.6111,81.0271 -129.5403,262.5591 -42.0599,116.0868 -75.7071,214.2543 -75.7071,218.9289 0,4.6747 -3.3638,6.2329 -8.411,3.8956 -5.0473,-1.5582 -1.6835,-49.0837 8.411,-104.4004 8.4126,-55.3165 18.5071,-144.1347 23.5527,-197.8931 5.0473,-53.7583 15.1418,-123.0989 20.189,-153.484 6.7292,-31.1642 6.7292,-56.8748 1.6819,-56.8748 -6.7291,0 -23.5527,13.2448 -38.6945,29.606 -23.5528,27.2688 -31.9638,45.9673 -40.3764,110.6332 l -5.0457,27.2688 -10.0945,-31.1643 -10.0945,-31.1643 -40.3764,52.2001 c -23.5527,28.827 -43.7417,51.4211 -47.1055,49.8629 -3.3654,-1.5582 13.4583,-38.1762 37.011,-81.8062 40.3764,-75.5734 42.0583,-81.0271 16.8237,-124.6572 -13.4583,-24.9314 -38.6945,-59.212 -53.8347,-75.5733 l -30.2835,-30.3851 -8.411,54.5374 -8.4126,54.5375 -13.4583,-42.8509 c -6.7291,-23.3732 -18.5055,-63.8867 -25.2363,-89.5972 l -13.4582,-46.7465 -20.1874,50.6419 c -11.7764,28.0479 -58.8835,148.8094 -104.3072,268.7919 -47.1055,119.9825 -87.4819,222.0455 -92.5292,225.9411 -3.3654,4.6746 -1.6819,-21.8151 3.3654,-58.4331 8.411,-57.6539 3.3637,-73.236 -30.2835,-116.866 l -40.3764,-50.642 -13.4583,50.642 c -6.7291,28.0478 -23.5528,89.5973 -35.3292,136.3437 l -21.8708,85.7018 -3.3654,-180.7528 c -1.6819,-166.7289 -5.0473,-183.8693 -38.6945,-225.9411 l -38.6929,-45.1881 -8.4127,42.8508 -10.0945,42.8509 -11.7763,-62.3285 c -8.4111,-34.2808 -33.6473,-88.8182 -58.882,-120.7616 l -43.7417,-58.4331 -13.4583,42.851 c -30.2835,100.5048 -70.6599,205.6842 -116.0836,303.0725 -30.2819,62.3286 -45.4236,114.5288 -40.3764,128.5527 6.7292,17.1403 5.0473,21.0359 -5.0472,13.2448 -11.7764,-7.7911 -21.8709,1.5582 -37.0111,35.0598 -42.0599,99.7257 -52.1527,96.6093 -26.9181,-8.5702 16.8236,-70.8987 15.1418,-82.5853 -13.4583,-126.2153 -18.5071,-27.2687 -40.3764,-49.0837 -47.1055,-49.0837 -6.7307,0 -23.5544,15.5821 -33.6473,35.0598 -15.1417,24.9314 -23.5543,31.9434 -30.2835,22.5941 -8.411,-10.1284 -23.5527,-3.1164 -63.9291,28.8269 -63.9292,50.642 -70.6584,45.1882 -11.7764,-8.5702 l 42.0583,-38.9553 -50.471,-109.8541 c -65.611,-142.5765 -82.4346,-172.1826 -99.2583,-166.7288 -8.4126,2.3373 -20.189,-3.8955 -25.2346,-14.0239 -10.0945,-16.3613 -107.671,-72.457 -117.7655,-66.2241 -3.3653,0.7791 -13.4582,13.2448 -23.5527,25.7105 -18.5072,21.815 -18.5072,20.2568 -10.0945,-11.6866 8.411,-28.8269 3.3653,-38.1762 -23.5528,-49.0837 -37.0126,-15.5821 -25.2363,-37.3972 -97.5765,173.7408 -38.6945,114.5287 -38.6945,123.8779 -15.1417,181.5319 35.3291,84.9226 30.2819,106.7376 -8.4126,38.1762 -35.3292,-62.3285 -100.9402,-134.7854 -111.0347,-122.3198 -3.3654,4.6747 -37.0119,44.4091 -74.0239,89.5973 -35.3296,45.1883 -65.6118,77.9108 -65.6118,73.2361 -1.6824,-3.8955 20.1882,-49.8629 48.7882,-101.2839 57.2002,-105.1794 57.2002,-110.6332 26.9178,-129.3318 -20.1882,-12.4656 -26.9178,-10.1283 -67.2944,24.9315 -43.7411,37.3971 -45.4236,44.4091 -43.7411,138.681 5.0469,180.7528 0,377.8669 -8.4118,373.9714 -5.0471,-1.5583 -23.5529,-87.2601 -42.0589,-189.323 -20.1884,-102.8422 -37.0119,-187.7648 -40.3766,-188.5439 -3.3647,-1.5582 -18.5062,12.4657 -37.0118,30.3851 -16.8237,18.6986 -35.3295,35.0598 -40.3768,37.3971 -5.0471,2.3373 -26.9176,22.5942 -48.7882,44.4091 -23.5531,22.5942 -43.7413,39.7345 -47.106,38.9554 -3.3646,-1.5582 20.1884,-35.0598 48.7885,-74.0152 37.0116,-47.5255 50.4706,-73.236 38.6941,-78.6897 -11.7766,-5.4538 -55.5179,37.3971 -132.9063,127.7735 -63.9295,74.7942 -119.4473,135.5646 -121.1297,134.0064 -1.6822,-0.7792 38.6944,-73.2361 92.5297,-161.2752 l 95.8943,-159.7169 -10.0941,-140.2392 c -5.0471,-77.1316 -11.7765,-121.5407 -13.4587,-98.1675 -5.0471,57.6539 -26.918,42.8509 -37.012,-24.9314 l -8.4118,-56.0957 -53.8355,58.433 c -63.9295,68.5614 -74.0237,54.5374 -15.1411,-21.0358 52.1531,-67.0033 16.8236,-45.9674 -84.1179,48.3046 -74.0236,70.8987 -89.1649,77.1316 -57.2,27.2686 10.0942,-14.8029 21.8706,-39.7344 26.9177,-54.5374 5.047,-14.803 11.7765,-32.7225 16.8236,-38.9553 11.7764,-16.3613 -8.4118,-4.6747 -100.9413,55.3166 l -77.3888,52.2001 50.4709,107.5168 c 28.6001,59.9913 55.5177,116.0869 58.8824,126.2153 5.0471,9.3493 5.0471,17.1403 0,17.1403 -3.3647,0 -23.5529,-26.4896 -43.7412,-58.433 -20.1882,-31.9433 -40.3764,-56.8748 -45.4235,-55.3166 -3.3648,2.3374 10.0941,62.3286 30.2823,133.2273 20.1882,71.6778 33.6472,131.6691 28.6001,133.2273 -3.3646,1.5582 -20.1882,-27.2687 -38.6942,-64.6659 l -31.9648,-68.5614 -10.0942,54.5375 c -6.7294,30.3852 -13.4587,98.1675 -15.1412,151.9259 -5.0471,99.7256 -25.2352,232.9529 -30.2824,190.102 -13.4588,-107.5168 -55.5177,-378.6459 -63.9295,-400.4609 l -10.0942,-27.2688 -23.5529,28.827 c -23.5531,31.1643 -111.0357,95.051 -270.8596,197.8931 -53.8353,35.0598 -107.6709,70.1196 -119.4473,77.9107 -11.7764,8.5702 18.506,-20.2567 65.612,-63.1076 275.9065,-243.0813 282.6358,-253.2097 250.6712,-389.5535 -10.0943,-46.7464 -25.2354,-99.7256 -33.6473,-116.866 -8.4118,-17.1403 -25.2353,-52.2001 -35.3294,-77.9107 l -20.1882,-46.7464 -114.4004,158.1587 c -114.4003,158.1587 -114.4003,158.1587 -105.9886,229.8366 l 6.7298,71.6778 -31.9649,-70.1197 c -18.5059,-38.1762 -47.1061,-85.7017 -62.2472,-105.1794 -40.3767,-49.0837 -124.4944,-126.9944 -134.5886,-122.3198 -3.3645,1.5583 -18.506,34.2807 -33.6472,71.6779 -13.4588,37.3972 -55.5177,111.4122 -92.5296,165.1706 -35.3294,52.9793 -65.6118,102.8421 -65.6118,111.4123 0,7.791 -5.0471,16.3613 -13.4591,18.6986 -6.7293,1.5582 -10.094,-10.9076 -6.7293,-28.827 6.7293,-31.9434 5.0471,-31.9434 -20.1882,-15.5821 -15.1411,9.3493 -58.8825,42.8508 -97.5767,74.0151 -37.0117,31.1643 -99.259,77.9108 -136.271,103.6213 -37.0118,25.7105 -89.1648,67.0031 -116.0824,91.9345 -26.918,24.1524 -52.1532,44.4091 -55.5179,44.4091 -10.0942,0 35.3295,-56.8747 75.7061,-92.7136 45.4236,-42.0718 33.6471,-49.8629 -16.8235,-12.4658 -20.1884,15.5822 -42.0591,26.4896 -45.4237,24.1523 -5.0471,-2.3373 26.9177,-30.3851 70.6588,-63.1076 58.8824,-44.4091 75.7062,-63.8868 68.9768,-77.9107 -6.7295,-10.9075 -16.8237,-19.4777 -23.5531,-19.4777 -6.7293,0 -40.3764,16.3613 -74.0235,37.3972 -33.6473,20.2568 -92.5297,55.3166 -129.5416,78.6897 -45.4236,26.4897 -68.9765,49.8629 -70.6589,66.2242 -1.6825,23.3732 -1.6825,23.3732 -15.1414,4.6746 -6.7293,-10.9076 -13.4588,-15.5822 -15.1411,-10.9076 -1.6824,3.8957 -13.4588,14.8031 -26.9175,23.3733 -23.5531,14.0239 -23.5531,13.2448 -6.7295,-8.5702 8.4117,-12.4657 25.2353,-27.2687 33.647,-31.9433 20.1882,-10.9076 47.106,-232.9531 48.7883,-382.5415 0,-85.7018 -5.0471,-109.075 -35.3294,-145.6931 -68.9766,-83.3644 -80.7532,-58.433 -84.1179,174.5201 0,100.5047 -6.7293,201.0095 -15.1413,222.0453 l -11.7765,38.9554 -3.3646,-51.4211 c -1.6825,-55.3165 -30.2825,-204.126 -45.4235,-248.5351 -10.0943,-27.2687 -10.0943,-26.4896 -58.8827,31.1643 -40.3766,48.3046 -48.7882,70.1196 -50.4706,132.4482 -1.6823,72.457 -26.9178,144.1348 -30.2825,89.5973 -3.3646,-35.8389 -21.8706,-81.8062 -33.6471,-81.8062 -15.1411,0.7791 -112.7179,112.9705 -171.6003,200.2305 -30.2825,44.4091 -57.2002,78.6897 -60.5649,77.1316 -3.3646,-0.7792 13.4589,-45.9674 35.3294,-98.9467 55.5177,-127.7735 99.2592,-272.6874 90.8474,-296.0606 l -6.7295,-18.6986 -18.5058,19.4778 c -11.7767,10.9074 -82.4355,91.9346 -158.1417,181.5319 -75.7059,88.8182 -143.0004,163.6124 -149.7297,165.1706 -6.7295,2.3373 10.0943,-28.827 37.012,-68.5614 60.5647,-88.0391 198.5179,-337.3533 198.5179,-358.3892 0,-22.5941 -169.9179,-126.2153 -186.7416,-112.9704 -6.7294,5.4536 -63.9296,79.4689 -126.1767,163.6124 -63.9295,84.9226 -116.0826,152.7049 -121.1297,151.1467 -3.3646,-1.5582 33.6472,-84.1435 82.4355,-183.8692 85.8002,-178.4155 90.8473,-200.2305 37.0118,-208.0215 -10.0942,-1.5583 -25.2351,7.0119 -37.0118,18.6985 -30.2824,35.8389 -176.6474,280.4786 -213.6592,356.8309 l -21.8709,46.7465 8.4121,-54.5375 c 3.3646,-29.6061 20.1881,-86.4809 33.647,-125.4362 15.1411,-38.9553 23.5531,-82.5854 20.1883,-97.3883 l -5.0472,-26.4897 -60.5648,38.9553 c -82.4355,52.2002 -99.259,84.1436 -99.259,195.5559 0,173.7408 -23.553,429.2879 -35.3296,396.5654 -6.7293,-17.1404 -21.8706,-100.5048 -31.9647,-185.4274 -11.7766,-84.9227 -28.6001,-155.8215 -37.0119,-158.1588 -6.7293,-2.3373 -13.4589,-0.7791 -13.4589,3.1165 0,3.1164 -30.2824,25.7105 -67.294,48.3046 -50.4708,31.1643 -67.2943,49.8629 -68.9766,73.236 l -3.3649,31.9434 -10.0942,-26.4896 -10.0942,-25.7105 -67.294,43.63 c -114.4004,75.5734 -111.0357,73.2361 -94.2122,50.6419 8.4118,-10.9075 47.106,-44.4091 85.8003,-73.236 l 70.659,-53.7584 -20.1882,-101.2839 c -20.1885,-91.9347 -23.5531,-99.7257 -47.106,-85.7018 -23.553,14.8031 -25.2356,14.8031 -11.7766,-0.779 23.553,-26.4897 26.9177,-68.5615 11.7766,-112.9706 l -15.1413,-42.8509 -33.6471,35.0598 c -30.2824,31.9435 -33.6471,49.0837 -28.6,214.2545 l 5.0471,179.1945 -40.3768,-132.4481 c -21.8705,-72.457 -40.3765,-134.0064 -42.0589,-136.3438 -1.6824,-2.3373 -13.4587,8.5702 -25.2353,23.3732 -11.7764,14.8031 -23.5529,62.3286 -25.2353,105.1795 l -3.3649,77.9107 -23.5529,-54.5375 c -11.7764,-29.606 -21.8706,-70.1197 -21.8706,-88.8182 -1.6822,-18.6986 -6.7292,-31.9434 -15.1414,-28.827 -6.7293,3.1165 -40.3764,53.7584 -74.0235,112.1915 -33.6471,58.433 -62.2473,100.5048 -62.2473,93.4928 -1.6822,-7.012 21.8707,-81.0272 48.7886,-163.6125 28.5998,-82.5853 48.7883,-164.3915 47.1058,-181.5319 -5.0471,-29.606 -8.4116,-27.2687 -79.0708,54.5375 -40.3765,47.5255 -77.3884,100.5048 -80.7531,119.2034 -5.0471,17.9194 -16.8235,32.7224 -25.2351,32.7224 -8.412,0 -25.2356,11.6867 -38.6944,25.7106 -31.9649,32.7225 -31.9649,18.6985 0,-28.827 13.4588,-21.0359 25.2353,-52.9792 23.553,-70.1196 v -31.9433 l -26.9177,31.1642 c -154.7768,183.8692 -230.4828,268.0128 -237.2123,265.6754 -3.3647,-2.3373 8.4118,-25.7105 28.6,-52.9792 74.0239,-105.9585 82.4355,-131.6691 67.2942,-204.9052 -8.4116,-38.1762 -35.3294,-99.7256 -60.5647,-136.3437 l -43.7413,-66.224 -28.6,62.3285 c -30.2824,62.3285 -99.259,155.8214 -111.0355,150.3677 -3.3648,-1.5583 5.0471,-20.2568 20.1882,-41.2927 13.4589,-21.815 28.6001,-65.445 33.6472,-97.3884 l 10.0941,-58.433 -58.8824,37.3972 c -33.6472,21.0358 -72.3414,45.1881 -87.4826,54.5374 l -26.9177,17.1403 20.1882,-17.9194 c 10.0942,-10.1284 13.4589,-20.2567 8.4118,-22.594 -3.3647,-2.3374 6.7295,-21.8151 25.2353,-43.6301 18.506,-21.8149 45.4237,-64.6659 58.8826,-95.8302 25.2353,-56.0956 25.2353,-56.8747 -16.8236,-94.2718 -28.6001,-25.7106 -42.059,-32.7225 -43.7413,-21.815 l -1.6824,15.5821 -13.4587,-15.5821 c -11.7766,-13.2449 -15.1413,-11.6866 -25.2355,11.6866 -52.1529,122.3197 -188.42391,380.9832 -191.78864,365.4011 -1.68236,-10.1284 10.09418,-76.3525 28.60002,-147.2512 16.82364,-70.8988 28.60018,-129.3317 26.91782,-130.89 -1.68237,-0.779 -35.32948,17.1403 -74.02368,40.5136 -50.47074,31.9434 -68.97674,50.642 -68.97674,70.8987 0,14.803 -6.72929,27.2687 -15.14111,27.2687 -8.41182,0 -20.18836,12.4658 -25.23545,27.2688 -10.09403,24.1523 -193.47101,321.7711 -242.25939,393.449 l -20.1882,27.2687 10.09418,-34.2807 c 3.36473,-18.6985 -1.68236,-62.3286 -11.77654,-97.3884 -20.18836,-62.3285 -20.18836,-63.1076 -40.37657,-35.8388 -10.09418,14.803 -37.01183,59.9912 -58.88256,100.5048 -23.55293,39.7344 -43.74113,69.3405 -45.42349,65.4449 -3.36473,-3.8956 16.82347,-70.1196 43.74129,-146.4722 l 48.78822,-138.6809 -31.96475,-98.1675 c -18.50584,-53.7584 -38.6942,-108.2958 -45.42365,-121.5407 l -13.45875,-22.5941 -57.2002,45.9673 c -31.96474,25.7105 -97.57676,95.8302 -146.36498,155.8214 -85.80022,107.5168 -114.400399,127.7736 -62.247291,45.9673 13.458908,-23.3732 23.553089,-45.9673 20.188362,-49.8628 -3.364727,-4.6747 -47.106018,26.4896 -97.576762,68.5614 l -92.529669,76.3525 -3.36457,-53.7584 c -5.04709,-67.0032 -53.83547,-162.8334 -121.12969,-238.4068 l -52.15311,-57.6539 V 1060.5614 -68.364501 H 10363.223 c 9713.928,0 10642.588,0.7791 10632.492,12.465701 -23.553,28.827 -28.597,72.4569 -11.775,88.0391 31.966,26.4896 58.882,19.4777 80.753,-20.2568 38.695,-74.0152 47.107,-80.248001 122.811,-80.248001 h 67.297 V 1111.9825 2291.5503 l -35.331,28.0478 c -28.6,22.5941 -35.329,36.618 -26.918,68.5614 8.412,39.7345 8.412,39.7345 -11.775,13.2448 l -21.871,-27.2686 -77.389,62.3285 c -43.742,34.2807 -79.071,68.5614 -79.071,75.5734 0,7.791 -6.731,14.0238 -15.142,14.0238 -8.411,0 -20.186,9.3493 -25.234,20.2568 -6.73,11.6866 -15.142,18.6986 -20.188,17.1404 -3.365,-2.3374 8.411,-24.1524 26.918,-49.0837 26.915,-36.6181 33.646,-63.8869 31.964,-139.4602 -1.683,-59.9913 -6.727,-85.7017 -15.14,-70.8987 l -13.462,23.3732 -1.681,-26.4896 c 0,-14.024 6.73,-56.0957 16.823,-93.4929 l 20.189,-67.0031 -90.845,-111.4124 c -48.791,-61.5494 -92.531,-108.2958 -95.895,-103.6212 -3.365,4.6747 1.682,38.9554 11.775,76.3526 23.553,85.7016 23.553,172.1825 1.682,258.6634 -10.093,36.6181 -21.87,119.9825 -28.599,183.8692 -10.094,96.6093 -13.46,109.075 -23.554,74.0152 -6.729,-23.3733 -13.458,-67.0032 -15.14,-97.3883 -1.684,-45.9674 -5.048,-52.2003 -21.871,-39.7345 -20.188,14.803 -109.351,76.3524 -269.178,185.4274 -47.106,32.7225 -89.164,58.4331 -92.53,56.8748 -5.047,-1.5582 30.284,-36.618 77.39,-77.1316 l 85.8,-73.236 -40.377,-92.7137 c -23.553,-50.6419 -48.789,-102.063 -55.518,-115.3079 l -15.14,-23.3732 -16.824,31.1643 c -10.094,17.1404 -48.787,88.8182 -85.801,159.7169 -38.693,70.8988 -65.611,112.9705 -60.564,93.4928 26.918,-99.7256 25.234,-239.9649 -3.364,-324.8875 -15.143,-48.3046 -30.284,-88.0392 -35.331,-88.0392 -3.365,0 -18.505,12.4658 -31.965,27.2689 -15.142,17.1402 -23.553,54.5374 -23.553,104.4003 0,91.1555 -31.964,146.4721 -136.271,234.5111 -38.693,31.9434 -107.669,91.1555 -151.411,131.6691 -45.424,40.5136 -82.436,71.6779 -82.436,68.5614 0,-8.5702 85.801,-148.0303 153.096,-244.6396 72.34,-108.2958 92.529,-169.0661 74.024,-233.732 l -13.46,-45.1882 -23.555,31.1643 c -13.456,17.1403 -53.834,84.1435 -89.163,148.0302 -37.013,64.6659 -80.755,138.6811 -99.26,165.1708 -25.235,38.1762 -28.6,55.3165 -16.824,81.027 21.872,43.6301 10.094,46.7464 -18.504,5.4538 -31.965,-47.5256 -42.061,-49.8629 -65.614,-13.2448 -11.775,17.1403 -25.235,30.3852 -28.597,28.0478 -5.049,-2.3373 3.362,-22.5941 16.822,-45.1881 25.236,-38.1763 25.236,-45.1883 0,-81.0272 -38.696,-55.3166 -57.202,-59.9912 -58.884,-14.803 -3.365,31.9433 -5.047,28.8269 -15.14,-20.2568 -6.73,-31.9434 -8.412,-60.7704 -5.047,-63.8867 3.364,-3.8956 0,-6.2329 -8.413,-6.2329 -20.189,0 -37.011,27.2687 -37.011,62.3285 0,20.2568 -5.047,24.1523 -16.823,15.5821 -16.825,-13.2448 -15.142,-14.803 -57.2,50.642 -37.013,57.654 -31.966,17.9194 6.729,-56.8748 33.646,-65.4449 40.376,-136.3437 18.505,-172.9617 -10.094,-14.803 -16.822,-3.8956 -26.918,41.2927 -6.729,32.7224 -20.189,59.9912 -28.6,59.9912 -10.093,0 -11.775,-20.2568 -5.045,-54.5375 6.727,-29.6061 6.727,-54.5375 1.683,-54.5375 -5.049,0 -25.236,14.8031 -45.427,32.7225 -35.327,32.7225 -37.011,44.4091 -6.727,126.9945 6.727,17.9194 5.045,20.2567 -6.729,7.791 -10.097,-10.9075 -18.506,10.9075 -28.602,74.0152 l -13.457,89.5973 -28.601,-155.0423 c -28.6,-147.2512 -38.693,-176.0782 -55.518,-151.9258 -18.506,28.0478 -127.859,280.4784 -137.953,320.2128 -6.731,26.4897 -20.188,45.9674 -33.648,48.3047 -13.458,2.3373 -23.554,12.4657 -25.233,21.815 0,10.1284 -5.049,14.0239 -8.412,8.5701 -5.049,-4.6746 -1.684,-28.8269 8.412,-52.2001 13.457,-33.5016 11.775,-52.2002 -8.412,-84.1435 -13.462,-22.5941 -37.015,-68.5615 -52.155,-102.0631 -15.141,-32.7225 -31.965,-58.433 -37.011,-55.3166 -5.047,2.3374 -18.507,22.5941 -30.282,44.4091 -18.505,36.6181 -18.505,32.7226 -10.096,-42.8508 6.731,-60.7704 3.366,-87.26 -11.774,-95.8302 -18.508,-10.1284 -23.553,-9.3493 -52.155,6.2328 -35.331,19.4777 -40.375,14.8031 -11.776,-14.0239 15.141,-14.803 13.46,-24.1523 -3.364,-40.5134 -20.191,-20.2569 -21.869,-21.036 -35.331,-6.233 -6.729,8.5703 -13.456,38.1763 -15.14,66.2241 0,28.0479 -11.778,92.7137 -25.235,144.1348 -13.461,51.4211 -25.236,102.063 -26.918,112.9705 -1.683,10.9075 -8.412,-56.0957 -15.14,-148.0303 l -11.778,-167.508 -53.836,-48.3046 c -50.471,-47.5255 -82.435,-64.6659 -60.564,-34.2808 16.824,26.4897 -25.235,119.9825 -85.8,187.7649 -48.791,54.5374 -60.565,75.5733 -58.882,120.7615 v 54.5375 l -20.189,-38.9553 -20.189,-38.9554 -37.011,38.9554 c -20.189,21.815 -42.058,49.0837 -47.107,60.7703 -6.729,11.6866 -16.822,20.2568 -20.187,17.9194 -5.048,-2.3373 11.774,-40.5135 37.011,-86.4808 47.107,-87.26 48.787,-124.6571 3.365,-66.2241 -16.824,19.4777 -25.236,26.4896 -20.189,15.5821 28.602,-64.6659 26.918,-98.1674 -3.364,-132.4482 l -33.647,-34.2806 -70.658,61.5494 c -38.697,34.2807 -74.026,73.236 -77.389,85.7017 -3.366,13.2449 -16.823,124.6572 -26.919,248.5351 -11.778,123.878 -26.918,218.9291 -33.647,210.3589 -6.727,-7.7911 -20.189,-104.4003 -30.282,-213.4753 -11.776,-109.0749 -25.236,-211.1379 -31.965,-225.941 -13.457,-26.4896 -13.457,-25.7105 -70.658,42.8509 -47.106,56.0957 -60.566,84.9226 -67.295,144.1348 -13.46,105.9585 -30.282,61.5494 -43.74,-111.4123 -5.047,-81.0271 -16.825,-144.1348 -23.555,-140.2393 -11.776,6.233 -149.729,208.8006 -185.06,273.4666 -10.092,17.9194 -20.187,32.7225 -21.869,32.7225 -3.365,0 -3.365,-88.8182 0,-196.335 l 3.364,-197.114 -48.787,93.4929 c -119.448,225.1618 -153.093,294.5023 -176.646,370.8548 -35.331,109.8541 -43.744,112.1914 -31.967,10.9075 16.823,-154.2632 33.645,-366.1802 28.601,-369.2967 -15.143,-9.3493 -30.283,13.2448 -42.061,56.0957 -25.235,102.063 -35.328,130.89 -48.788,134.7855 -8.411,2.3373 -15.141,-19.4777 -15.141,-49.0837 -1.682,-50.642 -1.682,-52.2002 -25.235,-33.5017 l -25.236,19.4778 10.096,-23.3732 c 6.727,-12.4658 16.822,-28.827 23.551,-35.0598 6.732,-6.2329 8.411,-37.3972 5.049,-68.5615 l -10.095,-56.8748 -30.283,29.6061 c -40.376,39.7344 -38.693,24.9314 3.365,-36.618 30.284,-45.9674 31.964,-57.6539 15.14,-125.4363 -26.916,-109.0749 -47.105,-134.7854 -48.787,-61.5494 -3.365,81.8062 -28.6,145.693 -94.213,236.8485 l -57.198,78.6898 8.413,-58.433 c 10.092,-58.4331 -15.144,-185.4274 -40.378,-218.929 -11.777,-14.8031 -21.871,-10.1285 -77.39,36.6179 -70.659,60.7704 -65.612,40.5136 8.413,-35.8388 65.611,-65.445 28.6,-46.7464 -90.847,48.3046 -82.436,64.6658 -99.26,84.1435 -114.4,136.3437 -21.871,70.8987 -31.967,81.0271 -33.648,32.7225 -1.683,-18.6985 -5.048,-28.0478 -10.092,-20.2568 -13.462,24.9314 -37.015,13.2448 -28.602,-15.5822 3.365,-16.3612 -15.142,7.012 -40.378,52.2002 -26.917,45.1882 -52.151,87.26 -58.88,93.4929 -11.778,12.4657 -10.096,6.2328 30.282,-120.7616 57.2,-179.9738 62.247,-221.2664 31.963,-264.1173 l -28.6,-38.9553 -53.834,92.7137 c -75.706,133.2273 -267.495,432.4044 -274.226,429.288 -3.364,-1.5583 30.284,-89.5974 72.342,-195.5559 80.753,-204.126 92.529,-264.1173 23.553,-127.7736 -35.329,69.3405 -42.059,77.1317 -48.788,53.7584 -6.727,-19.4777 -18.505,6.2329 -40.376,85.7018 -45.424,161.2752 -57.202,168.2871 -48.789,31.1642 l 6.729,-120.7615 -87.482,77.9107 c -48.789,42.8508 -105.987,97.3884 -127.858,120.7615 -67.295,72.457 -28.602,1.5583 62.245,-112.9705 43.742,-55.3165 85.801,-113.7496 92.531,-128.5526 5.047,-14.803 15.142,-33.5016 20.188,-42.0718 5.047,-7.791 1.682,-12.4657 -6.728,-10.1284 -8.413,2.3374 -48.789,44.4091 -89.167,92.7138 -40.376,48.3046 -94.211,109.854 -121.129,137.1228 -40.377,39.7344 -47.106,55.3166 -38.695,85.7018 10.095,35.8388 8.413,35.8388 -13.458,13.2447 l -21.871,-22.594 -40.376,52.2001 c -21.871,28.827 -42.058,50.642 -47.106,49.0837 -3.365,-2.3373 13.459,-35.8388 38.695,-74.7942 23.553,-39.7344 40.376,-74.0151 35.329,-76.3525 -6.729,-2.3373 -10.095,-0.7791 -10.095,3.1165 0,4.6746 -11.776,14.803 -25.234,23.3732 -20.189,10.9074 -18.507,5.4537 6.729,-24.1523 28.6,-36.6181 28.6,-44.4091 6.729,-120.7616 -11.776,-45.1882 -26.918,-90.3764 -31.965,-101.2839 -6.729,-14.803 -47.106,28.0479 -158.142,171.4035 -82.435,105.1794 -149.729,186.2066 -151.411,180.7527 0,-5.4536 37.011,-78.6897 82.434,-163.6124 87.484,-161.2751 119.448,-245.4186 89.166,-231.3947 -10.095,4.6746 -89.166,53.7584 -178.329,109.0749 -131.224,82.5854 -164.871,109.075 -180.013,144.1348 -21.871,47.5256 -68.977,123.878 -58.882,93.4929 25.235,-71.6778 45.424,-228.2784 31.964,-234.5112 -11.777,-5.4538 -21.87,3.1165 -28.6,25.7105 -6.729,18.6986 -18.506,38.9554 -28.6,45.1882 -15.141,10.1284 -16.824,9.3493 -8.411,-1.5582 5.047,-7.7911 13.458,-45.1882 20.187,-82.5853 11.776,-72.4569 -1.682,-105.1794 -82.435,-188.5439 l -33.647,-35.0598 -55.518,101.2839 c -63.929,116.866 -67.295,113.7496 -30.282,-35.0598 28.6,-113.7496 25.235,-134.0064 -18.506,-159.7169 -23.554,-14.8031 -25.236,-10.1284 -23.554,62.3285 5.047,87.2599 -11.776,120.7616 -117.764,242.3023 -35.33,42.0718 -75.707,91.9346 -87.483,110.6332 -11.777,17.9194 -23.553,31.9433 -26.917,30.3851 -8.412,-4.6746 25.235,-77.1315 72.34,-155.0422 23.555,-36.6181 48.789,-85.7018 55.519,-109.075 13.459,-38.9554 13.459,-40.5136 -11.777,-23.3732 -13.458,10.1283 -70.658,63.8867 -124.494,120.7615 -89.164,93.4929 -97.577,107.5168 -99.259,161.2751 -1.683,54.5376 -3.365,56.0957 -16.823,24.1524 -8.413,-18.6986 -16.824,-35.0598 -20.189,-36.618 -3.364,-2.3374 -28.6,20.2568 -53.835,49.0837 -62.247,69.3405 -84.118,79.4689 -43.742,21.815 90.847,-134.7855 89.166,-127.7735 60.566,-219.7082 -40.377,-132.4481 -38.695,-129.3318 -84.119,-88.039 -21.87,19.4776 -94.212,135.5646 -161.507,259.4426 -68.976,123.0988 -126.176,220.4872 -129.54,216.5916 -3.365,-4.6746 20.187,-89.5972 53.835,-189.3229 31.965,-99.7257 67.294,-221.2664 79.071,-270.3501 20.189,-90.3764 13.458,-325.6667 -10.095,-342.807 -6.729,-6.2328 -33.647,4.6746 -75.705,30.3851 l -62.248,38.9554 -11.776,111.4123 c -15.142,141.7974 -38.695,283.5949 -63.929,387.2161 l -20.189,81.8062 -30.282,-148.0302 c -16.824,-81.0272 -37.013,-155.0423 -45.424,-163.6125 -25.236,-28.0479 -42.06,84.9226 -20.189,137.1228 11.776,26.4897 16.824,49.0837 11.776,51.4211 -3.363,2.3372 -13.458,-8.5703 -18.505,-24.1524 -6.729,-15.5822 -16.824,-29.606 -23.553,-31.1643 -6.729,-2.3372 -25.234,38.1763 -42.058,89.5973 -16.824,51.4211 -33.647,91.9347 -38.695,90.3764 -3.365,-2.3373 0,-63.8868 10.095,-137.1228 13.458,-97.3883 13.458,-137.9019 0,-151.9258 -18.507,-17.9195 -26.918,-14.024 -176.647,89.5972 -87.484,59.9913 -158.142,112.9706 -158.142,117.6452 0,4.6747 -5.048,7.012 -10.095,3.8955 -6.729,-2.3373 23.553,-38.1762 67.295,-78.6897 84.118,-80.2481 105.987,-129.3318 26.916,-59.2122 -63.929,56.0957 -63.929,47.5256 1.684,-24.1523 79.071,-86.4808 124.494,-178.4154 80.753,-165.9498 -10.095,2.3373 -5.048,-6.2328 10.094,-20.2568 26.917,-24.1523 21.871,-67.0031 -6.729,-59.2121 -11.776,3.8956 -60.565,114.5288 -75.707,176.0782 -3.364,14.8031 -3.364,-41.2927 1.683,-125.4362 5.047,-105.1794 1.682,-155.0423 -10.094,-158.9378 -11.777,-3.1165 -18.506,5.4538 -18.506,25.7105 0,41.2927 -38.694,97.3884 -126.178,186.2065 -42.058,40.5136 -75.705,85.7018 -77.387,98.9467 0,13.2448 -15.142,42.0717 -33.648,63.1076 l -31.965,38.9553 8.413,-31.1643 c 8.411,-24.1522 5.047,-28.8269 -8.413,-19.4776 -15.14,9.3493 -16.824,6.2329 -8.411,-11.6866 21.871,-51.421 28.6,-101.2839 10.095,-89.5973 -13.46,8.5701 -18.508,0 -18.508,-34.2807 0,-27.2688 -6.729,-43.6301 -15.14,-38.9554 -31.965,16.3613 -119.447,149.5885 -211.978,320.9921 -53.835,99.7257 -99.258,179.9736 -102.624,179.1946 -1.681,-1.5582 21.871,-86.4809 53.837,-189.323 60.564,-201.0096 97.576,-370.8549 87.482,-420.7177 -5.048,-28.827 -8.411,-25.7106 -50.471,42.8509 -42.059,67.7823 -47.106,87.2599 -48.788,210.3588 l -1.683,136.3437 -20.188,-87.2599 c -25.236,-106.7376 -52.152,-126.9945 -38.694,-29.6061 6.729,42.8509 5.047,62.3285 -3.364,50.6419 -8.412,-10.9074 -15.142,-29.606 -16.825,-42.0717 -1.682,-32.7225 -25.235,-17.9195 -68.976,45.9672 -20.188,29.6062 -47.106,63.1077 -60.564,74.0152 -26.918,21.0359 -26.918,23.3732 16.823,-58.433 21.871,-40.5135 21.871,-62.3286 3.364,-165.9497 -21.871,-112.1914 -43.74,-165.1707 -43.74,-98.1675 0,16.3612 -11.778,119.9824 -28.6,229.0574 -25.236,169.8453 -31.965,191.6603 -42.06,148.0303 -6.729,-28.0478 -13.458,-89.5972 -15.142,-137.1228 0,-48.3046 -8.411,-105.9586 -16.822,-128.5527 -11.776,-34.2806 -11.776,-28.0478 -6.73,35.839 5.047,67.7823 3.365,74.0151 -13.459,46.7464 l -18.505,-31.1643 -21.871,42.8509 -20.189,42.8508 6.731,-70.1196 c 6.729,-52.9792 1.681,-78.6898 -20.189,-106.7376 -15.142,-21.0358 -33.648,-37.3971 -40.377,-37.3971 -13.46,0 -132.907,123.0988 -132.907,138.681 0,6.2329 38.694,85.7018 84.118,175.299 47.107,89.5974 82.436,164.3916 79.071,165.9499 -3.364,1.5581 -53.835,-61.5496 -114.4,-141.0185 -58.882,-79.4688 -111.035,-144.1347 -116.082,-144.1347 -5.047,0 -50.471,42.0718 -100.942,92.7137 -50.471,51.421 -94.212,91.9347 -97.576,91.1555 -1.684,-1.5582 35.329,-52.9792 82.434,-114.5287 l 85.801,-112.1914 -30.282,-38.9553 c -57.2,-78.6899 -65.613,-78.6899 -70.659,-5.4538 -8.412,119.9825 -30.283,134.0064 -40.378,27.2687 -11.776,-116.0868 -31.963,-139.4601 -63.929,-74.7942 -26.916,56.0957 -25.235,72.4569 8.413,151.1468 15.14,34.2806 25.234,63.8867 21.871,66.224 -5.048,1.5582 -37.013,-42.0718 -72.342,-96.6092 -33.647,-54.5375 -67.295,-102.0631 -74.024,-106.7377 -5.047,-3.8955 -15.142,4.6746 -20.189,19.4777 -8.411,20.2568 -11.776,12.4657 -13.458,-28.827 -1.682,-35.8388 -8.411,-56.8747 -20.189,-56.8747 -10.093,0 -15.14,-5.4538 -10.093,-11.6866 5.046,-6.2329 -8.413,-35.0598 -30.283,-63.8868 -38.695,-52.2002 -40.377,-52.2002 -40.377,-21.8151 -1.682,17.1405 10.095,60.7704 23.553,97.3885 13.46,36.618 23.553,73.2359 23.553,81.8062 l -1.682,15.5821 -8.411,-15.5821 c -5.048,-8.5703 -23.553,-30.3852 -40.377,-48.3047 -16.823,-17.9194 -31.965,-42.8508 -33.647,-54.5374 0,-11.6866 -6.731,-28.827 -13.46,-37.3972 -10.093,-10.9075 -16.823,-3.8955 -25.234,27.2687 -6.73,23.3733 -23.553,60.7704 -38.695,82.5854 l -25.235,38.9554 58.882,70.1196 c 68.977,79.4688 105.989,144.1347 119.448,205.6841 l 8.411,42.851 -30.282,-50.642 c -53.835,-86.4809 -137.953,-179.1946 -163.188,-179.1946 -6.73,0 -6.73,37.3972 -1.683,84.1436 11.776,89.5973 -3.364,75.5734 -38.695,-40.5136 -18.505,-63.1077 -23.553,-68.5614 -45.423,-54.5374 -15.141,9.3492 -20.188,24.9313 -15.141,42.0718 5.048,14.8029 13.459,48.3045 16.824,74.015 l 8.411,46.7464 -30.282,-54.5374 c -16.823,-29.6061 -35.329,-53.7584 -43.742,-52.9793 -8.411,0 -40.376,23.3732 -70.658,50.642 -63.931,55.3166 -58.883,35.8389 10.093,-40.5136 37.013,-42.0717 42.06,-56.0957 30.284,-81.8062 -25.237,-54.5375 -35.33,-56.0957 -45.424,-7.7911 l -11.777,46.7464 -3.365,-50.6419 -5.047,-50.642 -30.282,38.9554 c -38.695,49.0837 -40.376,43.63 -6.729,-29.6061 21.871,-50.6419 21.871,-62.3285 1.682,-79.4689 -23.553,-21.0359 -23.553,-21.0359 -67.295,37.3971 -53.835,70.1196 -53.835,70.8988 -11.776,183.8693 33.647,91.1555 33.647,123.0988 0,62.3285 -52.153,-95.051 -79.071,-127.7735 -92.529,-112.9705 -11.777,13.2449 0,45.1882 50.47,126.9944 5.048,7.7911 -11.776,-7.0119 -38.694,-32.7225 l -47.106,-46.7464 -45.423,54.5376 c -25.236,30.3851 -55.518,68.5613 -68.977,85.7017 -40.378,52.2002 -30.283,12.4657 23.553,-81.0271 28.6,-48.3047 50.471,-95.8301 50.471,-104.4004 0,-15.5821 0,-16.3612 -25.236,-0.779 -21.871,14.0239 -23.553,11.6866 -25.235,-22.5942 0,-26.4896 -21.871,-61.5494 -79.071,-123.0988 -42.06,-46.7464 -80.753,-83.3645 -85.8,-81.0271 -5.047,1.5582 3.364,23.3732 18.506,48.3045 26.918,45.1883 62.247,158.9379 62.247,197.1142 -1.682,31.1642 -26.918,2.3373 -38.695,-42.851 -5.047,-21.0359 -23.552,-58.433 -38.694,-81.8062 -43.74,-65.445 -57.2,-32.7225 -47.106,112.9705 8.413,138.681 -30.282,576.5391 -48.787,533.6882 z M 3771.7484,2594.6229 c 35.3296,-27.2688 82.4358,-63.8868 102.6239,-82.5853 l 37.012,-33.5017 -55.5179,-69.3405 c -28.6002,-38.1762 -55.5178,-68.5614 -58.8824,-67.7822 -1.6825,1.5581 -23.5531,61.5494 -47.1062,134.0063 -23.553,73.236 -47.1058,140.2393 -50.4705,150.3676 -13.459,27.2688 0,21.0359 72.3411,-31.1642 z M 570.2238,2469.1866 c 25.2353,-63.1076 42.05893,-120.7615 38.6942,-128.5526 -3.36472,-8.5701 -23.55309,3.8955 -55.51783,33.5017 -47.10602,43.6299 -50.47075,53.7583 -53.83547,144.1347 -5.04693,119.9825 10.09418,108.2959 70.6591,-49.0838 z m 3474.0665,30.3852 c 0,-17.9194 5.0471,-40.5135 10.0942,-51.4211 5.0471,-12.4656 -6.7294,-7.0119 -33.6473,15.5822 -43.7411,35.8389 -52.1527,58.433 -31.9647,82.5853 10.0942,12.4658 11.7765,12.4658 33.6471,-1.5582 11.7766,-7.7911 21.8707,-28.0479 21.8707,-45.1882 z m -1758.0628,-64.6659 c 15.1415,-22.5941 25.2353,-44.4091 21.8707,-49.0837 -11.7763,-16.3612 -131.2237,98.9466 -131.2237,125.4362 v 26.4897 l 40.3764,-31.1643 c 21.8708,-17.1404 53.8354,-49.0838 68.9766,-71.6779 z m 16826.9325,74.0152 c -5.048,-5.4537 -8.411,-1.5582 -8.411,9.3493 0,10.9075 3.363,14.803 8.411,10.1284 3.365,-5.4538 3.365,-14.8031 0,-19.4777 z m 656.12,0 c -5.047,-6.2328 -10.096,-3.8955 -10.096,4.6746 -1.682,8.5702 3.365,13.2449 8.412,10.1284 5.049,-2.3373 6.731,-9.3492 1.684,-14.803 z m -1805.17,-52.9792 26.918,-42.851 -33.647,19.4777 c -20.189,12.4657 -31.966,31.1643 -31.966,50.642 1.684,34.2807 1.684,33.5015 38.695,-27.2687 z M 210.19946,2175.4634 c 26.91765,-49.0838 48.78822,-92.7138 48.78822,-96.6093 0,-3.8955 -84.11786,44.4091 -185.059187,106.7376 l -185.059183,114.5287 16.823474,49.0838 c 8.411817,26.4896 16.823635,69.3405 18.505998,95.051 l 1.682364,46.7465 117.764964,-112.9706 c 84.11785,-81.027 131.22371,-137.9019 166.55335,-202.5677 z M 19776.007,2393.6133 c 0,-14.803 25.235,-97.3884 57.202,-183.0901 79.069,-219.7082 77.389,-204.9052 33.647,-249.3143 l -37.012,-38.9552 -53.837,52.9792 c -47.105,49.0837 -52.152,60.7703 -52.152,132.4482 0,43.6299 -11.777,100.5048 -25.235,126.2153 -13.46,25.7105 -23.553,59.2121 -25.236,74.7942 0,26.4896 40.378,127.7736 62.247,155.0423 11.778,14.803 38.696,-32.7225 40.376,-70.1196 z m -17491.4618,-92.7137 -11.7764,-42.0718 -47.1062,26.4897 c -45.4235,24.9314 -47.1059,30.3851 -47.1059,100.5047 v 74.0151 l 58.8824,-58.433 c 52.1532,-52.2001 57.2004,-62.3284 47.1061,-100.5047 z m 16847.1198,9.3493 c -5.047,-55.3166 -15.14,-53.7584 -43.742,5.4537 -11.776,28.0478 -13.456,18.6986 -6.727,-42.0718 6.727,-52.9793 3.362,-75.5734 -8.413,-72.4569 -10.094,3.1164 -23.553,24.1523 -30.283,48.3046 -10.093,38.9553 21.871,126.2153 72.342,194.7767 15.141,19.4777 23.552,-59.2121 16.823,-134.0063 z m -9540.6443,-49.0838 c 10.0945,-81.8062 -20.189,-151.9258 -102.6237,-234.5112 l -40.3764,-42.0718 -1.6835,35.0599 c 0,73.2361 31.9654,386.437 43.7418,409.0311 10.0945,21.8149 13.4598,19.4776 52.1528,-35.0598 26.9181,-37.3972 43.7417,-84.9227 48.789,-132.4482 z M 20635.695,2383.485 c 35.326,-35.0599 67.293,-83.3646 74.02,-106.7378 13.46,-53.7584 -13.458,-154.2632 -82.433,-315.5383 l -52.154,-124.6571 -15.142,44.4091 c -13.458,37.3972 -6.729,61.5495 37.012,155.8215 67.293,146.472 92.53,208.8006 84.119,212.6961 -5.048,1.5582 -40.378,-47.5256 -80.753,-109.854 -43.742,-67.7824 -79.073,-109.075 -87.482,-103.6213 -28.602,21.815 -31.965,100.5048 -8.413,182.311 13.457,47.5256 30.282,118.4243 37.011,158.1588 6.729,39.7344 16.826,71.6777 21.871,71.6777 5.046,0 38.695,-29.606 72.344,-64.6657 z M 3971.949,2363.2281 c 8.4118,-51.4211 -16.8236,-202.5678 -43.7413,-246.9769 -11.7764,-20.2567 -11.7764,-19.4777 -33.6471,11.6867 -30.2824,49.0837 -38.6942,35.0598 -8.4118,-17.9195 23.5529,-41.2927 23.5529,-52.2002 -8.4118,-142.5766 -53.8355,-155.0422 -55.5177,-151.9258 -53.8355,105.9585 1.6825,155.8215 6.7296,191.6603 37.012,245.4187 68.9766,129.3317 67.2942,126.2153 85.8001,111.4123 8.4118,-7.7911 20.1885,-37.3971 25.2354,-67.0032 z m 5908.4372,-10.1284 c -1.6834,-48.3046 -5.0472,-81.0271 -8.4126,-72.4569 -5.0472,8.5702 -16.8236,30.3852 -25.2346,48.3046 -15.1418,24.1523 -13.4583,42.0718 3.3637,71.6778 11.778,21.815 23.5544,39.7345 26.9182,39.7345 3.3653,0 3.3653,-39.7345 3.3653,-87.26 z m 8139.2418,-45.1882 c -6.731,-23.3732 -18.507,-62.3285 -30.283,-85.7017 -28.6,-62.3286 -42.059,-34.2807 -52.153,104.4003 l -8.411,116.866 50.471,-45.9673 c 43.742,-40.5136 48.787,-51.421 40.376,-89.5973 z M 1503.9319,2241.6874 c -11.7767,-19.4776 -25.2355,-35.0598 -31.9649,-35.0598 -6.7295,0 -23.553,11.6866 -38.6942,25.7105 -23.5531,19.4777 -25.2353,31.9434 -13.459,59.9913 8.4119,19.4776 16.8237,59.9912 18.506,89.5973 l 1.6822,54.5375 42.0591,-79.469 c 38.6941,-71.6777 40.3766,-84.1435 21.8708,-115.3078 z m 5921.8951,-97.3883 c 18.5071,-152.705 13.4599,-218.1499 -16.8236,-241.5232 -21.8693,-15.5821 -26.9165,3.1165 -62.2473,198.6723 -37.011,209.5798 -37.011,229.0574 3.3654,288.2696 l 31.9654,46.7464 11.7763,-67.0032 c 6.7292,-37.3971 20.1874,-138.6811 31.9638,-225.1619 z m 13665.783,229.0574 c 38.696,-42.8509 42.06,-50.6419 23.553,-79.4689 -31.963,-48.3046 -40.375,-45.9672 -52.152,15.5821 -6.729,31.1643 -16.825,70.8988 -21.87,88.0391 -11.778,39.7345 -1.682,35.0598 50.469,-24.1523 z m -14266.3834,-34.2806 10.0945,-42.851 -31.9654,18.6985 c -37.0126,19.4778 -40.3764,31.1644 -21.8708,71.6779 8.4126,21.0359 11.7763,22.5941 21.8708,10.1284 6.7292,-7.7911 16.8237,-34.2807 21.8709,-57.6538 z m 8795.3604,-110.6333 48.789,-44.4091 -70.66,-83.3644 c -84.118,-98.9465 -75.705,-106.7377 -139.634,109.8541 -23.553,81.8062 -48.79,158.9378 -53.837,171.4035 -10.094,25.7105 126.177,-71.6778 215.342,-153.4841 z m -8958.5495,92.7137 c -5.0472,-24.9314 -25.2346,-59.9912 -43.7417,-77.9106 -21.8693,-21.815 -31.9638,-25.7106 -26.9166,-13.2449 5.0473,10.9076 13.4583,52.2002 20.1874,92.7138 10.0945,66.224 13.4583,71.6778 35.3292,58.433 18.5071,-10.9075 21.8709,-27.2688 15.1417,-59.9913 z m 9333.7155,45.9674 c 21.871,-24.1524 20.187,-39.7345 -6.729,-137.9019 -18.508,-60.7704 -37.013,-112.1914 -43.742,-115.3079 -6.729,-2.3373 -6.729,33.5016 0,80.2481 5.047,46.7464 10.094,110.6331 10.094,142.5765 0,31.1642 3.364,56.8748 8.411,56.8748 5.048,0 18.507,-11.6866 31.966,-26.4896 z m -14089.738,-57.654 c 1.6823,-22.5941 -5.0471,-39.7344 -13.4588,-37.3971 -23.5531,7.012 -35.3296,50.642 -23.5531,85.7018 10.0941,28.8269 11.7766,29.606 23.5531,12.4657 6.7293,-10.9076 11.7764,-38.1762 13.4588,-60.7704 z m 3854.2794,-2.3373 c 0,-8.5701 -6.7296,-14.803 -15.1415,-14.803 -18.5058,0 -35.3293,28.0479 -33.6471,58.433 v 23.3733 l 23.553,-26.4897 c 13.4589,-14.024 25.2356,-32.7226 25.2356,-40.5136 z m 11641.9096,16.3613 c 0,-10.1284 -1.683,-10.1284 -16.824,0 -8.412,6.2329 -16.825,17.1403 -16.825,23.3731 0,10.1284 1.682,10.1284 16.825,0 8.412,-6.2328 16.824,-17.1402 16.824,-23.3731 z M 1653.6616,2285.3175 c 18.5058,-31.9435 31.9646,-59.2122 28.5998,-60.7704 -10.094,-4.6746 -77.3884,91.9346 -77.3884,109.8541 0,24.1523 11.7766,12.4656 48.7886,-49.0837 z m -1007.73176,-42.851 c 8.41182,-26.4896 18.50584,-81.027 23.55293,-121.5406 l 8.41182,-74.0152 -21.87073,67.0032 c -21.87056,66.2241 -70.65895,183.0902 -87.48242,213.4753 -5.04709,8.5702 6.72929,3.8955 26.91766,-10.9075 20.1882,-14.803 43.74129,-48.3046 50.47074,-74.0152 z m 5011.74066,4.6747 c 1.6824,-15.5821 -5.0471,-24.1524 -15.1413,-21.0359 -8.4118,2.3373 -16.8236,21.0359 -15.1412,41.2926 0,27.2689 5.0469,32.7225 15.1412,21.0359 8.4119,-8.5701 15.1413,-27.2687 15.1413,-41.2926 z m 1128.8616,16.3613 c 48.789,-49.8629 60.5654,-114.5288 33.6473,-185.4275 -11.7764,-32.7225 -23.5528,-57.6539 -26.9182,-56.0957 -3.3637,1.5582 -20.1874,57.6539 -38.6945,124.6571 -28.6,105.1794 -30.2819,153.484 -8.411,153.484 3.3638,0 21.8709,-16.3612 40.3764,-36.6179 z M 17141.439,2145.0782 c -6.731,-31.1643 -16.826,-53.7584 -25.237,-50.642 -6.729,3.8956 -6.729,31.9434 1.684,61.5495 6.727,30.3851 15.14,75.5734 16.822,101.2839 l 5.047,46.7464 6.731,-50.642 c 3.362,-28.0478 0,-76.3524 -5.047,-108.2958 z m -11012.7089,79.4689 v -68.5614 l -25.2347,35.0598 c -26.9181,38.1763 -15.1417,101.2839 20.1874,101.2839 3.3654,0 6.7307,-30.3852 5.0473,-67.7823 z m 4577.6929,-14.0239 c -8.411,-67.0032 -16.824,-83.3645 -57.2,-115.3078 -26.918,-20.2568 -50.471,-35.839 -53.836,-34.2807 -8.411,3.8955 89.165,212.6961 104.307,224.3828 16.824,13.2448 16.824,7.0119 6.729,-74.7943 z m 3997.28,-51.421 c -18.506,-71.678 -23.553,-80.2481 -18.506,-35.0599 5.046,33.5015 8.412,86.4809 10.093,116.8661 0,44.4091 3.366,51.421 16.824,35.0598 11.776,-14.024 8.413,-51.4211 -8.411,-116.866 z m 1650.392,108.2957 c -5.048,-5.4537 -8.413,-1.5581 -8.413,9.3493 0,10.9076 3.365,14.8031 8.413,10.1284 3.365,-5.4537 3.365,-14.803 0,-19.4777 z m 1046.426,-33.5015 c 0,-28.827 -5.048,-35.0598 -15.141,-23.3732 -20.19,22.594 -20.19,88.8181 0,74.0151 8.412,-6.2328 15.141,-28.827 15.141,-50.6419 z m 2065.933,-36.618 c 15.142,-47.5255 -21.871,-34.2807 -43.741,15.5821 -10.093,24.1523 -23.553,52.9793 -26.919,63.8867 -5.045,10.9076 6.731,3.8956 26.919,-15.5821 18.508,-19.4777 38.694,-48.3046 43.741,-63.8867 z M 80.657947,2134.1707 255.62295,1996.2687 233.75238,1951.0806 c -13.4589,-24.1524 -33.6471,-63.1077 -45.42365,-86.4809 l -20.1882,-42.0718 -28.60018,38.1762 c -33.64711,44.4091 -38.6942,32.7226 -13.45875,-31.1642 15.14111,-41.2927 13.45875,-52.2001 -28.600178,-115.3078 -42.058927,-62.3286 -48.788221,-67.7823 -63.929493,-52.2002 -16.823635,17.9195 -16.823635,17.9195 -23.5529284,-6.2328 -3.364727,-14.0239 -10.09418106,-25.7105 -16.8236351,-25.7105 -6.7294545,0 -30.2823825,-15.5822 -53.8354715,-35.0599 -23.552929,-19.4776 -47.105854,-35.0598 -53.835314,-35.0598 -8.41182,0 -15.14127,-7.7911 -15.14127,-17.1403 -6.72945,-49.0837 -28.60002,74.0151 -30.28238,165.1706 -3.36473,130.8899 -28.60002,312.4219 -52.15311,364.6221 -16.82348,35.8389 -15.14111,46.7464 31.96475,113.7495 28.60018,41.2927 52.1531,81.0271 52.1531,88.0391 0,21.0359 20.18837,7.012 208.612277,-140.2392 z M 18431.806,2252.595 c 1.682,-37.3972 -18.507,-67.0033 -38.696,-52.9794 -20.187,14.8031 -18.505,40.5136 1.682,66.2242 21.873,25.7105 33.649,21.0358 37.014,-13.2448 z m 2754.017,-47.5256 c 1.681,-41.2926 -45.424,-162.0542 -67.295,-173.7409 -37.011,-18.6985 -10.093,191.6603 31.965,245.4187 11.777,16.3613 31.966,-24.9314 35.33,-71.6778 z m -20018.3626,24.1524 c 28.6001,-25.7105 50.4706,-51.4211 47.1059,-56.8749 -3.3646,-6.2328 -28.6,15.5822 -57.2,46.7465 -30.2824,31.9433 -50.4708,57.6538 -47.1061,57.6538 3.3648,0 30.2824,-21.0359 57.2002,-47.5254 z m 14969.6106,-211.138 c -20.189,-29.6061 -42.058,-52.9793 -47.106,-52.9793 -47.107,0 -60.565,85.7018 -38.694,237.6276 l 11.776,77.9107 55.518,-105.1794 53.835,-105.1795 z M 2242.4862,2210.5232 c 0,-8.5703 -13.4589,-35.0598 -31.9647,-58.433 l -30.2824,-42.8509 -1.6824,81.8062 -1.6822,81.8062 33.647,-23.3732 c 18.5058,-12.4657 33.6473,-30.3851 31.9647,-38.9553 z m 2483.1586,-109.075 c 31.9649,-109.0749 58.8824,-220.4873 57.2001,-245.4187 0,-10.9075 -42.0588,56.0957 -94.2119,147.2512 l -92.5297,167.508 30.2824,50.642 30.2825,51.421 21.8706,-42.8509 c 10.0942,-23.3732 31.9648,-81.0271 47.106,-128.5526 z m 6510.7202,-17.9194 c -43.742,-67.0032 -85.8,-126.9945 -94.211,-134.0065 -21.871,-14.803 -16.824,-3.1164 40.376,87.2601 25.235,37.3971 48.788,86.4808 53.835,109.0749 6.729,22.5941 23.553,60.7703 38.695,84.1435 l 28.6,42.8509 5.047,-33.5016 c 3.364,-23.3732 -18.506,-71.6778 -72.342,-155.8213 z m -2388.9464,22.594 c -21.8709,-10.9074 -25.2347,-7.791 -25.2347,31.9434 0,24.1523 10.0945,62.3286 21.8709,85.7018 l 20.1874,41.2926 5.0473,-73.236 c 3.3653,-58.433 0,-76.3525 -21.8709,-85.7018 z m 299.46,101.2839 c -10.0945,-46.7464 -11.7763,-48.3045 -33.6472,-31.1643 -15.1418,10.9076 -20.189,13.2449 -15.1418,4.6747 26.9182,-40.5135 26.9182,-78.6898 0,-145.693 l -30.2819,-74.0152 -25.2362,83.3645 -23.5528,83.3645 65.6127,66.2241 c 35.3291,35.8388 67.2945,65.4449 68.9764,64.6658 1.6819,-0.7792 -1.6819,-24.1523 -6.7292,-51.4211 z m 2553.8174,17.1404 c -15.142,-11.6866 -16.823,-9.3493 -16.823,13.2448 0,22.5941 1.681,24.9314 16.823,14.0239 11.777,-9.3493 11.777,-18.6986 0,-27.2687 z m 2183.699,-56.8748 c 1.682,-17.9194 -79.071,47.5255 -90.847,74.0151 -6.729,17.1404 3.364,12.4658 40.376,-19.4776 28.6,-23.3732 50.471,-48.3047 50.471,-54.5375 z M 492.8354,2161.4395 c 1.68237,-31.1643 -5.04709,-47.5256 -15.14127,-44.4091 -10.09418,2.3373 -15.14127,35.0598 -15.14127,72.4569 3.36473,77.9106 26.91782,54.5374 30.28254,-28.0478 z m 943.8021,45.1881 c 16.8236,-18.6985 15.1411,-28.8269 -10.0942,-58.433 -25.2355,-31.9434 -31.9649,-34.2807 -53.8355,-24.1523 -21.8705,10.1284 -21.8705,17.9194 -1.6823,58.433 11.7765,26.4896 26.9178,47.5255 33.6471,47.5255 6.7294,0 20.1885,-10.1283 31.9649,-23.3732 z m 11552.7435,-17.1403 c -5.048,-5.4538 -8.411,-1.5582 -8.411,9.3493 0,10.9075 3.363,14.803 8.411,10.1283 3.365,-5.4536 3.365,-14.8029 0,-19.4776 z m 1837.133,-173.7409 c -1.682,-25.7105 -6.729,-56.8748 -13.458,-70.1196 l -10.095,-23.3731 -21.871,31.9433 c -10.092,17.1403 -23.552,84.1435 -28.6,148.0303 l -8.411,116.0869 42.059,-77.9106 c 23.552,-43.6301 40.376,-98.1675 40.376,-124.6572 z m 5513.084,52.9793 -26.919,-37.3972 8.412,42.851 c 5.047,23.3731 8.411,65.445 10.095,93.4928 l 3.365,50.6419 15.14,-56.0957 c 13.46,-44.4091 11.778,-63.1076 -10.093,-93.4928 z m -17161.7213,83.3645 10.0941,-35.0598 -35.3296,25.7105 c -21.8704,16.3613 -30.2824,31.9434 -23.5531,42.0718 15.1414,21.8149 35.3296,8.5701 48.7886,-32.7225 z m 9005.6563,-23.3732 c 10.093,-37.3972 8.411,-67.0032 -1.684,-81.0272 l -16.822,-22.5941 -21.871,18.6986 c -28.6,23.3732 -28.6,42.8509 -3.365,107.5167 21.871,58.4331 23.553,57.6539 43.742,-22.594 z m -6305.4737,34.2807 c 0,-10.1284 -6.7297,-18.6986 -16.8236,-18.6986 -8.4118,0 -16.8236,10.9074 -16.8236,24.1523 0,13.2448 6.7294,21.815 16.8236,18.6986 10.0939,-2.3373 16.8236,-13.2449 16.8236,-24.1523 z m 6613.3447,-91.9347 c -1.682,-52.2001 -6.729,-106.7376 -11.777,-121.5407 -10.094,-32.7224 -57.2,-85.7017 -74.023,-85.7017 -21.871,0 -67.295,51.4211 -67.295,75.5734 0,11.6866 28.6,73.236 62.248,136.3436 75.705,135.5646 95.894,134.7856 90.847,-4.6746 z m -10888.2132,14.0239 c 37.0119,-98.1675 43.7413,-135.5646 16.8235,-88.8182 -8.4118,14.8031 -31.9647,54.5376 -50.4707,87.2601 -21.8706,35.8389 -31.9648,67.7822 -25.2352,81.027 6.7293,10.9076 15.141,19.4777 18.5057,17.1404 3.3647,-1.5582 21.8709,-45.1882 40.3767,-96.6093 z m 427.3186,-3.8955 c -15.1413,-58.433 -38.6944,-30.3851 -37.0118,43.63 l 1.6823,62.3286 21.8706,-33.5016 c 15.1411,-20.2568 20.1882,-48.3046 13.4589,-72.457 z m 4014.1025,51.4211 c 0,-13.2448 -3.3638,-11.6866 -23.5528,5.4537 -13.4583,11.6867 -20.1879,27.2688 -13.4583,35.0598 10.0945,12.4657 13.4583,11.6867 23.5528,-5.4537 6.7291,-10.9075 11.7764,-26.4897 13.4583,-35.0598 z m 13556.4311,14.0239 c -5.048,-7.7911 -8.412,-1.5582 -8.412,13.2448 0,14.8031 3.364,21.0359 8.412,14.0239 3.364,-7.791 3.364,-20.2567 0,-27.2687 z M 7812.769,2053.1436 c 11.7764,-48.3046 15.1418,-96.6093 8.4127,-109.075 l -11.7764,-21.8149 -33.6473,30.3851 c -30.2819,26.4896 -31.9654,38.9553 -21.8709,92.7137 5.0473,34.2807 15.1418,67.7822 20.1874,74.7942 6.7307,10.9076 5.0473,10.9076 -11.7764,0.7792 -16.822,-9.3493 -18.5055,-8.5702 -10.0929,7.7911 5.0473,10.9075 10.0929,24.9314 10.0929,31.1642 5.0473,31.1643 31.9654,-28.8269 50.4709,-106.7376 z m 9076.315,4.6746 c 26.918,-53.7583 28.6,-61.5495 3.364,-93.4928 l -25.235,-34.2807 -1.683,66.224 c -1.681,36.6181 -13.457,87.2601 -26.917,112.9706 -13.458,25.7105 -23.554,50.6419 -23.554,54.5375 1.683,14.803 43.743,-46.7464 74.025,-105.9586 z m 1589.826,93.4928 c 0,-8.5701 -6.729,-14.0238 -16.823,-10.9074 -8.411,2.3373 -11.775,9.3493 -5.046,15.5821 11.776,16.3612 21.869,14.803 21.869,-4.6747 z M 3169.4648,2103.7855 c 28.6001,-25.7105 50.4708,-54.5374 48.7884,-63.8867 0,-10.9076 -8.4118,-5.4538 -23.5529,14.803 -21.8707,30.3851 -23.5531,29.6061 -13.4591,-25.7106 10.0944,-60.7703 -21.8704,-155.8213 -48.788,-143.3556 -8.4122,3.8955 -43.7415,49.8629 -79.071,101.2838 l -65.612,94.272 52.1533,38.9553 c 28.6,21.0359 57.2,37.3971 65.6118,35.0598 6.7293,-2.3372 37.0119,-24.9313 63.9295,-51.421 z m 12186.9932,-43.63 c 6.729,-44.4091 5.045,-63.1076 -6.731,-59.9912 -21.869,6.2329 -21.869,-0.7791 1.684,-20.2568 21.869,-19.4777 1.681,-162.0542 -20.189,-145.693 -11.777,7.7911 -15.141,6.2329 -16.824,-5.4537 -1.682,-8.5702 -20.187,28.0479 -43.74,81.8063 l -40.378,96.6092 47.107,76.3525 c 52.153,84.9226 58.882,82.5853 79.071,-23.3733 z m 333.106,40.5136 c -30.282,-67.7823 -124.495,-205.6842 -141.319,-205.6842 -23.552,0 -15.14,23.3732 57.2,145.6929 48.789,83.3645 74.024,117.6452 87.484,111.4124 11.776,-5.4538 11.776,-21.0359 -3.365,-51.4211 z m -11066.5429,-65.445 c 15.1413,-57.6539 31.9648,-120.7616 37.0117,-140.2392 5.0471,-19.4776 6.7296,-33.5016 1.6825,-31.1643 -5.0471,2.3374 -42.0591,49.8628 -82.4355,105.1794 l -74.0236,101.2839 33.6471,40.5136 c 20.1882,21.815 40.3765,38.1762 47.1058,35.0598 5.0471,-3.1164 21.8706,-52.9792 37.012,-110.6332 z m 2092.8527,-17.1403 -5.0473,-48.3047 -30.2835,21.0359 c -25.2346,18.6986 -26.9165,27.2688 -11.7763,74.0152 30.2819,86.4808 40.3764,97.3883 47.1071,46.7464 3.3638,-24.9314 3.3638,-66.2241 0,-93.4928 z m 1330.7426,83.3644 c 0,-12.4657 -6.7291,-28.8269 -15.1401,-35.0598 -11.7764,-7.7911 -16.8236,3.8955 -15.1418,38.9554 0,35.0598 5.0473,45.9672 15.1418,35.0598 8.411,-8.5703 15.1401,-25.7105 15.1401,-38.9554 z m 11360.9556,27.2688 c 5.048,-13.2449 1.682,-25.7106 -6.73,-28.0479 -6.729,-2.3373 -13.457,8.5702 -13.457,23.3732 0,34.2807 10.093,36.618 20.187,4.6747 z m -9284.927,-93.4929 c -3.364,-31.9434 -10.093,-68.5613 -18.506,-81.8062 l -13.458,-23.3732 -47.107,32.7225 c -43.7404,30.3851 -47.1058,36.618 -35.329,81.8062 6.73,27.2687 23.552,61.5494 37.012,76.3525 l 25.235,27.2687 28.6,-27.2687 c 18.505,-18.6986 25.236,-45.1883 23.553,-85.7018 z m 1281.956,46.7465 c 8.412,-22.5942 6.73,-32.7225 -5.047,-27.2688 -8.412,4.6746 -20.189,27.2688 -25.234,50.642 -11.778,49.0837 10.092,31.9434 30.281,-23.3732 z m -4195.7977,-13.2449 c -3.3638,-38.1762 -15.1402,-77.1316 -28.6001,-88.0391 -43.7417,-37.3971 -28.6,79.4689 18.5056,146.4721 15.1417,19.4777 16.8236,7.7911 10.0945,-58.433 z m 4475.0697,19.4777 c -6.73,-27.2687 -10.095,-29.6061 -15.142,-11.6866 -5.047,20.2567 5.047,44.4091 16.823,44.4091 3.366,0 1.684,-14.8031 -1.681,-32.7225 z m 1855.639,-8.5702 c 35.329,-55.3166 50.471,-122.3197 37.012,-156.6005 -15.141,-35.0598 -33.647,-31.1642 -67.294,15.5822 -20.189,27.2687 -23.553,52.9792 -15.142,109.0749 5.047,40.5136 11.776,73.2361 15.142,73.2361 1.682,0 15.141,-18.6986 30.282,-41.2927 z M 935.29508,1946.4059 c -3.36473,-45.9673 -11.77638,-66.224 -21.87056,-58.433 -8.41182,6.2329 -15.14128,19.4777 -15.14128,30.3852 0,11.6866 -6.72945,23.3732 -16.82347,28.0478 -13.45891,6.2329 -52.15311,128.5527 -48.78838,158.9379 0,6.2328 25.23529,-10.9076 53.83547,-38.9554 50.47058,-47.5255 53.83531,-55.3166 48.78822,-119.9825 z m 4438.05712,-10.1284 37.0118,-40.5136 -63.9294,-35.0598 c -42.059,-24.1523 -68.9768,-33.5016 -80.7533,-28.0478 -23.553,10.9075 -89.1648,10.1284 -97.5765,-1.5581 -3.3649,-4.6747 -20.1885,7.7909 -37.012,28.0478 -31.9647,39.7344 -26.9178,75.5733 35.3295,194.7767 l 26.9177,54.5375 72.3413,-66.2241 c 38.6943,-35.8389 87.4825,-83.3645 107.6709,-105.9586 z m 2355.3003,130.1109 c -10.0945,-17.9194 -23.5544,-31.1643 -26.9182,-28.8269 -5.0472,2.3373 0,18.6985 11.7764,35.8388 26.9181,42.0718 40.3764,35.839 15.1418,-7.0119 z m -6399.6858,-13.2448 -25.2355,-21.8151 -1.6823,21.036 c 0,10.9075 5.0471,26.4896 10.0942,33.5016 10.0941,12.4657 13.4589,12.4657 26.9176,0.7791 10.0942,-7.7911 6.7295,-19.4777 -10.094,-33.5016 z m 191.7885,-0.7791 c 0,-21.815 -5.047,-25.7106 -16.8233,-17.1404 -21.8708,15.5822 -21.8708,56.8748 0,50.642 10.0938,-2.3373 16.8233,-17.9195 16.8233,-33.5016 z m 18665.7468,-4.6747 c 6.729,-20.2567 1.684,-52.9792 -11.775,-79.4689 l -21.871,-45.9672 -10.094,50.6419 c -18.506,92.7137 18.505,155.0423 43.74,74.7942 z m -7627.804,-30.3851 c -13.46,-6.2329 -18.507,1.5582 -16.823,30.3851 l 1.682,38.1763 16.823,-29.6061 c 11.777,-21.815 11.777,-32.7225 -1.682,-38.9553 z m 6453.52,28.0478 c -5.047,-7.791 -8.411,-1.5582 -8.411,13.2448 0,14.803 3.364,21.0359 8.411,14.024 3.364,-7.7911 3.364,-20.2568 0,-27.2688 z m -16532.5193,-36.618 c -1.6824,-9.3493 -11.7767,-24.9314 -25.2355,-35.8389 -21.8705,-18.6986 -23.5531,-16.3613 -23.5531,31.1643 0,45.9672 1.6826,49.0837 23.5531,35.8389 13.4588,-8.5703 25.2355,-22.5941 25.2355,-31.1643 z m 11448.4373,26.4896 c 5.047,-3.8956 1.683,-7.791 -6.73,-7.791 -10.094,0 -18.505,3.8954 -18.505,7.791 0,4.6747 3.365,7.7911 6.729,7.7911 5.047,0 13.46,-3.1164 18.506,-7.7911 z m -9411.1034,-78.6898 c 67.2943,-141.7974 72.3414,-167.5079 23.5529,-113.7496 -42.0589,46.7464 -94.2117,155.8214 -84.1177,175.2991 5.0471,10.1284 13.4589,17.1403 18.5058,15.5821 3.3648,-2.3374 21.8708,-36.618 42.059,-77.1316 z m 1502.3446,-7.012 c 6.7292,-20.2567 5.0473,-23.3731 -5.0472,-11.6865 -15.141,14.803 -16.8233,14.0239 -18.506,-3.8956 -5.0471,-29.6061 -31.9646,35.0598 -30.2822,74.0152 v 31.1643 l 21.8705,-31.1643 c 11.7767,-17.1404 25.2358,-43.63 31.9649,-58.4331 z m 1652.0752,33.5017 c -18.5071,-8.5702 -28.6016,3.1164 -15.1417,17.9194 11.7764,14.0239 13.4582,14.0239 18.5055,0.7792 3.3654,-7.7912 1.6819,-16.3613 -3.3638,-18.6986 z m 10533.2346,-7.7911 c -23.553,-24.1523 -31.964,-18.6986 -18.506,12.4657 6.731,16.3613 16.824,21.815 23.553,15.5821 8.412,-5.4537 5.047,-17.9194 -5.047,-28.0478 z m -12742.17,-3.8956 c 15.1413,-16.3612 23.5531,-29.606 18.506,-29.606 -8.4118,0 -57.2,49.8628 -57.2,59.2121 0,9.3493 11.7763,0 38.694,-29.6061 z m -3993.9148,1.5583 c 18.506,-18.6986 18.506,-18.6986 -5.0471,-4.6747 -38.694,22.5941 -33.6471,5.4538 20.1884,-59.2121 31.9647,-37.3972 43.7413,-63.1077 35.3293,-72.457 -6.7293,-8.5701 -13.4587,-10.9074 -13.4587,-5.4536 -1.6822,7.7909 -23.553,10.1283 -80.753,7.7909 -62.2473,-1.5581 -82.4357,-5.4536 -92.5298,-17.9194 -8.4117,-13.2448 -10.0941,-12.4657 -11.7764,4.6747 -1.6824,27.2687 109.3531,178.4155 124.4942,168.287 1.6824,-0.7791 13.4591,-10.1283 23.5531,-21.0358 z m 9163.7968,-19.4777 c -11.776,-21.815 -40.376,-54.5375 -62.247,-74.0152 -33.647,-30.3851 -40.376,-32.7224 -45.424,-17.1403 -5.047,14.803 112.719,137.1228 126.177,130.8899 1.683,-0.779 -6.729,-18.6985 -18.506,-39.7344 z m 6064.896,-37.3972 c -13.458,-6.2328 -18.506,3.1165 -16.824,34.2808 l 1.684,42.0718 16.822,-34.2808 c 11.778,-23.3732 10.096,-36.618 -1.682,-42.0718 z m -10896.6242,-9.3492 c 8.4116,-49.8628 5.0471,-66.2241 -15.1413,-77.9107 -20.188,-13.2448 -23.5529,-13.2448 -15.1411,-1.5583 5.0471,7.012 1.6824,13.2449 -8.4118,13.2449 -23.5531,0 -23.5531,52.9793 0,98.1675 10.0942,19.4776 21.8707,33.5016 23.5529,32.7224 1.6825,-1.5582 8.4118,-30.3851 15.1413,-64.6658 z m 884.9195,-52.2002 c -16.8236,-22.5941 -31.9638,-35.0598 -31.9638,-27.2688 -1.6835,7.012 -11.778,12.4658 -21.8709,11.6866 -25.2362,-2.3373 -30.2835,88.8183 -8.4126,114.5288 13.4599,14.0239 20.189,10.9075 55.5182,-21.0359 l 38.6945,-35.8389 z m 5366.7187,38.1762 c -28.6,-44.4091 -37.013,-30.3851 -13.46,22.5942 15.142,31.1642 23.553,39.7344 26.918,26.4896 3.366,-10.1284 -1.682,-32.7225 -13.458,-49.0838 z m -5720.0134,14.8031 c -8.4111,-11.6867 -23.5528,-18.6986 -33.6473,-16.3612 -25.2347,7.0119 -20.1874,21.0358 11.7764,42.8508 23.5527,14.803 30.2819,16.3613 35.3291,7.012 1.6835,-6.2329 -3.3637,-21.815 -13.4582,-33.5016 z m 4560.8694,-2.3374 c -18.506,-16.3612 -33.647,-27.2686 -35.329,-24.1523 0,9.3493 55.516,60.7704 63.929,57.654 3.364,-1.5583 -10.095,-16.3612 -28.6,-33.5017 z m 548.448,19.4777 c -5.048,-6.2328 -10.095,-3.8955 -10.095,4.6747 -1.682,8.5702 3.365,13.2448 8.413,10.1284 5.047,-2.3374 6.729,-9.3493 1.682,-14.8031 z m -3675.9495,-77.9106 c -3.3654,-7.012 -16.8236,-10.9075 -30.2819,-8.5702 -25.2363,4.6746 -33.6473,72.457 -11.7764,83.3644 16.8236,7.012 52.1528,-56.8748 42.0583,-74.7942 z m 2250.9935,52.9792 c -23.5526,-10.9075 -40.3762,0 -26.9179,16.3612 10.0945,11.6867 13.4579,11.6867 26.9179,2.3374 10.095,-7.012 8.411,-14.803 0,-18.6986 z m -4009.0562,-6.2328 c -5.0472,-6.2329 -10.0941,-3.8956 -10.0941,4.6746 -1.6827,8.5702 3.3645,13.2448 8.4116,10.1284 5.0479,-2.3373 6.7298,-9.3493 1.6825,-14.803 z m -5131.18812,-7.7911 c -5.04709,-6.2329 -10.09418,-3.8955 -10.09418,4.6746 -1.68237,8.5702 3.36472,13.2449 8.41181,10.1284 5.0471,-2.3373 6.72946,-9.3492 1.68237,-14.803 z m 2015.46342,-27.2688 c 8.4117,-21.815 6.7295,-24.9313 -15.1414,-21.0358 -18.5058,3.1164 -26.9176,14.803 -26.9176,37.3971 1.6823,35.0598 21.8705,27.2687 42.059,-16.3613 z m 12250.9219,7.7912 c -5.047,-7.7912 -8.413,-1.5583 -8.413,13.2447 0,14.8031 3.366,21.0359 8.413,14.024 3.365,-7.7911 3.365,-20.2568 0,-27.2687 z m -2032.287,-19.4777 c 1.682,-11.6867 -5.047,-23.3733 -15.141,-25.7106 -10.095,-3.1164 -16.824,10.9075 -15.142,36.618 0,30.3852 5.047,37.3972 15.142,25.7105 8.411,-8.5701 15.141,-24.9314 15.141,-36.6179 z m 1197.837,-2.3374 c 18.508,-17.1404 23.553,-24.9314 10.095,-17.1404 -28.6,15.5822 -55.518,17.1404 -67.295,3.8957 -5.047,-5.4538 -10.093,7.7909 -10.093,28.8269 -1.683,42.0717 6.73,40.5135 67.293,-15.5822 z m 1911.158,-13.2447 c -5.046,-5.4538 -8.411,-1.5583 -8.411,9.3492 0,10.9075 3.365,14.803 8.411,10.1284 3.365,-5.4538 3.365,-14.803 0,-19.4776 z m -3549.773,-19.4778 c -5.047,-7.7911 -8.411,-1.5582 -8.411,13.2448 0,14.8031 3.364,21.0359 8.411,14.0239 3.365,-7.7909 3.365,-20.2567 0,-27.2687 z m -1372.802,10.9075 c -16.824,-7.0119 -18.506,-6.2328 -8.413,4.6746 5.047,7.7911 15.142,11.6866 20.189,9.3493 5.047,-2.3373 0,-8.5701 -11.776,-14.0239 z m 9892.257,-57.6539 c -18.506,-16.3612 -33.646,-27.2687 -35.329,-24.1523 0,9.3492 55.516,60.7703 63.929,57.6539 3.365,-1.5582 -10.093,-16.3612 -28.6,-33.5016 z M 388.52919,1760.9785 c -5.04709,-6.2329 -10.09419,-3.8956 -10.09419,4.6747 -1.68236,8.5701 3.36473,13.2447 8.41182,10.1283 5.04709,-2.3373 6.72946,-9.3493 1.68237,-14.803 z m -504.70697,-272.6874 c -5.04709,-6.2329 -10.09418,-3.8955 -10.09418,4.6746 -1.68237,8.5702 3.36472,13.2448 8.41182,10.1285 5.04709,-2.3374 6.72945,-9.3493 1.68236,-14.8031 z M 21137.037,1030.9553 c 0,-7.791 -5.049,-16.3612 -11.778,-19.4776 -6.731,-3.1164 -10.096,-35.0598 -6.731,-70.8988 3.365,-43.6299 -1.682,-66.2241 -13.457,-66.2241 -10.096,0 -18.505,4.6747 -20.189,10.1284 0,4.6747 -5.047,17.9194 -8.412,28.827 -20.188,47.5255 -26.918,97.3884 -15.14,130.8899 l 11.774,36.6181 31.967,-18.6986 c 16.822,-10.1284 31.966,-24.1523 31.966,-31.1643 z m -279.273,-193.2184 c -6.731,-16.3613 -21.871,-42.0718 -35.329,-56.8749 -13.46,-17.1404 -20.189,-20.2568 -15.143,-7.7911 5.048,10.9076 13.461,32.7225 18.507,49.0838 10.094,21.815 6.729,28.8269 -10.095,28.8269 -18.504,0 -18.504,1.5583 1.684,7.7911 43.74,13.2448 52.152,8.5701 40.376,-21.0358 z m 193.471,-60.7704 v -15.5822 l -15.14,15.5822 c -8.413,8.5701 -13.462,29.606 -13.462,46.7464 v 31.1643 l 15.142,-31.1643 c 6.731,-17.1404 13.46,-38.1763 13.46,-46.7464 z"
       id="path2"
       style="fill:#142816;fill-opacity:1;stroke-width:1.14487362"
       inkscape:connector-curvature="0" />
    <path
       d="m 10532.083,485.8945 c 0,-14.8089 4.81,-18.8477 9.62,-8.0776 4.81,9.4238 3.207,21.5402 -1.603,25.579 -4.81,5.3851 -9.62,-2.6925 -8.017,-17.5014 z"
       id="path4"
       inkscape:connector-curvature="0"
       style="stroke-width:1.46918118" />
  </g>
</svg>
