<?xml version="1.0" encoding="utf-8"?>
<!-- Generator: Adobe Illustrator 23.0.3, SVG Export Plug-In . SVG Version: 6.00 Build 0)  -->
<svg version="1.1" id="Layer_1" xmlns="http://www.w3.org/2000/svg" xmlns:xlink="http://www.w3.org/1999/xlink" x="0px" y="0px"
	 viewBox="0 0 127.9 128" style="enable-background:new 0 0 127.9 128;" xml:space="preserve">
<style type="text/css">
	.st0{fill:#142816;}
	.st1{fill:url(#SVGID_1_);}
	.st2{fill:url(#SVGID_2_);}
	.st3{fill:url(#SVGID_3_);}
	.st4{fill:url(#SVGID_4_);}
	.st5{fill:url(#SVGID_5_);}
	.st6{fill:url(#SVGID_6_);}
	.st7{fill:url(#SVGID_7_);}
	.st8{fill:url(#SVGID_8_);}
	.st9{fill:url(#SVGID_9_);}
	.st10{fill:url(#SVGID_10_);}
	.st11{fill:url(#SVGID_11_);}
	.st12{fill:url(#SVGID_12_);}
	.st13{fill:url(#SVGID_13_);}
	.st14{fill:url(#SVGID_14_);}
	.st15{fill:url(#SVGID_15_);}
	.st16{fill:url(#SVGID_16_);}
	.st17{fill:url(#SVGID_17_);}
	.st18{fill:url(#SVGID_18_);}
	.st19{fill:url(#SVGID_19_);}
	.st20{fill:url(#SVGID_20_);}
	.st21{fill:url(#SVGID_21_);}
	.st22{fill:url(#SVGID_22_);}
	.st23{fill:url(#SVGID_23_);}
	.st24{fill:url(#SVGID_24_);}
	.st25{fill:url(#SVGID_25_);}
	.st26{fill:url(#SVGID_26_);}
	.st27{fill:url(#SVGID_27_);}
	.st28{fill:url(#SVGID_28_);}
	.st29{fill:url(#SVGID_29_);}
	.st30{fill:url(#SVGID_30_);}
	.st31{fill:url(#SVGID_31_);}
	.st32{fill:url(#SVGID_32_);}
	.st33{fill:url(#SVGID_33_);}
	.st34{fill:url(#SVGID_34_);}
	.st35{fill:url(#SVGID_35_);}
	.st36{fill:url(#SVGID_36_);}
	.st37{fill:url(#SVGID_37_);}
	.st38{fill:url(#SVGID_38_);}
	.st39{fill:url(#SVGID_39_);}
	.st40{fill:url(#SVGID_40_);}
	.st41{fill:url(#SVGID_41_);}
	.st42{fill:url(#SVGID_42_);}
	.st43{fill:url(#SVGID_43_);}
	.st44{fill:url(#SVGID_44_);}
	.st45{fill:url(#SVGID_45_);}
	.st46{fill:url(#SVGID_46_);}
	.st47{fill:url(#SVGID_47_);}
	.st48{fill:url(#SVGID_48_);}
	.st49{fill:url(#SVGID_49_);}
	.st50{fill:url(#SVGID_50_);}
	.st51{fill:url(#SVGID_51_);}
	.st52{fill:url(#SVGID_52_);}
	.st53{fill:url(#SVGID_53_);}
	.st54{fill:url(#SVGID_54_);}
	.st55{fill:url(#SVGID_55_);}
	.st56{fill:url(#SVGID_56_);}
	.st57{fill:url(#SVGID_57_);}
	.st58{fill:url(#SVGID_58_);}
	.st59{fill:url(#SVGID_59_);}
	.st60{fill:url(#SVGID_60_);}
	.st61{fill:url(#SVGID_61_);}
	.st62{fill:url(#SVGID_62_);}
</style>
<rect x="-180.3" y="21.6" class="st0" width="135" height="135"/>
<title>Asset 1tropical flowers</title>
<g>
	<g id="Layer_1-2">
		<linearGradient id="SVGID_1_" gradientUnits="userSpaceOnUse" x1="24.925" y1="12.63" x2="24.925" y2="43.5527">
			<stop  offset="0" style="stop-color:#142816"/>
			<stop  offset="0.191" style="stop-color:#132615"/>
			<stop  offset="1" style="stop-color:#122313"/>
		</linearGradient>
		<path class="st1" d="M0,14.5c1.1,1,2.3,2.1,3.4,3.1C3.6,17.7,3.8,17.9,4,18c0.1-0.1,0.1-0.2,0.1-0.3c0.1-1,0.7-1.9,1.6-2.4
			c1.1-0.6,2-1.5,2.5-2.7c-0.1,1.1-0.5,2.1-1.1,3c0.6-0.6,1.1-1.4,1.4-2.3c0,1.4-0.4,2.8-0.9,4.1c0.8-0.9,1.3-2.1,1.3-3.4
			c0.7,0.9,1,2.1,0.7,3.3c-0.2,1.2-1,2.2-2.2,2.7l1,0.5c2.6,1,5.3,1.7,8.1,2c3,0.4,6,1,8.9,1.9c2.7,0.8,5.3,1.8,7.8,3.1
			c0.6,0.3,1.3,0.7,1.9,1c0.2,0.1,0.4,0.1,0.6,0c0,0,0,0,0-0.1c1.9-2.2,4.7-3.5,7.6-3.5c1.3,0,2.5,0.1,3.8,0.3
			c0.2,0,0.3,0.1,0.4,0.2c-2.9,0.1-5.6,1.5-7.4,3.8c1.9-1.5,4.1-2.5,6.5-3c0.2,0,0.4,0,0.6,0c-2,1.3-3.6,3.3-4.3,5.6
			c1.2-1.9,2.8-3.5,4.6-4.8c-1.8,2-2.9,4.5-3.2,7.1c1.4-3,2.6-6.3,5.5-8.5c0,0.1,0,0.3,0,0.4c-0.5,2.9-1.6,5.8-3.1,8.3
			c-0.7,1.2-1.6,2.4-2.7,3.3c-0.8,0.6-1.6,1-2.5,1.4c-1.9,0.6-3.8,0.9-5.8,0.8c-1,0-2-0.1-3-0.1c-0.4,0-0.5-0.2-0.4-0.5
			c0.4-2.3,0.8-4.7,1.2-7c0.1-0.4,0-0.6-0.4-0.8c-3.3-1.6-6.8-2.6-10.5-2.8c-3.4-0.3-6.8,0.2-9.9,1.5c-1.3,0.5-2.4,1.3-3.3,2.3
			c-1,1.3-1.6,2.8-1.7,4.4c-0.2,1.4,0.3,2.8,1.3,3.8c1.4,1.3,4.1,2.1,6,0.6c1.1-0.7,1.3-2.2,0.6-3.3c0-0.1-0.1-0.1-0.1-0.2
			c-0.5-0.6-1.1-1.2-1.8-1.6c-0.6-0.3-0.8-0.9-0.5-1.5c0.1-0.2,0.3-0.4,0.5-0.5c0.8-0.5,1.9-0.5,2.7,0.1c1.8,1.6,2.3,4.2,1.3,6.3
			c-0.3,0.5-0.7,0.9-1.1,1.3c-1,0.9-2.2,1.5-3.6,1.7c-3.1,0.3-6-1.7-6.8-4.7C5.4,35,7.2,31,10.6,29.1c2.2-1.3,4.7-2.1,7.3-2.3
			c4.8-0.4,9.6,0.6,13.9,2.8c0.6,0.3,1.2,0.6,1.8,0.9c0.3,0.1,0.4,0.1,0.6-0.2s0.4-0.7,0.6-1.1c-0.9-0.4-1.7-0.9-2.6-1.2
			c-3.5-1.5-7.1-2.6-10.9-3.3c-2.8-0.5-5.7-0.9-8.5-1.4c-2.6-0.4-5.1-1.2-7.4-2.3c-1.9-1-3.7-2.2-5.4-3.6V14.5z"/>
		<linearGradient id="SVGID_2_" gradientUnits="userSpaceOnUse" x1="82.1886" y1="0" x2="82.1886" y2="12.9102">
			<stop  offset="0" style="stop-color:#142816"/>
			<stop  offset="0.191" style="stop-color:#132615"/>
			<stop  offset="1" style="stop-color:#122313"/>
		</linearGradient>
		<path class="st2" d="M87.4,0c1.2,0.8,2.4,1.5,3.6,2.3c1,0.7,1.8,1.4,2.7,2.2l-0.1,0.2c-0.2-0.1-0.4-0.1-0.6-0.1
			C91.7,4,90.3,3.4,88.9,3c-1-0.2-2-0.4-3-0.5c-0.2,0-0.4,0-0.7,0.1l5.1,1.6v0.2c-0.1,0-0.2,0-0.4,0c-1.8-0.4-3.6-0.6-5.4-0.5
			c-1.2,0.1-2.4,0.4-3.4,0.9c-0.2,0.1-0.4,0.3-0.6,0.4c4.2-0.3,8.3-0.7,12.5,0v0.2c-0.8,0-1.6,0-2.4,0c-2.1,0-4.2,0.4-6.1,1.1
			c-0.8,0.3-1.5,0.8-2,1.5c0.1,0,0.3-0.1,0.4-0.1c2.6-1,5.3-1.7,8-2c1.1,0,2.1,0,3.2,0.1c0.2,0,0.5,0.1,0.7,0.2v0.2
			c-0.1,0-0.3,0.1-0.4,0.1c-3.1,0.4-6,1.6-8.4,3.6c-0.9,0.7-1.9,1.4-2.9,1.9c-2.1,1.1-4.5,1.3-6.7,0.4c-2.7-1.1-5.1-3-6.8-5.3
			c-0.2-0.2-0.2-0.6,0-0.8c1.3-2.4,3.2-4.5,5.4-6L75.2,0H87.4z"/>
		<linearGradient id="SVGID_3_" gradientUnits="userSpaceOnUse" x1="40.49" y1="0" x2="40.49" y2="25.0922">
			<stop  offset="0" style="stop-color:#142816"/>
			<stop  offset="0.191" style="stop-color:#132615"/>
			<stop  offset="1" style="stop-color:#122313"/>
		</linearGradient>
		<path class="st3" d="M43.8,0c-0.2,2.3-0.8,4.5-1.7,6.6c-0.6,1.4-1.3,2.8-1.9,4.2c5,2.3,7.7,6.3,8.5,11.7c-1-1.4-2.2-2.5-3.7-3.4
			c1.1,1.4,2.5,2.6,3.5,4.2l-0.1,0.1c-0.1-0.1-0.2-0.1-0.3-0.2c-1.5-1.7-3.2-3.1-5.2-4.2c-1.1-0.6-2.4-1.1-3.6-1.3
			c1.4,0.8,2.8,1.5,4.2,2.3c1.4,0.8,2.7,1.7,3.8,2.9c-1.9-1-3.9-1.7-6-2c2.9,0.9,5.8,1.8,8.1,4.2c-0.2,0-0.3,0-0.4,0
			c-2.2-0.6-4.5-1-6.8-1.1c-2.6-0.2-4.9-1.4-6.7-3.4c-2.3-2.5-3.7-5.7-3.7-9.1c0-0.7,0-0.8,0.7-0.9c1.6-0.4,3.2-0.5,4.8-0.3
			c0.5,0.1,1,0.1,1.5,0.3c0.2,0.1,0.5,0,0.6-0.2c0,0,0,0,0,0c1-2,1.7-4.1,2.2-6.3c0.3-1.3,0.4-2.6,0.6-3.9L43.8,0z"/>
		<linearGradient id="SVGID_4_" gradientUnits="userSpaceOnUse" x1="10.1203" y1="106.3728" x2="10.1203" y2="127.9599">
			<stop  offset="0" style="stop-color:#142816"/>
			<stop  offset="0.191" style="stop-color:#132615"/>
			<stop  offset="1" style="stop-color:#122313"/>
		</linearGradient>
		<path class="st4" d="M0,108.6c2.2-1.3,4.6-2.1,7.2-2.2c1.6-0.1,3.1,0.1,4.7,0.5c3.5,0.9,6.3,3.5,7.6,6.9c0.7,1.8,1,3.7,0.8,5.6
			c-0.3,2.3-1.5,4.4-3.4,5.8c-1.3,1-2.7,1.8-4.2,2.4c-0.4,0.2-0.9,0.2-1.4,0.3c-4.4,0.4-5-0.4-5.7-1.1c-0.7-0.7-1.2-1.6-1.3-2.7
			c-0.3-1.2,0.5-2.3,1.6-2.6c0.2,0,0.4-0.1,0.6,0c0.4,0,0.7,0.1,1.1,0.2c1.8,0.5,3.8,0.5,5.6,0.1c2.1-0.5,3.6-2.3,3.8-4.4
			c0.2-2.3-0.7-4.7-2.4-6.3c-1.4-1.3-3.1-2.1-5-2.3c-3.5-0.4-7.1,0.8-9.6,3.3V108.6z"/>
		<linearGradient id="SVGID_5_" gradientUnits="userSpaceOnUse" x1="6.1768" y1="59.1154" x2="6.1768" y2="69.1617">
			<stop  offset="0" style="stop-color:#142816"/>
			<stop  offset="0.191" style="stop-color:#132615"/>
			<stop  offset="1" style="stop-color:#122313"/>
		</linearGradient>
		<path class="st5" d="M0,60.2c1-0.3,2-0.7,3-0.9c1.9-0.4,3.9-0.1,5.7,0.8c1.1,0.5,2.2,1.1,3.4,1.7c0.3,0.2,0.4,0.3,0.2,0.7
			c-0.6,1-1.2,2-1.8,2.9c-0.6,0.8-1.2,1.6-1.9,2.4c-1,1.2-2.7,1.7-4.2,1.3c-1.4-0.3-2.7-0.9-4-1.3L0,67.6v-3.3l4.6-0.9
			c-1.5-0.5-3.1-0.5-4.6,0V60.2z"/>
		<linearGradient id="SVGID_6_" gradientUnits="userSpaceOnUse" x1="120.7221" y1="28.5483" x2="120.7221" y2="41.0487">
			<stop  offset="0" style="stop-color:#142816"/>
			<stop  offset="0.191" style="stop-color:#132615"/>
			<stop  offset="1" style="stop-color:#122313"/>
		</linearGradient>
		<path class="st6" d="M127.9,35.5c-0.3-0.4-0.5-0.8-0.8-1.2c-0.7-1.3-1.7-2.3-3-3c-1.8-1-3.9-1.2-5.9-0.5c-1.8,0.6-3,2.3-3,4.2
			c-0.1,1.1,0.2,2.1,0.8,3c0.8,1.2,2.3,1.5,3.5,0.7c0.3-0.2,0.5-0.4,0.7-0.7c0.4-0.5,0.7-1.1,1-1.8c0.2-0.6,0.8-0.9,1.4-0.8
			c0.3,0.1,0.5,0.3,0.7,0.5c0.6,0.8,0.7,1.9,0.1,2.8c-1.3,1.9-3.6,2.7-5.7,2.2c-1.6-0.6-2.9-1.8-3.5-3.3c-1.4-3.2,0-6.9,3.1-8.4
			c0.7-0.3,1.4-0.5,2.1-0.5c2.6-0.4,5.3,0.4,7.2,2.3l1.2,1L127.9,35.5z"/>
		<linearGradient id="SVGID_7_" gradientUnits="userSpaceOnUse" x1="2.75" y1="68.17" x2="2.75" y2="81.4594">
			<stop  offset="0" style="stop-color:#142816"/>
			<stop  offset="0.191" style="stop-color:#132615"/>
			<stop  offset="1" style="stop-color:#122313"/>
		</linearGradient>
		<path class="st7" d="M0,68.2c2.3,1,4.2,2.5,4.9,5c0.2,1,0.4,2,0.4,3c0.1,1.5,0.2,3,0.2,4.6c0,0.7,0,0.8-0.8,0.7
			c-1.6-0.1-3.2-0.4-4.7-1V68.2z"/>
		<linearGradient id="SVGID_8_" gradientUnits="userSpaceOnUse" x1="123.961" y1="108.72" x2="123.961" y2="127.8618">
			<stop  offset="0" style="stop-color:#142816"/>
			<stop  offset="0.191" style="stop-color:#132615"/>
			<stop  offset="1" style="stop-color:#122313"/>
		</linearGradient>
		<path class="st8" d="M127.9,112.1c-1.6,1.4-2.8,3.1-3.8,4.9c-1.3,2.6-2,5.4-2,8.2c0,0.7,0,1.5,0,2.2c0,0.3-0.1,0.5-0.4,0.5
			s-0.8,0-1.2,0s-0.5-0.1-0.5-0.4c-0.1-2.2,0.1-4.4,0.6-6.5c0.5-2.5,1.4-4.8,2.6-7c1.1-1.9,2.5-3.6,4.3-4.9c0.2-0.1,0.3-0.2,0.5-0.3
			L127.9,112.1z"/>
		<linearGradient id="SVGID_9_" gradientUnits="userSpaceOnUse" x1="107.995" y1="-2.000034e-02" x2="107.995" y2="4.8">
			<stop  offset="0" style="stop-color:#142816"/>
			<stop  offset="0.191" style="stop-color:#132615"/>
			<stop  offset="1" style="stop-color:#122313"/>
		</linearGradient>
		<path class="st9" d="M117.1,0c-1.8,2.7-4.7,4.5-8,4.6c-2,0.2-4,0.2-6,0.2c-1.4,0-2.8-0.1-4.1-0.3c0.2-0.1,0.3-0.1,0.5-0.2
			c1.5-0.3,3-0.6,4.5-1c1.6-0.3,3-1.1,4.2-2.2c0.4-0.4,0.7-0.8,1-1.2L117.1,0z"/>
		<linearGradient id="SVGID_10_" gradientUnits="userSpaceOnUse" x1="123.95" y1="0" x2="123.95" y2="17.51">
			<stop  offset="0" style="stop-color:#142816"/>
			<stop  offset="0.191" style="stop-color:#132615"/>
			<stop  offset="1" style="stop-color:#122313"/>
		</linearGradient>
		<path class="st10" d="M122.1,0c0.1,1.8,0.5,3.7,1,5.4c0.9,3.1,2.4,5.9,4.4,8.4c0.1,0.1,0.3,0.3,0.4,0.4v3.3
			c-0.9-0.9-1.9-1.8-2.7-2.8c-2.8-3.6-4.5-8-5-12.5c-0.1-0.7-0.2-1.4-0.2-2.1H122.1z"/>
		<linearGradient id="SVGID_11_" gradientUnits="userSpaceOnUse" x1="125.1902" y1="68.76" x2="125.1902" y2="80.47">
			<stop  offset="0" style="stop-color:#142816"/>
			<stop  offset="0.191" style="stop-color:#132615"/>
			<stop  offset="1" style="stop-color:#122313"/>
		</linearGradient>
		<path class="st11" d="M127.9,80.5c-2.6-0.9-4.5-3.1-4.9-5.8c-0.1-0.8,0-1.5-0.1-2.3c-0.1-1-0.2-2-0.4-3c0-0.2,0-0.4,0-0.6
			c1.1,1.4,2,2.9,2.7,4.5c0.2-0.6,0.1-1.3-0.2-1.9c-0.2-0.6-0.4-1.2-0.6-1.9c0.3,0.3,0.7,0.6,1,0.9c0.7,0.7,1.4,1.3,2,2
			c0.1,0.1,0.3,0.2,0.4,0.3L127.9,80.5z"/>
		<linearGradient id="SVGID_12_" gradientUnits="userSpaceOnUse" x1="1.945" y1="32.17" x2="1.945" y2="59">
			<stop  offset="0" style="stop-color:#142816"/>
			<stop  offset="0.191" style="stop-color:#132615"/>
			<stop  offset="1" style="stop-color:#122313"/>
		</linearGradient>
		<path class="st12" d="M0,32.2c0.9,1,1.6,2.1,2,3.3c1.1,2.5,1.7,5.2,1.8,7.9C4.1,48.8,2.7,54.2,0,59v-1.8c0.1-0.1,0.2-0.2,0.2-0.3
			c1.3-3.1,2.1-6.3,2.2-9.7c0.1-2.1-0.1-4.3-0.6-6.3c-0.4-1.8-1-3.5-1.8-5.1V32.2z"/>
		<linearGradient id="SVGID_13_" gradientUnits="userSpaceOnUse" x1="4.185" y1="10.3453" x2="4.185" y2="14.8923">
			<stop  offset="0" style="stop-color:#142816"/>
			<stop  offset="0.191" style="stop-color:#132615"/>
			<stop  offset="1" style="stop-color:#122313"/>
		</linearGradient>
		<path class="st13" d="M0,12.3c1.3-1.8,3.6-2.4,5.7-1.6c0.9,0.4,1.8,0.9,2.7,1.5l0,0c-0.2,0.1-0.3,0.1-0.5,0.1L5.3,12v0.1l1.9,0.4
			v0.1c-0.7,0-1.4,0-2.1,0s-1.4-0.2-2.1-0.3c0.6,0.6,3,0.9,4.9,0.4c-0.4,0.7-1,1.3-1.8,1.6c-1.7,1-3.9,0.6-5.2-0.9
			c-0.3-0.3-0.5-0.5-0.8-0.8L0,12.3z M4.6,13.5c0.8,0.2,1.7,0,2.4-0.6L4.6,13.5z"/>
		<linearGradient id="SVGID_14_" gradientUnits="userSpaceOnUse" x1="125.175" y1="57.45" x2="125.175" y2="66.39">
			<stop  offset="0" style="stop-color:#142816"/>
			<stop  offset="0.191" style="stop-color:#132615"/>
			<stop  offset="1" style="stop-color:#122313"/>
		</linearGradient>
		<path class="st14" d="M123.4,63.8c1.1-1.1,2.2-2.3,3-3.6l1.6-2.8v1.7l-1,1.6l1-0.5v1.9c-1.4,0.5-2.7,1.3-3.7,2.4
			c-0.6,0.6-1.2,1.2-1.8,1.8c0-0.2,0-0.3,0.1-0.5C122.8,65.2,123.1,64.5,123.4,63.8L123.4,63.8z"/>
		<linearGradient id="SVGID_15_" gradientUnits="userSpaceOnUse" x1="103.805" y1="0" x2="103.805" y2="3.8911">
			<stop  offset="0" style="stop-color:#142816"/>
			<stop  offset="0.191" style="stop-color:#132615"/>
			<stop  offset="1" style="stop-color:#122313"/>
		</linearGradient>
		<path class="st15" d="M108.3,0c-1.3,1.1-2.7,1.9-4.3,2.5c-1.4,0.5-2.8,0.9-4.2,1.3c-0.2,0.1-0.4,0.1-0.6,0c1.9-1,3.6-2.3,5.1-3.8
			H108.3z"/>
		<linearGradient id="SVGID_16_" gradientUnits="userSpaceOnUse" x1="125.045" y1="66.9606" x2="125.045" y2="72.4">
			<stop  offset="0" style="stop-color:#142816"/>
			<stop  offset="0.191" style="stop-color:#132615"/>
			<stop  offset="1" style="stop-color:#122313"/>
		</linearGradient>
		<path class="st16" d="M127.9,72.4c-0.1-0.1-0.2-0.1-0.3-0.2c-0.9-1.4-2-2.6-3.3-3.6c-0.1-0.1-0.2-0.1-0.4-0.2l0.2-0.2l2.8,1.4
			l0.1-0.1c-1.3-1.3-3-1.6-4.8-2.2c0.5-0.3,1.1-0.4,1.7-0.2c1.2,0.3,2.3,0.6,3.5,0.9l0.5,0.1V72.4z"/>
		<linearGradient id="SVGID_17_" gradientUnits="userSpaceOnUse" x1="93.065" y1="0" x2="93.065" y2="5.3">
			<stop  offset="0" style="stop-color:#142816"/>
			<stop  offset="0.191" style="stop-color:#132615"/>
			<stop  offset="1" style="stop-color:#122313"/>
		</linearGradient>
		<path class="st17" d="M94,0c0.4,1,0.8,2,1.1,3.1c0.2,0.7,0.3,1.4,0.3,2.1l-0.3,0.2c0-0.1-0.1-0.2-0.1-0.4
			c-1.2-1.7-2.7-3.4-4.3-4.8c0,0-0.1-0.1-0.1-0.1H94z"/>
		<linearGradient id="SVGID_18_" gradientUnits="userSpaceOnUse" x1="98.405" y1="0" x2="98.405" y2="4.92">
			<stop  offset="0" style="stop-color:#142816"/>
			<stop  offset="0.191" style="stop-color:#132615"/>
			<stop  offset="1" style="stop-color:#122313"/>
		</linearGradient>
		<path class="st18" d="M100.9,0c-0.7,1-1.3,2.1-2.1,3c-0.6,0.6-1.3,1.1-2,1.6c-0.3,0.2-0.6,0.3-0.9,0.3V4.8L99,0H100.9z"/>
		<linearGradient id="SVGID_19_" gradientUnits="userSpaceOnUse" x1="125.665" y1="64.28" x2="125.665" y2="67.58">
			<stop  offset="0" style="stop-color:#142816"/>
			<stop  offset="0.191" style="stop-color:#132615"/>
			<stop  offset="1" style="stop-color:#122313"/>
		</linearGradient>
		<path class="st19" d="M127.9,67.6l-3.8-1c1-0.3,2.1-0.6,3.2-0.8c-1.4-0.2-2.6,0.4-3.9,0.7c1.3-1.1,2.8-1.9,4.4-2.2V67.6z"/>
		<linearGradient id="SVGID_20_" gradientUnits="userSpaceOnUse" x1="101.905" y1="0" x2="101.905" y2="2.73">
			<stop  offset="0" style="stop-color:#142816"/>
			<stop  offset="0.191" style="stop-color:#132615"/>
			<stop  offset="1" style="stop-color:#122313"/>
		</linearGradient>
		<path class="st20" d="M103.5,0c-1,1-2,1.9-3.2,2.7l1.3-2.7H103.5z"/>
		<linearGradient id="SVGID_21_" gradientUnits="userSpaceOnUse" x1="125.955" y1="62.37" x2="125.955" y2="65.2">
			<stop  offset="0" style="stop-color:#142816"/>
			<stop  offset="0.191" style="stop-color:#132615"/>
			<stop  offset="1" style="stop-color:#122313"/>
		</linearGradient>
		<path class="st21" d="M127.9,63.3l-3.9,1.8c1.2-1.1,2.5-2.1,3.9-2.8L127.9,63.3z"/>
		<linearGradient id="SVGID_22_" gradientUnits="userSpaceOnUse" x1="97.315" y1="0" x2="97.315" y2="3">
			<stop  offset="0" style="stop-color:#142816"/>
			<stop  offset="0.191" style="stop-color:#132615"/>
			<stop  offset="1" style="stop-color:#122313"/>
		</linearGradient>
		<path class="st22" d="M98.3,0c-0.4,1.1-1,2.1-1.8,3h-0.2l0.8-3H98.3z"/>
		<linearGradient id="SVGID_23_" gradientUnits="userSpaceOnUse" x1="96.21" y1="0" x2="96.21" y2="3.15">
			<stop  offset="0" style="stop-color:#142816"/>
			<stop  offset="0.191" style="stop-color:#132615"/>
			<stop  offset="1" style="stop-color:#122313"/>
		</linearGradient>
		<path class="st23" d="M96.7,0c-0.2,0.9-0.4,1.8-0.6,2.7C96.1,2.8,96,3,95.9,3.2h-0.2V0H96.7z"/>
		<linearGradient id="SVGID_24_" gradientUnits="userSpaceOnUse" x1="9.395" y1="0" x2="9.395" y2="0.431">
			<stop  offset="0" style="stop-color:#142816"/>
			<stop  offset="0.191" style="stop-color:#132615"/>
			<stop  offset="1" style="stop-color:#122313"/>
		</linearGradient>
		<path class="st24" d="M11.5,0c-1.2,0.4-2.5,0.5-3.7,0.3C7.6,0.2,7.4,0.1,7.3,0H11.5z"/>
		<linearGradient id="SVGID_25_" gradientUnits="userSpaceOnUse" x1="94.785" y1="0" x2="94.785" y2="1.86">
			<stop  offset="0" style="stop-color:#142816"/>
			<stop  offset="0.191" style="stop-color:#132615"/>
			<stop  offset="1" style="stop-color:#122313"/>
		</linearGradient>
		<path class="st25" d="M95.1,0v1.9H95L94.4,0H95.1z"/>
		<linearGradient id="SVGID_26_" gradientUnits="userSpaceOnUse" x1="72.179" y1="82.1324" x2="72.179" y2="127.9045">
			<stop  offset="0" style="stop-color:#142816"/>
			<stop  offset="0.191" style="stop-color:#132615"/>
			<stop  offset="1" style="stop-color:#122313"/>
		</linearGradient>
		<path class="st26" d="M84.5,118.8c-0.2-2.5,0.1-5,1.1-7.3c0.4-0.9,0.9-1.8,1.3-2.7c0.1-0.3,0.4-0.4,0.6-0.3c0,0,0,0,0,0
			c3.6,0.9,6.9,2.5,9.7,4.8c1.1,0.9,1.9,2.2,2.4,3.5c0.1,0.4,0.2,0.4,0.6,0.3c4.5-1.8,8.4-4.8,11.3-8.7c2.3-3,3.5-6.7,3.7-10.5
			c0.2-3.4-0.9-6.7-3.1-9.2c-1.1-1.4-2.7-2.5-4.4-3.2c-2.7-1-6.9-0.7-9.3,2.2c-1.6,1.8-1.9,4.5-0.7,6.6c0.9,1.8,2.2,3.4,3.8,4.8
			c1.1,0.8,1.3,2.4,0.4,3.5c-0.2,0.2-0.3,0.4-0.6,0.5c-1.3,0.9-3,1.2-4.6,0.6c-1.8-0.5-3.2-1.9-3.8-3.6c-1.3-3-1.6-6.4-0.8-9.6
			c0.7-3.2,3-5.8,6-7c2.1-0.9,4.4-1.4,6.6-1.3c2.4,0.1,4.8,1,6.7,2.5c6.6,4.8,8.6,13.7,4.8,20.9c-1.4,2.8-3.2,5.3-5.5,7.4
			c-3,2.9-6.5,5.2-10.4,6.8c-0.3,0.1-0.5,0.4-0.5,0.7c0,2.3-0.4,4.5-1.3,6.6c-0.4,1-0.2,0.9-1.5,0.8c0.2-1.9,0.7-3.9-0.2-5.8h-0.2
			c0,0.5,0,1.1,0,1.6c0,1.3-0.1,2.5-0.1,3.8c0,0.3-0.1,0.5-0.5,0.5s-0.5-0.1-0.5-0.5c-0.1-1.7-0.2-3.4-0.4-5
			c-0.1-2.5-1.4-4.9-3.5-6.4c1.7,3.7,2.8,7.7,3.2,11.8c-0.5,0.2-0.6,0-0.8-0.4c-0.4-1.3-1.1-2.5-2-3.5c-0.4-0.5-1-0.7-1.7-0.6
			c1.3,1.4,2.4,2.9,3.3,4.6c-1.1,0-2.2,0-3.2,0c-0.1,0-0.3-0.1-0.4-0.2c-2.2-1.4-3.9-3.4-5-5.7c-0.1-0.3-0.4-0.5-0.8-0.6
			c-3.5-0.7-6.9-2.1-9.8-4.1c-2.6-1.8-5-4-7-6.4c-2.3-2.6-4.7-5.1-7.2-7.4c-2.6-2.4-5.4-4.6-8.4-6.5c-2.4-1.6-5.1-2.8-7.8-3.6
			l-0.5-0.1c-0.1,0.5,0.2,0.8,0.6,0.9c2,0.7,3.8,1.6,5.6,2.7c3.9,2.3,7.2,5.6,9.5,9.6c1.6,2.7,2.5,5.8,2.3,9c0,3.9-2.7,7.3-6.5,8.2
			c-3.3,0.8-6.7-1.3-7.5-4.7c-0.1-0.2-0.1-0.5-0.1-0.7c-0.2-1.4,0.1-2.8,0.8-4c0.8-1.1,2-1.9,3.4-2c0.6-0.1,1.3-0.1,1.9,0
			c1.2,0.1,2,1.2,2,2.3c0,1-0.7,1.4-1.6,1.1c-0.7-0.3-1.5-0.5-2.3-0.7c-1.3-0.2-2.6,0.7-2.8,2c0,0.1,0,0.2,0,0.4
			c0,1.9,1.1,3.6,2.8,4.3c1.5,0.8,3.2,0.6,4.5-0.4c1.9-1.2,3.2-3.1,3.4-5.4c0.1-1.3,0-2.7-0.4-4c-0.8-3.2-2.3-6.2-4.4-8.8
			c-2.6-3.4-6-6-9.9-7.8L44,94.9c0.1,0.6,0.2,1,0.3,1.4c0.1,0.7,0.1,0.7-0.5,0.8c-2.4,0.4-4.8,0.5-7.2,0.3c-2.5-0.3-4.7-1.6-6.2-3.6
			c-2-2.5-3.4-5.4-4.3-8.5c0-0.1,0-0.3-0.1-0.4c0.6,0.2,1.1,0.6,1.5,1c1.8,1.8,3.2,3.9,4.3,6.1c0.1,0.2,0.2,0.4,0.4,0.6
			c-0.5-2.6-1.8-4.9-3.7-6.6c1.9,1.1,3.5,2.5,4.9,4.2c-0.3-0.5-0.5-1-0.8-1.4c-0.3-0.5-0.6-1-1-1.4c-0.4-0.4-0.8-0.8-1.2-1.2
			c-0.4-0.3-0.9-0.6-1.4-1c2.5,0.1,4.9,0.9,7,2.3c-1.9-2.1-4.6-3.1-7.4-2.9v-0.2c0.1-0.1,0.3-0.1,0.4-0.2c2.3-0.8,4.8-0.9,7.2-0.2
			c3.1,0.8,5.5,3.2,6.5,6.2c0.2,0.6,0.4,1.3,0.6,1.9c0.1,0.2,0.2,0.4,0.4,0.4c4.1,1.1,8,2.8,11.6,5.2c3.4,2.1,6.6,4.7,9.4,7.5
			c1.7,1.7,3.3,3.4,4.9,5.1c2.1,2.3,4.5,4.2,7.1,5.8c2.2,1.2,4.5,2.1,6.9,2.7C84,118.7,84.2,118.7,84.5,118.8z"/>
		<linearGradient id="SVGID_27_" gradientUnits="userSpaceOnUse" x1="90.3662" y1="38.2933" x2="90.3662" y2="77.92">
			<stop  offset="0" style="stop-color:#142816"/>
			<stop  offset="0.191" style="stop-color:#132615"/>
			<stop  offset="1" style="stop-color:#122313"/>
		</linearGradient>
		<path class="st27" d="M75.1,67.8c5.6-1,11.2-0.5,16.8-0.1c-0.3-0.2-0.7-0.5-1-0.7c-2-1-4.2-1.4-6.4-1.2c-1.7,0.1-3.5,0.4-5.2,0.7
			c-0.2,0-0.3,0-0.5,0c1.1-0.6,2.3-1,3.5-1.3c1.2-0.4,2.4-0.7,3.7-1.2l-1.6,0.1c-2.6,0.3-5.2,1-7.6,2l-2.1,0.8
			c-0.2,0.1-0.4,0.1-0.5,0c0.1-0.1,0.1-0.2,0.2-0.3c3-2.8,6.5-5,10.2-6.7c1.9-0.9,4.1-1.4,6.2-1.5c1.6,0,3.1,0.3,4.6,0.7
			c0.3,0.1,0.5,0.1,0.8,0.1c3.2-0.8,6-2.7,8-5.3c1.6-2,2.4-4.6,2.1-7.2c-0.2-2-1.2-3.9-2.8-5.1c-1.9-1.4-4.5-1.5-6.5-0.1
			c-1.1,0.9-1.6,2.2-1.4,3.6c0.2,1.3,0.7,2.6,1.4,3.7c0.6,0.6,0.5,1.6-0.1,2.2c-0.5,0.4-1.1,0.6-1.7,0.6c-1.7-0.1-3.2-1.3-3.5-3
			c-0.4-3,0-5.7,2.1-8.1c1.3-1.3,3-2.1,4.9-2.1c3-0.3,5.9,1.1,7.7,3.6c1.1,1.6,1.8,3.5,1.9,5.5c0.3,4.5-1.9,7.6-5.2,10.2
			c-1.3,1-2.8,1.8-4.3,2.4c-0.2,0.1-0.3,0.2-0.6,0.3c0.2,0.2,0.4,0.3,0.6,0.4c2.7,1.7,5,4,6.7,6.8c0.4,0.6,0.7,1.2,1.1,1.8
			c0.2,0.3,0.2,0.7-0.1,1c-1.5,2-3.4,3.7-5.5,5.2c-1.8,1.3-3.8,2.1-6,2.4c-3,0.4-6-0.4-8.4-2.2c-1.7-1.2-3.4-2.4-5.2-3.6
			c-2.3-1.5-4.9-2.4-7.7-2.6c-0.3,0-0.5-0.1-0.8-0.1c-0.1,0-0.1-0.1-0.3-0.2c0.2-0.1,0.5-0.2,0.7-0.3c1.3-0.3,2.6-0.4,3.9-0.3
			c3.4,0.3,6.7,1.1,9.9,2.2c0.8,0.3,1.5,0.6,2.3,0.8l0.1-0.1c-0.2-0.2-0.3-0.4-0.5-0.6c-1.1-0.9-2.4-1.6-3.8-1.9
			c-2-0.6-4-0.9-6.1-0.9c-1.3,0-2.6,0-4,0L75.1,67.8z"/>
		<linearGradient id="SVGID_28_" gradientUnits="userSpaceOnUse" x1="76.4932" y1="35.6654" x2="76.4932" y2="68.71">
			<stop  offset="0" style="stop-color:#142816"/>
			<stop  offset="0.191" style="stop-color:#132615"/>
			<stop  offset="1" style="stop-color:#122313"/>
		</linearGradient>
		<path class="st28" d="M77,45.8c-0.3,0.2-0.6,0.4-0.9,0.7c-1.7,1.6-2.9,3.7-3.3,5.9c-0.6,2.4-0.9,4.8-0.9,7.3c0,1.3,0,2.5-0.1,3.8
			c0,0.7,0,1.5,0,2.2c0,0.1,0,0.1-0.2,0.2c-0.1-0.2-0.2-0.4-0.3-0.7c-0.3-1.5-0.7-3-0.8-4.5c-0.2-1.8-0.2-3.6-0.2-5.4
			c0-0.5,0.1-1.1,0.1-1.6l-0.2,0C70.2,53.8,70,54,70,54.2c-0.4,1.3-0.6,2.7-0.5,4.1c0.1,1.8,0.4,3.7,0.9,5.5c0.2,0.5,0.3,1,0.5,1.5
			c0,0.1,0.1,0.3,0.1,0.4l-0.2,0.1c-0.3-0.4-0.6-0.8-0.9-1.2c-2-3.1-3.2-6.7-3.7-10.4c-0.3-1.9-0.3-3.9-0.1-5.9
			c0.3-2.1,1.3-4.1,2.8-5.5c1.8-1.8,4-3.3,6.3-4.3c2.2-1.1,4.6-2,7-2.7c0.9-0.3,1-0.3,1.4,0.6c1.7,2.9,2.8,6.2,3.1,9.6
			c0.5,4.4-0.9,8.7-3.8,12c-1.3,1.3-2.6,2.5-4.1,3.6c-1.2,1-2.3,2-3.3,3.2c-1,1.2-2,2.4-2.9,3.6c-0.1,0.1-0.2,0.2-0.3,0.3h-0.1
			c0-0.6,0-1.2,0.1-1.7c0.4-2.4,1.3-4.7,2.8-6.8c1-1.5,2.2-2.9,3.3-4.3l0.2-0.3c-0.5-0.1-1,0-1.5,0.3c-1,0.6-1.8,1.5-2.3,2.6
			c-0.9,1.7-1.6,3.5-2,5.3c0,0.2-0.1,0.4-0.2,0.6c-0.2-6.5,1.9-12.5,4.4-18.4L77,45.8z"/>
		<linearGradient id="SVGID_29_" gradientUnits="userSpaceOnUse" x1="56.1867" y1="46.7242" x2="56.1867" y2="67.74">
			<stop  offset="0" style="stop-color:#142816"/>
			<stop  offset="0.191" style="stop-color:#132615"/>
			<stop  offset="1" style="stop-color:#122313"/>
		</linearGradient>
		<path class="st29" d="M66.7,66.4c-2.6-0.4-5.1-1.2-7.4-2.3c-2.4-1-4.5-2.6-6.3-4.5l-0.1,0.1c0.3,0.5,0.5,1.1,0.8,1.6
			c1.3,1.8,3.1,3.2,5.3,3.9c2.3,0.8,4.7,1.4,7.2,1.7c0.4,0.1,0.9,0.2,1.3,0.3v0.2c-0.1,0-0.2,0-0.3,0.1c-1.8,0.1-3.5,0.2-5.3,0.2
			s-3.7,0-5.5-0.1c-1.7,0-3.3-0.2-4.9-0.5c-3.9-0.7-7.2-3.2-9-6.7c-1-2.2-1.5-4.6-1.5-7c0-1.5,0-1.5,1.2-2.3c2.8-1.9,5.9-3.3,9.2-4
			c2.5-0.6,5.2-0.2,7.5,1c1.8,1.1,3.3,2.7,4.2,4.6c0.8,1.6,1.3,3.2,2.1,4.8c1.6,3.5,3.6,6.8,5.9,9.8c0.1,0.2,0.2,0.3,0.2,0.5
			c-0.2,0-0.5,0-0.7-0.1c-0.8-0.4-1.6-0.9-2.4-1.5c-2-1.9-3.6-4.2-4.8-6.6c-0.1-0.2-0.2-0.5-0.4-0.7c-0.2,0.5,0.1,1.6,0.7,3.1
			c0.4,1,1,1.9,1.5,3c-0.2-0.1-0.3-0.2-0.5-0.3c-0.8-0.7-1.6-1.3-2.3-2c-1.4-1.3-2.8-2.6-4.2-4c-0.1-0.1-0.2-0.2-0.4-0.2
			C60,61.8,63.1,64.6,66.7,66.4z"/>
		<linearGradient id="SVGID_30_" gradientUnits="userSpaceOnUse" x1="78.0876" y1="68.95" x2="78.0876" y2="102.3095">
			<stop  offset="0" style="stop-color:#142816"/>
			<stop  offset="0.191" style="stop-color:#132615"/>
			<stop  offset="1" style="stop-color:#122313"/>
		</linearGradient>
		<path class="st30" d="M73.1,70.3c0.3,0.4,0.6,0.7,0.8,1.1c1.3,1.7,2.3,3.6,3.1,5.5c0.9,2.3,1.7,4.7,2.4,7c0.3,0.9,0.6,1.8,0.9,2.7
			c0.9-5.8-1.3-10.5-4.9-14.8l0.2-0.2c0.5,0.1,0.9,0.3,1.4,0.4c1.9,0.7,3.7,1.7,5.2,3.2c2.7,2.7,4.7,5.7,5.1,9.6
			c0.1,2.1-0.2,4.3-0.9,6.3c-1.1,3.7-2.9,7.2-5.3,10.2c-0.9,1.2-0.7,1.2-2,0.4c-2.7-1.5-5-3.5-7-5.8c-1.3-1.5-2.3-3.3-2.9-5.3
			c-0.5-2.1-0.4-4.3,0.3-6.3c0.4-1.4,0.9-2.8,1.3-4.3c0.6-2.3,0.9-4.7,0.7-7.1c-0.2-1-0.4-2-0.7-3c-0.1-0.3-0.2-0.6-0.3-0.9l0.2-0.1
			c0.2,0.2,0.4,0.3,0.6,0.6c0.9,1.4,1.6,2.9,2,4.5c0.6,2.3,1,4.6,1.2,6.9c0.1,0.8,0.1,1.6,0.2,2.5c0.5-1.4,0.6-2.9,0.5-4.4
			c-0.1-1.5-0.4-3-0.7-4.4c-0.4-1.4-0.9-2.8-1.4-4.2L73.1,70.3z"/>
		<linearGradient id="SVGID_31_" gradientUnits="userSpaceOnUse" x1="58.084" y1="68.07" x2="58.084" y2="89.6008">
			<stop  offset="0" style="stop-color:#142816"/>
			<stop  offset="0.191" style="stop-color:#132615"/>
			<stop  offset="1" style="stop-color:#122313"/>
		</linearGradient>
		<path class="st31" d="M68.2,72.4c-1.9,3.2-4.5,6-6.6,9.2l1.3-0.8c1.9-1.2,3.4-2.9,4.3-5c0.7-1.6,1.3-3.2,1.9-4.8
			c0.1-0.2,0.2-0.3,0.3-0.5h0.2c0,0.3,0.1,0.7,0.2,1c0.2,2.9-0.4,5.8-1.6,8.4c-0.8,1.6-1.8,3.1-3,4.4c-1.3,1.5-2.9,2.8-4.6,3.8
			c-1.4,0.8-3,1.2-4.7,1.4c-3,0.2-6.1,0-9.1-0.6c-0.4-0.1-0.8-0.4-0.9-0.8c-0.3-1.7-0.2-3.5,0.3-5.1c1.3-5,4.6-9.1,9.2-11.5
			c3.3-1.7,6.8-2.7,10.4-3.1c1.3-0.2,2.5-0.2,3.8-0.3c0.3,0,0.5,0,0.8,0l0.1,0.1c-0.2,0.2-0.4,0.4-0.6,0.5c-1.7,1.1-3.5,2.3-5.2,3.3
			s-3.5,1.9-5.2,2.9c-0.1,0-0.2,0.1-0.2,0.2c3.3-0.5,6.3-2,8.8-4.2l0.1,0.1c-0.7,0.8-1.4,1.5-2.2,2.2c-3.8,3.2-8.1,6-12.6,8.1
			l-0.2,0.1v0.1c0.5,0,1-0.1,1.5-0.1c2.4-0.5,4.7-1.5,6.7-3c2.3-1.6,4.4-3.5,6.2-5.7c0.2-0.2,0.4-0.4,0.6-0.5L68.2,72.4z"/>
		<linearGradient id="SVGID_32_" gradientUnits="userSpaceOnUse" x1="90.8032" y1="6.17" x2="90.8032" y2="31.0548">
			<stop  offset="0" style="stop-color:#142816"/>
			<stop  offset="0.191" style="stop-color:#132615"/>
			<stop  offset="1" style="stop-color:#122313"/>
		</linearGradient>
		<path class="st32" d="M92.7,8.3c-0.6,0.9-1.2,1.7-1.8,2.6c-1.1,1.7-1.8,3.7-2,5.7c-0.1,0.9-0.1,1.9,0.1,2.8
			c1.4-4.3,2.4-8.7,5.5-12.2c-0.6,1.5-1.1,3.1-1.4,4.7c-0.3,1.6-0.2,3.3,0.2,4.8c0.1-1.1,0.2-2.3,0.3-3.4c0.2-2.3,0.9-4.4,2-6.4
			c0.2-0.3,0.4-0.5,0.6-0.7l0.2,0.1c0,0.1,0,0.2-0.1,0.4c-0.7,1.8-0.9,3.8-0.5,5.7c0.3,1.7,0.8,3.4,1.3,5c1.1,3,0.4,6.3-1.6,8.6
			c-1.6,2-3.6,3.7-5.9,4.9c-0.3,0.2-0.6,0.2-0.8-0.1c0,0,0-0.1-0.1-0.1c-2.5-3.1-4.1-6.8-4.8-10.8c-0.3-2.2,0.2-4.4,1.4-6.2
			c1.4-2.5,3.8-4.5,6.5-5.4C92.2,8.3,92.4,8.3,92.7,8.3L92.7,8.3z"/>
		<linearGradient id="SVGID_33_" gradientUnits="userSpaceOnUse" x1="105.7463" y1="5.43" x2="105.7463" y2="21.5704">
			<stop  offset="0" style="stop-color:#142816"/>
			<stop  offset="0.191" style="stop-color:#132615"/>
			<stop  offset="1" style="stop-color:#122313"/>
		</linearGradient>
		<path class="st33" d="M109.4,15.4c-3.9-2.1-7.9-4.2-10.8-7.6c1.8,1.4,4,2.4,6.3,2.7c-1.4-0.8-2.8-1.6-4.2-2.4
			c-1.4-0.7-2.8-1.6-4.1-2.6V5.5c0.2,0,0.3-0.1,0.5-0.1c3,0.1,6,0.6,8.8,1.7c4.5,1.6,7.9,5.4,8.9,10c0.3,1.1,0.3,2.3,0,3.4
			c-0.1,0.2-0.2,0.4-0.4,0.5c-3,0.7-6.1,0.8-9.1,0.1c-1.4-0.4-2.7-1.2-3.7-2.3c-2-1.8-3.5-4.3-4.1-6.9c-0.4-1.3-0.4-2.7-0.3-4.1
			c0-0.1,0-0.2,0.1-0.3c0,0,0,0,0.1-0.1c0.1,0.2,0.2,0.3,0.2,0.5c0.5,2,1.5,3.9,2.8,5.6c0.7,0.8,1.6,1.5,2.6,1.9
			c-1.4-2.3-3.3-4.2-4.7-6.5l0.1-0.1c0.1,0.1,0.2,0.2,0.3,0.3c1.3,1.5,2.7,2.8,4.2,3.9c1.4,1.1,3,1.9,4.7,2.4
			c0.6,0.1,1.2,0.2,1.8,0.3L109.4,15.4z"/>
		<linearGradient id="SVGID_34_" gradientUnits="userSpaceOnUse" x1="108.7888" y1="117.0813" x2="108.7888" y2="127.9475">
			<stop  offset="0" style="stop-color:#142816"/>
			<stop  offset="0.191" style="stop-color:#132615"/>
			<stop  offset="1" style="stop-color:#122313"/>
		</linearGradient>
		<path class="st34" d="M105.7,125.8c-0.6,0.5-1.2,1-1.7,1.6c-0.3,0.3-0.7,0.5-1.2,0.4c-0.4,0-0.7,0-1.1,0l0.3-1.6h-0.1
			c-0.2,0.4-0.5,0.8-0.7,1.3c-0.1,0.2-0.3,0.3-0.6,0.3c-0.5,0-1,0-1.6,0c0.2-0.3,0.3-0.6,0.4-0.8c0.7-1.5,1.3-3,2-4.5
			c0.6-1.7,1.8-3.2,3.3-4.3c1.7-1.1,3.8-1.5,5.7-1.1c2.3,0.4,4.5,1.3,6.5,2.6c0.4,0.2,0.7,0.5,1.1,0.7c0.4,0.2,0.6,0.6,0.6,1
			c0.1,2-0.3,4.1-1.2,5.9c-0.1,0.3-0.4,0.5-0.7,0.4c-2.3,0-4.6,0-6.9,0h-0.5l0.4-1c-0.1,0-0.1,0-0.1,0c-0.6,0.8-1.6,1.2-2.6,1
			c-0.8-0.1-1.5,0-2.4,0L105.7,125.8L105.7,125.8z"/>
		<linearGradient id="SVGID_35_" gradientUnits="userSpaceOnUse" x1="61.7" y1="19.2529" x2="61.7" y2="31.7498">
			<stop  offset="0" style="stop-color:#142816"/>
			<stop  offset="0.191" style="stop-color:#132615"/>
			<stop  offset="1" style="stop-color:#122313"/>
		</linearGradient>
		<path class="st35" d="M51.9,24.8c3.9-1.4,7.8-0.8,11.6,0.1l0.1-0.1c-0.5-0.3-1.1-0.7-1.6-1c-2-0.8-4.3-1-6.5-0.5
			c-0.8,0.2-1.6,0.4-2.4,0.5c2-1,4.1-1.7,6.2-2c-3.2-0.3-5.9,1.2-8.5,2.9l-0.1-0.2c0.3-0.4,0.5-0.8,0.9-1.1c2.2-2.3,5.1-3.7,8.3-3.9
			c1.7-0.2,3.4-0.1,5.1,0.3c1.8,0.6,3.5,1.6,4.9,3c1,0.9,1.9,1.9,2.8,2.8c0.3,0.3,0.3,0.6,0,1c-1.8,1.7-3.7,3.2-5.8,4.4
			c-1.9,1.2-4.5,1.1-6.3-0.3c-1.1-0.7-2-1.5-3-2.3c-1.4-1.1-2.9-2.1-4.5-2.9c-0.1,0-0.1-0.1-0.3-0.2c1.4,0,2.8,0.1,4.2,0.4
			c-0.7-0.5-1.5-0.7-2.4-0.7c-0.8,0-1.7,0-2.5,0L51.9,24.8z"/>
		<linearGradient id="SVGID_36_" gradientUnits="userSpaceOnUse" x1="54.1678" y1="25.245" x2="54.1678" y2="45.6248">
			<stop  offset="0" style="stop-color:#142816"/>
			<stop  offset="0.191" style="stop-color:#132615"/>
			<stop  offset="1" style="stop-color:#122313"/>
		</linearGradient>
		<path class="st36" d="M50.1,27.1c0.7,2,1.1,4.1,1.3,6.2c0.5-0.6,0.7-1.4,0.6-2.2c0-0.8-0.1-1.6-0.2-2.4l0.2-0.1l2.7,5
			c-0.4-2.3-1.4-4.5-2.8-6.4l0.2-0.2l2.8,2.8l0.1-0.1c-1-2-2.9-3.1-4.7-4.3v-0.1c0.2,0,0.4,0,0.6,0c1.1,0.3,2.2,0.8,3.2,1.5
			c1.6,1,2.9,2.3,4.1,3.7c1.8,2.1,2.4,5,1.6,7.6c-0.6,2.3-1.2,4.5-1.8,6.8c-0.2,0.9-0.3,0.9-1.1,0.6c-2.2-0.8-4.1-2-5.8-3.5
			c-2.7-2.4-3.6-6.2-2.3-9.5c0.6-1.6,1-3.4,1.1-5.1c0-0.1,0-0.1,0.1-0.2L50.1,27.1z"/>
		<linearGradient id="SVGID_37_" gradientUnits="userSpaceOnUse" x1="14.5518" y1="79.5823" x2="14.5518" y2="92.0421">
			<stop  offset="0" style="stop-color:#142816"/>
			<stop  offset="0.191" style="stop-color:#132615"/>
			<stop  offset="1" style="stop-color:#122313"/>
		</linearGradient>
		<path class="st37" d="M25.1,83.8c-2.7-1.4-5.4-2.6-8.6-2.1c2.1,0.2,4.2,0.6,6.2,1.4v0.2c-0.1,0-0.3,0-0.4,0
			c-1.9-0.4-3.9-0.5-5.8-0.1c-1.3,0.3-2.6,0.9-3.6,1.7c-0.1,0.1-0.2,0.2-0.2,0.3c3.7-1.1,7.4-2,11.3-1v0.2c-0.8,0.1-1.6,0.1-2.4,0.2
			c-0.8,0-1.6,0.3-2.3,0.8l4-0.8l0.1,0.3c-0.1,0-0.2,0.1-0.3,0.1c-1.9,1.2-3.6,2.6-5.2,4.1c-0.7,0.7-1.5,1.3-2.3,1.9
			c-1.7,1.3-4,1.4-5.8,0.3c-2-1-3.9-2.2-5.6-3.6c-0.6-0.5-0.6-0.5-0.2-1.1c1.5-2.2,3.4-4.1,5.6-5.6c1.2-0.7,2.6-1.2,4-1.3
			c2.3-0.3,4.6-0.1,6.8,0.7c1.6,0.6,3.1,1.5,4.3,2.8c0.1,0.2,0.3,0.3,0.4,0.5L25.1,83.8z"/>
		<linearGradient id="SVGID_38_" gradientUnits="userSpaceOnUse" x1="34.6082" y1="68.4864" x2="34.6082" y2="84.2264">
			<stop  offset="0" style="stop-color:#142816"/>
			<stop  offset="0.191" style="stop-color:#132615"/>
			<stop  offset="1" style="stop-color:#122313"/>
		</linearGradient>
		<path class="st38" d="M27.4,82.5c1-1.8,2.2-3.5,3.5-5.1c-0.5,0.4-1,0.8-1.4,1.3c-0.5,0.5-0.9,0.9-1.3,1.4
			c-0.4,0.5-0.7,1.1-1.2,1.7c0-0.2,0-0.4,0-0.5c0.2-3.8,1.9-7.3,4.6-9.9c1.3-1.2,2.9-2.1,4.6-2.5c1.7-0.5,3.5-0.6,5.3-0.4
			c1,0.2,1.1,0.2,1.1,1.2c0.2,2.4-0.3,4.7-1.4,6.8c-1,1.9-2.5,3.5-4.2,4.7c-1,0.6-2.1,1-3.2,1.2c-2.3,0.4-4.5,1-6.6,1.7
			c-0.1,0-0.3,0-0.4,0c2-2.5,4.8-3.6,7.4-4.7c-2,0.5-3.9,1.3-5.5,2.5c2.1-2.2,4.6-4.1,7.2-5.7C32.2,77.4,29.6,79.7,27.4,82.5z"/>
		<linearGradient id="SVGID_39_" gradientUnits="userSpaceOnUse" x1="53.9422" y1="3.9673" x2="53.9422" y2="24.32">
			<stop  offset="0" style="stop-color:#142816"/>
			<stop  offset="0.191" style="stop-color:#132615"/>
			<stop  offset="1" style="stop-color:#122313"/>
		</linearGradient>
		<path class="st39" d="M52,22.1c1.5-1.7,2.9-3.5,3.3-5.8c-1.1,1.9-2.3,3.7-3.6,5.4c1.2-2.3,1.6-5,1.2-7.6c-0.5,1.9-0.5,4-1.3,5.9
			c0.3-2.7,0.2-5.4-0.3-8.1c-0.1,4.2-0.1,8.4-1.2,12.4h-0.2c-0.1-0.2-0.1-0.3-0.1-0.5l-1-6.8c-0.2-1.4-0.5-2.9-0.7-4.4
			c-0.4-2.1,0.5-4.3,2.2-5.5c0.9-0.7,1.9-1.2,2.9-1.6C55,4.9,57,4.5,59,4c0.3-0.1,0.5,0,0.6,0.3c0.7,3.2,0.6,6.5-0.5,9.5
			c-0.7,1.9-1.9,3.7-3.4,5.1c-1,1-2.1,1.9-3.2,2.9c-0.2,0.1-0.4,0.3-0.5,0.4L52,22.1z"/>
		<linearGradient id="SVGID_40_" gradientUnits="userSpaceOnUse" x1="22.6895" y1="84.41" x2="22.6895" y2="104.9647">
			<stop  offset="0" style="stop-color:#142816"/>
			<stop  offset="0.191" style="stop-color:#132615"/>
			<stop  offset="1" style="stop-color:#122313"/>
		</linearGradient>
		<path class="st40" d="M26.2,86.3c0,0.3,0.1,0.6,0.2,0.9c0.4,1.2,0.7,2.5,1.2,3.7c1,2,1.2,4.3,0.7,6.4c-0.4,1.3-1,2.5-2,3.5
			c-1.6,1.8-3.5,3.2-5.7,4.1c-0.4,0.2-0.5,0-0.7-0.4c-0.8-2.2-1.6-4.4-2.4-6.7c-0.2-0.7-0.4-1.4-0.5-2.1c-0.2-1.7,0.1-3.4,1-4.9
			c1.4-2.6,3.6-4.6,6.2-6c0.4-0.2,0.9-0.4,1.4-0.5l0.1,0.2c-0.1,0.1-0.2,0.3-0.4,0.4c-1,0.9-2,1.8-2.9,2.8c-0.4,0.5-0.7,1-0.9,1.5
			l0.1,0.1l2.5-3l0.2,0.1c-1.2,2-2,4.2-2.2,6.5l2.2-5.1h0.2c0,1.6-0.1,3.1,0.8,4.5c0.1-2.1,0.4-4.1,0.8-6.2L26.2,86.3z"/>
		<linearGradient id="SVGID_41_" gradientUnits="userSpaceOnUse" x1="20.7719" y1="64.5892" x2="20.7719" y2="83.64">
			<stop  offset="0" style="stop-color:#142816"/>
			<stop  offset="0.191" style="stop-color:#132615"/>
			<stop  offset="1" style="stop-color:#122313"/>
		</linearGradient>
		<path class="st41" d="M25.9,83.6c-1.5-3.8-1.8-7.9-2.3-12c-0.2,1.3-0.3,2.7-0.1,4c0.1,1.3,0.4,2.7,0.5,4c-0.5-0.8-0.8-1.8-1-2.7
			c-0.3-1-0.5-1.9-0.8-2.9c-0.2,1.2-0.1,2.5,0.3,3.7c0.4,1.2,0.9,2.3,1.4,3.5c-1.4-1.5-2.8-3.2-4-4.9c0.8,2.1,2,3.9,3.6,5.4
			c-0.1,0-0.2,0-0.3,0c-2.4-1.5-4.6-3.4-6.3-5.7c-1.5-2.2-2.4-4.9-2.4-7.6c0-1.1,0-2.2,0-3.2c0-0.5,0.2-0.7,0.7-0.6
			c2.7,0.2,5.3,0.8,7.7,1.8c1.9,0.9,3.3,2.1,3.5,4.3c0.1,1,0.1,2.1,0,3.1c-0.1,2.2-0.3,4.3-0.4,6.5c-0.1,1-0.1,2.1-0.2,3.1
			c0,0.1,0,0.2-0.1,0.3L25.9,83.6z"/>
		<linearGradient id="SVGID_42_" gradientUnits="userSpaceOnUse" x1="116.5256" y1="67.72" x2="116.5256" y2="83.1149">
			<stop  offset="0" style="stop-color:#142816"/>
			<stop  offset="0.191" style="stop-color:#132615"/>
			<stop  offset="1" style="stop-color:#122313"/>
		</linearGradient>
		<path class="st42" d="M118.1,74.1c0.5-1.7,1.3-3.4,2.4-4.8c-0.9,2-1.1,4.2-0.6,6.3c0-0.3,0.1-0.7,0.1-1s0.1-0.7,0.1-1.1
			c0.1-1.6,0.5-3.2,1.2-4.7c0.2-0.4,0.5-0.8,0.7-1.2l0.2,0.1c0.1,0.7,0.2,1.4,0.2,2.1c0.2,2.5-0.2,5.1-1.1,7.4c-0.8,1.8-2.2,3.2-4,4
			c-1.6,0.8-3.2,1.4-4.9,1.7c-0.3,0.1-0.6,0.1-0.7-0.3c-0.4-2-0.7-4-0.8-6c-0.1-3.6,2.2-6.9,5.6-8c1-0.3,2-0.6,3-0.8
			c0.2,0,0.4,0,0.5,0.1c-2.1,0.8-3.8,2.5-4.6,4.6c1.2-1.6,2.7-3,4.5-3.8C118.7,70.3,118.1,72.2,118.1,74.1z"/>
		<linearGradient id="SVGID_43_" gradientUnits="userSpaceOnUse" x1="112.5964" y1="58.4711" x2="112.5964" y2="68.4821">
			<stop  offset="0" style="stop-color:#142816"/>
			<stop  offset="0.191" style="stop-color:#132615"/>
			<stop  offset="1" style="stop-color:#122313"/>
		</linearGradient>
		<path class="st43" d="M114.3,66.1c2.4,0.1,4.8,0,7,1.2v0.2c-0.5,0-1.1,0-1.6,0.1c-1.5,0.3-3,0.5-4.4,0.8c-1.9,0.4-3.9,0.1-5.6-0.8
			c-2.7-1.3-4.7-3.6-5.7-6.4c-0.2-0.3-0.1-0.7,0.2-0.8c0,0,0,0,0.1,0c1.5-1,3.3-1.6,5.2-1.7c1.6-0.2,3.2,0.1,4.7,0.8
			c2.7,1.2,4.8,3.4,6.1,6c0,0.1,0,0.2,0,0.3c-1.3-1-2.8-1.7-4.4-2.1c1.5,0.7,3,1.6,4.3,2.7c-2.7-1.3-5.4-2.5-8.5-2.1
			c2.5,0.3,5,1,7.4,2C117.5,65.9,115.9,65.8,114.3,66.1z"/>
		<linearGradient id="SVGID_44_" gradientUnits="userSpaceOnUse" x1="121.4122" y1="48.0186" x2="121.4122" y2="66.57">
			<stop  offset="0" style="stop-color:#142816"/>
			<stop  offset="0.191" style="stop-color:#132615"/>
			<stop  offset="1" style="stop-color:#122313"/>
		</linearGradient>
		<path class="st44" d="M123.4,63.8l-0.4,0.5l-0.2-0.1c0.8-1.7,1.2-3.5,1.1-5.4l-1.4,5.2h-0.2c0.4-2.1,0-4.2-0.9-6.1
			c0.3,1.6,0.4,3.2,0.4,4.8c-0.4-2.1-1.2-4.2-2.2-6.1c0.9,3.3,2,6.5,2.1,9.9h-0.2c-0.1-0.1-0.2-0.3-0.3-0.4c-1.3-2.7-2.7-5.3-4-8
			c-0.7-1.1-0.9-2.4-0.6-3.7c0.4-1.2,1.1-2.2,2-3c1.5-1.3,3.1-2.4,4.9-3.3c0.3-0.2,0.5-0.1,0.6,0.2c2.5,4.5,2.8,9,0.2,13.6
			L123.4,63.8L123.4,63.8z"/>
		<linearGradient id="SVGID_45_" gradientUnits="userSpaceOnUse" x1="10.0747" y1="4.0852" x2="10.0747" y2="18.8927">
			<stop  offset="0" style="stop-color:#142816"/>
			<stop  offset="0.191" style="stop-color:#132615"/>
			<stop  offset="1" style="stop-color:#122313"/>
		</linearGradient>
		<path class="st45" d="M8.4,12.2L8.2,9.7l-0.3,0.9H7.8L7.5,8.7c-0.1,1,0.1,1.9,0.4,2.8l-0.2,0.1L5.3,9.7C4.6,9.1,4.1,8.3,3.9,7.4
			C3.7,6.3,4.1,5,4.9,4.2C5,4.1,5.1,4.1,5.3,4.1c0.8,0.1,1.6,0.4,2.4,0.6c1.4,0.5,2.2,2,1.7,3.5c0,0,0,0,0,0c-0.3,1-0.5,2-0.7,2.9
			h0.1C8.9,10.8,9,10.4,9.2,10c0.4-0.8,0.9-1.6,1.5-2.3c0.5-0.7,1.4-1,2.2-0.8C13.9,7,15,7.3,16,7.6c0.2,0.1,0.3,0.3,0.3,0.4
			c-0.1,2.2-1.7,3.9-3.9,4.3c-0.6,0.1-1.3,0-1.9,0.1c-0.3,0-0.5,0.1-0.8,0.1c0.9,0.1,1.7,0.2,2.5,0.4c1.6,0.2,2.8,1.3,3.2,2.9
			c0.1,0.9,0.2,1.8,0.1,2.6c0,0.1-0.2,0.3-0.4,0.4C14.1,19,13,18.9,12,18.5c-0.8-0.4-1.3-1-1.6-1.9c-0.1-0.6-0.3-1.1-0.5-1.6
			c-0.3-0.6-0.6-1.2-1-1.8c-0.2-0.3-0.3-0.5-0.1-0.7c0.3-0.5,0.7-0.9,1.1-1.3c1-0.8,2.1-1.6,3.3-2.5c-0.5,0.1-0.9,0.3-1.4,0.5
			c-0.9,0.6-1.8,1.4-2.4,2.3L9,12.1l-0.4-0.4l-0.1,0.6L8.4,12.2L8.4,12.2z M12.7,15.6c-0.4-1.1-1.4-1.6-2.2-2.2l1.3,0.4
			c-0.8-0.6-2.6-1.2-2.9-0.9C10.4,13.3,11.5,14.5,12.7,15.6z M7.3,10.9L6.1,8.1C6.1,9.1,6.6,10.1,7.3,10.9z M9.6,13.3l2,2.5
			C11.2,14.8,10.5,13.9,9.6,13.3z M10.2,11.5l1.7-0.5C11.2,10.8,10.7,11.2,10.2,11.5z"/>
		<linearGradient id="SVGID_46_" gradientUnits="userSpaceOnUse" x1="35.6095" y1="111.7464" x2="35.6095" y2="127.8223">
			<stop  offset="0" style="stop-color:#142816"/>
			<stop  offset="0.191" style="stop-color:#132615"/>
			<stop  offset="1" style="stop-color:#122313"/>
		</linearGradient>
		<path class="st46" d="M42.2,126.1c0-3-0.7-5.9-1.9-8.6c-1.5-2.8-4.6-4.3-7.7-3.8c-1.6,0.4-2.9,1.6-3.3,3.2c-0.6,1.3-0.3,2.9,0.5,4
			c0.7,1,2.1,1.3,3.2,0.6c0.7-0.5,1.3-1.1,1.8-1.8c0.3-0.5,0.7-0.8,1.2-0.7c0.5,0.1,0.9,0.6,1,1.1c0.3,0.9,0,1.8-0.7,2.4
			c-1.7,1.6-4.3,1.9-6.3,0.7c-2.8-2.1-3.5-6-1.4-8.9c0,0,0.1-0.1,0.1-0.1c1.5-1.8,3.8-2.8,6.1-2.4c3,0.2,5.6,2,7,4.7
			c1.3,2.3,2,4.8,2,7.4c0,1.2,0,2.3,0,3.5c0,0.4-0.1,0.5-0.5,0.5c-0.1,0-0.2,0-0.3,0c-1,0-1,0-0.9-0.9
			C42.1,126.6,42.1,126.4,42.2,126.1z"/>
		<linearGradient id="SVGID_47_" gradientUnits="userSpaceOnUse" x1="32.9052" y1="41.0718" x2="32.9052" y2="52.2006">
			<stop  offset="0" style="stop-color:#142816"/>
			<stop  offset="0.191" style="stop-color:#132615"/>
			<stop  offset="1" style="stop-color:#122313"/>
		</linearGradient>
		<path class="st47" d="M28.3,48.4c-0.2-0.4-0.3-0.8-0.4-1.2c-0.2-0.9-0.3-1.8-0.3-2.7c0.1-0.8,0.5-1.6,1.2-2c0.9-0.7,1.9-1.1,3-1.4
			c0.2,0,0.3,0,0.5,0.2c1.2,1.7,1.2,4-0.1,5.6c-0.5,0.5-1.1,1-1.6,1.5c-0.1,0.1-0.2,0.2-0.4,0.4c0.8-0.5,1.5-0.9,2.2-1.3
			c1.5-0.8,3.4-0.5,4.6,0.7c0.5,0.5,0.9,1,1.2,1.5c0.1,0.2,0.1,0.4,0,0.5c-0.6,0.9-1.5,1.5-2.5,1.8c-1,0.3-2.1,0.1-2.9-0.6
			c-0.6-0.4-1.2-0.8-1.9-1.2c-0.4-0.1-0.9-0.3-1.3-0.3c-0.1,0-0.2-0.1-0.3-0.2c1.4-0.2,2.8,0,4.1,0.5c-1-0.5-2.1-0.8-3.3-0.7v-0.2h4
			c-1.1-0.6-2.1-0.3-3.1-0.3l1.2-0.4l-0.1-0.2c-0.7,0.2-1.5,0.5-2.2,0.7c-0.2,0.1-0.5,0.3-0.6,0.5c0-0.2-0.1-0.3-0.1-0.5
			c0-0.9,0.1-1.9,0.3-2.8c0.2-0.9,0.5-1.8,0.8-2.7c-0.6,0.4-0.9,1.1-1,1.8c-0.1,1-0.2,1.9-0.2,2.9c0,0.3,0,0.5-0.4,0.5L28.3,48.4z
			 M30.7,46.4c-0.6,0.3-1,0.9-1.1,1.6L30.7,46.4z M28.6,46.2h-0.2l0.2,2h0.1L28.6,46.2z"/>
		<linearGradient id="SVGID_48_" gradientUnits="userSpaceOnUse" x1="24.9729" y1="43.9959" x2="24.9729" y2="49.54">
			<stop  offset="0" style="stop-color:#142816"/>
			<stop  offset="0.191" style="stop-color:#132615"/>
			<stop  offset="1" style="stop-color:#122313"/>
		</linearGradient>
		<path class="st48" d="M28.3,48.4l0.4,0.5l0.3,0.6c-1.1-0.3-1.5-1.2-2.1-2l1,1.9c-0.9,0-1.8,0-2.7,0c-0.7,0-1.4-0.1-2-0.4
			c-1.4-0.6-2.3-2-2.1-3.6c0-0.2,0.1-0.3,0.2-0.4c0.9-0.7,2-1.1,3.1-1.1c1.1-0.1,2.2,0.6,2.6,1.7c0.4,0.8,0.8,1.7,1.3,2.5
			C28.2,48.3,28.3,48.3,28.3,48.4z M27.2,49.2l-2.8-1.4C25.1,48.6,26.1,49.1,27.2,49.2z M25.9,47.5l-0.1,0.1l1,1l0.1-0.1L25.9,47.5z
			"/>
		<linearGradient id="SVGID_49_" gradientUnits="userSpaceOnUse" x1="30.7553" y1="49.92" x2="30.7553" y2="58.5926">
			<stop  offset="0" style="stop-color:#142816"/>
			<stop  offset="0.191" style="stop-color:#132615"/>
			<stop  offset="1" style="stop-color:#122313"/>
		</linearGradient>
		<path class="st49" d="M31.3,54.1c0.2-1.3-0.5-2.4-1.3-3.5c0.9,0.2,1.8,0.7,2.3,1.5c0.8,1,1.1,2.3,0.6,3.5c-0.3,1-0.8,2-1.4,2.8
			c-0.2,0.3-0.4,0.3-0.7,0.1c-0.6-0.5-1.2-1-1.8-1.5c-0.8-0.9-1.1-2.1-0.6-3.2c0.2-0.8,0.4-1.5,0.5-2.3c0-0.5,0-1-0.1-1.5
			c0.5,0.4,0.6,0.8,1,3.1c0.1-0.9,0-1.9-0.4-2.7C30.3,51.4,31,52.7,31.3,54.1z"/>
		<linearGradient id="SVGID_50_" gradientUnits="userSpaceOnUse" x1="25.423" y1="49.6112" x2="25.423" y2="55.3165">
			<stop  offset="0" style="stop-color:#142816"/>
			<stop  offset="0.191" style="stop-color:#132615"/>
			<stop  offset="1" style="stop-color:#122313"/>
		</linearGradient>
		<path class="st50" d="M28.1,50.8l0.4-0.5c0.2,0.5,0.2,1,0,1.5c-0.3,1.1-0.9,2.1-1.9,2.8c-0.9,0.6-2.1,0.8-3.2,0.6h-0.2
			c-1-0.2-1.2-0.3-1-1.4c0.3-1.9,1.7-3.4,3.6-3.9c0.9-0.3,1.8-0.4,2.8-0.4c-0.8,0.6-1.6,1.2-2.5,1.6l0.1,0.1l1.8-0.9
			c-0.4,0.6-0.9,1.1-1.5,1.4c-0.6,0.4-1.3,0.8-1.9,1.2c0.2,0,0.4-0.1,0.6-0.1c1.1-0.5,2-1.1,2.8-2C28,50.9,28.1,50.9,28.1,50.8
			l-1.4,2C27.5,52.4,28,51.7,28.1,50.8z"/>
		<linearGradient id="SVGID_51_" gradientUnits="userSpaceOnUse" x1="81.19" y1="126.0946" x2="81.19" y2="127.84">
			<stop  offset="0" style="stop-color:#142816"/>
			<stop  offset="0.191" style="stop-color:#132615"/>
			<stop  offset="1" style="stop-color:#122313"/>
		</linearGradient>
		<path class="st51" d="M87.1,127.8H75.3C78.9,125.5,83.5,125.5,87.1,127.8z"/>
		<linearGradient id="SVGID_52_" gradientUnits="userSpaceOnUse" x1="5.81" y1="12.94" x2="5.81" y2="13.6038">
			<stop  offset="0" style="stop-color:#142816"/>
			<stop  offset="0.191" style="stop-color:#132615"/>
			<stop  offset="1" style="stop-color:#122313"/>
		</linearGradient>
		<path class="st52" d="M4.6,13.5L7,12.9C6.4,13.5,5.5,13.7,4.6,13.5z"/>
		<linearGradient id="SVGID_53_" gradientUnits="userSpaceOnUse" x1="10.74" y1="12.8182" x2="10.74" y2="15.56">
			<stop  offset="0" style="stop-color:#142816"/>
			<stop  offset="0.191" style="stop-color:#132615"/>
			<stop  offset="1" style="stop-color:#122313"/>
		</linearGradient>
		<path class="st53" d="M12.7,15.6c-1.2-1-2.2-2.3-3.9-2.7c0.4-0.3,2.1,0.3,2.9,0.9l-1.3-0.4C11.3,14,12.3,14.5,12.7,15.6z"/>
		<linearGradient id="SVGID_54_" gradientUnits="userSpaceOnUse" x1="6.695" y1="8.07" x2="6.695" y2="10.86">
			<stop  offset="0" style="stop-color:#142816"/>
			<stop  offset="0.191" style="stop-color:#132615"/>
			<stop  offset="1" style="stop-color:#122313"/>
		</linearGradient>
		<path class="st54" d="M7.3,10.9c-0.7-0.7-1.2-1.7-1.2-2.8L7.3,10.9z"/>
		<linearGradient id="SVGID_55_" gradientUnits="userSpaceOnUse" x1="10.65" y1="13.31" x2="10.65" y2="15.84">
			<stop  offset="0" style="stop-color:#142816"/>
			<stop  offset="0.191" style="stop-color:#132615"/>
			<stop  offset="1" style="stop-color:#122313"/>
		</linearGradient>
		<path class="st55" d="M9.6,13.3c0.9,0.6,1.6,1.5,2,2.5L9.6,13.3z"/>
		<linearGradient id="SVGID_56_" gradientUnits="userSpaceOnUse" x1="11.025" y1="10.9881" x2="11.025" y2="11.54">
			<stop  offset="0" style="stop-color:#142816"/>
			<stop  offset="0.191" style="stop-color:#132615"/>
			<stop  offset="1" style="stop-color:#122313"/>
		</linearGradient>
		<path class="st56" d="M10.2,11.5c0.5-0.4,1-0.7,1.7-0.5L10.2,11.5z"/>
		<linearGradient id="SVGID_57_" gradientUnits="userSpaceOnUse" x1="31.73" y1="48.53" x2="31.73" y2="50.27">
			<stop  offset="0" style="stop-color:#142816"/>
			<stop  offset="0.191" style="stop-color:#132615"/>
			<stop  offset="1" style="stop-color:#122313"/>
		</linearGradient>
		<path class="st57" d="M29.3,49.8c0.2-0.2,0.4-0.4,0.6-0.5c0.7-0.3,1.5-0.5,2.2-0.7l0.1,0.2L31,49.1c1,0,2.1-0.3,3.2,0.3h-4v0.2
			c1.1-0.1,2.3,0.2,3.3,0.7C32.1,49.8,30.7,49.6,29.3,49.8L29.3,49.8z"/>
		<linearGradient id="SVGID_58_" gradientUnits="userSpaceOnUse" x1="30.135" y1="46.44" x2="30.135" y2="48">
			<stop  offset="0" style="stop-color:#142816"/>
			<stop  offset="0.191" style="stop-color:#132615"/>
			<stop  offset="1" style="stop-color:#122313"/>
		</linearGradient>
		<path class="st58" d="M30.7,46.4L29.6,48C29.7,47.3,30.1,46.7,30.7,46.4z"/>
		<linearGradient id="SVGID_59_" gradientUnits="userSpaceOnUse" x1="28.62" y1="46.26" x2="28.62" y2="48.26">
			<stop  offset="0" style="stop-color:#142816"/>
			<stop  offset="0.191" style="stop-color:#132615"/>
			<stop  offset="1" style="stop-color:#122313"/>
		</linearGradient>
		<path class="st59" d="M28.6,46.3l0.2,2h-0.1l-0.2-2H28.6z"/>
		<linearGradient id="SVGID_60_" gradientUnits="userSpaceOnUse" x1="25.75" y1="47.79" x2="25.75" y2="49.19">
			<stop  offset="0" style="stop-color:#142816"/>
			<stop  offset="0.191" style="stop-color:#132615"/>
			<stop  offset="1" style="stop-color:#122313"/>
		</linearGradient>
		<path class="st60" d="M27.2,49.2c-1.1-0.1-2.1-0.6-2.8-1.4L27.2,49.2z"/>
		<linearGradient id="SVGID_61_" gradientUnits="userSpaceOnUse" x1="26.37" y1="47.5" x2="26.37" y2="48.55">
			<stop  offset="0" style="stop-color:#142816"/>
			<stop  offset="0.191" style="stop-color:#132615"/>
			<stop  offset="1" style="stop-color:#122313"/>
		</linearGradient>
		<path class="st61" d="M25.9,47.5l1,0.9l-0.1,0.1l-1-1L25.9,47.5z"/>
		<linearGradient id="SVGID_62_" gradientUnits="userSpaceOnUse" x1="27.4" y1="50.83" x2="27.4" y2="52.83">
			<stop  offset="0" style="stop-color:#142816"/>
			<stop  offset="0.191" style="stop-color:#132615"/>
			<stop  offset="1" style="stop-color:#122313"/>
		</linearGradient>
		<path class="st62" d="M28.1,50.8c-0.1,0.9-0.7,1.6-1.4,2L28.1,50.8L28.1,50.8z"/>
	</g>
</g>
<image style="overflow:visible;" width="255" height="247" xlink:href="../../../../../../colors.PNG"  transform="matrix(0.4245 0 0 0.4245 -124.75 4.8051)">
</image>
</svg>
