<svg xmlns="http://www.w3.org/2000/svg" viewBox="0 0 127.89 127.96"><defs><style>.cls-1{fill:#122313;}</style></defs><title>Asset 1tropical flowers</title><g id="Layer_2" data-name="Layer 2"><g id="Layer_1-2" data-name="Layer 1"><path class="cls-1" d="M0,14.46c1.13,1,2.26,2.09,3.4,3.12A4.5,4.5,0,0,0,4,18a1.42,1.42,0,0,0,.13-.32A3.05,3.05,0,0,1,5.69,15.3a6,6,0,0,0,2.54-2.67,6.15,6.15,0,0,1-1.12,3,5.62,5.62,0,0,0,1.38-2.29,10.7,10.7,0,0,1-.93,4.06A5,5,0,0,0,8.84,14a3.8,3.8,0,0,1,.71,3.26A3.72,3.72,0,0,1,7.36,20l1,.45a30.33,30.33,0,0,0,8.12,2,51.78,51.78,0,0,1,8.87,1.93,48.9,48.9,0,0,1,7.75,3.09c.63.32,1.25.66,1.86,1a.41.41,0,0,0,.62-.11,9.9,9.9,0,0,1,7.58-3.47,29.76,29.76,0,0,1,3.76.3.89.89,0,0,1,.44.2A10,10,0,0,0,40,29.19a14.77,14.77,0,0,1,6.51-3,3.79,3.79,0,0,1,.62,0,10.1,10.1,0,0,0-4.25,5.64A18.37,18.37,0,0,1,47.46,27a12.73,12.73,0,0,0-3.18,7.13c1.43-3,2.57-6.3,5.52-8.51a2.34,2.34,0,0,1,.05.38,25.68,25.68,0,0,1-3.09,8.34,12.09,12.09,0,0,1-2.69,3.29A9.28,9.28,0,0,1,41.53,39a16.28,16.28,0,0,1-5.8.83c-1,0-2-.08-3-.11-.38,0-.49-.16-.42-.52.4-2.34.78-4.68,1.22-7,.07-.42,0-.6-.36-.79A26.86,26.86,0,0,0,22.71,28.6a21.48,21.48,0,0,0-9.9,1.51,8.18,8.18,0,0,0-3.28,2.28,8.05,8.05,0,0,0-1.67,4.44A4.38,4.38,0,0,0,9.2,40.62c1.45,1.34,4.08,2.06,6,.6a2.38,2.38,0,0,0,.47-3.48,9.72,9.72,0,0,0-1.82-1.62,1.11,1.11,0,0,1,0-2,2.4,2.4,0,0,1,2.72.11,5.26,5.26,0,0,1,1.26,6.3,5.55,5.55,0,0,1-1.1,1.31,6.13,6.13,0,0,1-3.59,1.68,6.33,6.33,0,0,1-6.77-4.72A8.69,8.69,0,0,1,10.6,29.1a16.5,16.5,0,0,1,7.26-2.25,25.84,25.84,0,0,1,13.92,2.82c.61.3,1.2.61,1.79.94.27.15.43.14.58-.16s.37-.68.6-1.1c-.9-.42-1.74-.85-2.61-1.22a50.78,50.78,0,0,0-10.85-3.25c-2.82-.51-5.66-.9-8.49-1.36A27.42,27.42,0,0,1,5.37,21.2,24.22,24.22,0,0,1,0,17.61Z"/><path class="cls-1" d="M87.45,0c1.2.77,2.43,1.49,3.59,2.31C92,3,92.86,3.75,93.76,4.48l-.08.17c-.18-.05-.37-.07-.55-.13C91.71,4,90.31,3.44,88.87,3a23.58,23.58,0,0,0-3-.55,1.09,1.09,0,0,0-.65.09l5.13,1.63,0,.21a2.33,2.33,0,0,1-.37,0,20.18,20.18,0,0,0-5.37-.49,8.06,8.06,0,0,0-3.43.93,2.41,2.41,0,0,0-.56.42c4.18-.31,8.35-.71,12.5,0v.16c-.81,0-1.62,0-2.43,0a17.92,17.92,0,0,0-6.11,1.09,4,4,0,0,0-2,1.48,2.92,2.92,0,0,0,.42-.13,29.34,29.34,0,0,1,8-2,26.69,26.69,0,0,1,3.22.08,2.64,2.64,0,0,1,.7.24l0,.16a3.15,3.15,0,0,1-.44.11A16.4,16.4,0,0,0,86.06,10a25,25,0,0,1-2.94,1.95,7.93,7.93,0,0,1-6.71.4A15.64,15.64,0,0,1,69.6,7a.66.66,0,0,1,0-.82A17.8,17.8,0,0,1,75,.16L75.16,0Z"/><path class="cls-1" d="M43.78,0a23.09,23.09,0,0,1-1.65,6.6c-.59,1.42-1.27,2.81-1.91,4.23,5,2.28,7.65,6.33,8.47,11.72A12.48,12.48,0,0,0,45,19.16c1.09,1.44,2.51,2.62,3.46,4.17l-.09.11a1.37,1.37,0,0,1-.3-.22,18.08,18.08,0,0,0-5.24-4.17,11,11,0,0,0-3.63-1.28c1.4.76,2.84,1.45,4.19,2.29a16.22,16.22,0,0,1,3.76,2.85,16.75,16.75,0,0,0-6-2c2.88.94,5.8,1.82,8.11,4.16-.23,0-.32.05-.4,0A31.24,31.24,0,0,0,42.09,24a10.19,10.19,0,0,1-6.66-3.37,13.36,13.36,0,0,1-3.71-9.1c0-.71,0-.75.71-.94a12,12,0,0,1,4.78-.27,14.94,14.94,0,0,1,1.49.25.46.46,0,0,0,.62-.29,24.79,24.79,0,0,0,2.19-6.3c.25-1.3.4-2.62.59-3.93Z"/><path class="cls-1" d="M0,108.6a14.7,14.7,0,0,1,7.15-2.2,14.32,14.32,0,0,1,4.66.48,11,11,0,0,1,7.55,6.87,11.49,11.49,0,0,1,.82,5.59,8.9,8.9,0,0,1-3.37,5.85,14.19,14.19,0,0,1-4.21,2.4,4.56,4.56,0,0,1-1.38.26c-4.45.41-5-.41-5.68-1.1a4.57,4.57,0,0,1-1.28-2.65,2.15,2.15,0,0,1,2.23-2.62,5.94,5.94,0,0,1,1.11.16,11.91,11.91,0,0,0,5.6.09A5,5,0,0,0,17,117.32a7.59,7.59,0,0,0-2.37-6.26A8,8,0,0,0,9.6,108.8,11.8,11.8,0,0,0,0,112.05Z"/><path class="cls-1" d="M0,60.2c1-.31,2-.67,3-.92a8.8,8.8,0,0,1,5.68.79c1.15.49,2.24,1.14,3.36,1.71.31.16.41.35.21.66-.61,1-1.16,2-1.82,2.91a27,27,0,0,1-1.9,2.37A4,4,0,0,1,4.33,69c-1.36-.33-2.67-.86-4-1.3L0,67.58V64.24l4.64-.91a7,7,0,0,0-4.64,0Z"/><path class="cls-1" d="M127.89,35.51c-.27-.41-.54-.82-.8-1.23a8,8,0,0,0-3-3,7.5,7.5,0,0,0-5.9-.52,4.55,4.55,0,0,0-3,4.21,4.31,4.31,0,0,0,.83,2.95,2.51,2.51,0,0,0,4.15.07,9.2,9.2,0,0,0,1-1.76,1.13,1.13,0,0,1,2.06-.26,2.41,2.41,0,0,1,.13,2.76,5.35,5.35,0,0,1-5.74,2.15,5.94,5.94,0,0,1-3.5-3.32,6.32,6.32,0,0,1,5.25-8.91,8.54,8.54,0,0,1,7.23,2.28l1.16,1Z"/><path class="cls-1" d="M0,68.17c2.29,1,4.2,2.48,4.92,5a14.63,14.63,0,0,1,.37,3c.1,1.51.16,3,.21,4.56,0,.7,0,.76-.76.72a14.82,14.82,0,0,1-4.74-1Z"/><path class="cls-1" d="M127.89,112.05a16.17,16.17,0,0,0-3.76,4.93,19.06,19.06,0,0,0-2,8.22c0,.73,0,1.47,0,2.2,0,.33-.09.48-.44.46s-.82,0-1.23,0-.46-.11-.47-.45a29.92,29.92,0,0,1,.57-6.54,22.93,22.93,0,0,1,2.59-7,15.82,15.82,0,0,1,4.31-4.9,3.62,3.62,0,0,1,.48-.25Z"/><path class="cls-1" d="M117.06,0a10,10,0,0,1-8,4.6c-2,.15-4,.19-6,.2a34.28,34.28,0,0,1-4.13-.33,4.91,4.91,0,0,1,.51-.15c1.5-.33,3-.59,4.51-1a8.84,8.84,0,0,0,4.18-2.16c.37-.36.69-.78,1-1.18Z"/><path class="cls-1" d="M122.08,0a27.21,27.21,0,0,0,1,5.45,24,24,0,0,0,4.39,8.43,2.67,2.67,0,0,0,.44.38v3.25c-.9-.94-1.88-1.82-2.68-2.84a25,25,0,0,1-5-12.54c-.09-.71-.16-1.42-.24-2.13Z"/><path class="cls-1" d="M127.89,80.47a7.22,7.22,0,0,1-4.9-5.83c-.12-.75,0-1.54-.12-2.3-.09-1-.23-2-.36-3a2.15,2.15,0,0,1,0-.58,21.18,21.18,0,0,1,2.74,4.48,2.89,2.89,0,0,0-.16-1.9c-.2-.62-.45-1.21-.61-1.87.34.3.68.59,1,.9.69.65,1.36,1.32,2,2a2.33,2.33,0,0,0,.4.27Z"/><path class="cls-1" d="M0,32.17a11.21,11.21,0,0,1,2.05,3.26,21.25,21.25,0,0,1,1.82,7.89A29.34,29.34,0,0,1,0,59V57.15a1.77,1.77,0,0,0,.21-.32,25.77,25.77,0,0,0,2.15-9.66,24.94,24.94,0,0,0-.58-6.33A19.89,19.89,0,0,0,0,35.71Z"/><path class="cls-1" d="M0,12.3a4.66,4.66,0,0,1,5.67-1.56,23.57,23.57,0,0,1,2.7,1.46h0a2,2,0,0,1-.51.13L5.33,12l0,.12,1.86.42v.08c-.71,0-1.41,0-2.11,0s-1.42-.19-2.14-.29c.64.65,3,.85,4.86.41A3.81,3.81,0,0,1,6,14.36a4.12,4.12,0,0,1-5.19-.95c-.26-.26-.51-.54-.77-.82Zm4.62,1.23A2.66,2.66,0,0,0,7,12.94Z"/><path class="cls-1" d="M123.36,63.84a18.75,18.75,0,0,0,3-3.63l1.58-2.76v1.67l-1,1.63,1-.45v1.87a8.62,8.62,0,0,0-3.71,2.39c-.6.59-1.15,1.23-1.82,1.83a2.09,2.09,0,0,1,.09-.51c.29-.69.61-1.37.91-2Z"/><path class="cls-1" d="M108.31,0A13.75,13.75,0,0,1,104,2.51c-1.36.52-2.76.9-4.15,1.34a.94.94,0,0,1-.55,0A17.47,17.47,0,0,0,104.37,0Z"/><path class="cls-1" d="M127.89,72.4a1.1,1.1,0,0,1-.25-.23,14,14,0,0,0-3.35-3.55,1.72,1.72,0,0,0-.38-.2l.17-.21,2.85,1.39.06-.13c-1.29-1.27-3-1.6-4.79-2.23a2.24,2.24,0,0,1,1.71-.19c1.17.26,2.33.6,3.5.91l.48.11Z"/><path class="cls-1" d="M94,0c.38,1,.8,2,1.1,3.08a14.12,14.12,0,0,1,.33,2.05l-.26.17a1.92,1.92,0,0,0-.14-.36A31.67,31.67,0,0,0,90.78.12,1.25,1.25,0,0,1,90.7,0Z"/><path class="cls-1" d="M100.93,0c-.7,1-1.34,2.09-2.13,3a10.6,10.6,0,0,1-2,1.6,3.34,3.34,0,0,1-.92.32l0-.11L99,0Z"/><path class="cls-1" d="M127.89,67.58l-3.77-1a25.91,25.91,0,0,1,3.18-.79c-1.37-.23-2.58.39-3.86.72a10.19,10.19,0,0,1,4.45-2.23Z"/><path class="cls-1" d="M103.49,0a21.2,21.2,0,0,1-3.17,2.73L101.62,0Z"/><path class="cls-1" d="M127.89,63.35,124,65.2a16.67,16.67,0,0,1,3.91-2.83Z"/><path class="cls-1" d="M98.27,0a10.1,10.1,0,0,1-1.75,3L96.36,3,97.19,0Z"/><path class="cls-1" d="M96.7,0c-.2.89-.39,1.79-.59,2.68a3.85,3.85,0,0,1-.19.47l-.2,0V0Z"/><path class="cls-1" d="M11.51,0A6.52,6.52,0,0,1,7.83.29,2.08,2.08,0,0,1,7.28,0Z"/><path class="cls-1" d="M95.13,0V1.86l-.09,0L94.44,0Z"/><path class="cls-1" d="M84.49,118.78a15.1,15.1,0,0,1,1.13-7.35c.39-.93.9-1.82,1.35-2.72a.5.5,0,0,1,.65-.29,24.4,24.4,0,0,1,9.72,4.85,7.54,7.54,0,0,1,2.38,3.54c.1.37.24.43.59.28a25.71,25.71,0,0,0,11.25-8.69,18.59,18.59,0,0,0,3.65-10.47,13.3,13.3,0,0,0-3.09-9.23,10.44,10.44,0,0,0-4.36-3.19c-2.68-1-6.91-.68-9.32,2.17a5.72,5.72,0,0,0-.68,6.62,15,15,0,0,0,3.75,4.76,2.48,2.48,0,0,1-.14,4,5,5,0,0,1-4.55.62A5.63,5.63,0,0,1,93,100.05a15.83,15.83,0,0,1-.85-9.63,9.81,9.81,0,0,1,6-7,14.3,14.3,0,0,1,6.64-1.27,12.22,12.22,0,0,1,6.73,2.47,16.35,16.35,0,0,1,4.82,20.88,26.59,26.59,0,0,1-5.49,7.43,32.09,32.09,0,0,1-10.36,6.75.63.63,0,0,0-.49.67A18,18,0,0,1,98.72,127c-.39,1-.15.93-1.5.84.2-1.94.65-3.92-.19-5.81h-.18c0,.53,0,1.06,0,1.59,0,1.26-.09,2.52-.14,3.78,0,.28-.09.49-.46.5s-.52-.11-.54-.53c-.1-1.68-.17-3.36-.4-5A8.34,8.34,0,0,0,91.83,116a38.27,38.27,0,0,1,3.24,11.83c-.47.19-.63,0-.77-.38a8.35,8.35,0,0,0-2-3.49,1.92,1.92,0,0,0-1.66-.61,21.32,21.32,0,0,1,3.28,4.55c-1.13,0-2.18,0-3.22,0a.88.88,0,0,1-.39-.19,13.31,13.31,0,0,1-5-5.7.88.88,0,0,0-.77-.56,26.12,26.12,0,0,1-9.81-4.12,35.31,35.31,0,0,1-7-6.42,86.6,86.6,0,0,0-7.2-7.39A54.84,54.84,0,0,0,52.14,97a30.13,30.13,0,0,0-7.84-3.6l-.54-.11c-.12.53.15.75.56.89a28.89,28.89,0,0,1,5.58,2.67,26.44,26.44,0,0,1,9.51,9.6,16.31,16.31,0,0,1,2.35,9,8.44,8.44,0,0,1-6.47,8.17,6.22,6.22,0,0,1-7.58-5.36,5.84,5.84,0,0,1,.82-4,4.66,4.66,0,0,1,3.38-2,7.11,7.11,0,0,1,1.9,0,2.28,2.28,0,0,1,2,2.35c0,1-.69,1.42-1.63,1.06a12.55,12.55,0,0,0-2.29-.69,2.42,2.42,0,0,0-2.81,2.37,4.62,4.62,0,0,0,2.85,4.29,4.16,4.16,0,0,0,4.51-.4,7.31,7.31,0,0,0,3.43-5.36,12,12,0,0,0-.37-4,23.18,23.18,0,0,0-4.44-8.8,26,26,0,0,0-9.87-7.76l-1.14-.46c.12.56.2,1,.29,1.43.13.67.13.67-.54.8a26.25,26.25,0,0,1-7.19.29,8.84,8.84,0,0,1-6.16-3.56,24.82,24.82,0,0,1-4.28-8.51,3.72,3.72,0,0,1-.06-.42,4.08,4.08,0,0,1,1.5,1,22,22,0,0,1,4.27,6.14,6.27,6.27,0,0,0,.36.62A12.13,12.13,0,0,0,28.53,86a19.1,19.1,0,0,1,4.91,4.18c-.26-.48-.49-1-.79-1.44a10.42,10.42,0,0,0-1-1.42,9.88,9.88,0,0,0-1.23-1.19c-.44-.35-.94-.62-1.4-1a13.31,13.31,0,0,1,7,2.29,9.18,9.18,0,0,0-7.42-2.94v-.16a3.79,3.79,0,0,1,.42-.18,12.6,12.6,0,0,1,7.22-.24,9.39,9.39,0,0,1,6.52,6.22c.23.63.4,1.28.64,1.91a.7.7,0,0,0,.44.42,38.33,38.33,0,0,1,11.57,5.16,53.88,53.88,0,0,1,9.45,7.51c1.67,1.66,3.27,3.39,4.87,5.12A29.75,29.75,0,0,0,76.86,116a25.63,25.63,0,0,0,6.94,2.69C84,118.73,84.21,118.74,84.49,118.78Z"/><path class="cls-1" d="M75.09,67.82c5.59-1,11.19-.47,16.85-.08-.34-.21-.66-.46-1-.65a11.81,11.81,0,0,0-6.45-1.16c-1.74.12-3.47.44-5.2.68a1,1,0,0,1-.51,0,16.56,16.56,0,0,1,3.53-1.34c1.21-.39,2.44-.74,3.66-1.22l-1.61.08a26.17,26.17,0,0,0-7.56,2l-2.12.79a.76.76,0,0,1-.52,0,1.21,1.21,0,0,1,.22-.32,39.51,39.51,0,0,1,10.21-6.74,15.62,15.62,0,0,1,6.22-1.5,14.65,14.65,0,0,1,4.59.74,1.5,1.5,0,0,0,.81.06,14.33,14.33,0,0,0,8-5.34,9.93,9.93,0,0,0,2.06-7.24,7.24,7.24,0,0,0-2.84-5.1,5.46,5.46,0,0,0-6.47-.09A3.73,3.73,0,0,0,95.57,45,9.75,9.75,0,0,0,97,48.71a1.6,1.6,0,0,1-.12,2.2,2.31,2.31,0,0,1-1.73.59,3.76,3.76,0,0,1-3.5-3c-.38-3,0-5.73,2.08-8.06a6.69,6.69,0,0,1,4.87-2.11,8.35,8.35,0,0,1,7.66,3.58,10.6,10.6,0,0,1,1.92,5.49c.33,4.47-1.89,7.61-5.23,10.18A18.54,18.54,0,0,1,98.65,60c-.16.06-.32.15-.56.26.24.16.4.29.58.4a21.14,21.14,0,0,1,6.69,6.75c.38.59.71,1.21,1.09,1.8a.79.79,0,0,1-.09,1,24.24,24.24,0,0,1-5.47,5.18,14,14,0,0,1-6,2.43,11.42,11.42,0,0,1-8.42-2.23c-1.71-1.22-3.41-2.44-5.19-3.55a16.94,16.94,0,0,0-7.65-2.63,7.76,7.76,0,0,1-.82-.13c-.06,0-.11-.06-.29-.18a4.89,4.89,0,0,1,.71-.34,11.69,11.69,0,0,1,3.91-.27A37.71,37.71,0,0,1,87,70.74c.77.27,1.53.56,2.3.84l.09-.1a5.48,5.48,0,0,0-.52-.56A9.82,9.82,0,0,0,85.12,69a23.46,23.46,0,0,0-6.06-.92c-1.32,0-2.64,0-4,0Z"/><path class="cls-1" d="M77,45.81a10.41,10.41,0,0,0-.92.68,11.12,11.12,0,0,0-3.33,5.94,32.63,32.63,0,0,0-.9,7.3c0,1.26,0,2.52-.07,3.78,0,.73,0,1.47,0,2.2,0,.06,0,.12-.17.23a3.58,3.58,0,0,1-.27-.65c-.29-1.51-.66-3-.81-4.54-.18-1.79-.17-3.6-.22-5.4,0-.55.06-1.09.09-1.64l-.15-.05c-.09.18-.21.34-.28.52a9.86,9.86,0,0,0-.48,4.11,26.54,26.54,0,0,0,.93,5.46c.15.52.34,1,.5,1.54,0,.14.06.29.09.44l-.16.09c-.3-.41-.63-.8-.91-1.22a24.78,24.78,0,0,1-3.67-10.39,23.54,23.54,0,0,1-.06-5.87A9.46,9.46,0,0,1,69,42.81a22.48,22.48,0,0,1,6.29-4.33,42.24,42.24,0,0,1,7-2.66c.93-.27,1-.25,1.42.58A23.48,23.48,0,0,1,86.83,46,15.31,15.31,0,0,1,83,58a30.7,30.7,0,0,1-4.12,3.61,29.76,29.76,0,0,0-3.29,3.16c-1,1.15-2,2.41-2.94,3.62-.09.11-.2.21-.3.32l-.14,0c0-.57,0-1.15.13-1.72a16.16,16.16,0,0,1,2.78-6.76c1-1.5,2.21-2.88,3.32-4.32l.21-.26a2.15,2.15,0,0,0-1.5.27,6.32,6.32,0,0,0-2.3,2.56,21.48,21.48,0,0,0-2,5.33,2.22,2.22,0,0,1-.22.59c-.21-6.54,1.88-12.53,4.43-18.41Z"/><path class="cls-1" d="M66.73,66.43a27.31,27.31,0,0,1-7.42-2.29A18.93,18.93,0,0,1,53,59.67l-.14.1a17.4,17.4,0,0,0,.85,1.6,10.5,10.5,0,0,0,5.26,3.86,38.07,38.07,0,0,0,7.16,1.7c.44.08.88.19,1.32.29l0,.16a1.28,1.28,0,0,1-.27.05c-1.76.08-3.52.21-5.29.24s-3.67,0-5.5-.09a27.74,27.74,0,0,1-4.92-.52,12.57,12.57,0,0,1-9-6.74,15.45,15.45,0,0,1-1.45-7c0-1.47,0-1.48,1.24-2.31a24.69,24.69,0,0,1,9.18-4,10.64,10.64,0,0,1,7.52,1,10.51,10.51,0,0,1,4.16,4.6c.77,1.56,1.35,3.2,2.08,4.78a51.47,51.47,0,0,0,5.94,9.82,1.05,1.05,0,0,1,.22.53,2.3,2.3,0,0,1-.71-.12,15.07,15.07,0,0,1-2.39-1.51,22.84,22.84,0,0,1-4.76-6.63c-.12-.23-.24-.46-.36-.72-.19.51.06,1.63.73,3.08.44,1,1,1.89,1.51,3a4,4,0,0,1-.51-.29c-.79-.66-1.59-1.31-2.35-2-1.43-1.3-2.82-2.64-4.24-4a.78.78,0,0,0-.36-.19A21.08,21.08,0,0,0,66.73,66.43Z"/><path class="cls-1" d="M73.14,70.32c.28.37.58.73.83,1.12a27.47,27.47,0,0,1,3.13,5.5c.88,2.32,1.65,4.7,2.45,7,.3.9.55,1.81.88,2.7.92-5.76-1.3-10.49-4.93-14.77l.15-.16c.47.14.94.25,1.4.42a13.53,13.53,0,0,1,5.15,3.17c2.66,2.67,4.67,5.71,5.06,9.58a15.58,15.58,0,0,1-.92,6.27,32.2,32.2,0,0,1-5.25,10.22c-.93,1.19-.67,1.16-2,.41a25.22,25.22,0,0,1-7-5.8,14.4,14.4,0,0,1-2.86-5.27,11,11,0,0,1,.27-6.34c.43-1.43.91-2.84,1.26-4.29a20.76,20.76,0,0,0,.72-7.1,21.31,21.31,0,0,0-.69-3c-.08-.31-.21-.6-.31-.9l.15-.13a3.37,3.37,0,0,1,.58.55,14.45,14.45,0,0,1,2,4.48,33.79,33.79,0,0,1,1.2,6.91c.06.81.11,1.62.17,2.48A10.82,10.82,0,0,0,75.1,79a31.58,31.58,0,0,0-.71-4.44C74,73.16,73.47,71.79,73,70.4Z"/><path class="cls-1" d="M68.23,72.45c-1.91,3.23-4.54,6-6.56,9.15L63,80.83a11,11,0,0,0,4.27-5c.73-1.56,1.27-3.19,1.9-4.79a4.89,4.89,0,0,1,.26-.51l.18,0c0,.35.13.69.15,1a17.28,17.28,0,0,1-1.62,8.41,16.45,16.45,0,0,1-3,4.42,17.8,17.8,0,0,1-4.58,3.75A12.45,12.45,0,0,1,55.9,89.5a31.9,31.9,0,0,1-9.09-.58,1,1,0,0,1-.86-.85,10.25,10.25,0,0,1,.27-5.1A18,18,0,0,1,55.4,71.49a29.73,29.73,0,0,1,10.44-3.11c1.25-.15,2.51-.21,3.77-.31.25,0,.5,0,.75,0l.06.14a4.15,4.15,0,0,1-.59.52C68.09,69.85,66.36,71,64.6,72s-3.46,1.94-5.19,2.9a.48.48,0,0,0-.2.2A17.45,17.45,0,0,0,68,70.93l.11.12c-.72.75-1.4,1.54-2.17,2.23a58.55,58.55,0,0,1-12.63,8.1l-.2.11v.13c.5,0,1-.05,1.5-.12a16.13,16.13,0,0,0,6.72-3,35.74,35.74,0,0,0,6.24-5.67c.17-.19.37-.36.55-.53Z"/><path class="cls-1" d="M92.67,8.3c-.59.86-1.19,1.71-1.78,2.58a12,12,0,0,0-2,5.74,9.19,9.19,0,0,0,.13,2.8c1.41-4.33,2.45-8.73,5.54-12.2a20.06,20.06,0,0,0-1.38,4.67,11.25,11.25,0,0,0,.21,4.83c.11-1.13.19-2.27.34-3.4a17.16,17.16,0,0,1,2-6.44,4.87,4.87,0,0,1,.58-.71l.15.09a2.09,2.09,0,0,1-.08.36,9.57,9.57,0,0,0-.48,5.74,41.8,41.8,0,0,0,1.28,5A8.75,8.75,0,0,1,95.58,26a18.66,18.66,0,0,1-5.92,4.93.58.58,0,0,1-.87-.18A23.46,23.46,0,0,1,84,20a9,9,0,0,1,1.44-6.23,11.74,11.74,0,0,1,6.53-5.38c.21-.07.43-.12.65-.18Z"/><path class="cls-1" d="M109.4,15.45c-3.92-2.09-7.86-4.15-10.85-7.58a13.51,13.51,0,0,0,6.27,2.73C103.41,9.81,102,9,100.6,8.24a29.1,29.1,0,0,1-4.06-2.59l0-.16A2.22,2.22,0,0,1,97,5.43a27.18,27.18,0,0,1,8.84,1.69,13.7,13.7,0,0,1,8.88,10,6.33,6.33,0,0,1,0,3.4.74.74,0,0,1-.45.48,19.44,19.44,0,0,1-9.1.06,9,9,0,0,1-3.74-2.27,13.73,13.73,0,0,1-4.13-6.95,11.1,11.1,0,0,1-.29-4.1,1,1,0,0,1,.08-.28s0,0,.14-.12a3.6,3.6,0,0,1,.23.49,15.49,15.49,0,0,0,2.75,5.56,7.2,7.2,0,0,0,2.61,1.94c-1.43-2.28-3.31-4.22-4.68-6.53l.1-.11a2.34,2.34,0,0,1,.34.26,28.71,28.71,0,0,0,4.24,3.94,14.15,14.15,0,0,0,4.74,2.44c.57.14,1.17.18,1.75.27Z"/><path class="cls-1" d="M105.73,125.82c-.58.53-1.18,1-1.73,1.59a1.35,1.35,0,0,1-1.17.45c-.36,0-.72,0-1.13,0l.35-1.56-.13,0a13.9,13.9,0,0,1-.71,1.25.92.92,0,0,1-.56.34c-.5,0-1,0-1.61,0,.16-.34.28-.58.39-.83.67-1.49,1.35-3,2-4.47a9.4,9.4,0,0,1,3.26-4.28,7.73,7.73,0,0,1,5.74-1.07,18.06,18.06,0,0,1,6.49,2.59c.36.23.7.49,1.06.71a1,1,0,0,1,.55,1,12.81,12.81,0,0,1-1.22,5.91.68.68,0,0,1-.72.44c-2.31,0-4.62,0-6.93,0h-.48l.42-1c-.09,0-.13,0-.14,0a2.59,2.59,0,0,1-2.63,1c-.76-.06-1.53,0-2.38,0l1.38-2Z"/><path class="cls-1" d="M51.94,24.75c3.87-1.36,7.75-.82,11.64.06l.07-.13c-.55-.32-1.07-.7-1.64-1a10.66,10.66,0,0,0-6.46-.54c-.81.16-1.61.37-2.44.48a20.64,20.64,0,0,1,6.22-2c-3.24-.26-5.94,1.18-8.55,2.89l-.13-.17c.28-.37.55-.77.86-1.12a12.23,12.23,0,0,1,8.26-3.85,12.52,12.52,0,0,1,5.06.34,12.73,12.73,0,0,1,4.89,3c1,.89,1.86,1.88,2.79,2.83.33.33.31.6,0,.95a32.51,32.51,0,0,1-5.84,4.4,5.42,5.42,0,0,1-6.28-.3c-1.06-.71-2-1.55-3-2.32a22.44,22.44,0,0,0-4.45-2.88c-.06,0-.1-.08-.27-.22a21.38,21.38,0,0,1,4.22.37,3.66,3.66,0,0,0-2.38-.68c-.83,0-1.66,0-2.48,0Z"/><path class="cls-1" d="M50.08,27.09a29.77,29.77,0,0,1,1.29,6.22A2.87,2.87,0,0,0,52,31.1c0-.79-.1-1.57-.16-2.36l.16-.06,2.65,5a15.11,15.11,0,0,0-2.82-6.41L52,27.1l2.84,2.75.12-.12c-1-2-2.93-3.07-4.65-4.34l0-.13a3.21,3.21,0,0,1,.62,0,9.8,9.8,0,0,1,3.2,1.47,16.07,16.07,0,0,1,4.08,3.72,8.35,8.35,0,0,1,1.62,7.63c-.63,2.25-1.21,4.52-1.84,6.78-.24.88-.27.89-1.1.58a16.61,16.61,0,0,1-5.81-3.51,8.7,8.7,0,0,1-2.35-9.5,18.72,18.72,0,0,0,1.09-5.12.6.6,0,0,1,.08-.21Z"/><path class="cls-1" d="M25.13,83.85c-2.69-1.45-5.45-2.64-8.61-2.1a23.61,23.61,0,0,1,6.22,1.36l0,.16c-.12,0-.25,0-.37,0a14,14,0,0,0-5.8-.12,8.57,8.57,0,0,0-3.65,1.73.7.7,0,0,0-.21.3c3.7-1.11,7.42-2,11.28-1v.19c-.8.07-1.61.11-2.41.21a4.3,4.3,0,0,0-2.26.81l4-.81.15.26a1.52,1.52,0,0,0-.28.09A28.19,28.19,0,0,0,18,89.08,19.89,19.89,0,0,1,15.75,91a5.2,5.2,0,0,1-5.8.3,31.57,31.57,0,0,1-5.64-3.57c-.57-.5-.59-.51-.15-1.14A20.83,20.83,0,0,1,9.75,81a9,9,0,0,1,4-1.29,15.22,15.22,0,0,1,6.83.67,10,10,0,0,1,4.26,2.81c.15.16.27.35.41.53Z"/><path class="cls-1" d="M27.36,82.53a31.79,31.79,0,0,1,3.55-5.09c-.47.42-1,.82-1.42,1.26a18.14,18.14,0,0,0-1.33,1.44c-.4.5-.74,1.06-1.18,1.69,0-.24-.05-.37-.05-.51a14.84,14.84,0,0,1,4.64-9.86A9.88,9.88,0,0,1,36.21,69a12.27,12.27,0,0,1,5.25-.39c1,.18,1.12.18,1.11,1.21a12.94,12.94,0,0,1-1.43,6.79,14.07,14.07,0,0,1-4.23,4.72,9.2,9.2,0,0,1-3.22,1.15,37.3,37.3,0,0,0-6.64,1.74,3.61,3.61,0,0,1-.43,0c2-2.47,4.75-3.56,7.42-4.73A16,16,0,0,0,28.5,82a33.4,33.4,0,0,1,7.24-5.67C32.2,77.36,29.61,79.7,27.36,82.53Z"/><path class="cls-1" d="M52,22.11c1.45-1.73,2.87-3.48,3.31-5.78a41.51,41.51,0,0,1-3.64,5.4,12.46,12.46,0,0,0,1.15-7.59c-.46,1.94-.51,4-1.31,5.85a24.42,24.42,0,0,0-.35-8.09c-.1,4.17-.08,8.36-1.19,12.42h-.19a3.23,3.23,0,0,1-.14-.51L48.6,17c-.22-1.45-.49-2.9-.67-4.36a5.39,5.39,0,0,1,2.23-5.48A12,12,0,0,1,53.1,5.56C55,4.93,57,4.5,59,4c.32-.09.53,0,.61.34a17.45,17.45,0,0,1-.48,9.53A14.37,14.37,0,0,1,55.78,19c-1,1-2.09,1.93-3.15,2.88a3.48,3.48,0,0,1-.55.36Z"/><path class="cls-1" d="M26.19,86.28a6.66,6.66,0,0,0,.17.89c.39,1.24.72,2.52,1.21,3.72a9.56,9.56,0,0,1,.66,6.42,8.89,8.89,0,0,1-1.95,3.48,16.63,16.63,0,0,1-5.71,4.1c-.42.19-.55,0-.67-.37-.81-2.22-1.64-4.43-2.42-6.65a10.79,10.79,0,0,1-.54-2.08,7.57,7.57,0,0,1,1-4.9,15.1,15.1,0,0,1,6.16-6,7.44,7.44,0,0,1,1.35-.48l.1.18c-.12.12-.23.26-.36.38-1,.93-2,1.82-2.89,2.8a9.11,9.11,0,0,0-.93,1.51l.15.11,2.55-3,.18.1a14.9,14.9,0,0,0-2.21,6.5l2.19-5.12h.16c-.05,1.55-.14,3.11.77,4.49a36.33,36.33,0,0,1,.8-6.15Z"/><path class="cls-1" d="M25.92,83.6c-1.48-3.85-1.75-7.94-2.26-12a14.23,14.23,0,0,0-.12,4c.12,1.33.37,2.65.52,4a7.56,7.56,0,0,1-1-2.71c-.25-1-.48-1.94-.78-2.9a8.07,8.07,0,0,0,.32,3.72C23,78.86,23.5,80,24,81.21A51.51,51.51,0,0,1,20,76.31a14.16,14.16,0,0,0,3.64,5.38,1,1,0,0,1-.25,0A22.1,22.1,0,0,1,17.13,76a13.62,13.62,0,0,1-2.37-7.58c0-1.07,0-2.15,0-3.23,0-.46.18-.65.69-.59a24.75,24.75,0,0,1,7.73,1.75c1.86.87,3.3,2.12,3.54,4.29a19.36,19.36,0,0,1,0,3.14c-.11,2.15-.27,4.31-.41,6.46-.06,1-.12,2.09-.19,3.14a2.5,2.5,0,0,1-.07.26Z"/><path class="cls-1" d="M118.09,74.13a15.13,15.13,0,0,1,2.36-4.8,10.23,10.23,0,0,0-.64,6.34c0-.34.07-.67.1-1s.07-.71.11-1.07a15.6,15.6,0,0,1,1.17-4.7,11.9,11.9,0,0,1,.71-1.18l.17.05c.06.71.16,1.42.18,2.13a18.3,18.3,0,0,1-1.09,7.43,7.53,7.53,0,0,1-4,4,22.52,22.52,0,0,1-4.9,1.74c-.34.08-.6.1-.69-.35a35.51,35.51,0,0,1-.8-6,8.2,8.2,0,0,1,5.62-8,29.7,29.7,0,0,1,3-.75.89.89,0,0,1,.52.06,8.21,8.21,0,0,0-4.61,4.55,11.64,11.64,0,0,1,4.53-3.81A8.7,8.7,0,0,0,118.09,74.13Z"/><path class="cls-1" d="M114.28,66.07c2.38.08,4.77,0,7,1.18v.15c-.53,0-1.06,0-1.58.13-1.49.25-3,.47-4.45.79a8.25,8.25,0,0,1-5.55-.83A11.31,11.31,0,0,1,104,61.08a.6.6,0,0,1,.27-.86,10.71,10.71,0,0,1,5.17-1.69,8.57,8.57,0,0,1,4.68.77,12.79,12.79,0,0,1,6.1,6,2.35,2.35,0,0,1,0,.34,10.81,10.81,0,0,0-4.36-2.07,25.4,25.4,0,0,1,4.32,2.67c-2.68-1.35-5.42-2.45-8.51-2.06a28.24,28.24,0,0,1,7.37,2A14.51,14.51,0,0,0,114.28,66.07Z"/><path class="cls-1" d="M123.36,63.83l-.4.52-.16-.1a11.7,11.7,0,0,0,1.13-5.37l-1.37,5.17-.21,0a9.73,9.73,0,0,0-.95-6.12,27.9,27.9,0,0,1,.44,4.83,21.13,21.13,0,0,0-2.24-6.09c.88,3.26,2,6.47,2.11,9.9l-.16,0c-.09-.14-.18-.28-.26-.43-1.33-2.65-2.67-5.3-4-8a5.14,5.14,0,0,1-.6-3.7,6.56,6.56,0,0,1,2-3,23.46,23.46,0,0,1,4.91-3.33c.29-.15.46-.13.63.17,2.53,4.49,2.78,9,.2,13.56l-1.08,1.92Z"/><path class="cls-1" d="M8.37,12.2l-.2-2.51-.25.88H7.79L7.47,8.67a6.75,6.75,0,0,0,.42,2.81l-.19.12L5.35,9.66A4,4,0,0,1,3.91,7.43a3.66,3.66,0,0,1,1-3.24.44.44,0,0,1,.35-.1,17.85,17.85,0,0,1,2.42.61,2.74,2.74,0,0,1,1.7,3.51c-.26,1-.49,2-.73,2.94l.14,0A5.89,5.89,0,0,1,9.2,10a19.67,19.67,0,0,1,1.47-2.35,2.28,2.28,0,0,1,2.22-.79A20.47,20.47,0,0,1,16,7.59a.61.61,0,0,1,.3.45,4.64,4.64,0,0,1-3.85,4.3c-.63.08-1.28,0-1.91.06a7.45,7.45,0,0,0-.77.11c.91.13,1.72.21,2.52.36a3.72,3.72,0,0,1,3.19,2.88,10.48,10.48,0,0,1,.08,2.63c0,.12-.21.32-.35.35A5.08,5.08,0,0,1,12,18.51a2.87,2.87,0,0,1-1.57-1.86A12.24,12.24,0,0,0,9.93,15a13.08,13.08,0,0,0-1-1.75c-.18-.26-.3-.48-.06-.74A13.25,13.25,0,0,1,10,11.19c1-.83,2.09-1.6,3.25-2.48a11,11,0,0,0-1.36.5,9,9,0,0,0-2.43,2.33l-.43.52-.35-.41-.07.64-.27-.1Zm4.32,3.36c-.4-1.07-1.37-1.57-2.23-2.21l1.27.44c-.8-.61-2.56-1.16-2.94-.91C10.45,13.31,11.49,14.54,12.69,15.56ZM7.3,10.86,6.09,8.07A4.07,4.07,0,0,0,7.3,10.86Zm2.35,2.45,2,2.53A5.77,5.77,0,0,0,9.65,13.31Zm.54-1.77,1.67-.47C11.18,10.82,10.69,11.19,10.19,11.54Z"/><path class="cls-1" d="M42.15,126.08a20.5,20.5,0,0,0-1.9-8.56,7.52,7.52,0,0,0-7.71-3.81,4.43,4.43,0,0,0-3.32,3.16,4,4,0,0,0,.54,4,2.38,2.38,0,0,0,3.17.6,5.67,5.67,0,0,0,1.79-1.79c.31-.46.66-.8,1.24-.68a1.38,1.38,0,0,1,1,1.13,2.41,2.41,0,0,1-.67,2.43,5.17,5.17,0,0,1-6.31.68,6.34,6.34,0,0,1-1.29-9,6.53,6.53,0,0,1,6.11-2.42,8.62,8.62,0,0,1,7,4.65,15.31,15.31,0,0,1,2.05,7.41c0,1.15,0,2.31,0,3.47,0,.36-.14.52-.51.46a1.93,1.93,0,0,0-.34,0c-1,0-1,0-.9-.94C42.12,126.64,42.13,126.36,42.15,126.08Z"/><path class="cls-1" d="M28.33,48.41a7.72,7.72,0,0,1-.43-1.19,19.2,19.2,0,0,1-.31-2.72,2.55,2.55,0,0,1,1.2-2,8.63,8.63,0,0,1,3-1.42.49.49,0,0,1,.45.15,4.74,4.74,0,0,1-.1,5.6,16.47,16.47,0,0,1-1.63,1.48c-.12.11-.21.23-.39.41.81-.46,1.51-.91,2.25-1.26a3.81,3.81,0,0,1,4.57.71,10.72,10.72,0,0,1,1.22,1.54.59.59,0,0,1,0,.52,5.23,5.23,0,0,1-2.5,1.84,3.11,3.11,0,0,1-2.87-.58,17.13,17.13,0,0,0-1.87-1.16A8.25,8.25,0,0,0,29.62,50a1.2,1.2,0,0,1-.31-.18,8.87,8.87,0,0,1,4.08.5,5.92,5.92,0,0,0-3.25-.7v-.16h4c-1.07-.61-2.11-.33-3.15-.32l1.18-.41-.06-.15c-.72.24-1.46.46-2.17.73a3.45,3.45,0,0,0-.65.52,2.09,2.09,0,0,1-.08-.48,25.48,25.48,0,0,1,.29-2.77c.19-.9.54-1.77.82-2.68a2.56,2.56,0,0,0-1,1.78c-.14.95-.18,1.91-.24,2.87,0,.27,0,.51-.39.46Zm2.34-2A2,2,0,0,0,29.6,48Zm-2.05-.18h-.16l.19,2h.13Z"/><path class="cls-1" d="M28.33,48.41l.38.55.27.58c-1.1-.34-1.51-1.24-2.12-2l.95,1.92c-.91,0-1.8,0-2.69,0a7.41,7.41,0,0,1-2.05-.36A3.33,3.33,0,0,1,21,45.53a.57.57,0,0,1,.23-.4A5.69,5.69,0,0,1,24.3,44a2.64,2.64,0,0,1,2.6,1.66c.41.85.83,1.7,1.25,2.55A1.81,1.81,0,0,0,28.33,48.41Zm-1.17.78-2.82-1.4A4.23,4.23,0,0,0,27.16,49.19ZM25.92,47.5l-.11.1,1,.95.1-.11Z"/><path class="cls-1" d="M31.33,54.08c.2-1.35-.48-2.41-1.3-3.54A3.86,3.86,0,0,1,32.36,52,3.57,3.57,0,0,1,33,55.55a9.43,9.43,0,0,1-1.4,2.8c-.2.25-.39.34-.66.11a18,18,0,0,1-1.81-1.55,3,3,0,0,1-.62-3.2,13.06,13.06,0,0,0,.48-2.3,6.91,6.91,0,0,0-.15-1.49c.46.38.61.83,1,3.08a5.8,5.8,0,0,0-.4-2.73A10.74,10.74,0,0,1,31.33,54.08Z"/><path class="cls-1" d="M28.11,50.83l.39-.53a2.29,2.29,0,0,1,0,1.53,5,5,0,0,1-1.87,2.8,4.5,4.5,0,0,1-3.16.62l-.19,0c-1-.15-1.19-.32-1-1.38A4.86,4.86,0,0,1,25.83,50a6.84,6.84,0,0,1,2.78-.37,16.3,16.3,0,0,1-2.5,1.64l.06.12L28,50.47a4,4,0,0,1-1.55,1.38c-.63.4-1.29.77-1.92,1.23a5.8,5.8,0,0,0,.6-.13,7.74,7.74,0,0,0,2.76-2,.63.63,0,0,1,.25-.1l-1.44,2A2.69,2.69,0,0,0,28.11,50.83Z"/><path class="cls-1" d="M87.05,127.84H75.33a10.71,10.71,0,0,1,11.72,0Z"/><path class="cls-1" d="M4.62,13.53,7,12.94A2.66,2.66,0,0,1,4.62,13.53Z"/><path class="cls-1" d="M12.69,15.56c-1.2-1-2.24-2.25-3.9-2.68.38-.25,2.14.3,2.94.91l-1.27-.44C11.32,14,12.29,14.49,12.69,15.56Z"/><path class="cls-1" d="M7.3,10.86A4.07,4.07,0,0,1,6.09,8.07Z"/><path class="cls-1" d="M9.65,13.31a5.77,5.77,0,0,1,2,2.53Z"/><path class="cls-1" d="M10.19,11.54c.5-.35,1-.72,1.67-.47Z"/><path class="cls-1" d="M29.31,49.78a3.45,3.45,0,0,1,.65-.52c.71-.27,1.45-.49,2.17-.73l.06.15L31,49.09c1,0,2.08-.29,3.15.32h-4v.16a5.92,5.92,0,0,1,3.25.7,8.87,8.87,0,0,0-4.08-.5Z"/><path class="cls-1" d="M30.67,46.44,29.6,48A2,2,0,0,1,30.67,46.44Z"/><path class="cls-1" d="M28.62,46.26l.16,2h-.13l-.19-2Z"/><path class="cls-1" d="M27.16,49.19a4.23,4.23,0,0,1-2.82-1.4Z"/><path class="cls-1" d="M25.92,47.5l1,.94-.1.11-1-.95Z"/><path class="cls-1" d="M28.11,50.83a2.69,2.69,0,0,1-1.43,2l1.44-2Z"/></g></g></svg>