<svg xmlns="http://www.w3.org/2000/svg" viewBox="0 0 60.71 60.75"><defs><style>.cls-1{fill:#122313;}</style></defs><title>Asset 2tropical flowers</title><g id="Layer_2" data-name="Layer 2"><g id="Layer_1-2" data-name="Layer 1"><path class="cls-1" d="M0,6.87,1.61,8.35c.08.07.18.11.28.18A.51.51,0,0,0,2,8.38,1.48,1.48,0,0,1,2.7,7.26,2.84,2.84,0,0,0,3.91,6a2.93,2.93,0,0,1-.53,1.43A2.65,2.65,0,0,0,4,6.35a5.08,5.08,0,0,1-.44,1.92A2.35,2.35,0,0,0,4.2,6.65,1.8,1.8,0,0,1,4.53,8.2a1.76,1.76,0,0,1-1,1.28l.45.21a14.28,14.28,0,0,0,3.86,1,25.3,25.3,0,0,1,4.21.92A22.07,22.07,0,0,1,15.69,13c.3.15.59.31.88.48a.2.2,0,0,0,.3-.06,4.7,4.7,0,0,1,3.6-1.65,15.26,15.26,0,0,1,1.78.15.42.42,0,0,1,.21.09A4.74,4.74,0,0,0,19,13.86a7.07,7.07,0,0,1,3.09-1.43h.29a4.79,4.79,0,0,0-2,2.68,8.6,8.6,0,0,1,2.18-2.28A6,6,0,0,0,21,16.21c.68-1.45,1.22-3,2.62-4a1.5,1.5,0,0,1,0,.18,12.22,12.22,0,0,1-1.47,4,5.73,5.73,0,0,1-1.28,1.57,4.77,4.77,0,0,1-1.2.64,7.6,7.6,0,0,1-2.76.39c-.48,0-1,0-1.44-.05-.18,0-.23-.08-.2-.25.19-1.11.37-2.22.58-3.32,0-.2,0-.29-.17-.38a12.71,12.71,0,0,0-5-1.33,10.06,10.06,0,0,0-4.7.72,3.83,3.83,0,0,0-1.56,1.07,4,4,0,0,0-.79,2.11,2.08,2.08,0,0,0,.64,1.8,2.26,2.26,0,0,0,2.83.29,1.13,1.13,0,0,0,.22-1.65,4.51,4.51,0,0,0-.86-.77.53.53,0,0,1,0-.95,1.13,1.13,0,0,1,1.29.06,2.5,2.5,0,0,1,.6,3,2.85,2.85,0,0,1-.53.62,2.88,2.88,0,0,1-1.7.8A3,3,0,0,1,3,18.42a4.11,4.11,0,0,1,2-4.6,7.79,7.79,0,0,1,3.45-1.07,12.15,12.15,0,0,1,6.61,1.34l.85.44c.12.07.2.07.27-.07s.18-.33.29-.53c-.43-.2-.83-.4-1.24-.58a24.42,24.42,0,0,0-5.15-1.54c-1.34-.24-2.69-.42-4-.64a12.84,12.84,0,0,1-3.53-1.11A11.12,11.12,0,0,1,0,8.36Z"/><path class="cls-1" d="M41.52,0c.57.36,1.15.71,1.7,1.1s.86.68,1.29,1l0,.08-.26-.06c-.67-.24-1.34-.52-2-.72a11.75,11.75,0,0,0-1.44-.26.49.49,0,0,0-.31,0L42.88,2l0,.1h-.18a9.44,9.44,0,0,0-2.54-.24,4,4,0,0,0-1.63.44,1.71,1.71,0,0,0-.27.2,23.54,23.54,0,0,1,5.93,0v.08c-.38,0-.76,0-1.15,0a8.22,8.22,0,0,0-2.9.52,1.87,1.87,0,0,0-1,.7l.2-.06a14,14,0,0,1,3.81-1,13,13,0,0,1,1.53,0,1.12,1.12,0,0,1,.34.11L45,3l-.2,0a7.73,7.73,0,0,0-4,1.69,11.64,11.64,0,0,1-1.4.92,3.73,3.73,0,0,1-3.18.19A7.29,7.29,0,0,1,33,3.34a.32.32,0,0,1,0-.39A8.35,8.35,0,0,1,35.59.08L35.68,0Z"/><path class="cls-1" d="M20.78,0A10.72,10.72,0,0,1,20,3.14c-.28.67-.6,1.33-.91,2a6.84,6.84,0,0,1,4,5.57,6.18,6.18,0,0,0-1.76-1.62c.52.69,1.19,1.25,1.64,2l0,.05a.83.83,0,0,1-.15-.11,8.67,8.67,0,0,0-2.48-2,5.26,5.26,0,0,0-1.72-.6c.66.36,1.34.69,2,1.08a7.63,7.63,0,0,1,1.79,1.36,7.81,7.81,0,0,0-2.85-1,8.87,8.87,0,0,1,3.85,2,1.67,1.67,0,0,1-.19,0A14.48,14.48,0,0,0,20,11.37a4.84,4.84,0,0,1-3.16-1.6,6.36,6.36,0,0,1-1.76-4.32c0-.34,0-.36.34-.45a5.93,5.93,0,0,1,2.26-.13c.24,0,.48.07.71.12a.22.22,0,0,0,.3-.13,11.93,11.93,0,0,0,1-3C19.82,1.25,19.9.62,20,0Z"/><path class="cls-1" d="M0,51.56a6.92,6.92,0,0,1,3.39-1.05,6.88,6.88,0,0,1,2.22.23A5.2,5.2,0,0,1,9.19,54a5.47,5.47,0,0,1,.39,2.65A4.19,4.19,0,0,1,8,59.43a6.74,6.74,0,0,1-2,1.14,1.78,1.78,0,0,1-.65.12c-2.12.2-2.38-.19-2.7-.52A2.18,2.18,0,0,1,2,58.91a1,1,0,0,1,1.06-1.24,2.34,2.34,0,0,1,.53.08,5.69,5.69,0,0,0,2.66,0A2.39,2.39,0,0,0,8.09,55.7a3.64,3.64,0,0,0-1.13-3,3.87,3.87,0,0,0-2.4-1.07A5.65,5.65,0,0,0,0,53.19Z"/><path class="cls-1" d="M0,28.58c.47-.15.93-.32,1.4-.44a4.14,4.14,0,0,1,2.7.38c.54.23,1.06.54,1.59.81.15.07.19.16.1.31-.29.46-.55.94-.86,1.38A12.39,12.39,0,0,1,4,32.15a1.92,1.92,0,0,1-2,.6c-.65-.15-1.27-.41-1.91-.61L0,32.08V30.5l2.2-.44a3.38,3.38,0,0,0-2.2,0Z"/><path class="cls-1" d="M60.71,16.86c-.12-.2-.25-.39-.38-.58a3.7,3.7,0,0,0-1.4-1.43,3.58,3.58,0,0,0-2.81-.25,2.16,2.16,0,0,0-1.4,2,2.08,2.08,0,0,0,.4,1.4,1.19,1.19,0,0,0,2,0,4.66,4.66,0,0,0,.5-.84.53.53,0,0,1,1-.12,1.14,1.14,0,0,1,.07,1.31,2.53,2.53,0,0,1-2.73,1,2.83,2.83,0,0,1-1.66-1.57,3,3,0,0,1,2.49-4.23,4,4,0,0,1,3.44,1.08l.54.5Z"/><path class="cls-1" d="M0,32.36a3.81,3.81,0,0,1,2.34,2.38,7.35,7.35,0,0,1,.17,1.41c.05.72.07,1.44.1,2.16,0,.34,0,.36-.36.35A6.94,6.94,0,0,1,0,38.2Z"/><path class="cls-1" d="M60.71,53.19a7.82,7.82,0,0,0-1.78,2.34,9,9,0,0,0-1,3.91c0,.34,0,.69,0,1,0,.16,0,.23-.21.22a5.81,5.81,0,0,0-.59,0c-.16,0-.22-.05-.22-.21a14.11,14.11,0,0,1,.27-3.11,11,11,0,0,1,1.23-3.33,7.5,7.5,0,0,1,2.05-2.33,1.13,1.13,0,0,1,.22-.11Z"/><path class="cls-1" d="M55.58,0a4.72,4.72,0,0,1-3.82,2.18c-.95.07-1.91.1-2.86.1a14.52,14.52,0,0,1-2-.16l.24-.07c.71-.15,1.43-.28,2.14-.46a4.28,4.28,0,0,0,2-1c.17-.17.32-.37.48-.56Z"/><path class="cls-1" d="M58,0a12.67,12.67,0,0,0,.46,2.59,11.28,11.28,0,0,0,2.09,4,1.16,1.16,0,0,0,.2.18V8.31A18.08,18.08,0,0,1,59.44,7,12,12,0,0,1,57,1c0-.33-.07-.67-.11-1Z"/><path class="cls-1" d="M60.71,38.2a3.43,3.43,0,0,1-2.32-2.76c-.06-.36,0-.73-.06-1.1s-.11-1-.17-1.43a1.18,1.18,0,0,1,0-.27,10,10,0,0,1,1.3,2.12,1.39,1.39,0,0,0-.07-.9,8.42,8.42,0,0,1-.29-.89c.16.14.32.28.47.43l1,.94.19.13Z"/><path class="cls-1" d="M0,15.27a5.32,5.32,0,0,1,1,1.55,10.08,10.08,0,0,1,.87,3.75A14,14,0,0,1,0,28v-.89L.1,27a12.27,12.27,0,0,0,1-4.59,12.11,12.11,0,0,0-.27-3A9.55,9.55,0,0,0,0,17Z"/><path class="cls-1" d="M0,5.84A2.2,2.2,0,0,1,2.69,5.1,10.52,10.52,0,0,1,4,5.79H4a.77.77,0,0,1-.24.06l-1.2-.17v.06l.88.19V6c-.33,0-.67,0-1,0s-.67-.09-1-.14A3.15,3.15,0,0,0,3.69,6a1.84,1.84,0,0,1-.86.8A2,2,0,0,1,.37,6.37L0,6Zm2.19.58a1.27,1.27,0,0,0,1.14-.28Z"/><path class="cls-1" d="M58.56,30.31A8.86,8.86,0,0,0,60,28.59c.26-.44.5-.88.75-1.32v.8l-.5.77.5-.21v.89A4.08,4.08,0,0,0,59,30.65c-.28.28-.54.58-.86.87a.93.93,0,0,1,0-.24c.14-.33.29-.65.44-1Z"/><path class="cls-1" d="M51.42,0a6.54,6.54,0,0,1-2,1.19c-.64.25-1.31.43-2,.64a.47.47,0,0,1-.26,0A8.24,8.24,0,0,0,49.55,0Z"/><path class="cls-1" d="M60.71,34.37a.29.29,0,0,1-.11-.11A7.09,7.09,0,0,0,59,32.57a1.63,1.63,0,0,0-.19-.09l.08-.1,1.36.66,0-.06A5.91,5.91,0,0,0,58,31.92a1.08,1.08,0,0,1,.81-.09c.56.12,1.11.29,1.67.43l.22.06Z"/><path class="cls-1" d="M44.65,0c.17.49.37,1,.52,1.46a7.7,7.7,0,0,1,.15,1l-.12.08a.44.44,0,0,0-.07-.17,14.78,14.78,0,0,0-2-2.29.21.21,0,0,1,0-.06Z"/><path class="cls-1" d="M47.92,0c-.34.48-.64,1-1,1.44A5,5,0,0,1,46,2.2a1.9,1.9,0,0,1-.44.15l0-.05L47,0Z"/><path class="cls-1" d="M60.71,32.08l-1.78-.49a13.18,13.18,0,0,1,1.5-.38,4.47,4.47,0,0,0-1.83.34,4.83,4.83,0,0,1,2.11-1.05Z"/><path class="cls-1" d="M49.13,0a9.42,9.42,0,0,1-1.5,1.29L48.24,0Z"/><path class="cls-1" d="M60.71,30.08,58.86,31a8.31,8.31,0,0,1,1.85-1.34Z"/><path class="cls-1" d="M46.66,0a5,5,0,0,1-.84,1.43l-.07,0L46.14,0Z"/><path class="cls-1" d="M45.91,0c-.1.42-.19.85-.28,1.27a2.18,2.18,0,0,1-.09.23h-.1V0Z"/><path class="cls-1" d="M5.46,0A3.13,3.13,0,0,1,3.72.14.82.82,0,0,1,3.46,0Z"/><path class="cls-1" d="M45.16,0V.88h0L44.83,0Z"/><path class="cls-1" d="M40.11,56.39a7.22,7.22,0,0,1,.54-3.49c.18-.44.42-.86.64-1.29a.24.24,0,0,1,.31-.14,11.65,11.65,0,0,1,4.61,2.3,3.6,3.6,0,0,1,1.13,1.69c0,.17.11.2.28.13A12.14,12.14,0,0,0,53,51.46a8.87,8.87,0,0,0,1.74-5,6.33,6.33,0,0,0-1.47-4.38,5,5,0,0,0-2.07-1.51,4.16,4.16,0,0,0-4.43,1,2.7,2.7,0,0,0-.32,3.14A7.25,7.25,0,0,0,48.19,47,1.17,1.17,0,0,1,48.12,49a2.4,2.4,0,0,1-2.16.29,2.66,2.66,0,0,1-1.8-1.74,7.47,7.47,0,0,1-.41-4.57,4.65,4.65,0,0,1,2.86-3.32A6.83,6.83,0,0,1,49.76,39,5.8,5.8,0,0,1,53,40.18a7.77,7.77,0,0,1,2.29,9.91,12.94,12.94,0,0,1-2.61,3.53,15.14,15.14,0,0,1-4.92,3.2.3.3,0,0,0-.23.32,8.65,8.65,0,0,1-.62,3.14c-.19.48-.07.44-.72.4a5.17,5.17,0,0,0-.09-2.76H46c0,.25,0,.5,0,.75,0,.6,0,1.2-.07,1.8,0,.13,0,.23-.21.23s-.25-.05-.26-.24c0-.8-.08-1.6-.19-2.4a4,4,0,0,0-1.65-3,18.34,18.34,0,0,1,1.53,5.61c-.22.09-.3,0-.36-.18a4,4,0,0,0-1-1.66,1,1,0,0,0-.79-.29,10.13,10.13,0,0,1,1.56,2.17H43.05a.34.34,0,0,1-.18-.09,6.27,6.27,0,0,1-2.36-2.71.42.42,0,0,0-.37-.26,12.35,12.35,0,0,1-4.65-2,16.35,16.35,0,0,1-3.33-3.05,40.36,40.36,0,0,0-3.42-3.5,25.82,25.82,0,0,0-4-3.07A14.44,14.44,0,0,0,21,44.34l-.26-.05a.33.33,0,0,0,.27.42A13.73,13.73,0,0,1,23.69,46a12.45,12.45,0,0,1,4.51,4.55,7.78,7.78,0,0,1,1.12,4.26,4,4,0,0,1-3.07,3.88,3,3,0,0,1-3.6-2.54,2.75,2.75,0,0,1,.39-1.9,2.24,2.24,0,0,1,1.6-.94,3.39,3.39,0,0,1,.9,0,1.09,1.09,0,0,1,1,1.11c0,.49-.33.68-.78.51a6,6,0,0,0-1.09-.33,1.15,1.15,0,0,0-1.33,1.13,2.21,2.21,0,0,0,1.35,2,2,2,0,0,0,2.14-.18A3.49,3.49,0,0,0,28.42,55a5.42,5.42,0,0,0-.18-1.88A11,11,0,0,0,26.14,49a12.27,12.27,0,0,0-4.69-3.69l-.54-.22.14.68c.06.32.06.32-.25.38a12.65,12.65,0,0,1-3.42.14,4.19,4.19,0,0,1-2.92-1.69,11.65,11.65,0,0,1-2-4,1.37,1.37,0,0,1,0-.2,1.94,1.94,0,0,1,.72.46,10.77,10.77,0,0,1,2,2.92,2.28,2.28,0,0,0,.17.3,5.83,5.83,0,0,0-1.76-3.18,9.05,9.05,0,0,1,2.33,2c-.13-.23-.24-.47-.38-.69a5.3,5.3,0,0,0-.5-.67,4.38,4.38,0,0,0-.58-.56c-.21-.17-.45-.3-.67-.47a6.34,6.34,0,0,1,3.32,1.09,4.36,4.36,0,0,0-3.53-1.4V40l.2-.08a6,6,0,0,1,3.43-.11,4.47,4.47,0,0,1,3.09,2.95c.11.3.19.61.3.91a.37.37,0,0,0,.21.2,17.89,17.89,0,0,1,5.5,2.45,25.22,25.22,0,0,1,4.48,3.56c.79.79,1.56,1.61,2.32,2.43a14.27,14.27,0,0,0,3.41,2.73,12.32,12.32,0,0,0,3.29,1.27A2.57,2.57,0,0,0,40.11,56.39Z"/><path class="cls-1" d="M35.65,32.2a32.44,32.44,0,0,1,8,0c-.16-.1-.32-.22-.49-.31a5.58,5.58,0,0,0-3.06-.55c-.83.06-1.64.21-2.47.32a.41.41,0,0,1-.24,0A7.85,7.85,0,0,1,39.06,31c.58-.19,1.16-.35,1.74-.58l-.76,0a12.1,12.1,0,0,0-3.59,1l-1,.38a.42.42,0,0,1-.25,0,.78.78,0,0,1,.1-.15,18.64,18.64,0,0,1,4.85-3.2,7.57,7.57,0,0,1,3-.72,7,7,0,0,1,2.18.36.62.62,0,0,0,.38,0,6.78,6.78,0,0,0,3.79-2.53,4.77,4.77,0,0,0,1-3.44,3.47,3.47,0,0,0-1.35-2.42,2.6,2.6,0,0,0-3.07,0,1.76,1.76,0,0,0-.64,1.69A4.8,4.8,0,0,0,46,23.13a.75.75,0,0,1-.05,1,1.09,1.09,0,0,1-.82.28A1.79,1.79,0,0,1,43.5,23a4.58,4.58,0,0,1,1-3.82,3.15,3.15,0,0,1,2.31-1,4,4,0,0,1,3.64,1.69,5,5,0,0,1,.91,2.61,5.38,5.38,0,0,1-2.48,4.84,9,9,0,0,1-2,1.14l-.26.12.27.19A10.15,10.15,0,0,1,50,32c.18.28.34.57.52.85a.38.38,0,0,1,0,.49,11.64,11.64,0,0,1-2.59,2.46A6.76,6.76,0,0,1,45.05,37a5.46,5.46,0,0,1-4-1.06c-.81-.58-1.62-1.16-2.46-1.69A8.11,8.11,0,0,0,35,33c-.13,0-.26,0-.39-.06l-.14-.09a1.44,1.44,0,0,1,.34-.16,5.49,5.49,0,0,1,1.85-.13,17.68,17.68,0,0,1,4.7,1l1.09.4,0,0a3.08,3.08,0,0,0-.24-.27,4.72,4.72,0,0,0-1.8-.91,11.21,11.21,0,0,0-2.87-.44c-.63,0-1.26,0-1.89,0Z"/><path class="cls-1" d="M36.53,21.75a4.35,4.35,0,0,0-.43.32,5.28,5.28,0,0,0-1.58,2.82,15.62,15.62,0,0,0-.43,3.47l0,1.79c0,.35,0,.7,0,1.05,0,0,0,.05-.08.11a1.44,1.44,0,0,1-.13-.32c-.14-.71-.32-1.43-.39-2.15s-.08-1.71-.1-2.56c0-.26,0-.52,0-.78l-.07,0a1.83,1.83,0,0,0-.13.24,4.76,4.76,0,0,0-.23,2,12,12,0,0,0,.45,2.59c.06.25.15.49.23.74a1.18,1.18,0,0,1,0,.2l-.07.05c-.15-.2-.3-.38-.43-.58a11.83,11.83,0,0,1-1.75-4.93,11.33,11.33,0,0,1,0-2.79,4.54,4.54,0,0,1,1.36-2.63,10.61,10.61,0,0,1,3-2.05A19.45,19.45,0,0,1,39.06,17c.44-.13.45-.12.67.27a11.23,11.23,0,0,1,1.49,4.53,7.26,7.26,0,0,1-1.81,5.7,15.28,15.28,0,0,1-2,1.72,13,13,0,0,0-1.56,1.5c-.5.54-.93,1.14-1.4,1.71a1,1,0,0,1-.14.15h-.07c0-.27,0-.55.07-.81a7.67,7.67,0,0,1,1.32-3.22c.48-.71,1-1.36,1.57-2l.1-.13a1,1,0,0,0-.71.13,2.92,2.92,0,0,0-1.09,1.22,10.27,10.27,0,0,0-.94,2.53.88.88,0,0,1-.1.27,20.29,20.29,0,0,1,2.1-8.74Z"/><path class="cls-1" d="M31.68,31.54a13,13,0,0,1-3.52-1.09,9,9,0,0,1-3-2.12l-.07.05c.13.25.25.52.4.75A5,5,0,0,0,28,31a18.9,18.9,0,0,0,3.4.81c.21,0,.42.09.63.13V32l-.13,0c-.84,0-1.67.1-2.51.11s-1.74,0-2.61,0a15.09,15.09,0,0,1-2.34-.25,6,6,0,0,1-4.25-3.2,7.26,7.26,0,0,1-.68-3.31c0-.7,0-.7.58-1.1a11.87,11.87,0,0,1,4.36-1.89A4.79,4.79,0,0,1,30,25c.36.73.64,1.51,1,2.26a24.82,24.82,0,0,0,2.82,4.66.49.49,0,0,1,.11.26,1.15,1.15,0,0,1-.34-.06,6.57,6.57,0,0,1-1.13-.72,10.66,10.66,0,0,1-2.26-3.14c-.06-.11-.12-.22-.18-.35a2.53,2.53,0,0,0,.35,1.47c.21.45.46.9.72,1.4a1.17,1.17,0,0,1-.24-.14c-.38-.31-.76-.62-1.12-.95-.68-.62-1.34-1.25-2-1.88a.35.35,0,0,0-.17-.09A10,10,0,0,0,31.68,31.54Z"/><path class="cls-1" d="M34.72,33.38c.14.18.28.35.4.54a13.11,13.11,0,0,1,1.48,2.6c.42,1.11.79,2.24,1.16,3.36.15.42.27.85.43,1.27.43-2.73-.62-5-2.35-7l.07-.07c.23.06.45.12.67.2A6.52,6.52,0,0,1,39,35.77a7.44,7.44,0,0,1,2.39,4.55,7.23,7.23,0,0,1-.43,3,15.61,15.61,0,0,1-2.49,4.85c-.44.56-.32.55-1,.19a11.73,11.73,0,0,1-3.32-2.75,6.88,6.88,0,0,1-1.37-2.5,5.23,5.23,0,0,1,.13-3c.21-.68.44-1.35.6-2a9.83,9.83,0,0,0,.35-3.37,10.07,10.07,0,0,0-.33-1.42c0-.15-.1-.29-.15-.43l.07-.06a1.73,1.73,0,0,1,.28.26,7.17,7.17,0,0,1,.93,2.12,16.69,16.69,0,0,1,.57,3.28c0,.39,0,.78.08,1.18a5.21,5.21,0,0,0,.27-2.08,16.56,16.56,0,0,0-.34-2.11c-.17-.68-.44-1.33-.66-2Z"/><path class="cls-1" d="M32.39,34.39c-.9,1.54-2.15,2.83-3.12,4.35l.63-.37a5.21,5.21,0,0,0,2-2.35c.34-.74.6-1.51.9-2.27a1.79,1.79,0,0,1,.12-.24H33c0,.17.06.33.07.49a8.23,8.23,0,0,1-.77,4,8.06,8.06,0,0,1-1.41,2.1,8.72,8.72,0,0,1-2.18,1.78,5.87,5.87,0,0,1-2.21.6,14.92,14.92,0,0,1-4.32-.28.45.45,0,0,1-.4-.4,4.84,4.84,0,0,1,.12-2.42,8.58,8.58,0,0,1,4.36-5.45,14.37,14.37,0,0,1,5-1.48c.59-.07,1.19-.1,1.79-.14.11,0,.23,0,.35,0l0,.07a2.18,2.18,0,0,1-.28.25c-.83.51-1.65,1-2.48,1.53S29,35.1,28.2,35.55c0,0-.07.05-.09.1a8.24,8.24,0,0,0,4.15-2l.05.06c-.34.36-.67.73-1,1.06a27.89,27.89,0,0,1-6,3.84l-.1.06v.06c.23,0,.47,0,.71-.06a7.67,7.67,0,0,0,3.19-1.42,16.78,16.78,0,0,0,3-2.69,3.07,3.07,0,0,1,.26-.25Z"/><path class="cls-1" d="M44,3.94l-.85,1.22a5.8,5.8,0,0,0-.94,2.73,4.29,4.29,0,0,0,.06,1.33c.67-2.06,1.16-4.15,2.63-5.79a9.53,9.53,0,0,0-.66,2.21,5.26,5.26,0,0,0,.11,2.3c0-.54.09-1.08.16-1.62a8.06,8.06,0,0,1,.93-3.06,2.78,2.78,0,0,1,.27-.33l.07,0a.86.86,0,0,1,0,.17,4.56,4.56,0,0,0-.23,2.73,19.93,19.93,0,0,0,.61,2.39,4.19,4.19,0,0,1-.75,4.08,9.07,9.07,0,0,1-2.81,2.34.29.29,0,0,1-.42-.08,11.15,11.15,0,0,1-2.29-5.1,4.31,4.31,0,0,1,.69-3A5.54,5.54,0,0,1,43.65,4L44,3.9Z"/><path class="cls-1" d="M51.94,7.34a17.22,17.22,0,0,1-5.16-3.61,6.45,6.45,0,0,0,3,1.3c-.67-.37-1.34-.74-2-1.12a15,15,0,0,1-1.93-1.23l0-.07a.82.82,0,0,1,.21,0,13,13,0,0,1,4.2.8,6.5,6.5,0,0,1,4.22,4.75,3.14,3.14,0,0,1,0,1.61.39.39,0,0,1-.22.23A9.28,9.28,0,0,1,50,10a4.33,4.33,0,0,1-1.77-1.08,6.5,6.5,0,0,1-2-3.3,5.52,5.52,0,0,1-.13-1.94.7.7,0,0,1,0-.14l.07-.06a1.66,1.66,0,0,1,.11.24A7.51,7.51,0,0,0,47.6,6.36a3.36,3.36,0,0,0,1.24.92c-.68-1.08-1.58-2-2.22-3.1l0,0a1,1,0,0,1,.17.12,13.19,13.19,0,0,0,2,1.87,6.78,6.78,0,0,0,2.25,1.16c.27.06.55.08.83.12Z"/><path class="cls-1" d="M50.2,59.73c-.28.25-.57.49-.83.76a.64.64,0,0,1-.55.21c-.17,0-.34,0-.54,0l.17-.74-.06,0c-.12.2-.21.4-.34.59a.42.42,0,0,1-.27.16c-.24,0-.47,0-.76,0l.18-.39,1-2.13a4.49,4.49,0,0,1,1.54-2,3.7,3.7,0,0,1,2.73-.51,8.54,8.54,0,0,1,3.08,1.24c.17.1.33.23.51.33a.5.5,0,0,1,.25.48,6,6,0,0,1-.57,2.8.34.34,0,0,1-.34.21c-1.1,0-2.2,0-3.29,0h-.23l.2-.49H52a1.23,1.23,0,0,1-1.25.49c-.36,0-.72,0-1.13,0l.66-.93Z"/><path class="cls-1" d="M24.66,11.75a9.69,9.69,0,0,1,5.52,0l0-.06a6.92,6.92,0,0,0-.78-.46A5,5,0,0,0,26.37,11c-.38.07-.76.17-1.16.22a9.69,9.69,0,0,1,3-1,6.45,6.45,0,0,0-4.06,1.37L24,11.56c.14-.18.27-.36.41-.53A5.79,5.79,0,0,1,28.37,9.2a5.94,5.94,0,0,1,2.41.16A6.21,6.21,0,0,1,33.1,10.8c.46.43.88.9,1.32,1.35.16.16.15.28,0,.45a16.1,16.1,0,0,1-2.77,2.09,2.59,2.59,0,0,1-3-.14c-.5-.34-1-.74-1.44-1.11a10.41,10.41,0,0,0-2.11-1.36S25.05,12,25,12a10.7,10.7,0,0,1,2,.18,1.7,1.7,0,0,0-1.13-.32c-.39,0-.78,0-1.17,0Z"/><path class="cls-1" d="M23.78,12.86a14.87,14.87,0,0,1,.61,3,1.38,1.38,0,0,0,.31-1.05c0-.37-.05-.74-.08-1.12l.08,0L26,16a7.09,7.09,0,0,0-1.33-3.05l.06-.06L26,14.17l.05-.06a6.42,6.42,0,0,0-2.21-2.06l0-.06a1.38,1.38,0,0,1,.29,0,4.46,4.46,0,0,1,1.52.69,7.62,7.62,0,0,1,1.94,1.77,4,4,0,0,1,.77,3.62c-.3,1.07-.58,2.15-.87,3.22-.12.42-.13.42-.53.28a8,8,0,0,1-2.76-1.67,4.13,4.13,0,0,1-1.11-4.51A9.17,9.17,0,0,0,23.67,13a.38.38,0,0,1,0-.1Z"/><path class="cls-1" d="M11.93,39.8a6.36,6.36,0,0,0-4.09-1,11.52,11.52,0,0,1,3,.65v.07h-.18a6.54,6.54,0,0,0-2.75-.06,4.17,4.17,0,0,0-1.74.82.39.39,0,0,0-.1.14A9.91,9.91,0,0,1,11.38,40V40l-1.15.1a2.08,2.08,0,0,0-1.07.39l1.89-.39.07.13-.13,0a13.64,13.64,0,0,0-2.44,2,11.68,11.68,0,0,1-1.08.92,2.48,2.48,0,0,1-2.76.14,15.43,15.43,0,0,1-2.67-1.69c-.28-.24-.29-.25-.07-.55a9.72,9.72,0,0,1,2.65-2.66,4.34,4.34,0,0,1,1.89-.61,7.14,7.14,0,0,1,3.24.32,4.67,4.67,0,0,1,2,1.33l.2.25Z"/><path class="cls-1" d="M13,39.18a14.31,14.31,0,0,1,1.69-2.41c-.23.19-.46.38-.68.59a8.17,8.17,0,0,0-.63.69c-.19.24-.35.5-.56.8a1.25,1.25,0,0,1,0-.24A7,7,0,0,1,15,33.93a4.76,4.76,0,0,1,2.2-1.17,6,6,0,0,1,2.49-.18c.5.09.54.08.53.58a6.09,6.09,0,0,1-.68,3.22,6.73,6.73,0,0,1-2,2.24,4.55,4.55,0,0,1-1.52.55,18.12,18.12,0,0,0-3.16.82s-.08,0-.2,0a8.54,8.54,0,0,1,3.52-2.24,7.36,7.36,0,0,0-2.63,1.15A15.77,15.77,0,0,1,17,36.22,8.15,8.15,0,0,0,13,39.18Z"/><path class="cls-1" d="M24.68,10.49a6.14,6.14,0,0,0,1.57-2.74,21,21,0,0,1-1.73,2.57,5.92,5.92,0,0,0,.55-3.6,16.54,16.54,0,0,1-.62,2.77,11.79,11.79,0,0,0-.17-3.84,24.36,24.36,0,0,1-.57,5.9h-.09a2.1,2.1,0,0,1-.06-.24c-.17-1.09-.32-2.17-.49-3.26-.1-.69-.23-1.38-.31-2.07a2.54,2.54,0,0,1,1-2.6,5.87,5.87,0,0,1,1.4-.74c.91-.3,1.85-.5,2.79-.75.15,0,.25,0,.28.16a8.31,8.31,0,0,1-.22,4.53A6.9,6.9,0,0,1,26.48,9c-.48.48-1,.92-1.49,1.37-.08.07-.18.11-.26.17Z"/><path class="cls-1" d="M12.43,41c0,.14,0,.29.08.42.19.59.35,1.2.58,1.77a4.52,4.52,0,0,1,.31,3.05,4.21,4.21,0,0,1-.92,1.65,7.8,7.8,0,0,1-2.71,1.94c-.21.1-.27,0-.32-.17-.39-1-.78-2.1-1.15-3.16a4.81,4.81,0,0,1-.26-1,3.63,3.63,0,0,1,.5-2.32,7.19,7.19,0,0,1,2.92-2.84,4.88,4.88,0,0,1,.64-.23l.05.09-.17.18c-.46.44-.93.86-1.37,1.33a3.46,3.46,0,0,0-.44.72l.07.05,1.21-1.4.08,0a7.1,7.1,0,0,0-1,3.09l1-2.43h.07A3.45,3.45,0,0,0,12,43.89,16.91,16.91,0,0,1,12.35,41Z"/><path class="cls-1" d="M12.3,39.69A24.42,24.42,0,0,1,11.23,34a6.6,6.6,0,0,0-.05,1.88c.05.63.17,1.26.24,1.89a3.47,3.47,0,0,1-.48-1.29c-.12-.46-.23-.92-.37-1.37a3.92,3.92,0,0,0,.15,1.77c.18.57.44,1.11.65,1.69a27.92,27.92,0,0,1-1.86-2.33,6.92,6.92,0,0,0,1.73,2.55s-.09,0-.12,0a10.59,10.59,0,0,1-3-2.71A6.4,6.4,0,0,1,7,32.46c0-.51,0-1,0-1.53,0-.22.08-.32.33-.29a11.8,11.8,0,0,1,3.66.83,2.54,2.54,0,0,1,1.68,2,9.27,9.27,0,0,1,0,1.49c-.06,1-.13,2-.2,3.07l-.09,1.49a.28.28,0,0,1,0,.12Z"/><path class="cls-1" d="M56.06,35.19a7.18,7.18,0,0,1,1.12-2.27,4.9,4.9,0,0,0-.3,3c0-.16,0-.31,0-.47s0-.34,0-.51a7.09,7.09,0,0,1,.55-2.23,6.59,6.59,0,0,1,.34-.57l.08,0c0,.34.08.67.09,1a8.69,8.69,0,0,1-.52,3.53,3.57,3.57,0,0,1-1.9,1.92,11.11,11.11,0,0,1-2.33.82c-.16,0-.28,0-.32-.17a16.89,16.89,0,0,1-.38-2.83,3.89,3.89,0,0,1,2.66-3.8,14.06,14.06,0,0,1,1.42-.36.44.44,0,0,1,.25,0,3.91,3.91,0,0,0-2.19,2.16,5.47,5.47,0,0,1,2.15-1.81A4.17,4.17,0,0,0,56.06,35.19Z"/><path class="cls-1" d="M54.25,31.37a7.15,7.15,0,0,1,3.3.56V32c-.25,0-.51,0-.75.06-.71.12-1.42.22-2.11.38a4,4,0,0,1-2.64-.4,5.35,5.35,0,0,1-2.66-3,.29.29,0,0,1,.12-.41A5.28,5.28,0,0,1,52,27.78a4,4,0,0,1,2.22.37A6.08,6.08,0,0,1,57.09,31s0,.05,0,.16a5.32,5.32,0,0,0-2.07-1,11.82,11.82,0,0,1,2.05,1.27,6.93,6.93,0,0,0-4-1,13.44,13.44,0,0,1,3.5.94A6.83,6.83,0,0,0,54.25,31.37Z"/><path class="cls-1" d="M58.57,30.3l-.2.25-.07-.05A5.46,5.46,0,0,0,58.83,28l-.64,2.45h-.1a4.64,4.64,0,0,0-.46-2.91,12.62,12.62,0,0,1,.21,2.3,9.9,9.9,0,0,0-1.06-2.9,20,20,0,0,1,1,4.7l-.08,0-.12-.21-1.89-3.78a2.43,2.43,0,0,1-.28-1.75,3.07,3.07,0,0,1,.94-1.42,10.87,10.87,0,0,1,2.33-1.58c.14-.08.22-.06.3.08a6.17,6.17,0,0,1,.1,6.44c-.17.3-.35.6-.52.91Z"/><path class="cls-1" d="M4,5.79,3.88,4.6,3.76,5H3.7l-.16-.9a3.2,3.2,0,0,0,.21,1.33l-.09.06L2.54,4.59a1.87,1.87,0,0,1-.68-1.06A1.69,1.69,0,0,1,2.35,2a.18.18,0,0,1,.16-.05,8.41,8.41,0,0,1,1.15.29A1.31,1.31,0,0,1,4.47,3.9c-.13.46-.23.93-.35,1.39l.07,0a2.23,2.23,0,0,1,.18-.57,9.9,9.9,0,0,1,.69-1.12,1.11,1.11,0,0,1,1.06-.37,11.1,11.1,0,0,1,1.49.35.31.31,0,0,1,.14.22,2.19,2.19,0,0,1-1.83,2,8.92,8.92,0,0,1-.9,0,3.19,3.19,0,0,0-.37.05c.43.06.82.1,1.2.17A1.78,1.78,0,0,1,7.37,7.48a5.19,5.19,0,0,1,0,1.25s-.1.15-.16.16a2.36,2.36,0,0,1-1.53-.1A1.37,1.37,0,0,1,5,7.91a5.83,5.83,0,0,0-.25-.81,5.9,5.9,0,0,0-.5-.83c-.08-.12-.13-.23,0-.35a8.22,8.22,0,0,1,.57-.61c.48-.39,1-.76,1.54-1.17a4.07,4.07,0,0,0-.65.23A4.33,4.33,0,0,0,4.5,5.48c-.06.08-.13.15-.2.25l-.17-.2,0,.31L4,5.79Zm2,1.6c-.19-.51-.65-.75-1-1l.6.21c-.38-.29-1.22-.56-1.4-.44A4.81,4.81,0,0,1,6,7.39ZM3.47,5.15,2.89,3.83A1.88,1.88,0,0,0,3.47,5.15ZM4.58,6.32l.94,1.2A2.71,2.71,0,0,0,4.58,6.32Zm.26-.84.79-.23A.82.82,0,0,0,4.84,5.48Z"/><path class="cls-1" d="M20,59.86a9.86,9.86,0,0,0-.9-4.07A3.58,3.58,0,0,0,15.45,54a2.11,2.11,0,0,0-1.58,1.5,1.9,1.9,0,0,0,.26,1.92,1.12,1.12,0,0,0,1.5.28,2.47,2.47,0,0,0,.85-.85c.15-.21.31-.37.59-.31a.63.63,0,0,1,.5.53,1.14,1.14,0,0,1-.32,1.15,2.44,2.44,0,0,1-3,.33,3,3,0,0,1-.62-4.27,3.1,3.1,0,0,1,2.9-1.15,4.09,4.09,0,0,1,3.32,2.21,7.24,7.24,0,0,1,1,3.51c0,.55,0,1.1,0,1.65,0,.17-.07.25-.24.22a1,1,0,0,0-.17,0c-.45,0-.45,0-.42-.45C20,60.12,20,60,20,59.86Z"/><path class="cls-1" d="M13.45,23a3.14,3.14,0,0,1-.2-.56,8.1,8.1,0,0,1-.15-1.29,1.21,1.21,0,0,1,.57-.95,4.12,4.12,0,0,1,1.42-.67.24.24,0,0,1,.22.07,2.27,2.27,0,0,1-.05,2.66,8.65,8.65,0,0,1-.78.7l-.18.2c.39-.22.71-.44,1.07-.61a1.84,1.84,0,0,1,2.17.34,5,5,0,0,1,.57.73.28.28,0,0,1,0,.25,2.49,2.49,0,0,1-1.18.87,1.47,1.47,0,0,1-1.37-.27,7.34,7.34,0,0,0-.89-.55,4.06,4.06,0,0,0-.62-.19.55.55,0,0,1-.15-.08,4.13,4.13,0,0,1,1.94.24,2.75,2.75,0,0,0-1.54-.34v-.07h1.91a2.69,2.69,0,0,0-1.5-.16l.56-.19,0-.07c-.35.11-.7.22-1,.35a1.32,1.32,0,0,0-.3.24.59.59,0,0,1,0-.23A9.54,9.54,0,0,1,14,22.09a10.27,10.27,0,0,1,.39-1.27,1.2,1.2,0,0,0-.48.84c-.07.45-.09.91-.12,1.37,0,.13,0,.24-.18.21Zm1.11-.93a1,1,0,0,0-.51.73Zm-1-.09h-.08l.09,1h.06Z"/><path class="cls-1" d="M13.45,23l.18.26.13.28c-.53-.16-.72-.59-1-.94l.45.91c-.43,0-.85,0-1.27,0a3.61,3.61,0,0,1-1-.18,1.58,1.58,0,0,1-1-1.7.37.37,0,0,1,.11-.19,2.79,2.79,0,0,1,1.47-.55,1.26,1.26,0,0,1,1.23.79c.2.41.39.81.6,1.21A.76.76,0,0,0,13.45,23Zm-.56.37-1.33-.66A2,2,0,0,0,12.89,23.35Zm-.58-.8-.06.05.5.45L12.8,23Z"/><path class="cls-1" d="M14.87,25.67A2.24,2.24,0,0,0,14.26,24a1.81,1.81,0,0,1,1.1.72,1.7,1.7,0,0,1,.31,1.66A4.62,4.62,0,0,1,15,27.7c-.09.12-.18.16-.31.06a10.41,10.41,0,0,1-.86-.74,1.46,1.46,0,0,1-.3-1.52,5.3,5.3,0,0,0,.23-1.09,2.85,2.85,0,0,0-.07-.71c.22.18.29.4.49,1.46A2.71,2.71,0,0,0,14,23.87,5,5,0,0,1,14.87,25.67Z"/><path class="cls-1" d="M13.35,24.13l.18-.25a1.14,1.14,0,0,1,0,.73,2.42,2.42,0,0,1-.89,1.33,2.2,2.2,0,0,1-1.5.29l-.09,0c-.5-.07-.57-.15-.47-.65a2.32,2.32,0,0,1,1.69-1.82,3.46,3.46,0,0,1,1.32-.17,7.17,7.17,0,0,1-1.19.78l0,0,.87-.44a1.89,1.89,0,0,1-.74.65c-.3.19-.61.37-.92.59a2.47,2.47,0,0,0,.29-.06,3.68,3.68,0,0,0,1.31-1s.08,0,.12-.05l-.68,1A1.27,1.27,0,0,0,13.35,24.13Z"/><path class="cls-1" d="M41.32,60.69H35.76a5.42,5.42,0,0,1,2.22-.8A5.27,5.27,0,0,1,41.32,60.69Z"/><path class="cls-1" d="M2.19,6.42l1.14-.28A1.27,1.27,0,0,1,2.19,6.42Z"/><path class="cls-1" d="M6,7.39A4.81,4.81,0,0,0,4.17,6.11c.18-.12,1,.15,1.4.44L5,6.34C5.37,6.64,5.83,6.88,6,7.39Z"/><path class="cls-1" d="M3.47,5.15a1.88,1.88,0,0,1-.58-1.32Z"/><path class="cls-1" d="M4.58,6.32a2.71,2.71,0,0,1,.94,1.2Z"/><path class="cls-1" d="M4.84,5.48a.82.82,0,0,1,.79-.23Z"/><path class="cls-1" d="M13.92,23.63a1.32,1.32,0,0,1,.3-.24c.34-.13.69-.24,1-.35l0,.07-.56.19a2.69,2.69,0,0,1,1.5.16H14.31v.07a2.75,2.75,0,0,1,1.54.34,4.13,4.13,0,0,0-1.94-.24Z"/><path class="cls-1" d="M14.56,22.05l-.51.73A1,1,0,0,1,14.56,22.05Z"/><path class="cls-1" d="M13.59,22l.07.95H13.6l-.09-1Z"/><path class="cls-1" d="M12.89,23.35a2,2,0,0,1-1.33-.66Z"/><path class="cls-1" d="M12.31,22.55l.49.45-.05.05-.5-.45Z"/><path class="cls-1" d="M13.35,24.13a1.27,1.27,0,0,1-.68,1l.68-1Z"/></g></g></svg>