<?xml version="1.0" encoding="UTF-8" standalone="no"?>
<svg
   xmlns:dc="http://purl.org/dc/elements/1.1/"
   xmlns:cc="http://creativecommons.org/ns#"
   xmlns:rdf="http://www.w3.org/1999/02/22-rdf-syntax-ns#"
   xmlns:svg="http://www.w3.org/2000/svg"
   xmlns="http://www.w3.org/2000/svg"
   xmlns:sodipodi="http://sodipodi.sourceforge.net/DTD/sodipodi-0.dtd"
   xmlns:inkscape="http://www.inkscape.org/namespaces/inkscape"
   viewBox="0 0 4443.75 332.40999"
   overflow="visible"
   version="1.1"
   id="svg857"
   sodipodi:docname="waves-light.svg"
   width="4443.75"
   height="332.41"
   style="overflow:visible"
   inkscape:version="0.92.4 (5da689c313, 2019-01-14)">
  <metadata
     id="metadata861">
    <rdf:RDF>
      <cc:Work
         rdf:about="">
        <dc:format>image/svg+xml</dc:format>
        <dc:type
           rdf:resource="http://purl.org/dc/dcmitype/StillImage" />
        <dc:title>Asset 11waves</dc:title>
      </cc:Work>
    </rdf:RDF>
  </metadata>
  <sodipodi:namedview
     pagecolor="#ffffff"
     bordercolor="#666666"
     borderopacity="1"
     objecttolerance="10"
     gridtolerance="10"
     guidetolerance="10"
     inkscape:pageopacity="0"
     inkscape:pageshadow="2"
     inkscape:window-width="1920"
     inkscape:window-height="1017"
     id="namedview859"
     showgrid="false"
     inkscape:zoom="0.32405063"
     inkscape:cx="2322.168"
     inkscape:cy="-304.1075"
     inkscape:window-x="-8"
     inkscape:window-y="-8"
     inkscape:window-maximized="1"
     inkscape:current-layer="Layer_1-2"
     showborder="true"
     inkscape:pagecheckerboard="false" />
  <defs
     id="defs849">
    <style
       id="style847">.cls-1{fill:#187b9e;}</style>
  </defs>
  <title
     id="title851">Asset 11waves</title>
  <g
     id="Layer_2"
     data-name="Layer 2"
     transform="matrix(1,0,0,2.0953051,0,-68.455908)">
    <g
       id="Layer_1-2"
       data-name="Layer 1">
      <path
         class="cls-1"
         d="m 4443.6,64.217042 a 2.08,2.08 0 0 0 -0.5,-0.07 v 0.29 a 2.44,2.44 0 0 0 -0.32,0.26 c -22.29,22.75 -42.61,3.67 -48,-2.24 a 1.66,1.66 0 0 0 -0.51,-0.38 v -0.22 a 2,2 0 0 0 -0.54,0 1.87,1.87 0 0 0 -0.53,0 v 0.22 a 1.66,1.66 0 0 0 -0.51,0.38 c -5.35,5.91 -25.67,25 -48,2.24 a 1.86,1.86 0 0 0 -0.31,-0.26 v -0.29 a 2.08,2.08 0 0 0 -0.5,0.07 2.23,2.23 0 0 0 -0.5,-0.07 v 0.29 a 1.92,1.92 0 0 0 -0.32,0.26 c -22.29,22.75 -42.62,3.67 -48,-2.24 a 1.72,1.72 0 0 0 -0.57,-0.41 v -0.19 a 1.67,1.67 0 0 0 -0.5,0 1.69,1.69 0 0 0 -0.5,0 v 0 0.19 a 1.76,1.76 0 0 0 -0.58,0.41 c -5.35,5.91 -25.67,25 -48,2.24 a 1.86,1.86 0 0 0 -0.31,-0.26 v -0.29 a 2.08,2.08 0 0 0 -0.5,0.07 2.23,2.23 0 0 0 -0.5,-0.07 v 0.29 a 1.92,1.92 0 0 0 -0.32,0.26 c -22.29,22.75 -42.62,3.67 -48,-2.24 a 1.63,1.63 0 0 0 -0.57,-0.41 v -0.19 a 1.67,1.67 0 0 0 -0.5,0 1.69,1.69 0 0 0 -0.5,0 v 0.19 a 1.76,1.76 0 0 0 -0.58,0.41 c -5.35,5.91 -25.67,25 -48,2.24 a 1.92,1.92 0 0 0 -0.32,-0.26 v -0.29 a 2.08,2.08 0 0 0 -0.5,0.07 2.15,2.15 0 0 0 -0.5,-0.07 v 0.29 a 1.92,1.92 0 0 0 -0.32,0.26 c -22.29,22.75 -42.62,3.67 -48,-2.24 a 1.63,1.63 0 0 0 -0.57,-0.41 v -0.19 a 6.26,6.26 0 0 1 -1,0 v 0 0.19 a 1.76,1.76 0 0 0 -0.58,0.41 c -5.35,5.91 -25.67,25 -48,2.24 a 1.92,1.92 0 0 0 -0.32,-0.26 v -0.29 a 2.08,2.08 0 0 0 -0.5,0.07 2.15,2.15 0 0 0 -0.5,-0.07 v 0.29 a 1.92,1.92 0 0 0 -0.32,0.26 c -22.29,22.75 -42.61,3.67 -48,-2.24 a 1.76,1.76 0 0 0 -0.58,-0.41 v -0.19 a 6.26,6.26 0 0 1 -1,0 v 0.19 a 1.63,1.63 0 0 0 -0.57,0.41 c -5.35,5.91 -25.68,25 -48,2.24 a 1.92,1.92 0 0 0 -0.32,-0.26 v -0.29 a 2.15,2.15 0 0 0 -0.5,0.07 2.08,2.08 0 0 0 -0.5,-0.07 v 0.29 a 1.92,1.92 0 0 0 -0.32,0.26 c -22.29,22.75 -42.61,3.67 -48,-2.24 a 1.76,1.76 0 0 0 -0.58,-0.41 v -0.19 a 6.26,6.26 0 0 1 -1,0 v 0 0.19 a 1.63,1.63 0 0 0 -0.57,0.41 c -5.35,5.91 -25.68,25 -48,2.24 a 1.92,1.92 0 0 0 -0.32,-0.26 v -0.29 a 2.15,2.15 0 0 0 -0.5,0.07 2.08,2.08 0 0 0 -0.5,-0.07 v 0.29 a 2.44,2.44 0 0 0 -0.32,0.26 c -22.29,22.75 -42.61,3.67 -48,-2.24 a 1.86,1.86 0 0 0 -1.12,-0.6 v 0 a 1.85,1.85 0 0 0 -1.57,0.59 c -5.35,5.91 -25.68,25 -48,2.24 a 1.92,1.92 0 0 0 -0.32,-0.26 v -0.28 a 2.23,2.23 0 0 0 -0.5,0.07 2.08,2.08 0 0 0 -0.5,-0.07 v 0.29 a 1.86,1.86 0 0 0 -0.31,0.26 c -22.3,22.75 -42.62,3.67 -48,-2.24 a 1.76,1.76 0 0 0 -0.58,-0.41 v -0.19 a 1.69,1.69 0 0 0 -0.5,0 1.67,1.67 0 0 0 -0.5,0 v 0 0.19 a 1.72,1.72 0 0 0 -0.57,0.41 c -5.35,5.91 -25.67,25 -48,2.24 a 1.59,1.59 0 0 0 -0.32,-0.26 v -0.29 a 2.23,2.23 0 0 0 -0.5,0.07 2.08,2.08 0 0 0 -0.5,-0.07 v 0.29 a 1.86,1.86 0 0 0 -0.31,0.26 c -22.3,22.75 -42.62,3.67 -48,-2.24 a 1.85,1.85 0 0 0 -1.57,-0.59 v 0 a 1.86,1.86 0 0 0 -1.45,0.59 c -5.35,5.91 -25.67,25 -48,2.24 a 1.86,1.86 0 0 0 -0.31,-0.26 v -0.29 a 2.08,2.08 0 0 0 -0.5,0.07 2.23,2.23 0 0 0 -0.5,-0.07 v 0.29 a 1.92,1.92 0 0 0 -0.32,0.26 c -22.29,22.75 -42.62,3.67 -48,-2.24 a 1.72,1.72 0 0 0 -0.57,-0.41 v -0.19 a 1.67,1.67 0 0 0 -0.5,0 1.69,1.69 0 0 0 -0.5,0 v 0 0.19 a 1.76,1.76 0 0 0 -0.58,0.41 c -5.35,5.91 -25.67,25 -48,2.24 a 1.86,1.86 0 0 0 -0.31,-0.26 v -0.29 a 2.08,2.08 0 0 0 -0.5,0.07 2.23,2.23 0 0 0 -0.5,-0.07 v 0.29 a 1.92,1.92 0 0 0 -0.32,0.26 c -22.29,22.75 -42.62,3.67 -48,-2.24 a 1.84,1.84 0 0 0 -1.57,-0.59 v 0 a 1.86,1.86 0 0 0 -1.58,0.59 c -5.35,5.91 -25.67,25 -48,2.24 a 1.92,1.92 0 0 0 -0.32,-0.26 v -0.29 a 2.08,2.08 0 0 0 -0.5,0.07 2.15,2.15 0 0 0 -0.5,-0.07 v 0.29 a 1.92,1.92 0 0 0 -0.32,0.26 c -22.29,22.75 -42.62,3.67 -48,-2.24 a 1.63,1.63 0 0 0 -0.57,-0.41 v -0.19 a 6.26,6.26 0 0 1 -1,0 v 0 0.19 a 1.76,1.76 0 0 0 -0.58,0.41 c -5.35,5.91 -25.67,25 -48,2.24 a 1.92,1.92 0 0 0 -0.32,-0.26 v -0.29 a 2.08,2.08 0 0 0 -0.5,0.07 2.15,2.15 0 0 0 -0.5,-0.07 v 0.29 a 1.92,1.92 0 0 0 -0.32,0.26 c -22.29,22.75 -42.61,3.67 -48,-2.24 a 1.76,1.76 0 0 0 -0.58,-0.41 v -0.19 a 6.26,6.26 0 0 1 -1,0 v 0.19 a 1.63,1.63 0 0 0 -0.57,0.41 c -5.35,5.91 -25.68,25 -48,2.24 a 1.92,1.92 0 0 0 -0.32,-0.26 v -0.29 a 2.15,2.15 0 0 0 -0.5,0.07 2.08,2.08 0 0 0 -0.5,-0.07 v 0.29 a 1.92,1.92 0 0 0 -0.32,0.26 c -22.29,22.75 -42.61,3.67 -48,-2.24 a 1.76,1.76 0 0 0 -0.58,-0.41 v -0.19 a 6.26,6.26 0 0 1 -1,0 v 0 0.19 a 1.63,1.63 0 0 0 -0.57,0.41 c -5.35,5.91 -25.68,25 -48,2.24 a 1.92,1.92 0 0 0 -0.32,-0.26 v -0.29 a 2.15,2.15 0 0 0 -0.5,0.07 2.08,2.08 0 0 0 -0.5,-0.07 v 0.29 a 2.44,2.44 0 0 0 -0.32,0.26 c -22.29,22.75 -42.61,3.67 -48,-2.24 a 1.85,1.85 0 0 0 -0.69,-0.47 v -0.13 a 2.26,2.26 0 0 0 -0.45,0 2.14,2.14 0 0 0 -0.44,0 v 0.13 a 1.85,1.85 0 0 0 -0.69,0.47 c -5.35,5.91 -25.67,25 -48,2.24 a 1.86,1.86 0 0 0 -0.31,-0.26 v -0.29 a 2.08,2.08 0 0 0 -0.5,0.07 2.23,2.23 0 0 0 -0.5,-0.07 v 0.29 a 1.92,1.92 0 0 0 -0.32,0.26 c -22.29,22.75 -42.62,3.67 -48,-2.24 a 1.72,1.72 0 0 0 -0.57,-0.41 v -0.19 a 1.67,1.67 0 0 0 -0.5,0 1.69,1.69 0 0 0 -0.5,0 v 0 0.19 a 1.76,1.76 0 0 0 -0.58,0.41 c -5.35,5.91 -25.67,25 -48,2.24 a 1.86,1.86 0 0 0 -0.31,-0.26 v -0.29 a 2.08,2.08 0 0 0 -0.5,0.07 2.23,2.23 0 0 0 -0.5,-0.07 v 0.29 a 1.92,1.92 0 0 0 -0.32,0.26 c -22.29,22.75 -42.62,3.67 -48,-2.24 a 1.55,1.55 0 0 0 -0.51,-0.38 v -0.22 a 1.87,1.87 0 0 0 -0.53,0 1.91,1.91 0 0 0 -0.53,0 v 0.22 a 1.69,1.69 0 0 0 -0.52,0.38 c -5.35,5.91 -25.67,25 -48,2.24 a 1.92,1.92 0 0 0 -0.32,-0.26 v -0.29 a 2.15,2.15 0 0 0 -0.5,0.07 2.08,2.08 0 0 0 -0.5,-0.07 v 0.29 a 1.92,1.92 0 0 0 -0.32,0.26 c -22.29,22.75 -42.61,3.67 -48,-2.24 a 1.76,1.76 0 0 0 -0.58,-0.41 v -0.19 a 6.26,6.26 0 0 1 -1,0 v 0 0.19 a 1.63,1.63 0 0 0 -0.57,0.41 c -5.35,5.91 -25.68,25 -48,2.24 a 1.92,1.92 0 0 0 -0.32,-0.26 v -0.29 a 2.15,2.15 0 0 0 -0.5,0.07 2.08,2.08 0 0 0 -0.5,-0.07 v 0.29 a 1.92,1.92 0 0 0 -0.32,0.26 c -22.29,22.75 -42.61,3.67 -48,-2.24 a 1.76,1.76 0 0 0 -0.58,-0.41 v -0.19 a 1.69,1.69 0 0 0 -0.5,0 1.67,1.67 0 0 0 -0.5,0 v 0.19 a 1.63,1.63 0 0 0 -0.57,0.41 c -5.35,5.91 -25.68,25 -48,2.24 a 1.92,1.92 0 0 0 -0.32,-0.26 v -0.29 a 2.23,2.23 0 0 0 -0.5,0.07 2.08,2.08 0 0 0 -0.5,-0.07 v 0.29 a 1.86,1.86 0 0 0 -0.31,0.26 c -22.3,22.75 -42.62,3.67 -48,-2.24 a 1.76,1.76 0 0 0 -0.58,-0.41 v -0.19 a 1.69,1.69 0 0 0 -0.5,0 1.67,1.67 0 0 0 -0.5,0 v 0 0.19 a 1.72,1.72 0 0 0 -0.57,0.41 c -5.35,5.91 -25.67,25 -48,2.24 a 1.59,1.59 0 0 0 -0.32,-0.26 v -0.29 a 2.23,2.23 0 0 0 -0.5,0.07 2.08,2.08 0 0 0 -0.5,-0.07 v 0.29 a 1.86,1.86 0 0 0 -0.31,0.26 c -22.3,22.75 -42.62,3.67 -48,-2.24 a 1.83,1.83 0 0 0 -0.57,-0.41 v -0.19 a 1.67,1.67 0 0 0 -0.5,0 1.69,1.69 0 0 0 -0.5,0 v 0.19 a 1.76,1.76 0 0 0 -0.58,0.41 c -5.35,5.91 -25.67,25 -48,2.24 a 1.86,1.86 0 0 0 -0.31,-0.26 v -0.29 a 2.08,2.08 0 0 0 -0.5,0.07 2.23,2.23 0 0 0 -0.5,-0.07 v 0.29 a 1.92,1.92 0 0 0 -0.32,0.26 c -22.29,22.75 -42.62,3.67 -48,-2.24 a 1.72,1.72 0 0 0 -0.57,-0.41 v -0.19 a 1.67,1.67 0 0 0 -0.5,0 1.69,1.69 0 0 0 -0.5,0 v 0 0.19 a 1.76,1.76 0 0 0 -0.58,0.41 c -5.35,5.91 -25.67,25 -48,2.24 a 1.42,1.42 0 0 0 -0.3,-0.25 v -0.25 0 0 a 1.77,1.77 0 0 0 -0.32,0 1.64,1.64 0 0 0 -0.32,0 v 0 a 2.23,2.23 0 0 0 -0.36,0 v 0.29 a 1.92,1.92 0 0 0 -0.32,0.26 c -7.9,8.06 -15.55,10.86 -22.37,10.87 -12.27,-0.17 -21.81,-9.33 -25.23,-13.11 a 1.66,1.66 0 0 0 -0.51,-0.38 v -0.27 a 1.87,1.87 0 0 0 -0.53,0 1.78,1.78 0 0 0 -0.46,0 2.17,2.17 0 0 0 -0.44,0 v 0.47 l -0.15,0.13 c -5.35,5.91 -25.67,25 -48,2.24 a 1.92,1.92 0 0 0 -0.32,-0.26 v -0.29 a 2.08,2.08 0 0 0 -0.5,0.07 2.15,2.15 0 0 0 -0.5,-0.07 v 0.29 a 1.92,1.92 0 0 0 -0.32,0.26 c -22.29,22.75 -42.62,3.67 -48,-2.24 a 1.63,1.63 0 0 0 -0.57,-0.41 v -0.19 a 6.26,6.26 0 0 1 -1,0 v 0 0.19 a 1.76,1.76 0 0 0 -0.58,0.41 c -5.35,5.91 -25.67,25 -48,2.24 a 1.92,1.92 0 0 0 -0.32,-0.26 v -0.29 a 2.08,2.08 0 0 0 -0.5,0.07 2.15,2.15 0 0 0 -0.5,-0.07 v 0.29 a 1.92,1.92 0 0 0 -0.32,0.26 c -22.29,22.75 -42.61,3.67 -48,-2.24 a 1.76,1.76 0 0 0 -0.58,-0.41 v -0.19 a 6.26,6.26 0 0 1 -1,0 v 0.19 a 1.63,1.63 0 0 0 -0.57,0.41 c -5.35,5.91 -25.68,25 -48,2.24 a 1.92,1.92 0 0 0 -0.32,-0.26 v -0.29 a 2.15,2.15 0 0 0 -0.5,0.07 2.08,2.08 0 0 0 -0.5,-0.07 v 0.29 a 1.92,1.92 0 0 0 -0.32,0.26 c -22.29,22.75 -42.61,3.67 -48,-2.24 a 1.76,1.76 0 0 0 -0.58,-0.41 v -0.19 a 6.26,6.26 0 0 1 -1,0 v 0 0.19 a 1.63,1.63 0 0 0 -0.57,0.41 c -5.35,5.91 -25.68,25 -48,2.24 a 1.92,1.92 0 0 0 -0.32,-0.26 v -0.29 a 2.15,2.15 0 0 0 -0.5,0.07 2.08,2.08 0 0 0 -0.5,-0.07 v 0.29 a 2.44,2.44 0 0 0 -0.32,0.26 c -22.29,22.75 -42.61,3.67 -48,-2.24 a 1.76,1.76 0 0 0 -0.58,-0.41 v -0.19 a 1.69,1.69 0 0 0 -0.5,0 1.67,1.67 0 0 0 -0.5,0 v 0.19 a 1.63,1.63 0 0 0 -0.57,0.41 c -5.35,5.91 -25.68,25 -48,2.24 a 1.92,1.92 0 0 0 -0.32,-0.26 v -0.29 a 2.23,2.23 0 0 0 -0.5,0.07 2.08,2.08 0 0 0 -0.5,-0.07 v 0.29 a 1.86,1.86 0 0 0 -0.31,0.26 c -22.3,22.75 -42.62,3.67 -48,-2.24 a 1.76,1.76 0 0 0 -0.58,-0.41 v -0.19 a 1.69,1.69 0 0 0 -0.5,0 1.67,1.67 0 0 0 -0.5,0 v 0 0.19 a 1.72,1.72 0 0 0 -0.57,0.41 c -5.35,5.91 -25.67,25 -48,2.24 a 1.59,1.59 0 0 0 -0.32,-0.26 v -0.29 a 2.23,2.23 0 0 0 -0.5,0.07 2.08,2.08 0 0 0 -0.5,-0.07 v 0.29 a 1.86,1.86 0 0 0 -0.31,0.26 c -22.3,22.75 -42.62,3.67 -48,-2.24 a 1.85,1.85 0 0 0 -1.57,-0.59 v 0 a 1.86,1.86 0 0 0 -0.29,0.59 c -5.35,5.91 -25.67,25 -48,2.24 a 1.86,1.86 0 0 0 -0.31,-0.26 v -0.29 a 2.08,2.08 0 0 0 -0.5,0.07 2.23,2.23 0 0 0 -0.5,-0.07 v 0.29 a 1.92,1.92 0 0 0 -0.32,0.26 c -22.29,22.75 -42.62,3.67 -48,-2.24 a 1.72,1.72 0 0 0 -0.57,-0.41 v -0.19 a 1.67,1.67 0 0 0 -0.5,0 1.69,1.69 0 0 0 -0.5,0 v 0 0.19 a 1.76,1.76 0 0 0 -0.58,0.41 c -5.35,5.91 -25.67,25 -48,2.24 a 1.86,1.86 0 0 0 -0.31,-0.26 v -0.29 a 2.08,2.08 0 0 0 -0.5,0.07 2.23,2.23 0 0 0 -0.5,-0.07 v 0.29 a 1.92,1.92 0 0 0 -0.32,0.26 c -22.29,22.75 -42.62,3.67 -48,-2.24 a 1.84,1.84 0 0 0 -1.57,-0.59 v 0 a 1.86,1.86 0 0 0 -1.58,0.59 c -5.35,5.91 -25.67,25 -48,2.24 a 1.92,1.92 0 0 0 -0.32,-0.26 v -0.29 a 2.08,2.08 0 0 0 -0.5,0.07 2.15,2.15 0 0 0 -0.5,-0.07 v 0.29 a 1.92,1.92 0 0 0 -0.32,0.26 c -22.29,22.75 -42.62,3.67 -48,-2.24 a 1.63,1.63 0 0 0 -0.57,-0.41 v -0.19 a 6.26,6.26 0 0 1 -1,0 v 0 0.19 a 1.76,1.76 0 0 0 -0.58,0.41 c -5.35,5.91 -25.67,25 -48,2.24 a 1.92,1.92 0 0 0 -0.32,-0.26 v -0.29 a 2.08,2.08 0 0 0 -0.5,0.07 2.15,2.15 0 0 0 -0.5,-0.07 v 0.29 a 1.92,1.92 0 0 0 -0.32,0.26 c -22.29,22.75 -42.61,3.67 -48,-2.24 a 1.86,1.86 0 0 0 -1.58,-0.59 v 0 a 1.83,1.83 0 0 0 -1.57,0.59 c -5.35,5.91 -25.68,25 -48,2.24 a 1.92,1.92 0 0 0 -0.32,-0.26 v -0.29 a 2.15,2.15 0 0 0 -0.5,0.07 2.08,2.08 0 0 0 -0.5,-0.07 v 0.29 a 1.92,1.92 0 0 0 -0.32,0.26 c -22.29,22.75 -42.61,3.67 -48,-2.24 a 1.76,1.76 0 0 0 -0.58,-0.41 v -0.19 a 6.26,6.26 0 0 1 -1,0 v 0 0.19 a 1.63,1.63 0 0 0 -0.57,0.41 c -5.35,5.91 -25.68,25 -48,2.24 a 1.92,1.92 0 0 0 -0.32,-0.26 v -0.29 a 2.15,2.15 0 0 0 -0.5,0.07 2.08,2.08 0 0 0 -0.5,-0.07 v 0.29 a 2.44,2.44 0 0 0 -0.32,0.26 c -22.29,22.75 -42.61,3.67 -48,-2.24 a 1.76,1.76 0 0 0 -0.58,-0.41 v -0.19 a 1.69,1.69 0 0 0 -0.5,0 1.67,1.67 0 0 0 -0.5,0 v 0.19 a 1.63,1.63 0 0 0 -0.57,0.41 c -5.35,5.91 -25.68,25 -48,2.24 a 1.92,1.92 0 0 0 -0.32,-0.26 v -0.29 a 2.23,2.23 0 0 0 -0.5,0.07 2.08,2.08 0 0 0 -0.5,-0.07 v 0.29 a 1.86,1.86 0 0 0 -0.31,0.26 c -22.3,22.75 -42.62,3.67 -48,-2.24 a 1.76,1.76 0 0 0 -0.58,-0.41 v -0.19 a 1.69,1.69 0 0 0 -0.5,0 1.67,1.67 0 0 0 -0.5,0 v 0 0.19 a 1.72,1.72 0 0 0 -0.07,0.41 c -5.35,5.91 -25.67,25 -48,2.24 a 1.59,1.59 0 0 0 -0.32,-0.26 v -0.29 a 2.23,2.23 0 0 0 -0.5,0.07 2.08,2.08 0 0 0 -0.5,-0.07 v 0.29 a 1.86,1.86 0 0 0 -0.31,0.26 c -22.3,22.75 -42.62,3.67 -48,-2.24 a 1.85,1.85 0 0 0 -0.69,-0.47 v -0.13 a 2.14,2.14 0 0 0 -0.44,0 2.17,2.17 0 0 0 -0.44,0 v 0.13 a 1.81,1.81 0 0 0 -0.7,0.47 c -5.35,5.91 -25.67,25 -48,2.24 a 1.92,1.92 0 0 0 -0.32,-0.26 v -0.29 a 2.08,2.08 0 0 0 -0.5,0.07 2.15,2.15 0 0 0 -0.5,-0.07 v 0.29 a 1.92,1.92 0 0 0 -0.32,0.26 c -22.29,22.75 -42.62,3.67 -48,-2.24 a 1.63,1.63 0 0 0 -0.46,-0.41 v -0.19 a 6.26,6.26 0 0 1 -1,0 v 0 0.19 a 1.76,1.76 0 0 0 -0.58,0.41 c -5.35,5.91 -25.67,25 -48,2.24 a 1.92,1.92 0 0 0 -0.32,-0.26 v -0.29 a 2.08,2.08 0 0 0 -0.5,0.07 2.15,2.15 0 0 0 -0.5,-0.07 v 0.29 a 1.92,1.92 0 0 0 -0.32,0.26 c -22.29,22.75 -42.61,3.67 -48,-2.24 a 1.58,1.58 0 0 0 -0.52,-0.38 v -0.22 a 1.91,1.91 0 0 0 -0.53,0 1.87,1.87 0 0 0 -0.53,0 v 0.22 a 1.55,1.55 0 0 0 -0.51,0.38 c -5.35,5.91 -25.68,25 -48,2.24 a 1.92,1.92 0 0 0 -0.32,-0.26 v -0.29 a 2.23,2.23 0 0 0 -0.5,0.07 2.08,2.08 0 0 0 -0.5,-0.07 v 0.29 a 1.86,1.86 0 0 0 -0.31,0.26 c -22.3,22.75 -42.62,3.67 -48,-2.24 a 1.76,1.76 0 0 0 -0.58,-0.41 v -0.19 a 1.69,1.69 0 0 0 -0.5,0 1.67,1.67 0 0 0 -0.5,0 v 0 0.19 a 1.72,1.72 0 0 0 -0.48,0.41 c -5.35,5.91 -25.68,25 -48,2.24 a 1.59,1.59 0 0 0 -0.32,-0.26 v -0.29 a 2.23,2.23 0 0 0 -0.5,0.07 2.08,2.08 0 0 0 -0.5,-0.07 v 0.29 a 1.86,1.86 0 0 0 -0.31,0.26 c -22.3,22.75 -42.62,3.67 -48,-2.24 a 1.83,1.83 0 0 0 -0.57,-0.41 v -0.19 a 1.67,1.67 0 0 0 -0.5,0 1.69,1.69 0 0 0 -0.5,0 v 0.19 a 1.76,1.76 0 0 0 -0.58,0.41 c -5.35,5.91 -25.67,25 -48,2.24 a 1.86,1.86 0 0 0 -0.31,-0.26 v -0.29 a 2.08,2.08 0 0 0 -0.5,0.07 2.23,2.23 0 0 0 -0.5,-0.07 v 0.29 a 1.59,1.59 0 0 0 -0.32,0.26 c -22.3,22.75 -42.62,3.67 -48,-2.24 a 1.72,1.72 0 0 0 -0.57,-0.41 v -0.19 a 1.67,1.67 0 0 0 -0.5,0 1.69,1.69 0 0 0 -0.5,0 v 0 0.19 a 1.76,1.76 0 0 0 -0.58,0.41 c -5.35,5.91 -25.67,25 -48,2.24 a 1.86,1.86 0 0 0 -0.31,-0.26 v -0.29 a 2.08,2.08 0 0 0 -0.5,0.07 2.23,2.23 0 0 0 -0.5,-0.07 v 0.29 a 1.92,1.92 0 0 0 -0.32,0.26 c -22.12,22.75 -42.45,3.67 -47.81,-2.24 a 1.63,1.63 0 0 0 -0.57,-0.41 v -0.19 a 1.67,1.67 0 0 0 -0.5,0 1.69,1.69 0 0 0 -0.5,0 v 0.19 a 1.76,1.76 0 0 0 -0.58,0.41 c -5.35,5.91 -25.67,25 -48,2.24 a 1.92,1.92 0 0 0 -0.32,-0.26 v -0.29 a 2.08,2.08 0 0 0 -0.5,0.07 2.15,2.15 0 0 0 -0.5,-0.07 v 0.29 a 1.92,1.92 0 0 0 -0.32,0.26 c -22.21,22.75 -42.57,3.67 -47.92,-2.24 a 1.63,1.63 0 0 0 -0.57,-0.41 v -0.19 a 6.26,6.26 0 0 1 -1,0 v 0 0.19 a 1.76,1.76 0 0 0 -0.58,0.41 c -5.35,5.91 -25.67,25 -48,2.24 a 1.92,1.92 0 0 0 -0.32,-0.26 v -0.29 a 2.08,2.08 0 0 0 -0.5,0.07 2.15,2.15 0 0 0 -0.5,-0.07 v 0.29 a 1.92,1.92 0 0 0 -0.32,0.26 c -22.25,22.75 -42.57,3.67 -47.92,-2.24 a 1.86,1.86 0 0 0 -1.58,-0.6 V 194.25704 h 4443.1 l 0.65,-85 V 64.197042 Z"
         id="path853"
         inkscape:connector-curvature="0"
         style="fill:#187b9e" />
    </g>
  </g>
</svg>
