<svg xmlns="http://www.w3.org/2000/svg" viewBox="0 0 4443.81 159.41"><defs><style>.cls-1{fill:#15566d;}</style></defs><title>Asset 10waves</title><g id="Layer_2" data-name="Layer 2"><g id="Layer_1-2" data-name="Layer 1"><path class="cls-1" d="M4443.66,2.36a2.08,2.08,0,0,0-.5-.07v.29a1.86,1.86,0,0,0-.31.26c-22.3,22.75-42.62,3.67-48-2.24a1.66,1.66,0,0,0-.51-.38V0a1.87,1.87,0,0,0-.53,0,1.91,1.91,0,0,0-.53,0V.22a1.58,1.58,0,0,0-.52.38c-5.35,5.91-25.67,25-48,2.24a1.92,1.92,0,0,0-.32-.26V2.29a2.08,2.08,0,0,0-.5.07,2.15,2.15,0,0,0-.5-.07v.29a1.92,1.92,0,0,0-.32.26c-22.29,22.75-42.62,3.67-48-2.24a1.63,1.63,0,0,0-.57-.41V0a6.26,6.26,0,0,1-1,0h0V.19a1.76,1.76,0,0,0-.58.41c-5.35,5.91-25.67,25-48,2.24a1.92,1.92,0,0,0-.32-.26V2.29a2.08,2.08,0,0,0-.5.07,2.15,2.15,0,0,0-.5-.07v.29a1.92,1.92,0,0,0-.32.26c-22.29,22.75-42.61,3.67-48-2.24a1.76,1.76,0,0,0-.58-.41V0a6.26,6.26,0,0,1-1,0V.19a1.63,1.63,0,0,0-.57.41c-5.35,5.91-25.68,25-48,2.24a1.92,1.92,0,0,0-.32-.26V2.29a2.15,2.15,0,0,0-.5.07,2.08,2.08,0,0,0-.5-.07v.29a1.92,1.92,0,0,0-.32.26c-22.29,22.75-42.61,3.67-48-2.24a1.76,1.76,0,0,0-.58-.41V0a1.69,1.69,0,0,0-.5,0,1.67,1.67,0,0,0-.5,0h0V.19a1.63,1.63,0,0,0-.57.41c-5.35,5.91-25.68,25-48,2.24a1.92,1.92,0,0,0-.32-.26V2.29a2.15,2.15,0,0,0-.5.07,2.08,2.08,0,0,0-.5-.07v.29a2.44,2.44,0,0,0-.32.26c-22.29,22.75-42.61,3.67-48-2.24a1.76,1.76,0,0,0-.58-.41V0a1.69,1.69,0,0,0-.5,0,1.67,1.67,0,0,0-.5,0V.19a1.63,1.63,0,0,0-.57.41c-5.35,5.91-25.68,25-48,2.24a1.92,1.92,0,0,0-.32-.26V2.29a2.23,2.23,0,0,0-.5.07,2.08,2.08,0,0,0-.5-.07v.29a1.86,1.86,0,0,0-.31.26c-22.3,22.75-42.62,3.67-48-2.24a1.76,1.76,0,0,0-.58-.41V0a1.69,1.69,0,0,0-.5,0,1.67,1.67,0,0,0-.5,0h0V.19a1.72,1.72,0,0,0-.57.41c-5.35,5.91-25.67,25-48,2.24a1.59,1.59,0,0,0-.32-.26V2.29a2.23,2.23,0,0,0-.5.07,2.08,2.08,0,0,0-.5-.07v.29a1.86,1.86,0,0,0-.31.26c-22.3,22.75-42.62,3.67-48-2.24a1.85,1.85,0,0,0-1.57-.59h0a1.86,1.86,0,0,0-1.58.59c-5.35,5.91-25.67,25-48,2.24a1.86,1.86,0,0,0-.31-.26V2.29a2.08,2.08,0,0,0-.5.07,2.23,2.23,0,0,0-.5-.07v.29a1.92,1.92,0,0,0-.32.26c-22.29,22.75-42.62,3.67-48-2.24a1.72,1.72,0,0,0-.57-.41V0a1.67,1.67,0,0,0-.5,0,1.69,1.69,0,0,0-.5,0h0V.19a1.76,1.76,0,0,0-.58.41c-5.35,5.91-25.67,25-48,2.24a1.86,1.86,0,0,0-.31-.26V2.29a2.08,2.08,0,0,0-.5.07,2.23,2.23,0,0,0-.5-.07v.29a1.92,1.92,0,0,0-.32.26c-22.29,22.75-42.62,3.67-48-2.24a1.84,1.84,0,0,0-1.57-.59h0A1.86,1.86,0,0,0,3593,.6c-5.35,5.91-25.67,25-48,2.24a1.92,1.92,0,0,0-.32-.26V2.29a2.08,2.08,0,0,0-.5.07,2.15,2.15,0,0,0-.5-.07v.29a1.92,1.92,0,0,0-.32.26c-22.29,22.75-42.62,3.67-48-2.24a1.63,1.63,0,0,0-.57-.41V0a6.26,6.26,0,0,1-1,0h0V.19a1.76,1.76,0,0,0-.58.41c-5.35,5.91-25.67,25-48,2.24a1.92,1.92,0,0,0-.32-.26V2.29a2.08,2.08,0,0,0-.5.07,2.15,2.15,0,0,0-.5-.07v.29a1.92,1.92,0,0,0-.32.26c-22.29,22.75-42.61,3.67-48-2.24a1.86,1.86,0,0,0-1.58-.59h0a1.83,1.83,0,0,0-1.57.59c-5.35,5.91-25.68,25-48,2.24a1.92,1.92,0,0,0-.32-.26V2.29a2.15,2.15,0,0,0-.5.07,2.08,2.08,0,0,0-.5-.07v.29a1.92,1.92,0,0,0-.32.26c-22.29,22.75-42.61,3.67-48-2.24a1.76,1.76,0,0,0-.58-.41V0a6.26,6.26,0,0,1-1,0h0V.19a1.63,1.63,0,0,0-.57.41c-5.35,5.91-25.68,25-48,2.24a1.92,1.92,0,0,0-.32-.26V2.29a2.15,2.15,0,0,0-.5.07,2.08,2.08,0,0,0-.5-.07v.29a2.44,2.44,0,0,0-.32.26c-22.29,22.75-42.61,3.67-48-2.24a1.76,1.76,0,0,0-.58-.41V0a1.69,1.69,0,0,0-.5,0,1.67,1.67,0,0,0-.5,0V.19a1.63,1.63,0,0,0-.57.41c-5.35,5.91-25.68,25-48,2.24a1.92,1.92,0,0,0-.32-.26V2.29a2.23,2.23,0,0,0-.5.07,2.08,2.08,0,0,0-.5-.07v.29a1.86,1.86,0,0,0-.31.26c-22.3,22.75-42.62,3.67-48-2.24a1.76,1.76,0,0,0-.58-.41V0a1.69,1.69,0,0,0-.5,0,1.67,1.67,0,0,0-.5,0h0V.19a1.72,1.72,0,0,0-.57.41c-5.35,5.91-25.67,25-48,2.24a1.59,1.59,0,0,0-.32-.26V2.29a2.23,2.23,0,0,0-.5.07,2.08,2.08,0,0,0-.5-.07v.29a1.86,1.86,0,0,0-.31.26c-22.3,22.75-42.62,3.67-48-2.24a1.85,1.85,0,0,0-.69-.47V0a2.14,2.14,0,0,0-.44,0,2.17,2.17,0,0,0-.44,0V.13a1.81,1.81,0,0,0-.7.47c-5.35,5.91-25.67,25-48,2.24a1.92,1.92,0,0,0-.32-.26V2.29a2.08,2.08,0,0,0-.5.07,2.15,2.15,0,0,0-.5-.07v.29a1.92,1.92,0,0,0-.32.26c-22.29,22.75-42.62,3.67-48-2.24a1.63,1.63,0,0,0-.57-.41V0a6.26,6.26,0,0,1-1,0h0V.19a1.76,1.76,0,0,0-.58.41c-5.35,5.91-25.67,25-48,2.24a1.92,1.92,0,0,0-.32-.26V2.29a2.08,2.08,0,0,0-.5.07,2.15,2.15,0,0,0-.5-.07v.29a1.92,1.92,0,0,0-.32.26c-22.29,22.75-42.61,3.67-48-2.24a1.58,1.58,0,0,0-.52-.38V0a1.91,1.91,0,0,0-.53,0,1.87,1.87,0,0,0-.53,0V.22a1.55,1.55,0,0,0-.51.38c-5.35,5.91-25.68,25-48,2.24a1.92,1.92,0,0,0-.32-.26V2.29a2.23,2.23,0,0,0-.5.07,2.08,2.08,0,0,0-.5-.07v.29a1.86,1.86,0,0,0-.31.26c-22.3,22.75-42.62,3.67-48-2.24a1.76,1.76,0,0,0-.58-.41V0a1.69,1.69,0,0,0-.5,0,1.67,1.67,0,0,0-.5,0h0V.19a1.72,1.72,0,0,0-.57.41c-5.35,5.91-25.67,25-48,2.24a1.59,1.59,0,0,0-.32-.26V2.29a2.23,2.23,0,0,0-.5.07,2.08,2.08,0,0,0-.5-.07v.29a1.86,1.86,0,0,0-.31.26c-22.3,22.75-42.62,3.67-48-2.24a1.83,1.83,0,0,0-.57-.41V0a1.67,1.67,0,0,0-.5,0,1.69,1.69,0,0,0-.5,0V.19a1.76,1.76,0,0,0-.58.41c-5.35,5.91-25.67,25-48,2.24a1.86,1.86,0,0,0-.31-.26V2.29a2.08,2.08,0,0,0-.5.07,2.23,2.23,0,0,0-.5-.07v.29a1.92,1.92,0,0,0-.32.26c-22.29,22.75-42.62,3.67-48-2.24a1.72,1.72,0,0,0-.57-.41V0a1.67,1.67,0,0,0-.5,0,1.69,1.69,0,0,0-.5,0h0V.19a1.76,1.76,0,0,0-.58.41c-5.35,5.91-25.67,25-48,2.24a1.86,1.86,0,0,0-.31-.26V2.29a2.08,2.08,0,0,0-.5.07,2.23,2.23,0,0,0-.5-.07v.29a1.92,1.92,0,0,0-.32.26c-22.29,22.75-42.62,3.67-48-2.24a1.63,1.63,0,0,0-.57-.41V0a1.67,1.67,0,0,0-.5,0,1.69,1.69,0,0,0-.5,0V.19a1.76,1.76,0,0,0-.58.41c-5.35,5.91-25.67,25-48,2.24a1.92,1.92,0,0,0-.32-.26V2.29a2.08,2.08,0,0,0-.5.07,2.15,2.15,0,0,0-.5-.07v.29a1.92,1.92,0,0,0-.32.26c-22.29,22.75-42.62,3.67-48-2.24a1.63,1.63,0,0,0-.57-.41V0a6.26,6.26,0,0,1-1,0h0V.19a1.76,1.76,0,0,0-.58.41c-5.35,5.91-25.67,25-48,2.24a1.92,1.92,0,0,0-.32-.26V2.29a2.11,2.11,0,0,0-.35,0,2,2,0,0,0-.35,0v0a1.54,1.54,0,0,0-.3,0v.29a1.92,1.92,0,0,0-.32.26c-7.92,8.08-15.58,10.88-22.42,10.87-12.27-.17-21.82-9.33-25.24-13.11a1.66,1.66,0,0,0-.51-.38V0a1.87,1.87,0,0,0-.53,0,1.64,1.64,0,0,0-.38,0,1.77,1.77,0,0,0-.46,0v.4l-.21.19c-5.35,5.91-25.67,25-48,2.24a1.92,1.92,0,0,0-.32-.26V2.29a2.08,2.08,0,0,0-.5.07,2.15,2.15,0,0,0-.5-.07v.29a1.92,1.92,0,0,0-.32.26c-22.29,22.75-42.62,3.67-48-2.24a1.63,1.63,0,0,0-.57-.41V0a6.26,6.26,0,0,1-1,0h0V.19a1.76,1.76,0,0,0-.58.41c-5.35,5.91-25.67,25-48,2.24a1.92,1.92,0,0,0-.32-.26V2.29a2.08,2.08,0,0,0-.5.07,2.15,2.15,0,0,0-.5-.07v.29a1.92,1.92,0,0,0-.32.26c-22.29,22.75-42.61,3.67-48-2.24a1.76,1.76,0,0,0-.58-.41V0a6.26,6.26,0,0,1-1,0V.19a1.63,1.63,0,0,0-.57.41c-5.35,5.91-25.68,25-48,2.24a1.92,1.92,0,0,0-.32-.26V2.29a2.15,2.15,0,0,0-.5.07,2.08,2.08,0,0,0-.5-.07v.29a1.92,1.92,0,0,0-.32.26c-22.29,22.75-42.61,3.67-48-2.24a1.76,1.76,0,0,0-.58-.41V0a6.26,6.26,0,0,1-1,0h0V.19a1.63,1.63,0,0,0-.57.41c-5.35,5.91-25.68,25-48,2.24a1.92,1.92,0,0,0-.32-.26V2.29a2.15,2.15,0,0,0-.5.07,2.08,2.08,0,0,0-.5-.07v.29a2.44,2.44,0,0,0-.32.26c-22.29,22.75-42.61,3.67-48-2.24a1.76,1.76,0,0,0-.58-.41V0a1.69,1.69,0,0,0-.5,0,1.67,1.67,0,0,0-.5,0V.19a1.63,1.63,0,0,0-.57.41c-5.35,5.91-25.68,25-48,2.24a1.92,1.92,0,0,0-.32-.26V2.29a2.23,2.23,0,0,0-.5.07,2.08,2.08,0,0,0-.5-.07v.29a1.86,1.86,0,0,0-.31.26c-22.3,22.75-42.62,3.67-48-2.24a1.76,1.76,0,0,0-.58-.41V0a1.69,1.69,0,0,0-.5,0,1.67,1.67,0,0,0-.5,0h0V.19a1.72,1.72,0,0,0-.57.41c-5.35,5.91-25.67,25-48,2.24a1.59,1.59,0,0,0-.32-.26V2.29a2.23,2.23,0,0,0-.5.07,2.08,2.08,0,0,0-.5-.07v.29a1.86,1.86,0,0,0-.31.26c-22.3,22.75-42.62,3.67-48-2.24a1.85,1.85,0,0,0-1.57-.59h0A1.86,1.86,0,0,0,1597,.6c-5.35,5.91-25.67,25-48,2.24a1.86,1.86,0,0,0-.31-.26V2.29a2.08,2.08,0,0,0-.5.07,2.23,2.23,0,0,0-.5-.07v.29a1.92,1.92,0,0,0-.32.26c-22.29,22.75-42.62,3.67-48-2.24a1.72,1.72,0,0,0-.57-.41V0a1.67,1.67,0,0,0-.5,0,1.69,1.69,0,0,0-.5,0h0V.19a1.76,1.76,0,0,0-.58.41c-5.35,5.91-25.67,25-48,2.24a1.86,1.86,0,0,0-.31-.26V2.29a2.08,2.08,0,0,0-.5.07,2.23,2.23,0,0,0-.5-.07v.29a1.92,1.92,0,0,0-.32.26c-22.29,22.75-42.62,3.67-48-2.24a1.84,1.84,0,0,0-1.57-.59h0a1.86,1.86,0,0,0-1.58.59c-5.35,5.91-25.67,25-48,2.24a1.92,1.92,0,0,0-.32-.26V2.29a2.08,2.08,0,0,0-.5.07,2.15,2.15,0,0,0-.5-.07v.29a1.92,1.92,0,0,0-.32.26c-22.29,22.75-42.62,3.67-48-2.24a1.63,1.63,0,0,0-.57-.41V0a6.26,6.26,0,0,1-1,0h0V.19a1.76,1.76,0,0,0-.58.41c-5.35,5.91-25.67,25-48,2.24a1.92,1.92,0,0,0-.32-.26V2.29a2.08,2.08,0,0,0-.5.07,2.15,2.15,0,0,0-.5-.07v.29a1.92,1.92,0,0,0-.32.26c-22.29,22.75-42.61,3.67-48-2.24a1.86,1.86,0,0,0-1.58-.59h0a1.83,1.83,0,0,0-1.57.59c-5.35,5.91-25.68,25-48,2.24a1.92,1.92,0,0,0-.32-.26V2.29a2.15,2.15,0,0,0-.5.07,2.08,2.08,0,0,0-.5-.07v.29a1.92,1.92,0,0,0-.32.26c-22.29,22.75-42.61,3.67-48-2.24a1.76,1.76,0,0,0-.58-.41V0a6.26,6.26,0,0,1-1,0h0V.19a1.63,1.63,0,0,0-.57.41c-5.35,5.91-25.68,25-48,2.24a1.92,1.92,0,0,0-.32-.26V2.29a2.15,2.15,0,0,0-.5.07,2.08,2.08,0,0,0-.5-.07v.29a2.44,2.44,0,0,0-.32.26c-22.29,22.75-42.61,3.67-48-2.24a1.76,1.76,0,0,0-.58-.41V0a1.69,1.69,0,0,0-.5,0,1.67,1.67,0,0,0-.5,0V.19a1.63,1.63,0,0,0-.57.41c-5.35,5.91-25.68,25-48,2.24a1.92,1.92,0,0,0-.32-.26V2.29a2.23,2.23,0,0,0-.5.07,2.08,2.08,0,0,0-.5-.07v.29a1.86,1.86,0,0,0-.31.26c-22.3,22.75-42.62,3.67-48-2.24a1.76,1.76,0,0,0-.58-.41V0a1.69,1.69,0,0,0-.5,0,1.67,1.67,0,0,0-.5,0h0V.19A1.72,1.72,0,0,0,897,.6c-5.35,5.91-25.67,25-48,2.24a1.59,1.59,0,0,0-.32-.26V2.29a2.23,2.23,0,0,0-.5.07,2.08,2.08,0,0,0-.5-.07v.29a1.86,1.86,0,0,0-.31.26c-22.3,22.75-42.62,3.67-48-2.24a1.85,1.85,0,0,0-.69-.47V0a2.14,2.14,0,0,0-.44,0,2.17,2.17,0,0,0-.44,0V.13a1.81,1.81,0,0,0-.7.47c-5.35,5.91-25.67,25-48,2.24a1.92,1.92,0,0,0-.32-.26V2.29a2.08,2.08,0,0,0-.5.07,2.15,2.15,0,0,0-.5-.07v.29a1.92,1.92,0,0,0-.32.26c-22.29,22.75-42.62,3.67-48-2.24A1.63,1.63,0,0,0,699,.19V0a6.26,6.26,0,0,1-1,0h0V.19a1.76,1.76,0,0,0-.58.41c-5.35,5.91-25.67,25-48,2.24a1.92,1.92,0,0,0-.32-.26V2.29a2.08,2.08,0,0,0-.5.07,2.15,2.15,0,0,0-.5-.07v.29a1.92,1.92,0,0,0-.32.26c-22.29,22.75-42.61,3.67-48-2.24a1.58,1.58,0,0,0-.52-.38V0a1.91,1.91,0,0,0-.53,0,1.87,1.87,0,0,0-.53,0V.22a1.55,1.55,0,0,0-.51.38c-5.35,5.91-25.68,25-48,2.24a1.92,1.92,0,0,0-.32-.26V2.29a2.23,2.23,0,0,0-.5.07,2.08,2.08,0,0,0-.5-.07v.29a1.86,1.86,0,0,0-.31.26c-22.3,22.75-42.62,3.67-48-2.24a1.76,1.76,0,0,0-.58-.41V0a1.69,1.69,0,0,0-.5,0,1.67,1.67,0,0,0-.5,0h0V.19A1.72,1.72,0,0,0,498,.6c-5.35,5.91-25.68,25-48,2.24a1.59,1.59,0,0,0-.32-.26V2.29a2.23,2.23,0,0,0-.5.07,2.08,2.08,0,0,0-.5-.07v.29a1.86,1.86,0,0,0-.31.26c-22.3,22.75-42.62,3.67-48-2.24a1.83,1.83,0,0,0-.57-.41V0a1.67,1.67,0,0,0-.5,0,1.69,1.69,0,0,0-.5,0V.19a1.76,1.76,0,0,0-.58.41c-5.35,5.91-25.67,25-48,2.24a1.86,1.86,0,0,0-.31-.26V2.29a2.08,2.08,0,0,0-.5.07,2.23,2.23,0,0,0-.5-.07v.29a1.59,1.59,0,0,0-.32.26c-22.3,22.75-42.62,3.67-48-2.24a1.72,1.72,0,0,0-.57-.41V0a1.67,1.67,0,0,0-.5,0,1.69,1.69,0,0,0-.5,0h0V.19a1.76,1.76,0,0,0-.58.41c-5.35,5.91-25.67,25-48,2.24a1.86,1.86,0,0,0-.31-.26V2.29a2.08,2.08,0,0,0-.5.07,2.23,2.23,0,0,0-.5-.07v.29a1.92,1.92,0,0,0-.32.26C226.69,25.59,206.36,6.51,201,.6a1.63,1.63,0,0,0-.57-.41V0a1.67,1.67,0,0,0-.5,0,1.69,1.69,0,0,0-.5,0V.19a1.76,1.76,0,0,0-.58.41c-5.35,5.91-25.67,25-48,2.24a1.92,1.92,0,0,0-.32-.26V2.29a2.08,2.08,0,0,0-.5.07,2.15,2.15,0,0,0-.5-.07v.29a1.92,1.92,0,0,0-.32.26C127,25.59,106.64,6.51,101.29.6a1.63,1.63,0,0,0-.57-.41V0a6.26,6.26,0,0,1-1,0h0V.19a1.76,1.76,0,0,0-.58.41c-5.35,5.91-25.67,25-48,2.24a1.92,1.92,0,0,0-.32-.26V2.29a2.08,2.08,0,0,0-.5.07,2.15,2.15,0,0,0-.5-.07v.29a1.92,1.92,0,0,0-.32.26C27.25,25.59,6.93,6.51,1.58.6A1.86,1.86,0,0,0,0,0v159.4H4443.16l.65-112V2.34Z"/></g></g></svg>