<svg xmlns="http://www.w3.org/2000/svg" viewBox="0 0 2221.91 240.41"><defs><style>.cls-1{fill:#15566d;}</style></defs><title>Asset 14waves</title><g id="Layer_2" data-name="Layer 2"><g id="Layer_1-2" data-name="Layer 1"><path class="cls-1" d="M24.76,240.41h2196.5l.65-193V2.34l-.15,0a2.15,2.15,0,0,0-.5-.07v.29a1.92,1.92,0,0,0-.32.26c-22.29,22.75-42.62,3.67-48-2.24a1.55,1.55,0,0,0-.51-.38V0a4.7,4.7,0,0,1-1.06,0V.22a1.55,1.55,0,0,0-.51.38c-5.35,5.91-25.68,25-48,2.24a1.92,1.92,0,0,0-.32-.26V2.29a2.15,2.15,0,0,0-.5.07,2.08,2.08,0,0,0-.5-.07v.29a1.86,1.86,0,0,0-.31.26c-22.3,22.75-42.62,3.67-48-2.24a1.76,1.76,0,0,0-.58-.41V0a1.69,1.69,0,0,0-.5,0,1.67,1.67,0,0,0-.5,0h0V.19a1.63,1.63,0,0,0-.57.41c-5.35,5.91-25.68,25-48,2.24a1.92,1.92,0,0,0-.32-.26V2.29a2.23,2.23,0,0,0-.5.07,2.08,2.08,0,0,0-.5-.07v.29a1.86,1.86,0,0,0-.31.26c-22.3,22.75-42.62,3.67-48-2.24a1.76,1.76,0,0,0-.58-.41V0a1.69,1.69,0,0,0-.5,0,1.67,1.67,0,0,0-.5,0V.19a1.72,1.72,0,0,0-.57.41c-5.35,5.91-25.67,25-48,2.24a1.59,1.59,0,0,0-.32-.26V2.29a2.23,2.23,0,0,0-.5.07,2.08,2.08,0,0,0-.5-.07v.29a1.86,1.86,0,0,0-.31.26c-22.3,22.75-42.62,3.67-48-2.24a1.72,1.72,0,0,0-.57-.41V0a1.67,1.67,0,0,0-.5,0,1.69,1.69,0,0,0-.5,0h0V.19a1.76,1.76,0,0,0-.58.41c-5.35,5.91-25.67,25-48,2.24a1.86,1.86,0,0,0-.31-.26V2.29a2.08,2.08,0,0,0-.5.07,2.23,2.23,0,0,0-.5-.07v.29a1.92,1.92,0,0,0-.32.26c-22.29,22.75-42.62,3.67-48-2.24a1.72,1.72,0,0,0-.57-.41V0a1.67,1.67,0,0,0-.5,0,1.69,1.69,0,0,0-.5,0V.19a1.76,1.76,0,0,0-.58.41c-5.35,5.91-25.67,25-48,2.24a1.86,1.86,0,0,0-.31-.26V2.29a2.08,2.08,0,0,0-.5.07,2.23,2.23,0,0,0-.5-.07v.29a1.92,1.92,0,0,0-.32.26c-22.29,22.75-42.62,3.67-48-2.24a1.63,1.63,0,0,0-.57-.41V0a1.67,1.67,0,0,0-.5,0,1.69,1.69,0,0,0-.5,0h0V.19a1.76,1.76,0,0,0-.58.41c-5.35,5.91-25.67,25-48,2.24a1.92,1.92,0,0,0-.32-.26V2.29a2.08,2.08,0,0,0-.5.07,2.15,2.15,0,0,0-.5-.07v.29a1.92,1.92,0,0,0-.32.26c-22.29,22.75-42.62,3.67-48-2.24a1.83,1.83,0,0,0-1.57-.59h0a1.86,1.86,0,0,0-1.58.59c-5.35,5.91-25.67,25-48,2.24a1.92,1.92,0,0,0-.32-.26V2.29a2.08,2.08,0,0,0-.5.07,2.15,2.15,0,0,0-.5-.07v.29a1.92,1.92,0,0,0-.32.26c-22.29,22.75-42.61,3.67-48-2.24a1.76,1.76,0,0,0-.58-.41V0a6.26,6.26,0,0,1-1,0h0V.19a1.63,1.63,0,0,0-.57.41c-5.35,5.91-25.68,25-48,2.24a1.92,1.92,0,0,0-.32-.26V2.29a2.15,2.15,0,0,0-.5.07,2.08,2.08,0,0,0-.5-.07v.29a1.92,1.92,0,0,0-.32.26c-22.29,22.75-42.61,3.67-48-2.24a1.86,1.86,0,0,0-1.58-.59h0a1.83,1.83,0,0,0-1.57.59c-5.35,5.91-25.68,25-48,2.24a1.92,1.92,0,0,0-.32-.26V2.29a2.15,2.15,0,0,0-.5.07,2.08,2.08,0,0,0-.5-.07v.29a1.86,1.86,0,0,0-.31.26c-22.3,22.75-42.62,3.67-48-2.24a1.76,1.76,0,0,0-.58-.41V0a1.69,1.69,0,0,0-.5,0,1.67,1.67,0,0,0-.5,0h0V.19a1.63,1.63,0,0,0-.57.41c-5.35,5.91-25.68,25-48,2.24a1.92,1.92,0,0,0-.32-.26V2.29a2.23,2.23,0,0,0-.5.07,2.08,2.08,0,0,0-.5-.07v.29a1.86,1.86,0,0,0-.31.26c-22.3,22.75-42.62,3.67-48-2.24a1.86,1.86,0,0,0-1.58-.59h0a1.85,1.85,0,0,0-1.57.59c-5.35,5.91-25.67,25-48,2.24a1.59,1.59,0,0,0-.32-.26V2.29a2.23,2.23,0,0,0-.5.07,2.08,2.08,0,0,0-.5-.07v.29a1.86,1.86,0,0,0-.31.26c-22.3,22.75-42.62,3.67-48-2.24a1.72,1.72,0,0,0-.57-.41V0a1.67,1.67,0,0,0-.5,0,1.69,1.69,0,0,0-.5,0h0V.19a1.76,1.76,0,0,0-.58.41c-5.35,5.91-25.67,25-48,2.24a1.86,1.86,0,0,0-.31-.26V2.29a2.08,2.08,0,0,0-.5.07,2.23,2.23,0,0,0-.5-.07v.29a1.92,1.92,0,0,0-.32.26c-22.29,22.75-42.62,3.67-48-2.24a1.72,1.72,0,0,0-.57-.41V0a1.67,1.67,0,0,0-.5,0,1.69,1.69,0,0,0-.5,0V.19a1.76,1.76,0,0,0-.58.41c-5.35,5.91-25.67,25-48,2.24a1.86,1.86,0,0,0-.31-.26V2.29a2.08,2.08,0,0,0-.5.07,2.23,2.23,0,0,0-.5-.07v.29a1.92,1.92,0,0,0-.32.26C899.37,25.59,879,6.51,873.69.6a1.63,1.63,0,0,0-.57-.41V0a1.67,1.67,0,0,0-.5,0,1.69,1.69,0,0,0-.5,0h0V.19a1.76,1.76,0,0,0-.58.41c-5.35,5.91-25.67,25-48,2.24a1.92,1.92,0,0,0-.32-.26V2.29a2.08,2.08,0,0,0-.5.07,2.15,2.15,0,0,0-.5-.07v.29a1.92,1.92,0,0,0-.32.26C799.65,25.59,779.32,6.51,774,.6a1.7,1.7,0,0,0-.69-.47V0a9.69,9.69,0,0,1-.88,0V.13a1.7,1.7,0,0,0-.69.47c-5.35,5.91-25.68,25-48,2.24a1.92,1.92,0,0,0-.32-.26V2.29a2.15,2.15,0,0,0-.5.07,2.08,2.08,0,0,0-.5-.07v.29a1.92,1.92,0,0,0-.32.26c-22.29,22.75-42.61,3.67-48-2.24a1.76,1.76,0,0,0-.58-.41V0a1.69,1.69,0,0,0-.5,0,1.67,1.67,0,0,0-.5,0h0V.19A1.63,1.63,0,0,0,672,.6c-5.35,5.91-25.68,25-48,2.24a1.92,1.92,0,0,0-.32-.26V2.29a2.23,2.23,0,0,0-.5.07,2.08,2.08,0,0,0-.5-.07v.29a1.86,1.86,0,0,0-.31.26c-22.3,22.75-42.62,3.67-48-2.24a1.66,1.66,0,0,0-.51-.38V0a1.87,1.87,0,0,0-.53,0,2,2,0,0,0-.54,0V.22a1.66,1.66,0,0,0-.51.38c-5.35,5.91-25.67,25-48,2.24a1.86,1.86,0,0,0-.31-.26V2.29a2.08,2.08,0,0,0-.5.07,2.23,2.23,0,0,0-.5-.07v.29a1.92,1.92,0,0,0-.32.26c-22.29,22.75-42.62,3.67-48-2.24a1.63,1.63,0,0,0-.57-.41V0a1.67,1.67,0,0,0-.5,0,1.69,1.69,0,0,0-.5,0h0V.19a1.76,1.76,0,0,0-.58.41c-5.35,5.91-25.67,25-48,2.24a1.92,1.92,0,0,0-.32-.26V2.29a2.08,2.08,0,0,0-.5.07,2.15,2.15,0,0,0-.5-.07v.29a1.92,1.92,0,0,0-.32.26C400.72,25.59,380.39,6.51,375,.6a1.63,1.63,0,0,0-.57-.41V0a6.26,6.26,0,0,1-1,0V.19a1.76,1.76,0,0,0-.58.41c-5.35,5.91-25.67,25-48,2.24a1.92,1.92,0,0,0-.32-.26V2.29a2.08,2.08,0,0,0-.5.07,2.15,2.15,0,0,0-.5-.07v.29a1.92,1.92,0,0,0-.32.26C301,25.59,280.68,6.51,275.33.6a1.76,1.76,0,0,0-.58-.41V0a6.26,6.26,0,0,1-1,0h0V.19a1.76,1.76,0,0,0-.58.41c-5.35,5.91-25.67,25-48,2.24a1.92,1.92,0,0,0-.32-.26V2.29a2.15,2.15,0,0,0-.5.07,2.08,2.08,0,0,0-.5-.07v.29a1.92,1.92,0,0,0-.32.26C201.28,25.59,181,6.51,175.61.6A1.76,1.76,0,0,0,175,.19V0a6.26,6.26,0,0,1-1,0V.19a1.63,1.63,0,0,0-.57.41c-5.35,5.91-25.68,25-48,2.24a1.92,1.92,0,0,0-.32-.26V2.29a2.15,2.15,0,0,0-.5.07,2.08,2.08,0,0,0-.5-.07v.29a1.92,1.92,0,0,0-.32.26C101.56,25.59,81.24,6.51,75.89.6a1.76,1.76,0,0,0-.58-.41V0a1.69,1.69,0,0,0-.5,0,1.67,1.67,0,0,0-.5,0h0V.19a1.63,1.63,0,0,0-.57.41c-5.35,5.91-25.68,25-48,2.24a1.92,1.92,0,0,0-.32-.26V2.29a2,2,0,0,0-.34,0,2.27,2.27,0,0,0-.35,0v0a1.55,1.55,0,0,0-.31,0v.29a1.86,1.86,0,0,0-.31.26C16.22,10.92,8.55,13.72,1.71,13.71c-.58,0-1.14-.06-1.71-.1v226.8Z"/></g></g></svg>