<?xml version="1.0" encoding="UTF-8" standalone="no"?>
<svg
   xmlns:dc="http://purl.org/dc/elements/1.1/"
   xmlns:cc="http://creativecommons.org/ns#"
   xmlns:rdf="http://www.w3.org/1999/02/22-rdf-syntax-ns#"
   xmlns:svg="http://www.w3.org/2000/svg"
   xmlns="http://www.w3.org/2000/svg"
   xmlns:sodipodi="http://sodipodi.sourceforge.net/DTD/sodipodi-0.dtd"
   xmlns:inkscape="http://www.inkscape.org/namespaces/inkscape"
   viewBox="0 0 4443.81 359.41"
   overflow="visible"
   version="1.1"
   id="svg4601"
   sodipodi:docname="waves-dark.svg"
   width="4443.8101"
   height="359.41"
   style="overflow:visible"
   inkscape:version="0.92.4 (5da689c313, 2019-01-14)">
  <metadata
     id="metadata4605">
    <rdf:RDF>
      <cc:Work
         rdf:about="">
        <dc:format>image/svg+xml</dc:format>
        <dc:type
           rdf:resource="http://purl.org/dc/dcmitype/StillImage" />
        <dc:title>Asset 10waves</dc:title>
      </cc:Work>
    </rdf:RDF>
  </metadata>
  <sodipodi:namedview
     pagecolor="#ffffff"
     bordercolor="#666666"
     borderopacity="1"
     objecttolerance="10"
     gridtolerance="10"
     guidetolerance="10"
     inkscape:pageopacity="0"
     inkscape:pageshadow="2"
     inkscape:window-width="1878"
     inkscape:window-height="1008"
     id="namedview4603"
     showgrid="false"
     inkscape:zoom="0.25563649"
     inkscape:cx="2236.8963"
     inkscape:cy="384.75368"
     inkscape:window-x="0"
     inkscape:window-y="0"
     inkscape:window-maximized="0"
     inkscape:current-layer="svg4601" />
  <defs
     id="defs4593">
    <style
       id="style4591">.cls-1{fill:#15566d;}</style>
  </defs>
  <title
     id="title4595">Asset 10waves</title>
  <g
     id="Layer_2"
     data-name="Layer 2"
     transform="matrix(1,0,0,1.8342887,0,67.014387)">
    <g
       id="Layer_1-2"
       data-name="Layer 1">
      <path
         class="cls-1"
         d="m 4443.66,2.36 a 2.08,2.08 0 0 0 -0.5,-0.07 v 0.29 a 1.86,1.86 0 0 0 -0.31,0.26 c -22.3,22.75 -42.62,3.67 -48,-2.24 a 1.66,1.66 0 0 0 -0.51,-0.38 V 0 a 1.87,1.87 0 0 0 -0.53,0 1.91,1.91 0 0 0 -0.53,0 v 0.22 a 1.58,1.58 0 0 0 -0.52,0.38 c -5.35,5.91 -25.67,25 -48,2.24 a 1.92,1.92 0 0 0 -0.32,-0.26 V 2.29 a 2.08,2.08 0 0 0 -0.5,0.07 2.15,2.15 0 0 0 -0.5,-0.07 v 0.29 a 1.92,1.92 0 0 0 -0.32,0.26 c -22.29,22.75 -42.62,3.67 -48,-2.24 a 1.63,1.63 0 0 0 -0.57,-0.41 V 0 a 6.26,6.26 0 0 1 -1,0 v 0 0.19 a 1.76,1.76 0 0 0 -0.58,0.41 c -5.35,5.91 -25.67,25 -48,2.24 a 1.92,1.92 0 0 0 -0.32,-0.26 V 2.29 a 2.08,2.08 0 0 0 -0.5,0.07 2.15,2.15 0 0 0 -0.5,-0.07 v 0.29 a 1.92,1.92 0 0 0 -0.32,0.26 c -22.29,22.75 -42.61,3.67 -48,-2.24 a 1.76,1.76 0 0 0 -0.58,-0.41 V 0 a 6.26,6.26 0 0 1 -1,0 v 0.19 a 1.63,1.63 0 0 0 -0.57,0.41 c -5.35,5.91 -25.68,25 -48,2.24 a 1.92,1.92 0 0 0 -0.32,-0.26 V 2.29 a 2.15,2.15 0 0 0 -0.5,0.07 2.08,2.08 0 0 0 -0.5,-0.07 v 0.29 a 1.92,1.92 0 0 0 -0.32,0.26 c -22.29,22.75 -42.61,3.67 -48,-2.24 a 1.76,1.76 0 0 0 -0.58,-0.41 V 0 a 1.69,1.69 0 0 0 -0.5,0 1.67,1.67 0 0 0 -0.5,0 v 0 0.19 a 1.63,1.63 0 0 0 -0.57,0.41 c -5.35,5.91 -25.68,25 -48,2.24 a 1.92,1.92 0 0 0 -0.32,-0.26 V 2.29 a 2.15,2.15 0 0 0 -0.5,0.07 2.08,2.08 0 0 0 -0.5,-0.07 v 0.29 a 2.44,2.44 0 0 0 -0.32,0.26 c -22.29,22.75 -42.61,3.67 -48,-2.24 a 1.76,1.76 0 0 0 -0.58,-0.41 V 0 a 1.69,1.69 0 0 0 -0.5,0 1.67,1.67 0 0 0 -0.5,0 v 0.19 a 1.63,1.63 0 0 0 -0.57,0.41 c -5.35,5.91 -25.68,25 -48,2.24 a 1.92,1.92 0 0 0 -0.32,-0.26 V 2.29 a 2.23,2.23 0 0 0 -0.5,0.07 2.08,2.08 0 0 0 -0.5,-0.07 v 0.29 a 1.86,1.86 0 0 0 -0.31,0.26 c -22.3,22.75 -42.62,3.67 -48,-2.24 a 1.76,1.76 0 0 0 -0.58,-0.41 V 0 a 1.69,1.69 0 0 0 -0.5,0 1.67,1.67 0 0 0 -0.5,0 v 0 0.19 a 1.72,1.72 0 0 0 -0.57,0.41 c -5.35,5.91 -25.67,25 -48,2.24 A 1.59,1.59 0 0 0 3845.5,2.58 V 2.29 a 2.23,2.23 0 0 0 -0.5,0.07 2.08,2.08 0 0 0 -0.5,-0.07 v 0.29 a 1.86,1.86 0 0 0 -0.31,0.26 c -22.3,22.75 -42.62,3.67 -48,-2.24 a 1.85,1.85 0 0 0 -1.57,-0.59 v 0 a 1.86,1.86 0 0 0 -1.58,0.59 c -5.35,5.91 -25.67,25 -48,2.24 a 1.86,1.86 0 0 0 -0.31,-0.26 V 2.29 a 2.08,2.08 0 0 0 -0.5,0.07 2.23,2.23 0 0 0 -0.5,-0.07 v 0.29 a 1.92,1.92 0 0 0 -0.32,0.26 c -22.29,22.75 -42.62,3.67 -48,-2.24 a 1.72,1.72 0 0 0 -0.57,-0.41 V 0 a 1.67,1.67 0 0 0 -0.5,0 1.69,1.69 0 0 0 -0.5,0 v 0 0.19 a 1.76,1.76 0 0 0 -0.58,0.41 c -5.35,5.91 -25.67,25 -48,2.24 a 1.86,1.86 0 0 0 -0.31,-0.26 V 2.29 a 2.08,2.08 0 0 0 -0.5,0.07 2.23,2.23 0 0 0 -0.5,-0.07 v 0.29 a 1.92,1.92 0 0 0 -0.32,0.26 c -22.29,22.75 -42.62,3.67 -48,-2.24 a 1.84,1.84 0 0 0 -1.57,-0.59 v 0 A 1.86,1.86 0 0 0 3593,0.6 c -5.35,5.91 -25.67,25 -48,2.24 a 1.92,1.92 0 0 0 -0.32,-0.26 V 2.29 a 2.08,2.08 0 0 0 -0.5,0.07 2.15,2.15 0 0 0 -0.5,-0.07 v 0.29 a 1.92,1.92 0 0 0 -0.32,0.26 c -22.29,22.75 -42.62,3.67 -48,-2.24 a 1.63,1.63 0 0 0 -0.57,-0.41 V 0 a 6.26,6.26 0 0 1 -1,0 v 0 0.19 a 1.76,1.76 0 0 0 -0.58,0.41 c -5.35,5.91 -25.67,25 -48,2.24 a 1.92,1.92 0 0 0 -0.32,-0.26 V 2.29 a 2.08,2.08 0 0 0 -0.5,0.07 2.15,2.15 0 0 0 -0.5,-0.07 v 0.29 a 1.92,1.92 0 0 0 -0.32,0.26 c -22.29,22.75 -42.61,3.67 -48,-2.24 a 1.86,1.86 0 0 0 -1.58,-0.59 v 0 a 1.83,1.83 0 0 0 -1.57,0.59 c -5.35,5.91 -25.68,25 -48,2.24 A 1.92,1.92 0 0 0 3344.1,2.58 V 2.29 a 2.15,2.15 0 0 0 -0.5,0.07 2.08,2.08 0 0 0 -0.5,-0.07 v 0.29 a 1.92,1.92 0 0 0 -0.32,0.26 c -22.29,22.75 -42.61,3.67 -48,-2.24 A 1.76,1.76 0 0 0 3294.2,0.19 V 0 a 6.26,6.26 0 0 1 -1,0 v 0 0.19 a 1.63,1.63 0 0 0 -0.57,0.41 c -5.35,5.91 -25.68,25 -48,2.24 a 1.92,1.92 0 0 0 -0.32,-0.26 V 2.29 a 2.15,2.15 0 0 0 -0.5,0.07 2.08,2.08 0 0 0 -0.5,-0.07 v 0.29 a 2.44,2.44 0 0 0 -0.32,0.26 c -22.29,22.75 -42.61,3.67 -48,-2.24 a 1.76,1.76 0 0 0 -0.58,-0.41 V 0 a 1.69,1.69 0 0 0 -0.5,0 1.67,1.67 0 0 0 -0.5,0 v 0.19 a 1.63,1.63 0 0 0 -0.57,0.41 c -5.35,5.91 -25.68,25 -48,2.24 a 1.92,1.92 0 0 0 -0.32,-0.26 V 2.29 a 2.23,2.23 0 0 0 -0.5,0.07 2.08,2.08 0 0 0 -0.5,-0.07 v 0.29 a 1.86,1.86 0 0 0 -0.31,0.26 c -22.3,22.75 -42.62,3.67 -48,-2.24 a 1.76,1.76 0 0 0 -0.58,-0.41 V 0 a 1.69,1.69 0 0 0 -0.5,0 1.67,1.67 0 0 0 -0.5,0 v 0 0.19 a 1.72,1.72 0 0 0 -0.57,0.41 c -5.35,5.91 -25.67,25 -48,2.24 a 1.59,1.59 0 0 0 -0.32,-0.26 V 2.29 a 2.23,2.23 0 0 0 -0.5,0.07 2.08,2.08 0 0 0 -0.5,-0.07 v 0.29 a 1.86,1.86 0 0 0 -0.31,0.26 c -22.3,22.75 -42.62,3.67 -48,-2.24 a 1.85,1.85 0 0 0 -0.69,-0.47 V 0 a 2.14,2.14 0 0 0 -0.44,0 2.17,2.17 0 0 0 -0.44,0 v 0.13 a 1.81,1.81 0 0 0 -0.7,0.47 c -5.35,5.91 -25.67,25 -48,2.24 a 1.92,1.92 0 0 0 -0.32,-0.26 V 2.29 a 2.08,2.08 0 0 0 -0.5,0.07 2.15,2.15 0 0 0 -0.5,-0.07 v 0.29 a 1.92,1.92 0 0 0 -0.32,0.26 c -22.29,22.75 -42.62,3.67 -48,-2.24 a 1.63,1.63 0 0 0 -0.57,-0.41 V 0 a 6.26,6.26 0 0 1 -1,0 v 0 0.19 a 1.76,1.76 0 0 0 -0.58,0.41 c -5.35,5.91 -25.67,25 -48,2.24 a 1.92,1.92 0 0 0 -0.32,-0.26 V 2.29 a 2.08,2.08 0 0 0 -0.5,0.07 2.15,2.15 0 0 0 -0.5,-0.07 v 0.29 a 1.92,1.92 0 0 0 -0.32,0.26 c -22.29,22.75 -42.61,3.67 -48,-2.24 a 1.58,1.58 0 0 0 -0.52,-0.38 V 0 a 1.91,1.91 0 0 0 -0.53,0 1.87,1.87 0 0 0 -0.53,0 v 0.22 a 1.55,1.55 0 0 0 -0.51,0.38 c -5.35,5.91 -25.68,25 -48,2.24 a 1.92,1.92 0 0 0 -0.32,-0.26 V 2.29 a 2.23,2.23 0 0 0 -0.5,0.07 2.08,2.08 0 0 0 -0.5,-0.07 v 0.29 a 1.86,1.86 0 0 0 -0.31,0.26 c -22.3,22.75 -42.62,3.67 -48,-2.24 a 1.76,1.76 0 0 0 -0.58,-0.41 V 0 a 1.69,1.69 0 0 0 -0.5,0 1.67,1.67 0 0 0 -0.5,0 v 0 0.19 a 1.72,1.72 0 0 0 -0.57,0.41 c -5.35,5.91 -25.67,25 -48,2.24 a 1.59,1.59 0 0 0 -0.32,-0.26 V 2.29 a 2.23,2.23 0 0 0 -0.5,0.07 2.08,2.08 0 0 0 -0.5,-0.07 v 0.29 a 1.86,1.86 0 0 0 -0.31,0.26 c -22.3,22.75 -42.62,3.67 -48,-2.24 a 1.83,1.83 0 0 0 -0.57,-0.41 V 0 a 1.67,1.67 0 0 0 -0.5,0 1.69,1.69 0 0 0 -0.5,0 v 0.19 a 1.76,1.76 0 0 0 -0.58,0.41 c -5.35,5.91 -25.67,25 -48,2.24 a 1.86,1.86 0 0 0 -0.31,-0.26 V 2.29 a 2.08,2.08 0 0 0 -0.5,0.07 2.23,2.23 0 0 0 -0.5,-0.07 v 0.29 a 1.92,1.92 0 0 0 -0.32,0.26 c -22.29,22.75 -42.62,3.67 -48,-2.24 a 1.72,1.72 0 0 0 -0.57,-0.41 V 0 a 1.67,1.67 0 0 0 -0.5,0 1.69,1.69 0 0 0 -0.5,0 v 0 0.19 a 1.76,1.76 0 0 0 -0.58,0.41 c -5.35,5.91 -25.67,25 -48,2.24 a 1.86,1.86 0 0 0 -0.31,-0.26 V 2.29 a 2.08,2.08 0 0 0 -0.5,0.07 2.23,2.23 0 0 0 -0.5,-0.07 v 0.29 a 1.92,1.92 0 0 0 -0.32,0.26 c -22.29,22.75 -42.62,3.67 -48,-2.24 A 1.63,1.63 0 0 0 2396.1,0.19 V 0 a 1.67,1.67 0 0 0 -0.5,0 1.69,1.69 0 0 0 -0.5,0 v 0.19 a 1.76,1.76 0 0 0 -0.58,0.41 c -5.35,5.91 -25.67,25 -48,2.24 A 1.92,1.92 0 0 0 2346.2,2.58 V 2.29 a 2.08,2.08 0 0 0 -0.5,0.07 2.15,2.15 0 0 0 -0.5,-0.07 v 0.29 a 1.92,1.92 0 0 0 -0.32,0.26 c -22.29,22.75 -42.62,3.67 -48,-2.24 a 1.63,1.63 0 0 0 -0.57,-0.41 V 0 a 6.26,6.26 0 0 1 -1,0 v 0 0.19 a 1.76,1.76 0 0 0 -0.58,0.41 c -5.35,5.91 -25.67,25 -48,2.24 a 1.92,1.92 0 0 0 -0.32,-0.26 V 2.29 a 2.11,2.11 0 0 0 -0.35,0 2,2 0 0 0 -0.35,0 v 0 a 1.54,1.54 0 0 0 -0.3,0 v 0.29 a 1.92,1.92 0 0 0 -0.32,0.26 c -7.92,8.08 -15.58,10.88 -22.42,10.87 -12.27,-0.17 -21.82,-9.33 -25.24,-13.11 a 1.66,1.66 0 0 0 -0.51,-0.38 V 0 a 1.87,1.87 0 0 0 -0.53,0 1.64,1.64 0 0 0 -0.38,0 1.77,1.77 0 0 0 -0.46,0 v 0.4 l -0.21,0.19 c -5.35,5.91 -25.67,25 -48,2.24 a 1.92,1.92 0 0 0 -0.32,-0.26 V 2.29 a 2.08,2.08 0 0 0 -0.5,0.07 2.15,2.15 0 0 0 -0.5,-0.07 v 0.29 a 1.92,1.92 0 0 0 -0.32,0.26 c -22.29,22.75 -42.62,3.67 -48,-2.24 a 1.63,1.63 0 0 0 -0.57,-0.41 V 0 a 6.26,6.26 0 0 1 -1,0 v 0 0.19 a 1.76,1.76 0 0 0 -0.58,0.41 c -5.35,5.91 -25.67,25 -48,2.24 a 1.92,1.92 0 0 0 -0.32,-0.26 V 2.29 a 2.08,2.08 0 0 0 -0.5,0.07 2.15,2.15 0 0 0 -0.5,-0.07 v 0.29 a 1.92,1.92 0 0 0 -0.32,0.26 c -22.29,22.75 -42.61,3.67 -48,-2.24 a 1.76,1.76 0 0 0 -0.58,-0.41 V 0 a 6.26,6.26 0 0 1 -1,0 v 0.19 a 1.63,1.63 0 0 0 -0.57,0.41 c -5.35,5.91 -25.68,25 -48,2.24 a 1.92,1.92 0 0 0 -0.32,-0.26 V 2.29 a 2.15,2.15 0 0 0 -0.5,0.07 2.08,2.08 0 0 0 -0.5,-0.07 v 0.29 a 1.92,1.92 0 0 0 -0.32,0.26 c -22.29,22.75 -42.61,3.67 -48,-2.24 a 1.76,1.76 0 0 0 -0.58,-0.41 V 0 a 6.26,6.26 0 0 1 -1,0 v 0 0.19 a 1.63,1.63 0 0 0 -0.57,0.41 c -5.35,5.91 -25.68,25 -48,2.24 a 1.92,1.92 0 0 0 -0.32,-0.26 V 2.29 a 2.15,2.15 0 0 0 -0.5,0.07 2.08,2.08 0 0 0 -0.5,-0.07 v 0.29 a 2.44,2.44 0 0 0 -0.32,0.26 c -22.29,22.75 -42.61,3.67 -48,-2.24 a 1.76,1.76 0 0 0 -0.58,-0.41 V 0 a 1.69,1.69 0 0 0 -0.5,0 1.67,1.67 0 0 0 -0.5,0 v 0.19 a 1.63,1.63 0 0 0 -0.57,0.41 c -5.35,5.91 -25.68,25 -48,2.24 a 1.92,1.92 0 0 0 -0.32,-0.26 V 2.29 a 2.23,2.23 0 0 0 -0.5,0.07 2.08,2.08 0 0 0 -0.5,-0.07 v 0.29 a 1.86,1.86 0 0 0 -0.31,0.26 c -22.3,22.75 -42.62,3.67 -48,-2.24 a 1.76,1.76 0 0 0 -0.58,-0.41 V 0 a 1.69,1.69 0 0 0 -0.5,0 1.67,1.67 0 0 0 -0.5,0 v 0 0.19 a 1.72,1.72 0 0 0 -0.57,0.41 c -5.35,5.91 -25.67,25 -48,2.24 a 1.59,1.59 0 0 0 -0.32,-0.26 V 2.29 a 2.23,2.23 0 0 0 -0.5,0.07 2.08,2.08 0 0 0 -0.5,-0.07 v 0.29 a 1.86,1.86 0 0 0 -0.31,0.26 c -22.3,22.75 -42.62,3.67 -48,-2.24 a 1.85,1.85 0 0 0 -1.57,-0.59 v 0 A 1.86,1.86 0 0 0 1597,0.6 c -5.35,5.91 -25.67,25 -48,2.24 a 1.86,1.86 0 0 0 -0.31,-0.26 V 2.29 a 2.08,2.08 0 0 0 -0.5,0.07 2.23,2.23 0 0 0 -0.5,-0.07 v 0.29 a 1.92,1.92 0 0 0 -0.32,0.26 c -22.29,22.75 -42.62,3.67 -48,-2.24 A 1.72,1.72 0 0 0 1498.8,0.19 V 0 a 1.67,1.67 0 0 0 -0.5,0 1.69,1.69 0 0 0 -0.5,0 v 0 0.19 a 1.76,1.76 0 0 0 -0.58,0.41 c -5.35,5.91 -25.67,25 -48,2.24 a 1.86,1.86 0 0 0 -0.31,-0.26 V 2.29 a 2.08,2.08 0 0 0 -0.5,0.07 2.23,2.23 0 0 0 -0.5,-0.07 v 0.29 a 1.92,1.92 0 0 0 -0.32,0.26 c -22.29,22.75 -42.62,3.67 -48,-2.24 a 1.84,1.84 0 0 0 -1.57,-0.59 v 0 a 1.86,1.86 0 0 0 -1.58,0.59 c -5.35,5.91 -25.67,25 -48,2.24 a 1.92,1.92 0 0 0 -0.32,-0.26 V 2.29 a 2.08,2.08 0 0 0 -0.5,0.07 2.15,2.15 0 0 0 -0.5,-0.07 v 0.29 a 1.92,1.92 0 0 0 -0.32,0.26 c -22.29,22.75 -42.62,3.67 -48,-2.24 a 1.63,1.63 0 0 0 -0.57,-0.41 V 0 a 6.26,6.26 0 0 1 -1,0 v 0 0.19 a 1.76,1.76 0 0 0 -0.58,0.41 c -5.35,5.91 -25.67,25 -48,2.24 a 1.92,1.92 0 0 0 -0.32,-0.26 V 2.29 a 2.08,2.08 0 0 0 -0.5,0.07 2.15,2.15 0 0 0 -0.5,-0.07 v 0.29 a 1.92,1.92 0 0 0 -0.32,0.26 c -22.29,22.75 -42.61,3.67 -48,-2.24 a 1.86,1.86 0 0 0 -1.58,-0.59 v 0 a 1.83,1.83 0 0 0 -1.57,0.59 c -5.35,5.91 -25.68,25 -48,2.24 a 1.92,1.92 0 0 0 -0.32,-0.26 V 2.29 a 2.15,2.15 0 0 0 -0.5,0.07 2.08,2.08 0 0 0 -0.5,-0.07 v 0.29 a 1.92,1.92 0 0 0 -0.32,0.26 c -22.29,22.75 -42.61,3.67 -48,-2.24 a 1.76,1.76 0 0 0 -0.58,-0.41 V 0 a 6.26,6.26 0 0 1 -1,0 v 0 0.19 a 1.63,1.63 0 0 0 -0.57,0.41 c -5.35,5.91 -25.68,25 -48,2.24 a 1.92,1.92 0 0 0 -0.32,-0.26 V 2.29 a 2.15,2.15 0 0 0 -0.5,0.07 2.08,2.08 0 0 0 -0.5,-0.07 v 0.29 a 2.44,2.44 0 0 0 -0.32,0.26 c -22.29,22.75 -42.61,3.67 -48,-2.24 A 1.76,1.76 0 0 0 997.85,0.19 V 0 a 1.69,1.69 0 0 0 -0.5,0 1.67,1.67 0 0 0 -0.5,0 v 0.19 a 1.63,1.63 0 0 0 -0.57,0.41 c -5.35,5.91 -25.68,25 -48,2.24 A 1.92,1.92 0 0 0 947.96,2.58 V 2.29 a 2.23,2.23 0 0 0 -0.5,0.07 2.08,2.08 0 0 0 -0.5,-0.07 v 0.29 a 1.86,1.86 0 0 0 -0.31,0.26 c -22.3,22.75 -42.62,3.67 -48,-2.24 A 1.76,1.76 0 0 0 898.07,0.19 V 0 a 1.69,1.69 0 0 0 -0.5,0 1.67,1.67 0 0 0 -0.5,0 V 0 0.19 A 1.72,1.72 0 0 0 897,0.6 c -5.35,5.91 -25.67,25 -48,2.24 A 1.59,1.59 0 0 0 848.68,2.58 V 2.29 a 2.23,2.23 0 0 0 -0.5,0.07 2.08,2.08 0 0 0 -0.5,-0.07 v 0.29 a 1.86,1.86 0 0 0 -0.31,0.26 c -22.3,22.75 -42.62,3.67 -48,-2.24 A 1.85,1.85 0 0 0 798.68,0.13 V 0 a 2.14,2.14 0 0 0 -0.44,0 2.17,2.17 0 0 0 -0.44,0 v 0.13 a 1.81,1.81 0 0 0 -0.7,0.47 c -5.35,5.91 -25.67,25 -48,2.24 A 1.92,1.92 0 0 0 748.78,2.58 V 2.29 a 2.08,2.08 0 0 0 -0.5,0.07 2.15,2.15 0 0 0 -0.5,-0.07 v 0.29 a 1.92,1.92 0 0 0 -0.32,0.26 c -22.29,22.75 -42.62,3.67 -48,-2.24 A 1.63,1.63 0 0 0 699,0.19 V 0 a 6.26,6.26 0 0 1 -1,0 v 0 0.19 a 1.76,1.76 0 0 0 -0.58,0.41 c -5.35,5.91 -25.67,25 -48,2.24 A 1.92,1.92 0 0 0 649.1,2.58 V 2.29 a 2.08,2.08 0 0 0 -0.5,0.07 2.15,2.15 0 0 0 -0.5,-0.07 v 0.29 a 1.92,1.92 0 0 0 -0.32,0.26 c -22.29,22.75 -42.61,3.67 -48,-2.24 A 1.58,1.58 0 0 0 599.26,0.22 V 0 a 1.91,1.91 0 0 0 -0.53,0 1.87,1.87 0 0 0 -0.53,0 v 0.22 a 1.55,1.55 0 0 0 -0.51,0.38 c -5.35,5.91 -25.68,25 -48,2.24 A 1.92,1.92 0 0 0 549.37,2.58 V 2.29 a 2.23,2.23 0 0 0 -0.5,0.07 2.08,2.08 0 0 0 -0.5,-0.07 v 0.29 a 1.86,1.86 0 0 0 -0.31,0.26 c -22.3,22.75 -42.62,3.67 -48,-2.24 A 1.76,1.76 0 0 0 499.48,0.19 V 0 a 1.69,1.69 0 0 0 -0.5,0 1.67,1.67 0 0 0 -0.5,0 V 0 0.19 A 1.72,1.72 0 0 0 498,0.6 c -5.35,5.91 -25.68,25 -48,2.24 A 1.59,1.59 0 0 0 449.68,2.58 V 2.29 a 2.23,2.23 0 0 0 -0.5,0.07 2.08,2.08 0 0 0 -0.5,-0.07 v 0.29 a 1.86,1.86 0 0 0 -0.31,0.26 c -22.3,22.75 -42.62,3.67 -48,-2.24 A 1.83,1.83 0 0 0 399.8,0.19 V 0 a 1.67,1.67 0 0 0 -0.5,0 1.69,1.69 0 0 0 -0.5,0 v 0.19 a 1.76,1.76 0 0 0 -0.58,0.41 c -5.35,5.91 -25.67,25 -48,2.24 A 1.86,1.86 0 0 0 349.91,2.58 V 2.29 a 2.08,2.08 0 0 0 -0.5,0.07 2.23,2.23 0 0 0 -0.5,-0.07 v 0.29 a 1.59,1.59 0 0 0 -0.32,0.26 c -22.3,22.75 -42.62,3.67 -48,-2.24 A 1.72,1.72 0 0 0 300.02,0.19 V 0 a 1.67,1.67 0 0 0 -0.5,0 1.69,1.69 0 0 0 -0.5,0 v 0 0.19 a 1.76,1.76 0 0 0 -0.58,0.41 c -5.35,5.91 -25.67,25 -48,2.24 A 1.86,1.86 0 0 0 250.13,2.58 V 2.29 a 2.08,2.08 0 0 0 -0.5,0.07 2.23,2.23 0 0 0 -0.5,-0.07 v 0.29 a 1.92,1.92 0 0 0 -0.32,0.26 C 226.69,25.59 206.36,6.51 201,0.6 A 1.63,1.63 0 0 0 200.43,0.19 V 0 a 1.67,1.67 0 0 0 -0.5,0 1.69,1.69 0 0 0 -0.5,0 v 0.19 a 1.76,1.76 0 0 0 -0.58,0.41 c -5.35,5.91 -25.67,25 -48,2.24 A 1.92,1.92 0 0 0 150.53,2.58 V 2.29 a 2.08,2.08 0 0 0 -0.5,0.07 2.15,2.15 0 0 0 -0.5,-0.07 v 0.29 a 1.92,1.92 0 0 0 -0.32,0.26 C 127,25.59 106.64,6.51 101.29,0.6 A 1.63,1.63 0 0 0 100.72,0.19 V 0 a 6.26,6.26 0 0 1 -1,0 V 0 0.19 A 1.76,1.76 0 0 0 99.14,0.6 c -5.35,5.91 -25.67,25 -48,2.24 A 1.92,1.92 0 0 0 50.82,2.58 V 2.29 a 2.08,2.08 0 0 0 -0.5,0.07 2.15,2.15 0 0 0 -0.5,-0.07 V 2.58 A 1.92,1.92 0 0 0 49.5,2.84 C 27.25,25.59 6.93,6.51 1.58,0.6 A 1.86,1.86 0 0 0 0,0 v 159.4 h 4443.16 l 0.65,-112 V 2.34 Z"
         id="path4597"
         inkscape:connector-curvature="0"
         style="fill:#15566d" />
    </g>
  </g>
</svg>
