<svg xmlns="http://www.w3.org/2000/svg" viewBox="0 0 2221.87 216.41"><defs><style>.cls-1{fill:#187b9e;}</style></defs><title>Asset 13waves</title><g id="Layer_2" data-name="Layer 2"><g id="Layer_1-2" data-name="Layer 1"><path class="cls-1" d="M24.79,216.41H2221.23l.64-169V2.34l-.14,0a2.23,2.23,0,0,0-.5-.07v.29a1.92,1.92,0,0,0-.32.26c-22.29,22.75-42.62,3.67-48-2.24a1.55,1.55,0,0,0-.51-.38V0a4.7,4.7,0,0,1-1.06,0V.22a1.55,1.55,0,0,0-.51.38c-5.35,5.91-25.68,25-48,2.24a1.92,1.92,0,0,0-.32-.26V2.29a2.15,2.15,0,0,0-.5.07,2.08,2.08,0,0,0-.5-.07v.29a1.92,1.92,0,0,0-.32.26c-22.29,22.75-42.61,3.67-48-2.24a1.62,1.62,0,0,0-.58-.41V0a6.26,6.26,0,0,1-1,0h0V.19a1.63,1.63,0,0,0-.57.41c-5.35,5.91-25.68,25-48,2.24a1.92,1.92,0,0,0-.32-.26V2.29a2.15,2.15,0,0,0-.5.07,2.08,2.08,0,0,0-.5-.07v.29a1.86,1.86,0,0,0-.31.26c-22.3,22.75-42.62,3.67-48-2.24a1.62,1.62,0,0,0-.58-.41V0a1.69,1.69,0,0,0-.5,0,1.67,1.67,0,0,0-.5,0V.19a1.63,1.63,0,0,0-.57.41c-5.35,5.91-25.68,25-48,2.24a1.92,1.92,0,0,0-.32-.26V2.29a2.23,2.23,0,0,0-.5.07,2.08,2.08,0,0,0-.5-.07v.29a1.86,1.86,0,0,0-.31.26c-22.3,22.75-42.62,3.67-48-2.24a1.62,1.62,0,0,0-.58-.41V0a1.69,1.69,0,0,0-.5,0,1.67,1.67,0,0,0-.5,0h0V.19a1.72,1.72,0,0,0-.57.41c-5.35,5.91-25.67,25-48,2.24a1.59,1.59,0,0,0-.32-.26V2.29a2.23,2.23,0,0,0-.5.07,2.08,2.08,0,0,0-.5-.07v.29a1.86,1.86,0,0,0-.31.26c-22.3,22.75-42.62,3.67-48-2.24a1.59,1.59,0,0,0-.57-.41V0a1.67,1.67,0,0,0-.5,0,1.69,1.69,0,0,0-.5,0V.19a1.76,1.76,0,0,0-.58.41c-5.35,5.91-25.67,25-48,2.24a1.86,1.86,0,0,0-.31-.26V2.29a2.08,2.08,0,0,0-.5.07,2.23,2.23,0,0,0-.5-.07v.29a1.92,1.92,0,0,0-.32.26c-22.29,22.75-42.62,3.67-48-2.24a1.59,1.59,0,0,0-.57-.41V0a1.67,1.67,0,0,0-.5,0,1.69,1.69,0,0,0-.5,0h0V.19a1.76,1.76,0,0,0-.58.41c-5.35,5.91-25.67,25-48,2.24a1.86,1.86,0,0,0-.31-.26V2.29a2.08,2.08,0,0,0-.5.07,2.23,2.23,0,0,0-.5-.07v.29a1.92,1.92,0,0,0-.32.26c-22.29,22.75-42.62,3.67-48-2.24a1.84,1.84,0,0,0-1.57-.59h0a1.86,1.86,0,0,0-1.58.59c-5.35,5.91-25.67,25-48,2.24a1.92,1.92,0,0,0-.32-.26V2.29a2.08,2.08,0,0,0-.5.07,2.15,2.15,0,0,0-.5-.07v.29a1.92,1.92,0,0,0-.32.26c-22.29,22.75-42.62,3.67-48-2.24a1.51,1.51,0,0,0-.57-.41V0a6.26,6.26,0,0,1-1,0h0V.19a1.76,1.76,0,0,0-.58.41c-5.35,5.91-25.67,25-48,2.24a1.92,1.92,0,0,0-.32-.26V2.29a2.08,2.08,0,0,0-.5.07,2.15,2.15,0,0,0-.5-.07v.29a1.92,1.92,0,0,0-.32.26c-22.29,22.75-42.61,3.67-48-2.24a1.86,1.86,0,0,0-1.58-.59h0a1.83,1.83,0,0,0-1.57.59c-5.35,5.91-25.68,25-48,2.24a1.92,1.92,0,0,0-.32-.26V2.29a2.15,2.15,0,0,0-.5.07,2.08,2.08,0,0,0-.5-.07v.29a1.92,1.92,0,0,0-.32.26c-22.29,22.75-42.61,3.67-48-2.24a1.62,1.62,0,0,0-.58-.41V0a1.69,1.69,0,0,0-.5,0,1.67,1.67,0,0,0-.5,0h0V.19a1.63,1.63,0,0,0-.57.41c-5.35,5.91-25.68,25-48,2.24a1.92,1.92,0,0,0-.32-.26V2.29a2.15,2.15,0,0,0-.5.07,2.08,2.08,0,0,0-.5-.07v.29a1.86,1.86,0,0,0-.31.26c-22.3,22.75-42.62,3.67-48-2.24a1.86,1.86,0,0,0-1.58-.59h0a1.85,1.85,0,0,0-1.57.59c-5.35,5.91-25.68,25-48,2.24a1.92,1.92,0,0,0-.32-.26V2.29a2.23,2.23,0,0,0-.5.07,2.08,2.08,0,0,0-.5-.07v.29a1.86,1.86,0,0,0-.31.26c-22.3,22.75-42.62,3.67-48-2.24a1.62,1.62,0,0,0-.58-.41V0a1.69,1.69,0,0,0-.5,0,1.67,1.67,0,0,0-.5,0h0V.19a1.72,1.72,0,0,0-.57.41c-5.35,5.91-25.67,25-48,2.24a1.59,1.59,0,0,0-.32-.26V2.29a2.23,2.23,0,0,0-.5.07,2.08,2.08,0,0,0-.5-.07v.29a1.86,1.86,0,0,0-.31.26c-22.3,22.75-42.62,3.67-48-2.24a1.59,1.59,0,0,0-.57-.41V0a1.67,1.67,0,0,0-.5,0,1.69,1.69,0,0,0-.5,0V.19a1.76,1.76,0,0,0-.58.41c-5.35,5.91-25.67,25-48,2.24a1.86,1.86,0,0,0-.31-.26V2.29a2.08,2.08,0,0,0-.5.07,2.23,2.23,0,0,0-.5-.07v.29a1.92,1.92,0,0,0-.32.26C899.34,25.59,879,6.51,873.66.6a1.59,1.59,0,0,0-.57-.41V0a1.67,1.67,0,0,0-.5,0,1.69,1.69,0,0,0-.5,0h0V.19a1.76,1.76,0,0,0-.58.41c-5.35,5.91-25.67,25-48,2.24a1.86,1.86,0,0,0-.31-.26V2.29a2.08,2.08,0,0,0-.5.07,2.23,2.23,0,0,0-.5-.07v.29a1.92,1.92,0,0,0-.32.26c-22.29,22.75-42.62,3.67-48-2.24a1.77,1.77,0,0,0-.69-.47V0a9.68,9.68,0,0,1-.88,0V.13a1.81,1.81,0,0,0-.7.47c-5.35,5.91-25.67,25-48,2.24a1.92,1.92,0,0,0-.32-.26V2.29a2.15,2.15,0,0,0-.5.07,2.08,2.08,0,0,0-.5-.07v.29a1.92,1.92,0,0,0-.32.26c-22.29,22.75-42.61,3.67-48-2.24a1.62,1.62,0,0,0-.58-.41V0a6.26,6.26,0,0,1-1,0h0V.19A1.63,1.63,0,0,0,672,.6c-5.35,5.91-25.68,25-48,2.24a1.92,1.92,0,0,0-.32-.26V2.29a2.15,2.15,0,0,0-.5.07,2.08,2.08,0,0,0-.5-.07v.29a1.92,1.92,0,0,0-.32.26c-22.29,22.75-42.61,3.67-48-2.24a1.66,1.66,0,0,0-.51-.38V0a2,2,0,0,0-.54,0,1.87,1.87,0,0,0-.53,0V.22a1.66,1.66,0,0,0-.51.38c-5.35,5.91-25.67,25-48,2.24a1.86,1.86,0,0,0-.31-.26V2.29a2.08,2.08,0,0,0-.5.07,2.23,2.23,0,0,0-.5-.07v.29a1.92,1.92,0,0,0-.32.26c-22.29,22.75-42.62,3.67-48-2.24a1.59,1.59,0,0,0-.57-.41V0a1.67,1.67,0,0,0-.5,0,1.69,1.69,0,0,0-.5,0h0V.19a1.76,1.76,0,0,0-.58.41c-5.35,5.91-25.67,25-48,2.24a1.86,1.86,0,0,0-.31-.26V2.29a2.08,2.08,0,0,0-.5.07,2.23,2.23,0,0,0-.5-.07v.29a1.92,1.92,0,0,0-.32.26C400.69,25.59,380.36,6.51,375,.6a1.51,1.51,0,0,0-.57-.41V0a1.67,1.67,0,0,0-.5,0,1.69,1.69,0,0,0-.5,0V.19a1.76,1.76,0,0,0-.58.41c-5.35,5.91-25.67,25-48,2.24a1.92,1.92,0,0,0-.32-.26V2.29a2.08,2.08,0,0,0-.5.07,2.15,2.15,0,0,0-.5-.07v.29a1.92,1.92,0,0,0-.32.26C301,25.59,280.64,6.51,275.29.6a1.51,1.51,0,0,0-.57-.41V0a6.26,6.26,0,0,1-1,0h0V.19a1.76,1.76,0,0,0-.58.41c-5.35,5.91-25.67,25-48,2.24a1.92,1.92,0,0,0-.32-.26V2.29a2.08,2.08,0,0,0-.5.07,2.15,2.15,0,0,0-.5-.07v.29a1.92,1.92,0,0,0-.32.26c-22.29,22.75-42.61,3.67-48-2.24A1.62,1.62,0,0,0,175,.19V0a6.26,6.26,0,0,1-1,0V.19a1.76,1.76,0,0,0-.58.41c-5.35,5.91-25.67,25-48,2.24a1.92,1.92,0,0,0-.32-.26V2.29a2.15,2.15,0,0,0-.5.07,2.08,2.08,0,0,0-.5-.07v.29a1.92,1.92,0,0,0-.32.26C101.53,25.59,81.21,6.51,75.86.6a1.62,1.62,0,0,0-.58-.41V0a6.26,6.26,0,0,1-1,0h0V.19a1.63,1.63,0,0,0-.57.41c-5.35,5.91-25.68,25-48,2.24a2.21,2.21,0,0,0-.3-.25V2.34h0v0a1.12,1.12,0,0,0-.31,0,1.19,1.19,0,0,0-.32,0v0a2.2,2.2,0,0,0-.37,0v.29a1.92,1.92,0,0,0-.32.26C16.21,10.9,8.56,13.7,1.73,13.71c-.58,0-1.16-.06-1.73-.1v202.8Z"/></g></g></svg>